M48
; DRILL file {KiCad (5.1.6)-1} date 10/18/20 00:04:45
; FORMAT={-:-/ absolute / inch / decimal}
; #@! TF.CreationDate,2020-10-18T00:04:45+09:00
; #@! TF.GenerationSoftware,Kicad,Pcbnew,(5.1.6)-1
; #@! TF.FileFunction,Plated,1,4,PTH
FMAT,2
INCH
T1C0.0118
T2C0.0157
T3C0.0197
T4C0.0236
T5C0.0276
T6C0.0295
T7C0.0354
%
G90
G05
T1
X4.0465Y-5.6413
X4.1508Y-5.2134
X4.1913Y-5.3524
X4.2012Y-5.602
X4.2335Y-5.6138
X4.239Y-4.5295
X4.2488Y-5.3524
X4.2713Y-4.6976
X4.2815Y-5.3449
X4.298Y-4.5248
X4.3433Y-5.4102
X4.3535Y-5.4441
X4.3539Y-5.213
X4.3579Y-4.8232
X4.374Y-5.3673
X4.3807Y-5.1681
X4.4012Y-4.726
X4.4201Y-5.1661
X4.4677Y-4.6996
X4.5087Y-5.5843
X4.5713Y-4.5756
X4.576Y-4.3823
X4.6244Y-4.9976
X4.6555Y-5.3012
X4.661Y-6.0933
X4.6642Y-5.9622
X4.6646Y-5.9933
X4.6972Y-5.9614
X4.698Y-5.9933
X4.7067Y-5.426
X4.7193Y-4.9984
X4.7303Y-5.0256
X4.7303Y-5.4516
X4.7319Y-4.6787
X4.7331Y-4.4114
X4.7346Y-4.5819
X4.7744Y-4.5031
X4.7744Y-5.3382
X4.7835Y-4.8524
X4.7972Y-4.4008
X4.822Y-4.8465
X4.8224Y-4.763
X4.8362Y-4.4
X4.8417Y-4.2445
X4.8583Y-4.4319
X4.8657Y-4.5264
X4.8969Y-5.1836
X4.902Y-4.265
X4.9067Y-4.3882
X4.9091Y-4.6752
X4.9102Y-4.85
X4.9165Y-5.0054
X4.9378Y-5.0276
X4.9441Y-4.6303
X4.9449Y-4.6618
X4.9461Y-4.524
X4.9697Y-4.8362
X4.9821Y-4.7537
X4.9898Y-4.7846
X5.0433Y-4.7854
X5.0433Y-4.8142
X5.0488Y-4.8571
X5.0831Y-4.6728
X5.0965Y-4.4319
X5.1063Y-4.3976
X5.1067Y-5.5803
X5.1185Y-4.6319
X5.1252Y-4.2547
X5.1307Y-5.1205
X5.1457Y-4.4177
X5.15Y-4.7063
X5.1583Y-4.2362
X5.1848Y-5.1199
X5.1854Y-5.2213
X5.1862Y-4.4146
X5.1878Y-5.2594
X5.2061Y-4.8368
X5.2091Y-4.8654
X5.2122Y-4.2236
X5.2217Y-5.1933
X5.2348Y-5.1144
X5.2406Y-5.3673
X5.2559Y-5.4508
X5.2878Y-5.1996
X5.2917Y-5.5291
X5.3Y-5.2421
X5.3063Y-5.1575
X5.3268Y-4.898
X5.3354Y-5.5323
X5.339Y-4.4461
X5.3551Y-4.9535
X5.3559Y-4.987
X5.3598Y-4.5421
X5.3728Y-5.0902
X5.3736Y-4.9272
X5.374Y-5.576
X5.3969Y-4.8989
X5.4472Y-5.5232
X5.4496Y-4.3902
X5.4626Y-5.7752
X5.4661Y-5.826
X5.4669Y-5.1957
X5.4744Y-5.2953
X5.4882Y-5.2457
X5.4894Y-5.217
X5.4949Y-5.7126
X5.5047Y-5.0594
X5.5051Y-4.9744
X5.5098Y-5.4921
X5.513Y-4.3795
X5.5205Y-4.2744
X5.5406Y-4.7957
X5.5457Y-5.2665
X5.5587Y-5.3165
X5.5839Y-5.061
X5.5843Y-4.972
X5.6248Y-5.4264
X5.6634Y-5.2642
X5.672Y-5.9629
X5.6752Y-5.1705
X5.7232Y-4.9539
X5.7583Y-5.6358
X5.7594Y-5.2417
X5.7598Y-5.1339
X5.7709Y-5.9618
X5.7717Y-4.7323
X5.8031Y-4.6988
X5.8067Y-4.6622
X5.8504Y-4.7035
X5.8917Y-4.7957
X5.8945Y-4.7154
X5.9004Y-4.9677
X5.9008Y-5.0465
X5.9043Y-5.6882
X5.9433Y-4.6736
T2
X4.4717Y-5.6138
X4.5161Y-5.8594
X4.5795Y-5.6138
X4.5894Y-5.9598
X5.5067Y-5.9937
T3
X4.1102Y-4.9508
T4
X4.0189Y-5.1524
X4.7709Y-5.1528
T5
X5.6988Y-5.3894
X5.8988Y-5.489
X5.7988Y-5.4894
X5.7988Y-5.3894
X5.6988Y-5.4894
X5.8988Y-5.3894
T6
X5.2272Y-5.9937
X5.2272Y-6.0724
T7
X5.1819Y-5.4921
X5.0819Y-5.4921
X4.9819Y-5.4921
X4.8819Y-5.4921
T4
G00X5.5512Y-5.8563
M15
G01X5.5512Y-5.8957
M16
G05
G00X5.5512Y-6.0575
M15
G01X5.5512Y-6.1165
M16
G05
G00X5.8913Y-5.8563
M15
G01X5.8913Y-5.8957
M16
G05
G00X5.8913Y-6.0575
M15
G01X5.8913Y-6.1165
M16
G05
T0
M30
