G04 #@! TF.GenerationSoftware,KiCad,Pcbnew,(5.1.6)-1*
G04 #@! TF.CreationDate,2020-10-17T23:58:27+09:00*
G04 #@! TF.ProjectId,guardianCam_Wifi,67756172-6469-4616-9e43-616d5f576966,rev?*
G04 #@! TF.SameCoordinates,Original*
G04 #@! TF.FileFunction,Soldermask,Bot*
G04 #@! TF.FilePolarity,Negative*
%FSLAX46Y46*%
G04 Gerber Fmt 4.6, Leading zero omitted, Abs format (unit mm)*
G04 Created by KiCad (PCBNEW (5.1.6)-1) date 2020-10-17 23:58:27*
%MOMM*%
%LPD*%
G01*
G04 APERTURE LIST*
%ADD10C,0.912000*%
%ADD11R,0.862000X1.903400*%
%ADD12R,1.598600X1.598600*%
%ADD13R,0.938200X1.649400*%
%ADD14R,1.649400X1.141400*%
%ADD15R,1.141400X1.649400*%
%ADD16O,1.200000X2.300000*%
%ADD17O,1.400000X2.700000*%
%ADD18C,1.600000*%
%ADD19C,0.600000*%
%ADD20R,0.700000X0.622000*%
%ADD21O,1.850000X1.300000*%
G04 APERTURE END LIST*
D10*
X138836000Y-108560000D02*
G75*
G03*
X138836000Y-108560000I-456000J0D01*
G01*
G36*
G01*
X132735000Y-143241738D02*
X132735000Y-144198262D01*
G75*
G02*
X132463262Y-144470000I-271738J0D01*
G01*
X131756738Y-144470000D01*
G75*
G02*
X131485000Y-144198262I0J271738D01*
G01*
X131485000Y-143241738D01*
G75*
G02*
X131756738Y-142970000I271738J0D01*
G01*
X132463262Y-142970000D01*
G75*
G02*
X132735000Y-143241738I0J-271738D01*
G01*
G37*
G36*
G01*
X134785000Y-143241738D02*
X134785000Y-144198262D01*
G75*
G02*
X134513262Y-144470000I-271738J0D01*
G01*
X133806738Y-144470000D01*
G75*
G02*
X133535000Y-144198262I0J271738D01*
G01*
X133535000Y-143241738D01*
G75*
G02*
X133806738Y-142970000I271738J0D01*
G01*
X134513262Y-142970000D01*
G75*
G02*
X134785000Y-143241738I0J-271738D01*
G01*
G37*
G36*
G01*
X139785000Y-142038262D02*
X139785000Y-141081738D01*
G75*
G02*
X140056738Y-140810000I271738J0D01*
G01*
X140763262Y-140810000D01*
G75*
G02*
X141035000Y-141081738I0J-271738D01*
G01*
X141035000Y-142038262D01*
G75*
G02*
X140763262Y-142310000I-271738J0D01*
G01*
X140056738Y-142310000D01*
G75*
G02*
X139785000Y-142038262I0J271738D01*
G01*
G37*
G36*
G01*
X137735000Y-142038262D02*
X137735000Y-141081738D01*
G75*
G02*
X138006738Y-140810000I271738J0D01*
G01*
X138713262Y-140810000D01*
G75*
G02*
X138985000Y-141081738I0J-271738D01*
G01*
X138985000Y-142038262D01*
G75*
G02*
X138713262Y-142310000I-271738J0D01*
G01*
X138006738Y-142310000D01*
G75*
G02*
X137735000Y-142038262I0J271738D01*
G01*
G37*
G36*
G01*
X132720000Y-141281738D02*
X132720000Y-142238262D01*
G75*
G02*
X132448262Y-142510000I-271738J0D01*
G01*
X131741738Y-142510000D01*
G75*
G02*
X131470000Y-142238262I0J271738D01*
G01*
X131470000Y-141281738D01*
G75*
G02*
X131741738Y-141010000I271738J0D01*
G01*
X132448262Y-141010000D01*
G75*
G02*
X132720000Y-141281738I0J-271738D01*
G01*
G37*
G36*
G01*
X134770000Y-141281738D02*
X134770000Y-142238262D01*
G75*
G02*
X134498262Y-142510000I-271738J0D01*
G01*
X133791738Y-142510000D01*
G75*
G02*
X133520000Y-142238262I0J271738D01*
G01*
X133520000Y-141281738D01*
G75*
G02*
X133791738Y-141010000I271738J0D01*
G01*
X134498262Y-141010000D01*
G75*
G02*
X134770000Y-141281738I0J-271738D01*
G01*
G37*
D11*
X112889288Y-117700701D03*
X111789288Y-117700701D03*
X110689287Y-117700701D03*
X109589287Y-117700701D03*
X108489289Y-117700701D03*
X107389289Y-117700701D03*
X106289289Y-117700701D03*
X105189288Y-117700701D03*
D12*
X114365000Y-117548301D03*
X103115000Y-117548301D03*
D13*
X114695208Y-110723702D03*
X102784792Y-110073701D03*
D14*
X114339684Y-108969700D03*
D15*
X103185706Y-107648702D03*
D16*
X141000000Y-149250000D03*
X149640000Y-149250000D03*
D17*
X141000000Y-154610000D03*
X149640000Y-154610000D03*
D18*
X147290000Y-136890000D03*
X144750000Y-136890000D03*
X131620000Y-139500000D03*
X149830000Y-139420000D03*
X147290000Y-139430000D03*
X144750000Y-139430000D03*
X149830000Y-136890000D03*
X124000000Y-139500000D03*
X126540000Y-139500000D03*
X129080000Y-139500000D03*
G36*
G01*
X130250000Y-134180000D02*
X130600000Y-134180000D01*
G75*
G02*
X130775000Y-134355000I0J-175000D01*
G01*
X130775000Y-135705000D01*
G75*
G02*
X130600000Y-135880000I-175000J0D01*
G01*
X130250000Y-135880000D01*
G75*
G02*
X130075000Y-135705000I0J175000D01*
G01*
X130075000Y-134355000D01*
G75*
G02*
X130250000Y-134180000I175000J0D01*
G01*
G37*
G36*
G01*
X131520000Y-134180000D02*
X131870000Y-134180000D01*
G75*
G02*
X132045000Y-134355000I0J-175000D01*
G01*
X132045000Y-135705000D01*
G75*
G02*
X131870000Y-135880000I-175000J0D01*
G01*
X131520000Y-135880000D01*
G75*
G02*
X131345000Y-135705000I0J175000D01*
G01*
X131345000Y-134355000D01*
G75*
G02*
X131520000Y-134180000I175000J0D01*
G01*
G37*
G36*
G01*
X132790000Y-134180000D02*
X133140000Y-134180000D01*
G75*
G02*
X133315000Y-134355000I0J-175000D01*
G01*
X133315000Y-135705000D01*
G75*
G02*
X133140000Y-135880000I-175000J0D01*
G01*
X132790000Y-135880000D01*
G75*
G02*
X132615000Y-135705000I0J175000D01*
G01*
X132615000Y-134355000D01*
G75*
G02*
X132790000Y-134180000I175000J0D01*
G01*
G37*
G36*
G01*
X134060000Y-134180000D02*
X134410000Y-134180000D01*
G75*
G02*
X134585000Y-134355000I0J-175000D01*
G01*
X134585000Y-135705000D01*
G75*
G02*
X134410000Y-135880000I-175000J0D01*
G01*
X134060000Y-135880000D01*
G75*
G02*
X133885000Y-135705000I0J175000D01*
G01*
X133885000Y-134355000D01*
G75*
G02*
X134060000Y-134180000I175000J0D01*
G01*
G37*
G36*
G01*
X134060000Y-126980000D02*
X134410000Y-126980000D01*
G75*
G02*
X134585000Y-127155000I0J-175000D01*
G01*
X134585000Y-128505000D01*
G75*
G02*
X134410000Y-128680000I-175000J0D01*
G01*
X134060000Y-128680000D01*
G75*
G02*
X133885000Y-128505000I0J175000D01*
G01*
X133885000Y-127155000D01*
G75*
G02*
X134060000Y-126980000I175000J0D01*
G01*
G37*
G36*
G01*
X132790000Y-126980000D02*
X133140000Y-126980000D01*
G75*
G02*
X133315000Y-127155000I0J-175000D01*
G01*
X133315000Y-128505000D01*
G75*
G02*
X133140000Y-128680000I-175000J0D01*
G01*
X132790000Y-128680000D01*
G75*
G02*
X132615000Y-128505000I0J175000D01*
G01*
X132615000Y-127155000D01*
G75*
G02*
X132790000Y-126980000I175000J0D01*
G01*
G37*
G36*
G01*
X131520000Y-126980000D02*
X131870000Y-126980000D01*
G75*
G02*
X132045000Y-127155000I0J-175000D01*
G01*
X132045000Y-128505000D01*
G75*
G02*
X131870000Y-128680000I-175000J0D01*
G01*
X131520000Y-128680000D01*
G75*
G02*
X131345000Y-128505000I0J175000D01*
G01*
X131345000Y-127155000D01*
G75*
G02*
X131520000Y-126980000I175000J0D01*
G01*
G37*
G36*
G01*
X130250000Y-126980000D02*
X130600000Y-126980000D01*
G75*
G02*
X130775000Y-127155000I0J-175000D01*
G01*
X130775000Y-128505000D01*
G75*
G02*
X130600000Y-128680000I-175000J0D01*
G01*
X130250000Y-128680000D01*
G75*
G02*
X130075000Y-128505000I0J175000D01*
G01*
X130075000Y-127155000D01*
G75*
G02*
X130250000Y-126980000I175000J0D01*
G01*
G37*
G36*
G01*
X148678262Y-144065000D02*
X147721738Y-144065000D01*
G75*
G02*
X147450000Y-143793262I0J271738D01*
G01*
X147450000Y-143086738D01*
G75*
G02*
X147721738Y-142815000I271738J0D01*
G01*
X148678262Y-142815000D01*
G75*
G02*
X148950000Y-143086738I0J-271738D01*
G01*
X148950000Y-143793262D01*
G75*
G02*
X148678262Y-144065000I-271738J0D01*
G01*
G37*
G36*
G01*
X148678262Y-146115000D02*
X147721738Y-146115000D01*
G75*
G02*
X147450000Y-145843262I0J271738D01*
G01*
X147450000Y-145136738D01*
G75*
G02*
X147721738Y-144865000I271738J0D01*
G01*
X148678262Y-144865000D01*
G75*
G02*
X148950000Y-145136738I0J-271738D01*
G01*
X148950000Y-145843262D01*
G75*
G02*
X148678262Y-146115000I-271738J0D01*
G01*
G37*
G36*
G01*
X138685000Y-113098262D02*
X138685000Y-112141738D01*
G75*
G02*
X138956738Y-111870000I271738J0D01*
G01*
X139663262Y-111870000D01*
G75*
G02*
X139935000Y-112141738I0J-271738D01*
G01*
X139935000Y-113098262D01*
G75*
G02*
X139663262Y-113370000I-271738J0D01*
G01*
X138956738Y-113370000D01*
G75*
G02*
X138685000Y-113098262I0J271738D01*
G01*
G37*
G36*
G01*
X136635000Y-113098262D02*
X136635000Y-112141738D01*
G75*
G02*
X136906738Y-111870000I271738J0D01*
G01*
X137613262Y-111870000D01*
G75*
G02*
X137885000Y-112141738I0J-271738D01*
G01*
X137885000Y-113098262D01*
G75*
G02*
X137613262Y-113370000I-271738J0D01*
G01*
X136906738Y-113370000D01*
G75*
G02*
X136635000Y-113098262I0J271738D01*
G01*
G37*
G36*
G01*
X135055000Y-109298262D02*
X135055000Y-108341738D01*
G75*
G02*
X135326738Y-108070000I271738J0D01*
G01*
X136033262Y-108070000D01*
G75*
G02*
X136305000Y-108341738I0J-271738D01*
G01*
X136305000Y-109298262D01*
G75*
G02*
X136033262Y-109570000I-271738J0D01*
G01*
X135326738Y-109570000D01*
G75*
G02*
X135055000Y-109298262I0J271738D01*
G01*
G37*
G36*
G01*
X133005000Y-109298262D02*
X133005000Y-108341738D01*
G75*
G02*
X133276738Y-108070000I271738J0D01*
G01*
X133983262Y-108070000D01*
G75*
G02*
X134255000Y-108341738I0J-271738D01*
G01*
X134255000Y-109298262D01*
G75*
G02*
X133983262Y-109570000I-271738J0D01*
G01*
X133276738Y-109570000D01*
G75*
G02*
X133005000Y-109298262I0J271738D01*
G01*
G37*
D19*
X138380000Y-108560000D03*
D20*
X139280000Y-109812000D03*
X139280000Y-110634000D03*
X138380000Y-110634000D03*
X137480000Y-110634000D03*
X137480000Y-109812000D03*
G36*
G01*
X137705000Y-119811738D02*
X137705000Y-120768262D01*
G75*
G02*
X137433262Y-121040000I-271738J0D01*
G01*
X136726738Y-121040000D01*
G75*
G02*
X136455000Y-120768262I0J271738D01*
G01*
X136455000Y-119811738D01*
G75*
G02*
X136726738Y-119540000I271738J0D01*
G01*
X137433262Y-119540000D01*
G75*
G02*
X137705000Y-119811738I0J-271738D01*
G01*
G37*
G36*
G01*
X139755000Y-119811738D02*
X139755000Y-120768262D01*
G75*
G02*
X139483262Y-121040000I-271738J0D01*
G01*
X138776738Y-121040000D01*
G75*
G02*
X138505000Y-120768262I0J271738D01*
G01*
X138505000Y-119811738D01*
G75*
G02*
X138776738Y-119540000I271738J0D01*
G01*
X139483262Y-119540000D01*
G75*
G02*
X139755000Y-119811738I0J-271738D01*
G01*
G37*
G36*
G01*
X137725000Y-117851738D02*
X137725000Y-118808262D01*
G75*
G02*
X137453262Y-119080000I-271738J0D01*
G01*
X136746738Y-119080000D01*
G75*
G02*
X136475000Y-118808262I0J271738D01*
G01*
X136475000Y-117851738D01*
G75*
G02*
X136746738Y-117580000I271738J0D01*
G01*
X137453262Y-117580000D01*
G75*
G02*
X137725000Y-117851738I0J-271738D01*
G01*
G37*
G36*
G01*
X139775000Y-117851738D02*
X139775000Y-118808262D01*
G75*
G02*
X139503262Y-119080000I-271738J0D01*
G01*
X138796738Y-119080000D01*
G75*
G02*
X138525000Y-118808262I0J271738D01*
G01*
X138525000Y-117851738D01*
G75*
G02*
X138796738Y-117580000I271738J0D01*
G01*
X139503262Y-117580000D01*
G75*
G02*
X139775000Y-117851738I0J-271738D01*
G01*
G37*
G36*
G01*
X139678262Y-115030000D02*
X138721738Y-115030000D01*
G75*
G02*
X138450000Y-114758262I0J271738D01*
G01*
X138450000Y-114051738D01*
G75*
G02*
X138721738Y-113780000I271738J0D01*
G01*
X139678262Y-113780000D01*
G75*
G02*
X139950000Y-114051738I0J-271738D01*
G01*
X139950000Y-114758262D01*
G75*
G02*
X139678262Y-115030000I-271738J0D01*
G01*
G37*
G36*
G01*
X139678262Y-117080000D02*
X138721738Y-117080000D01*
G75*
G02*
X138450000Y-116808262I0J271738D01*
G01*
X138450000Y-116101738D01*
G75*
G02*
X138721738Y-115830000I271738J0D01*
G01*
X139678262Y-115830000D01*
G75*
G02*
X139950000Y-116101738I0J-271738D01*
G01*
X139950000Y-116808262D01*
G75*
G02*
X139678262Y-117080000I-271738J0D01*
G01*
G37*
G36*
G01*
X137578262Y-115025000D02*
X136621738Y-115025000D01*
G75*
G02*
X136350000Y-114753262I0J271738D01*
G01*
X136350000Y-114046738D01*
G75*
G02*
X136621738Y-113775000I271738J0D01*
G01*
X137578262Y-113775000D01*
G75*
G02*
X137850000Y-114046738I0J-271738D01*
G01*
X137850000Y-114753262D01*
G75*
G02*
X137578262Y-115025000I-271738J0D01*
G01*
G37*
G36*
G01*
X137578262Y-117075000D02*
X136621738Y-117075000D01*
G75*
G02*
X136350000Y-116803262I0J271738D01*
G01*
X136350000Y-116096738D01*
G75*
G02*
X136621738Y-115825000I271738J0D01*
G01*
X137578262Y-115825000D01*
G75*
G02*
X137850000Y-116096738I0J-271738D01*
G01*
X137850000Y-116803262D01*
G75*
G02*
X137578262Y-117075000I-271738J0D01*
G01*
G37*
G36*
G01*
X146690000Y-131918262D02*
X146690000Y-130961738D01*
G75*
G02*
X146961738Y-130690000I271738J0D01*
G01*
X147668262Y-130690000D01*
G75*
G02*
X147940000Y-130961738I0J-271738D01*
G01*
X147940000Y-131918262D01*
G75*
G02*
X147668262Y-132190000I-271738J0D01*
G01*
X146961738Y-132190000D01*
G75*
G02*
X146690000Y-131918262I0J271738D01*
G01*
G37*
G36*
G01*
X144640000Y-131918262D02*
X144640000Y-130961738D01*
G75*
G02*
X144911738Y-130690000I271738J0D01*
G01*
X145618262Y-130690000D01*
G75*
G02*
X145890000Y-130961738I0J-271738D01*
G01*
X145890000Y-131918262D01*
G75*
G02*
X145618262Y-132190000I-271738J0D01*
G01*
X144911738Y-132190000D01*
G75*
G02*
X144640000Y-131918262I0J271738D01*
G01*
G37*
G36*
G01*
X149998262Y-133295000D02*
X149041738Y-133295000D01*
G75*
G02*
X148770000Y-133023262I0J271738D01*
G01*
X148770000Y-132316738D01*
G75*
G02*
X149041738Y-132045000I271738J0D01*
G01*
X149998262Y-132045000D01*
G75*
G02*
X150270000Y-132316738I0J-271738D01*
G01*
X150270000Y-133023262D01*
G75*
G02*
X149998262Y-133295000I-271738J0D01*
G01*
G37*
G36*
G01*
X149998262Y-135345000D02*
X149041738Y-135345000D01*
G75*
G02*
X148770000Y-135073262I0J271738D01*
G01*
X148770000Y-134366738D01*
G75*
G02*
X149041738Y-134095000I271738J0D01*
G01*
X149998262Y-134095000D01*
G75*
G02*
X150270000Y-134366738I0J-271738D01*
G01*
X150270000Y-135073262D01*
G75*
G02*
X149998262Y-135345000I-271738J0D01*
G01*
G37*
G36*
G01*
X149231738Y-117970000D02*
X150188262Y-117970000D01*
G75*
G02*
X150460000Y-118241738I0J-271738D01*
G01*
X150460000Y-118948262D01*
G75*
G02*
X150188262Y-119220000I-271738J0D01*
G01*
X149231738Y-119220000D01*
G75*
G02*
X148960000Y-118948262I0J271738D01*
G01*
X148960000Y-118241738D01*
G75*
G02*
X149231738Y-117970000I271738J0D01*
G01*
G37*
G36*
G01*
X149231738Y-115920000D02*
X150188262Y-115920000D01*
G75*
G02*
X150460000Y-116191738I0J-271738D01*
G01*
X150460000Y-116898262D01*
G75*
G02*
X150188262Y-117170000I-271738J0D01*
G01*
X149231738Y-117170000D01*
G75*
G02*
X148960000Y-116898262I0J271738D01*
G01*
X148960000Y-116191738D01*
G75*
G02*
X149231738Y-115920000I271738J0D01*
G01*
G37*
G36*
G01*
X146835000Y-134988262D02*
X146835000Y-134031738D01*
G75*
G02*
X147106738Y-133760000I271738J0D01*
G01*
X147813262Y-133760000D01*
G75*
G02*
X148085000Y-134031738I0J-271738D01*
G01*
X148085000Y-134988262D01*
G75*
G02*
X147813262Y-135260000I-271738J0D01*
G01*
X147106738Y-135260000D01*
G75*
G02*
X146835000Y-134988262I0J271738D01*
G01*
G37*
G36*
G01*
X144785000Y-134988262D02*
X144785000Y-134031738D01*
G75*
G02*
X145056738Y-133760000I271738J0D01*
G01*
X145763262Y-133760000D01*
G75*
G02*
X146035000Y-134031738I0J-271738D01*
G01*
X146035000Y-134988262D01*
G75*
G02*
X145763262Y-135260000I-271738J0D01*
G01*
X145056738Y-135260000D01*
G75*
G02*
X144785000Y-134988262I0J271738D01*
G01*
G37*
G36*
G01*
X148131738Y-122195000D02*
X149088262Y-122195000D01*
G75*
G02*
X149360000Y-122466738I0J-271738D01*
G01*
X149360000Y-123173262D01*
G75*
G02*
X149088262Y-123445000I-271738J0D01*
G01*
X148131738Y-123445000D01*
G75*
G02*
X147860000Y-123173262I0J271738D01*
G01*
X147860000Y-122466738D01*
G75*
G02*
X148131738Y-122195000I271738J0D01*
G01*
G37*
G36*
G01*
X148131738Y-120145000D02*
X149088262Y-120145000D01*
G75*
G02*
X149360000Y-120416738I0J-271738D01*
G01*
X149360000Y-121123262D01*
G75*
G02*
X149088262Y-121395000I-271738J0D01*
G01*
X148131738Y-121395000D01*
G75*
G02*
X147860000Y-121123262I0J271738D01*
G01*
X147860000Y-120416738D01*
G75*
G02*
X148131738Y-120145000I271738J0D01*
G01*
G37*
D21*
X132770000Y-152240000D03*
G36*
G01*
X133424168Y-154890000D02*
X132115832Y-154890000D01*
G75*
G02*
X131845000Y-154619168I0J270832D01*
G01*
X131845000Y-153860832D01*
G75*
G02*
X132115832Y-153590000I270832J0D01*
G01*
X133424168Y-153590000D01*
G75*
G02*
X133695000Y-153860832I0J-270832D01*
G01*
X133695000Y-154619168D01*
G75*
G02*
X133424168Y-154890000I-270832J0D01*
G01*
G37*
G36*
G01*
X120150000Y-125845000D02*
X120150000Y-124345000D01*
G75*
G02*
X120250000Y-124245000I100000J0D01*
G01*
X120450000Y-124245000D01*
G75*
G02*
X120550000Y-124345000I0J-100000D01*
G01*
X120550000Y-125845000D01*
G75*
G02*
X120450000Y-125945000I-100000J0D01*
G01*
X120250000Y-125945000D01*
G75*
G02*
X120150000Y-125845000I0J100000D01*
G01*
G37*
G36*
G01*
X120650000Y-125845000D02*
X120650000Y-124345000D01*
G75*
G02*
X120750000Y-124245000I100000J0D01*
G01*
X120950000Y-124245000D01*
G75*
G02*
X121050000Y-124345000I0J-100000D01*
G01*
X121050000Y-125845000D01*
G75*
G02*
X120950000Y-125945000I-100000J0D01*
G01*
X120750000Y-125945000D01*
G75*
G02*
X120650000Y-125845000I0J100000D01*
G01*
G37*
G36*
G01*
X121150000Y-125845000D02*
X121150000Y-124345000D01*
G75*
G02*
X121250000Y-124245000I100000J0D01*
G01*
X121450000Y-124245000D01*
G75*
G02*
X121550000Y-124345000I0J-100000D01*
G01*
X121550000Y-125845000D01*
G75*
G02*
X121450000Y-125945000I-100000J0D01*
G01*
X121250000Y-125945000D01*
G75*
G02*
X121150000Y-125845000I0J100000D01*
G01*
G37*
G36*
G01*
X121650000Y-125845000D02*
X121650000Y-124345000D01*
G75*
G02*
X121750000Y-124245000I100000J0D01*
G01*
X121950000Y-124245000D01*
G75*
G02*
X122050000Y-124345000I0J-100000D01*
G01*
X122050000Y-125845000D01*
G75*
G02*
X121950000Y-125945000I-100000J0D01*
G01*
X121750000Y-125945000D01*
G75*
G02*
X121650000Y-125845000I0J100000D01*
G01*
G37*
G36*
G01*
X122150000Y-125845000D02*
X122150000Y-124345000D01*
G75*
G02*
X122250000Y-124245000I100000J0D01*
G01*
X122450000Y-124245000D01*
G75*
G02*
X122550000Y-124345000I0J-100000D01*
G01*
X122550000Y-125845000D01*
G75*
G02*
X122450000Y-125945000I-100000J0D01*
G01*
X122250000Y-125945000D01*
G75*
G02*
X122150000Y-125845000I0J100000D01*
G01*
G37*
G36*
G01*
X122650000Y-125845000D02*
X122650000Y-124345000D01*
G75*
G02*
X122750000Y-124245000I100000J0D01*
G01*
X122950000Y-124245000D01*
G75*
G02*
X123050000Y-124345000I0J-100000D01*
G01*
X123050000Y-125845000D01*
G75*
G02*
X122950000Y-125945000I-100000J0D01*
G01*
X122750000Y-125945000D01*
G75*
G02*
X122650000Y-125845000I0J100000D01*
G01*
G37*
G36*
G01*
X123150000Y-125845000D02*
X123150000Y-124345000D01*
G75*
G02*
X123250000Y-124245000I100000J0D01*
G01*
X123450000Y-124245000D01*
G75*
G02*
X123550000Y-124345000I0J-100000D01*
G01*
X123550000Y-125845000D01*
G75*
G02*
X123450000Y-125945000I-100000J0D01*
G01*
X123250000Y-125945000D01*
G75*
G02*
X123150000Y-125845000I0J100000D01*
G01*
G37*
G36*
G01*
X123650000Y-125845000D02*
X123650000Y-124345000D01*
G75*
G02*
X123750000Y-124245000I100000J0D01*
G01*
X123950000Y-124245000D01*
G75*
G02*
X124050000Y-124345000I0J-100000D01*
G01*
X124050000Y-125845000D01*
G75*
G02*
X123950000Y-125945000I-100000J0D01*
G01*
X123750000Y-125945000D01*
G75*
G02*
X123650000Y-125845000I0J100000D01*
G01*
G37*
G36*
G01*
X124150000Y-125845000D02*
X124150000Y-124345000D01*
G75*
G02*
X124250000Y-124245000I100000J0D01*
G01*
X124450000Y-124245000D01*
G75*
G02*
X124550000Y-124345000I0J-100000D01*
G01*
X124550000Y-125845000D01*
G75*
G02*
X124450000Y-125945000I-100000J0D01*
G01*
X124250000Y-125945000D01*
G75*
G02*
X124150000Y-125845000I0J100000D01*
G01*
G37*
G36*
G01*
X124650000Y-125845000D02*
X124650000Y-124345000D01*
G75*
G02*
X124750000Y-124245000I100000J0D01*
G01*
X124950000Y-124245000D01*
G75*
G02*
X125050000Y-124345000I0J-100000D01*
G01*
X125050000Y-125845000D01*
G75*
G02*
X124950000Y-125945000I-100000J0D01*
G01*
X124750000Y-125945000D01*
G75*
G02*
X124650000Y-125845000I0J100000D01*
G01*
G37*
G36*
G01*
X125150000Y-125845000D02*
X125150000Y-124345000D01*
G75*
G02*
X125250000Y-124245000I100000J0D01*
G01*
X125450000Y-124245000D01*
G75*
G02*
X125550000Y-124345000I0J-100000D01*
G01*
X125550000Y-125845000D01*
G75*
G02*
X125450000Y-125945000I-100000J0D01*
G01*
X125250000Y-125945000D01*
G75*
G02*
X125150000Y-125845000I0J100000D01*
G01*
G37*
G36*
G01*
X125650000Y-125845000D02*
X125650000Y-124345000D01*
G75*
G02*
X125750000Y-124245000I100000J0D01*
G01*
X125950000Y-124245000D01*
G75*
G02*
X126050000Y-124345000I0J-100000D01*
G01*
X126050000Y-125845000D01*
G75*
G02*
X125950000Y-125945000I-100000J0D01*
G01*
X125750000Y-125945000D01*
G75*
G02*
X125650000Y-125845000I0J100000D01*
G01*
G37*
G36*
G01*
X126150000Y-125845000D02*
X126150000Y-124345000D01*
G75*
G02*
X126250000Y-124245000I100000J0D01*
G01*
X126450000Y-124245000D01*
G75*
G02*
X126550000Y-124345000I0J-100000D01*
G01*
X126550000Y-125845000D01*
G75*
G02*
X126450000Y-125945000I-100000J0D01*
G01*
X126250000Y-125945000D01*
G75*
G02*
X126150000Y-125845000I0J100000D01*
G01*
G37*
G36*
G01*
X126650000Y-125845000D02*
X126650000Y-124345000D01*
G75*
G02*
X126750000Y-124245000I100000J0D01*
G01*
X126950000Y-124245000D01*
G75*
G02*
X127050000Y-124345000I0J-100000D01*
G01*
X127050000Y-125845000D01*
G75*
G02*
X126950000Y-125945000I-100000J0D01*
G01*
X126750000Y-125945000D01*
G75*
G02*
X126650000Y-125845000I0J100000D01*
G01*
G37*
G36*
G01*
X127150000Y-125845000D02*
X127150000Y-124345000D01*
G75*
G02*
X127250000Y-124245000I100000J0D01*
G01*
X127450000Y-124245000D01*
G75*
G02*
X127550000Y-124345000I0J-100000D01*
G01*
X127550000Y-125845000D01*
G75*
G02*
X127450000Y-125945000I-100000J0D01*
G01*
X127250000Y-125945000D01*
G75*
G02*
X127150000Y-125845000I0J100000D01*
G01*
G37*
G36*
G01*
X127650000Y-125845000D02*
X127650000Y-124345000D01*
G75*
G02*
X127750000Y-124245000I100000J0D01*
G01*
X127950000Y-124245000D01*
G75*
G02*
X128050000Y-124345000I0J-100000D01*
G01*
X128050000Y-125845000D01*
G75*
G02*
X127950000Y-125945000I-100000J0D01*
G01*
X127750000Y-125945000D01*
G75*
G02*
X127650000Y-125845000I0J100000D01*
G01*
G37*
G36*
G01*
X128150000Y-125845000D02*
X128150000Y-124345000D01*
G75*
G02*
X128250000Y-124245000I100000J0D01*
G01*
X128450000Y-124245000D01*
G75*
G02*
X128550000Y-124345000I0J-100000D01*
G01*
X128550000Y-125845000D01*
G75*
G02*
X128450000Y-125945000I-100000J0D01*
G01*
X128250000Y-125945000D01*
G75*
G02*
X128150000Y-125845000I0J100000D01*
G01*
G37*
G36*
G01*
X128650000Y-125845000D02*
X128650000Y-124345000D01*
G75*
G02*
X128750000Y-124245000I100000J0D01*
G01*
X128950000Y-124245000D01*
G75*
G02*
X129050000Y-124345000I0J-100000D01*
G01*
X129050000Y-125845000D01*
G75*
G02*
X128950000Y-125945000I-100000J0D01*
G01*
X128750000Y-125945000D01*
G75*
G02*
X128650000Y-125845000I0J100000D01*
G01*
G37*
G36*
G01*
X129150000Y-125845000D02*
X129150000Y-124345000D01*
G75*
G02*
X129250000Y-124245000I100000J0D01*
G01*
X129450000Y-124245000D01*
G75*
G02*
X129550000Y-124345000I0J-100000D01*
G01*
X129550000Y-125845000D01*
G75*
G02*
X129450000Y-125945000I-100000J0D01*
G01*
X129250000Y-125945000D01*
G75*
G02*
X129150000Y-125845000I0J100000D01*
G01*
G37*
G36*
G01*
X129650000Y-125845000D02*
X129650000Y-124345000D01*
G75*
G02*
X129750000Y-124245000I100000J0D01*
G01*
X129950000Y-124245000D01*
G75*
G02*
X130050000Y-124345000I0J-100000D01*
G01*
X130050000Y-125845000D01*
G75*
G02*
X129950000Y-125945000I-100000J0D01*
G01*
X129750000Y-125945000D01*
G75*
G02*
X129650000Y-125845000I0J100000D01*
G01*
G37*
G36*
G01*
X130150000Y-125845000D02*
X130150000Y-124345000D01*
G75*
G02*
X130250000Y-124245000I100000J0D01*
G01*
X130450000Y-124245000D01*
G75*
G02*
X130550000Y-124345000I0J-100000D01*
G01*
X130550000Y-125845000D01*
G75*
G02*
X130450000Y-125945000I-100000J0D01*
G01*
X130250000Y-125945000D01*
G75*
G02*
X130150000Y-125845000I0J100000D01*
G01*
G37*
G36*
G01*
X130650000Y-125845000D02*
X130650000Y-124345000D01*
G75*
G02*
X130750000Y-124245000I100000J0D01*
G01*
X130950000Y-124245000D01*
G75*
G02*
X131050000Y-124345000I0J-100000D01*
G01*
X131050000Y-125845000D01*
G75*
G02*
X130950000Y-125945000I-100000J0D01*
G01*
X130750000Y-125945000D01*
G75*
G02*
X130650000Y-125845000I0J100000D01*
G01*
G37*
G36*
G01*
X131150000Y-125845000D02*
X131150000Y-124345000D01*
G75*
G02*
X131250000Y-124245000I100000J0D01*
G01*
X131450000Y-124245000D01*
G75*
G02*
X131550000Y-124345000I0J-100000D01*
G01*
X131550000Y-125845000D01*
G75*
G02*
X131450000Y-125945000I-100000J0D01*
G01*
X131250000Y-125945000D01*
G75*
G02*
X131150000Y-125845000I0J100000D01*
G01*
G37*
G36*
G01*
X131650000Y-125845000D02*
X131650000Y-124345000D01*
G75*
G02*
X131750000Y-124245000I100000J0D01*
G01*
X131950000Y-124245000D01*
G75*
G02*
X132050000Y-124345000I0J-100000D01*
G01*
X132050000Y-125845000D01*
G75*
G02*
X131950000Y-125945000I-100000J0D01*
G01*
X131750000Y-125945000D01*
G75*
G02*
X131650000Y-125845000I0J100000D01*
G01*
G37*
G36*
G01*
X132150000Y-125845000D02*
X132150000Y-124345000D01*
G75*
G02*
X132250000Y-124245000I100000J0D01*
G01*
X132450000Y-124245000D01*
G75*
G02*
X132550000Y-124345000I0J-100000D01*
G01*
X132550000Y-125845000D01*
G75*
G02*
X132450000Y-125945000I-100000J0D01*
G01*
X132250000Y-125945000D01*
G75*
G02*
X132150000Y-125845000I0J100000D01*
G01*
G37*
G36*
G01*
X133175000Y-123520000D02*
X133175000Y-123320000D01*
G75*
G02*
X133275000Y-123220000I100000J0D01*
G01*
X134775000Y-123220000D01*
G75*
G02*
X134875000Y-123320000I0J-100000D01*
G01*
X134875000Y-123520000D01*
G75*
G02*
X134775000Y-123620000I-100000J0D01*
G01*
X133275000Y-123620000D01*
G75*
G02*
X133175000Y-123520000I0J100000D01*
G01*
G37*
G36*
G01*
X133175000Y-123020000D02*
X133175000Y-122820000D01*
G75*
G02*
X133275000Y-122720000I100000J0D01*
G01*
X134775000Y-122720000D01*
G75*
G02*
X134875000Y-122820000I0J-100000D01*
G01*
X134875000Y-123020000D01*
G75*
G02*
X134775000Y-123120000I-100000J0D01*
G01*
X133275000Y-123120000D01*
G75*
G02*
X133175000Y-123020000I0J100000D01*
G01*
G37*
G36*
G01*
X133175000Y-122520000D02*
X133175000Y-122320000D01*
G75*
G02*
X133275000Y-122220000I100000J0D01*
G01*
X134775000Y-122220000D01*
G75*
G02*
X134875000Y-122320000I0J-100000D01*
G01*
X134875000Y-122520000D01*
G75*
G02*
X134775000Y-122620000I-100000J0D01*
G01*
X133275000Y-122620000D01*
G75*
G02*
X133175000Y-122520000I0J100000D01*
G01*
G37*
G36*
G01*
X133175000Y-122020000D02*
X133175000Y-121820000D01*
G75*
G02*
X133275000Y-121720000I100000J0D01*
G01*
X134775000Y-121720000D01*
G75*
G02*
X134875000Y-121820000I0J-100000D01*
G01*
X134875000Y-122020000D01*
G75*
G02*
X134775000Y-122120000I-100000J0D01*
G01*
X133275000Y-122120000D01*
G75*
G02*
X133175000Y-122020000I0J100000D01*
G01*
G37*
G36*
G01*
X133175000Y-121520000D02*
X133175000Y-121320000D01*
G75*
G02*
X133275000Y-121220000I100000J0D01*
G01*
X134775000Y-121220000D01*
G75*
G02*
X134875000Y-121320000I0J-100000D01*
G01*
X134875000Y-121520000D01*
G75*
G02*
X134775000Y-121620000I-100000J0D01*
G01*
X133275000Y-121620000D01*
G75*
G02*
X133175000Y-121520000I0J100000D01*
G01*
G37*
G36*
G01*
X133175000Y-121020000D02*
X133175000Y-120820000D01*
G75*
G02*
X133275000Y-120720000I100000J0D01*
G01*
X134775000Y-120720000D01*
G75*
G02*
X134875000Y-120820000I0J-100000D01*
G01*
X134875000Y-121020000D01*
G75*
G02*
X134775000Y-121120000I-100000J0D01*
G01*
X133275000Y-121120000D01*
G75*
G02*
X133175000Y-121020000I0J100000D01*
G01*
G37*
G36*
G01*
X133175000Y-120520000D02*
X133175000Y-120320000D01*
G75*
G02*
X133275000Y-120220000I100000J0D01*
G01*
X134775000Y-120220000D01*
G75*
G02*
X134875000Y-120320000I0J-100000D01*
G01*
X134875000Y-120520000D01*
G75*
G02*
X134775000Y-120620000I-100000J0D01*
G01*
X133275000Y-120620000D01*
G75*
G02*
X133175000Y-120520000I0J100000D01*
G01*
G37*
G36*
G01*
X133175000Y-120020000D02*
X133175000Y-119820000D01*
G75*
G02*
X133275000Y-119720000I100000J0D01*
G01*
X134775000Y-119720000D01*
G75*
G02*
X134875000Y-119820000I0J-100000D01*
G01*
X134875000Y-120020000D01*
G75*
G02*
X134775000Y-120120000I-100000J0D01*
G01*
X133275000Y-120120000D01*
G75*
G02*
X133175000Y-120020000I0J100000D01*
G01*
G37*
G36*
G01*
X133175000Y-119520000D02*
X133175000Y-119320000D01*
G75*
G02*
X133275000Y-119220000I100000J0D01*
G01*
X134775000Y-119220000D01*
G75*
G02*
X134875000Y-119320000I0J-100000D01*
G01*
X134875000Y-119520000D01*
G75*
G02*
X134775000Y-119620000I-100000J0D01*
G01*
X133275000Y-119620000D01*
G75*
G02*
X133175000Y-119520000I0J100000D01*
G01*
G37*
G36*
G01*
X133175000Y-119020000D02*
X133175000Y-118820000D01*
G75*
G02*
X133275000Y-118720000I100000J0D01*
G01*
X134775000Y-118720000D01*
G75*
G02*
X134875000Y-118820000I0J-100000D01*
G01*
X134875000Y-119020000D01*
G75*
G02*
X134775000Y-119120000I-100000J0D01*
G01*
X133275000Y-119120000D01*
G75*
G02*
X133175000Y-119020000I0J100000D01*
G01*
G37*
G36*
G01*
X133175000Y-118520000D02*
X133175000Y-118320000D01*
G75*
G02*
X133275000Y-118220000I100000J0D01*
G01*
X134775000Y-118220000D01*
G75*
G02*
X134875000Y-118320000I0J-100000D01*
G01*
X134875000Y-118520000D01*
G75*
G02*
X134775000Y-118620000I-100000J0D01*
G01*
X133275000Y-118620000D01*
G75*
G02*
X133175000Y-118520000I0J100000D01*
G01*
G37*
G36*
G01*
X133175000Y-118020000D02*
X133175000Y-117820000D01*
G75*
G02*
X133275000Y-117720000I100000J0D01*
G01*
X134775000Y-117720000D01*
G75*
G02*
X134875000Y-117820000I0J-100000D01*
G01*
X134875000Y-118020000D01*
G75*
G02*
X134775000Y-118120000I-100000J0D01*
G01*
X133275000Y-118120000D01*
G75*
G02*
X133175000Y-118020000I0J100000D01*
G01*
G37*
G36*
G01*
X133175000Y-117520000D02*
X133175000Y-117320000D01*
G75*
G02*
X133275000Y-117220000I100000J0D01*
G01*
X134775000Y-117220000D01*
G75*
G02*
X134875000Y-117320000I0J-100000D01*
G01*
X134875000Y-117520000D01*
G75*
G02*
X134775000Y-117620000I-100000J0D01*
G01*
X133275000Y-117620000D01*
G75*
G02*
X133175000Y-117520000I0J100000D01*
G01*
G37*
G36*
G01*
X133175000Y-117020000D02*
X133175000Y-116820000D01*
G75*
G02*
X133275000Y-116720000I100000J0D01*
G01*
X134775000Y-116720000D01*
G75*
G02*
X134875000Y-116820000I0J-100000D01*
G01*
X134875000Y-117020000D01*
G75*
G02*
X134775000Y-117120000I-100000J0D01*
G01*
X133275000Y-117120000D01*
G75*
G02*
X133175000Y-117020000I0J100000D01*
G01*
G37*
G36*
G01*
X133175000Y-116520000D02*
X133175000Y-116320000D01*
G75*
G02*
X133275000Y-116220000I100000J0D01*
G01*
X134775000Y-116220000D01*
G75*
G02*
X134875000Y-116320000I0J-100000D01*
G01*
X134875000Y-116520000D01*
G75*
G02*
X134775000Y-116620000I-100000J0D01*
G01*
X133275000Y-116620000D01*
G75*
G02*
X133175000Y-116520000I0J100000D01*
G01*
G37*
G36*
G01*
X133175000Y-116020000D02*
X133175000Y-115820000D01*
G75*
G02*
X133275000Y-115720000I100000J0D01*
G01*
X134775000Y-115720000D01*
G75*
G02*
X134875000Y-115820000I0J-100000D01*
G01*
X134875000Y-116020000D01*
G75*
G02*
X134775000Y-116120000I-100000J0D01*
G01*
X133275000Y-116120000D01*
G75*
G02*
X133175000Y-116020000I0J100000D01*
G01*
G37*
G36*
G01*
X133175000Y-115520000D02*
X133175000Y-115320000D01*
G75*
G02*
X133275000Y-115220000I100000J0D01*
G01*
X134775000Y-115220000D01*
G75*
G02*
X134875000Y-115320000I0J-100000D01*
G01*
X134875000Y-115520000D01*
G75*
G02*
X134775000Y-115620000I-100000J0D01*
G01*
X133275000Y-115620000D01*
G75*
G02*
X133175000Y-115520000I0J100000D01*
G01*
G37*
G36*
G01*
X133175000Y-115020000D02*
X133175000Y-114820000D01*
G75*
G02*
X133275000Y-114720000I100000J0D01*
G01*
X134775000Y-114720000D01*
G75*
G02*
X134875000Y-114820000I0J-100000D01*
G01*
X134875000Y-115020000D01*
G75*
G02*
X134775000Y-115120000I-100000J0D01*
G01*
X133275000Y-115120000D01*
G75*
G02*
X133175000Y-115020000I0J100000D01*
G01*
G37*
G36*
G01*
X133175000Y-114520000D02*
X133175000Y-114320000D01*
G75*
G02*
X133275000Y-114220000I100000J0D01*
G01*
X134775000Y-114220000D01*
G75*
G02*
X134875000Y-114320000I0J-100000D01*
G01*
X134875000Y-114520000D01*
G75*
G02*
X134775000Y-114620000I-100000J0D01*
G01*
X133275000Y-114620000D01*
G75*
G02*
X133175000Y-114520000I0J100000D01*
G01*
G37*
G36*
G01*
X133175000Y-114020000D02*
X133175000Y-113820000D01*
G75*
G02*
X133275000Y-113720000I100000J0D01*
G01*
X134775000Y-113720000D01*
G75*
G02*
X134875000Y-113820000I0J-100000D01*
G01*
X134875000Y-114020000D01*
G75*
G02*
X134775000Y-114120000I-100000J0D01*
G01*
X133275000Y-114120000D01*
G75*
G02*
X133175000Y-114020000I0J100000D01*
G01*
G37*
G36*
G01*
X133175000Y-113520000D02*
X133175000Y-113320000D01*
G75*
G02*
X133275000Y-113220000I100000J0D01*
G01*
X134775000Y-113220000D01*
G75*
G02*
X134875000Y-113320000I0J-100000D01*
G01*
X134875000Y-113520000D01*
G75*
G02*
X134775000Y-113620000I-100000J0D01*
G01*
X133275000Y-113620000D01*
G75*
G02*
X133175000Y-113520000I0J100000D01*
G01*
G37*
G36*
G01*
X133175000Y-113020000D02*
X133175000Y-112820000D01*
G75*
G02*
X133275000Y-112720000I100000J0D01*
G01*
X134775000Y-112720000D01*
G75*
G02*
X134875000Y-112820000I0J-100000D01*
G01*
X134875000Y-113020000D01*
G75*
G02*
X134775000Y-113120000I-100000J0D01*
G01*
X133275000Y-113120000D01*
G75*
G02*
X133175000Y-113020000I0J100000D01*
G01*
G37*
G36*
G01*
X133175000Y-112520000D02*
X133175000Y-112320000D01*
G75*
G02*
X133275000Y-112220000I100000J0D01*
G01*
X134775000Y-112220000D01*
G75*
G02*
X134875000Y-112320000I0J-100000D01*
G01*
X134875000Y-112520000D01*
G75*
G02*
X134775000Y-112620000I-100000J0D01*
G01*
X133275000Y-112620000D01*
G75*
G02*
X133175000Y-112520000I0J100000D01*
G01*
G37*
G36*
G01*
X133175000Y-112020000D02*
X133175000Y-111820000D01*
G75*
G02*
X133275000Y-111720000I100000J0D01*
G01*
X134775000Y-111720000D01*
G75*
G02*
X134875000Y-111820000I0J-100000D01*
G01*
X134875000Y-112020000D01*
G75*
G02*
X134775000Y-112120000I-100000J0D01*
G01*
X133275000Y-112120000D01*
G75*
G02*
X133175000Y-112020000I0J100000D01*
G01*
G37*
G36*
G01*
X133175000Y-111520000D02*
X133175000Y-111320000D01*
G75*
G02*
X133275000Y-111220000I100000J0D01*
G01*
X134775000Y-111220000D01*
G75*
G02*
X134875000Y-111320000I0J-100000D01*
G01*
X134875000Y-111520000D01*
G75*
G02*
X134775000Y-111620000I-100000J0D01*
G01*
X133275000Y-111620000D01*
G75*
G02*
X133175000Y-111520000I0J100000D01*
G01*
G37*
G36*
G01*
X132150000Y-110495000D02*
X132150000Y-108995000D01*
G75*
G02*
X132250000Y-108895000I100000J0D01*
G01*
X132450000Y-108895000D01*
G75*
G02*
X132550000Y-108995000I0J-100000D01*
G01*
X132550000Y-110495000D01*
G75*
G02*
X132450000Y-110595000I-100000J0D01*
G01*
X132250000Y-110595000D01*
G75*
G02*
X132150000Y-110495000I0J100000D01*
G01*
G37*
G36*
G01*
X131650000Y-110495000D02*
X131650000Y-108995000D01*
G75*
G02*
X131750000Y-108895000I100000J0D01*
G01*
X131950000Y-108895000D01*
G75*
G02*
X132050000Y-108995000I0J-100000D01*
G01*
X132050000Y-110495000D01*
G75*
G02*
X131950000Y-110595000I-100000J0D01*
G01*
X131750000Y-110595000D01*
G75*
G02*
X131650000Y-110495000I0J100000D01*
G01*
G37*
G36*
G01*
X131150000Y-110495000D02*
X131150000Y-108995000D01*
G75*
G02*
X131250000Y-108895000I100000J0D01*
G01*
X131450000Y-108895000D01*
G75*
G02*
X131550000Y-108995000I0J-100000D01*
G01*
X131550000Y-110495000D01*
G75*
G02*
X131450000Y-110595000I-100000J0D01*
G01*
X131250000Y-110595000D01*
G75*
G02*
X131150000Y-110495000I0J100000D01*
G01*
G37*
G36*
G01*
X130650000Y-110495000D02*
X130650000Y-108995000D01*
G75*
G02*
X130750000Y-108895000I100000J0D01*
G01*
X130950000Y-108895000D01*
G75*
G02*
X131050000Y-108995000I0J-100000D01*
G01*
X131050000Y-110495000D01*
G75*
G02*
X130950000Y-110595000I-100000J0D01*
G01*
X130750000Y-110595000D01*
G75*
G02*
X130650000Y-110495000I0J100000D01*
G01*
G37*
G36*
G01*
X130150000Y-110495000D02*
X130150000Y-108995000D01*
G75*
G02*
X130250000Y-108895000I100000J0D01*
G01*
X130450000Y-108895000D01*
G75*
G02*
X130550000Y-108995000I0J-100000D01*
G01*
X130550000Y-110495000D01*
G75*
G02*
X130450000Y-110595000I-100000J0D01*
G01*
X130250000Y-110595000D01*
G75*
G02*
X130150000Y-110495000I0J100000D01*
G01*
G37*
G36*
G01*
X129650000Y-110495000D02*
X129650000Y-108995000D01*
G75*
G02*
X129750000Y-108895000I100000J0D01*
G01*
X129950000Y-108895000D01*
G75*
G02*
X130050000Y-108995000I0J-100000D01*
G01*
X130050000Y-110495000D01*
G75*
G02*
X129950000Y-110595000I-100000J0D01*
G01*
X129750000Y-110595000D01*
G75*
G02*
X129650000Y-110495000I0J100000D01*
G01*
G37*
G36*
G01*
X129150000Y-110495000D02*
X129150000Y-108995000D01*
G75*
G02*
X129250000Y-108895000I100000J0D01*
G01*
X129450000Y-108895000D01*
G75*
G02*
X129550000Y-108995000I0J-100000D01*
G01*
X129550000Y-110495000D01*
G75*
G02*
X129450000Y-110595000I-100000J0D01*
G01*
X129250000Y-110595000D01*
G75*
G02*
X129150000Y-110495000I0J100000D01*
G01*
G37*
G36*
G01*
X128650000Y-110495000D02*
X128650000Y-108995000D01*
G75*
G02*
X128750000Y-108895000I100000J0D01*
G01*
X128950000Y-108895000D01*
G75*
G02*
X129050000Y-108995000I0J-100000D01*
G01*
X129050000Y-110495000D01*
G75*
G02*
X128950000Y-110595000I-100000J0D01*
G01*
X128750000Y-110595000D01*
G75*
G02*
X128650000Y-110495000I0J100000D01*
G01*
G37*
G36*
G01*
X128150000Y-110495000D02*
X128150000Y-108995000D01*
G75*
G02*
X128250000Y-108895000I100000J0D01*
G01*
X128450000Y-108895000D01*
G75*
G02*
X128550000Y-108995000I0J-100000D01*
G01*
X128550000Y-110495000D01*
G75*
G02*
X128450000Y-110595000I-100000J0D01*
G01*
X128250000Y-110595000D01*
G75*
G02*
X128150000Y-110495000I0J100000D01*
G01*
G37*
G36*
G01*
X127650000Y-110495000D02*
X127650000Y-108995000D01*
G75*
G02*
X127750000Y-108895000I100000J0D01*
G01*
X127950000Y-108895000D01*
G75*
G02*
X128050000Y-108995000I0J-100000D01*
G01*
X128050000Y-110495000D01*
G75*
G02*
X127950000Y-110595000I-100000J0D01*
G01*
X127750000Y-110595000D01*
G75*
G02*
X127650000Y-110495000I0J100000D01*
G01*
G37*
G36*
G01*
X127150000Y-110495000D02*
X127150000Y-108995000D01*
G75*
G02*
X127250000Y-108895000I100000J0D01*
G01*
X127450000Y-108895000D01*
G75*
G02*
X127550000Y-108995000I0J-100000D01*
G01*
X127550000Y-110495000D01*
G75*
G02*
X127450000Y-110595000I-100000J0D01*
G01*
X127250000Y-110595000D01*
G75*
G02*
X127150000Y-110495000I0J100000D01*
G01*
G37*
G36*
G01*
X126650000Y-110495000D02*
X126650000Y-108995000D01*
G75*
G02*
X126750000Y-108895000I100000J0D01*
G01*
X126950000Y-108895000D01*
G75*
G02*
X127050000Y-108995000I0J-100000D01*
G01*
X127050000Y-110495000D01*
G75*
G02*
X126950000Y-110595000I-100000J0D01*
G01*
X126750000Y-110595000D01*
G75*
G02*
X126650000Y-110495000I0J100000D01*
G01*
G37*
G36*
G01*
X126150000Y-110495000D02*
X126150000Y-108995000D01*
G75*
G02*
X126250000Y-108895000I100000J0D01*
G01*
X126450000Y-108895000D01*
G75*
G02*
X126550000Y-108995000I0J-100000D01*
G01*
X126550000Y-110495000D01*
G75*
G02*
X126450000Y-110595000I-100000J0D01*
G01*
X126250000Y-110595000D01*
G75*
G02*
X126150000Y-110495000I0J100000D01*
G01*
G37*
G36*
G01*
X125650000Y-110495000D02*
X125650000Y-108995000D01*
G75*
G02*
X125750000Y-108895000I100000J0D01*
G01*
X125950000Y-108895000D01*
G75*
G02*
X126050000Y-108995000I0J-100000D01*
G01*
X126050000Y-110495000D01*
G75*
G02*
X125950000Y-110595000I-100000J0D01*
G01*
X125750000Y-110595000D01*
G75*
G02*
X125650000Y-110495000I0J100000D01*
G01*
G37*
G36*
G01*
X125150000Y-110495000D02*
X125150000Y-108995000D01*
G75*
G02*
X125250000Y-108895000I100000J0D01*
G01*
X125450000Y-108895000D01*
G75*
G02*
X125550000Y-108995000I0J-100000D01*
G01*
X125550000Y-110495000D01*
G75*
G02*
X125450000Y-110595000I-100000J0D01*
G01*
X125250000Y-110595000D01*
G75*
G02*
X125150000Y-110495000I0J100000D01*
G01*
G37*
G36*
G01*
X124650000Y-110495000D02*
X124650000Y-108995000D01*
G75*
G02*
X124750000Y-108895000I100000J0D01*
G01*
X124950000Y-108895000D01*
G75*
G02*
X125050000Y-108995000I0J-100000D01*
G01*
X125050000Y-110495000D01*
G75*
G02*
X124950000Y-110595000I-100000J0D01*
G01*
X124750000Y-110595000D01*
G75*
G02*
X124650000Y-110495000I0J100000D01*
G01*
G37*
G36*
G01*
X124150000Y-110495000D02*
X124150000Y-108995000D01*
G75*
G02*
X124250000Y-108895000I100000J0D01*
G01*
X124450000Y-108895000D01*
G75*
G02*
X124550000Y-108995000I0J-100000D01*
G01*
X124550000Y-110495000D01*
G75*
G02*
X124450000Y-110595000I-100000J0D01*
G01*
X124250000Y-110595000D01*
G75*
G02*
X124150000Y-110495000I0J100000D01*
G01*
G37*
G36*
G01*
X123650000Y-110495000D02*
X123650000Y-108995000D01*
G75*
G02*
X123750000Y-108895000I100000J0D01*
G01*
X123950000Y-108895000D01*
G75*
G02*
X124050000Y-108995000I0J-100000D01*
G01*
X124050000Y-110495000D01*
G75*
G02*
X123950000Y-110595000I-100000J0D01*
G01*
X123750000Y-110595000D01*
G75*
G02*
X123650000Y-110495000I0J100000D01*
G01*
G37*
G36*
G01*
X123150000Y-110495000D02*
X123150000Y-108995000D01*
G75*
G02*
X123250000Y-108895000I100000J0D01*
G01*
X123450000Y-108895000D01*
G75*
G02*
X123550000Y-108995000I0J-100000D01*
G01*
X123550000Y-110495000D01*
G75*
G02*
X123450000Y-110595000I-100000J0D01*
G01*
X123250000Y-110595000D01*
G75*
G02*
X123150000Y-110495000I0J100000D01*
G01*
G37*
G36*
G01*
X122650000Y-110495000D02*
X122650000Y-108995000D01*
G75*
G02*
X122750000Y-108895000I100000J0D01*
G01*
X122950000Y-108895000D01*
G75*
G02*
X123050000Y-108995000I0J-100000D01*
G01*
X123050000Y-110495000D01*
G75*
G02*
X122950000Y-110595000I-100000J0D01*
G01*
X122750000Y-110595000D01*
G75*
G02*
X122650000Y-110495000I0J100000D01*
G01*
G37*
G36*
G01*
X122150000Y-110495000D02*
X122150000Y-108995000D01*
G75*
G02*
X122250000Y-108895000I100000J0D01*
G01*
X122450000Y-108895000D01*
G75*
G02*
X122550000Y-108995000I0J-100000D01*
G01*
X122550000Y-110495000D01*
G75*
G02*
X122450000Y-110595000I-100000J0D01*
G01*
X122250000Y-110595000D01*
G75*
G02*
X122150000Y-110495000I0J100000D01*
G01*
G37*
G36*
G01*
X121650000Y-110495000D02*
X121650000Y-108995000D01*
G75*
G02*
X121750000Y-108895000I100000J0D01*
G01*
X121950000Y-108895000D01*
G75*
G02*
X122050000Y-108995000I0J-100000D01*
G01*
X122050000Y-110495000D01*
G75*
G02*
X121950000Y-110595000I-100000J0D01*
G01*
X121750000Y-110595000D01*
G75*
G02*
X121650000Y-110495000I0J100000D01*
G01*
G37*
G36*
G01*
X121150000Y-110495000D02*
X121150000Y-108995000D01*
G75*
G02*
X121250000Y-108895000I100000J0D01*
G01*
X121450000Y-108895000D01*
G75*
G02*
X121550000Y-108995000I0J-100000D01*
G01*
X121550000Y-110495000D01*
G75*
G02*
X121450000Y-110595000I-100000J0D01*
G01*
X121250000Y-110595000D01*
G75*
G02*
X121150000Y-110495000I0J100000D01*
G01*
G37*
G36*
G01*
X120650000Y-110495000D02*
X120650000Y-108995000D01*
G75*
G02*
X120750000Y-108895000I100000J0D01*
G01*
X120950000Y-108895000D01*
G75*
G02*
X121050000Y-108995000I0J-100000D01*
G01*
X121050000Y-110495000D01*
G75*
G02*
X120950000Y-110595000I-100000J0D01*
G01*
X120750000Y-110595000D01*
G75*
G02*
X120650000Y-110495000I0J100000D01*
G01*
G37*
G36*
G01*
X120150000Y-110495000D02*
X120150000Y-108995000D01*
G75*
G02*
X120250000Y-108895000I100000J0D01*
G01*
X120450000Y-108895000D01*
G75*
G02*
X120550000Y-108995000I0J-100000D01*
G01*
X120550000Y-110495000D01*
G75*
G02*
X120450000Y-110595000I-100000J0D01*
G01*
X120250000Y-110595000D01*
G75*
G02*
X120150000Y-110495000I0J100000D01*
G01*
G37*
G36*
G01*
X117825000Y-111520000D02*
X117825000Y-111320000D01*
G75*
G02*
X117925000Y-111220000I100000J0D01*
G01*
X119425000Y-111220000D01*
G75*
G02*
X119525000Y-111320000I0J-100000D01*
G01*
X119525000Y-111520000D01*
G75*
G02*
X119425000Y-111620000I-100000J0D01*
G01*
X117925000Y-111620000D01*
G75*
G02*
X117825000Y-111520000I0J100000D01*
G01*
G37*
G36*
G01*
X117825000Y-112020000D02*
X117825000Y-111820000D01*
G75*
G02*
X117925000Y-111720000I100000J0D01*
G01*
X119425000Y-111720000D01*
G75*
G02*
X119525000Y-111820000I0J-100000D01*
G01*
X119525000Y-112020000D01*
G75*
G02*
X119425000Y-112120000I-100000J0D01*
G01*
X117925000Y-112120000D01*
G75*
G02*
X117825000Y-112020000I0J100000D01*
G01*
G37*
G36*
G01*
X117825000Y-112520000D02*
X117825000Y-112320000D01*
G75*
G02*
X117925000Y-112220000I100000J0D01*
G01*
X119425000Y-112220000D01*
G75*
G02*
X119525000Y-112320000I0J-100000D01*
G01*
X119525000Y-112520000D01*
G75*
G02*
X119425000Y-112620000I-100000J0D01*
G01*
X117925000Y-112620000D01*
G75*
G02*
X117825000Y-112520000I0J100000D01*
G01*
G37*
G36*
G01*
X117825000Y-113020000D02*
X117825000Y-112820000D01*
G75*
G02*
X117925000Y-112720000I100000J0D01*
G01*
X119425000Y-112720000D01*
G75*
G02*
X119525000Y-112820000I0J-100000D01*
G01*
X119525000Y-113020000D01*
G75*
G02*
X119425000Y-113120000I-100000J0D01*
G01*
X117925000Y-113120000D01*
G75*
G02*
X117825000Y-113020000I0J100000D01*
G01*
G37*
G36*
G01*
X117825000Y-113520000D02*
X117825000Y-113320000D01*
G75*
G02*
X117925000Y-113220000I100000J0D01*
G01*
X119425000Y-113220000D01*
G75*
G02*
X119525000Y-113320000I0J-100000D01*
G01*
X119525000Y-113520000D01*
G75*
G02*
X119425000Y-113620000I-100000J0D01*
G01*
X117925000Y-113620000D01*
G75*
G02*
X117825000Y-113520000I0J100000D01*
G01*
G37*
G36*
G01*
X117825000Y-114020000D02*
X117825000Y-113820000D01*
G75*
G02*
X117925000Y-113720000I100000J0D01*
G01*
X119425000Y-113720000D01*
G75*
G02*
X119525000Y-113820000I0J-100000D01*
G01*
X119525000Y-114020000D01*
G75*
G02*
X119425000Y-114120000I-100000J0D01*
G01*
X117925000Y-114120000D01*
G75*
G02*
X117825000Y-114020000I0J100000D01*
G01*
G37*
G36*
G01*
X117825000Y-114520000D02*
X117825000Y-114320000D01*
G75*
G02*
X117925000Y-114220000I100000J0D01*
G01*
X119425000Y-114220000D01*
G75*
G02*
X119525000Y-114320000I0J-100000D01*
G01*
X119525000Y-114520000D01*
G75*
G02*
X119425000Y-114620000I-100000J0D01*
G01*
X117925000Y-114620000D01*
G75*
G02*
X117825000Y-114520000I0J100000D01*
G01*
G37*
G36*
G01*
X117825000Y-115020000D02*
X117825000Y-114820000D01*
G75*
G02*
X117925000Y-114720000I100000J0D01*
G01*
X119425000Y-114720000D01*
G75*
G02*
X119525000Y-114820000I0J-100000D01*
G01*
X119525000Y-115020000D01*
G75*
G02*
X119425000Y-115120000I-100000J0D01*
G01*
X117925000Y-115120000D01*
G75*
G02*
X117825000Y-115020000I0J100000D01*
G01*
G37*
G36*
G01*
X117825000Y-115520000D02*
X117825000Y-115320000D01*
G75*
G02*
X117925000Y-115220000I100000J0D01*
G01*
X119425000Y-115220000D01*
G75*
G02*
X119525000Y-115320000I0J-100000D01*
G01*
X119525000Y-115520000D01*
G75*
G02*
X119425000Y-115620000I-100000J0D01*
G01*
X117925000Y-115620000D01*
G75*
G02*
X117825000Y-115520000I0J100000D01*
G01*
G37*
G36*
G01*
X117825000Y-116020000D02*
X117825000Y-115820000D01*
G75*
G02*
X117925000Y-115720000I100000J0D01*
G01*
X119425000Y-115720000D01*
G75*
G02*
X119525000Y-115820000I0J-100000D01*
G01*
X119525000Y-116020000D01*
G75*
G02*
X119425000Y-116120000I-100000J0D01*
G01*
X117925000Y-116120000D01*
G75*
G02*
X117825000Y-116020000I0J100000D01*
G01*
G37*
G36*
G01*
X117825000Y-116520000D02*
X117825000Y-116320000D01*
G75*
G02*
X117925000Y-116220000I100000J0D01*
G01*
X119425000Y-116220000D01*
G75*
G02*
X119525000Y-116320000I0J-100000D01*
G01*
X119525000Y-116520000D01*
G75*
G02*
X119425000Y-116620000I-100000J0D01*
G01*
X117925000Y-116620000D01*
G75*
G02*
X117825000Y-116520000I0J100000D01*
G01*
G37*
G36*
G01*
X117825000Y-117020000D02*
X117825000Y-116820000D01*
G75*
G02*
X117925000Y-116720000I100000J0D01*
G01*
X119425000Y-116720000D01*
G75*
G02*
X119525000Y-116820000I0J-100000D01*
G01*
X119525000Y-117020000D01*
G75*
G02*
X119425000Y-117120000I-100000J0D01*
G01*
X117925000Y-117120000D01*
G75*
G02*
X117825000Y-117020000I0J100000D01*
G01*
G37*
G36*
G01*
X117825000Y-117520000D02*
X117825000Y-117320000D01*
G75*
G02*
X117925000Y-117220000I100000J0D01*
G01*
X119425000Y-117220000D01*
G75*
G02*
X119525000Y-117320000I0J-100000D01*
G01*
X119525000Y-117520000D01*
G75*
G02*
X119425000Y-117620000I-100000J0D01*
G01*
X117925000Y-117620000D01*
G75*
G02*
X117825000Y-117520000I0J100000D01*
G01*
G37*
G36*
G01*
X117825000Y-118020000D02*
X117825000Y-117820000D01*
G75*
G02*
X117925000Y-117720000I100000J0D01*
G01*
X119425000Y-117720000D01*
G75*
G02*
X119525000Y-117820000I0J-100000D01*
G01*
X119525000Y-118020000D01*
G75*
G02*
X119425000Y-118120000I-100000J0D01*
G01*
X117925000Y-118120000D01*
G75*
G02*
X117825000Y-118020000I0J100000D01*
G01*
G37*
G36*
G01*
X117825000Y-118520000D02*
X117825000Y-118320000D01*
G75*
G02*
X117925000Y-118220000I100000J0D01*
G01*
X119425000Y-118220000D01*
G75*
G02*
X119525000Y-118320000I0J-100000D01*
G01*
X119525000Y-118520000D01*
G75*
G02*
X119425000Y-118620000I-100000J0D01*
G01*
X117925000Y-118620000D01*
G75*
G02*
X117825000Y-118520000I0J100000D01*
G01*
G37*
G36*
G01*
X117825000Y-119020000D02*
X117825000Y-118820000D01*
G75*
G02*
X117925000Y-118720000I100000J0D01*
G01*
X119425000Y-118720000D01*
G75*
G02*
X119525000Y-118820000I0J-100000D01*
G01*
X119525000Y-119020000D01*
G75*
G02*
X119425000Y-119120000I-100000J0D01*
G01*
X117925000Y-119120000D01*
G75*
G02*
X117825000Y-119020000I0J100000D01*
G01*
G37*
G36*
G01*
X117825000Y-119520000D02*
X117825000Y-119320000D01*
G75*
G02*
X117925000Y-119220000I100000J0D01*
G01*
X119425000Y-119220000D01*
G75*
G02*
X119525000Y-119320000I0J-100000D01*
G01*
X119525000Y-119520000D01*
G75*
G02*
X119425000Y-119620000I-100000J0D01*
G01*
X117925000Y-119620000D01*
G75*
G02*
X117825000Y-119520000I0J100000D01*
G01*
G37*
G36*
G01*
X117825000Y-120020000D02*
X117825000Y-119820000D01*
G75*
G02*
X117925000Y-119720000I100000J0D01*
G01*
X119425000Y-119720000D01*
G75*
G02*
X119525000Y-119820000I0J-100000D01*
G01*
X119525000Y-120020000D01*
G75*
G02*
X119425000Y-120120000I-100000J0D01*
G01*
X117925000Y-120120000D01*
G75*
G02*
X117825000Y-120020000I0J100000D01*
G01*
G37*
G36*
G01*
X117825000Y-120520000D02*
X117825000Y-120320000D01*
G75*
G02*
X117925000Y-120220000I100000J0D01*
G01*
X119425000Y-120220000D01*
G75*
G02*
X119525000Y-120320000I0J-100000D01*
G01*
X119525000Y-120520000D01*
G75*
G02*
X119425000Y-120620000I-100000J0D01*
G01*
X117925000Y-120620000D01*
G75*
G02*
X117825000Y-120520000I0J100000D01*
G01*
G37*
G36*
G01*
X117825000Y-121020000D02*
X117825000Y-120820000D01*
G75*
G02*
X117925000Y-120720000I100000J0D01*
G01*
X119425000Y-120720000D01*
G75*
G02*
X119525000Y-120820000I0J-100000D01*
G01*
X119525000Y-121020000D01*
G75*
G02*
X119425000Y-121120000I-100000J0D01*
G01*
X117925000Y-121120000D01*
G75*
G02*
X117825000Y-121020000I0J100000D01*
G01*
G37*
G36*
G01*
X117825000Y-121520000D02*
X117825000Y-121320000D01*
G75*
G02*
X117925000Y-121220000I100000J0D01*
G01*
X119425000Y-121220000D01*
G75*
G02*
X119525000Y-121320000I0J-100000D01*
G01*
X119525000Y-121520000D01*
G75*
G02*
X119425000Y-121620000I-100000J0D01*
G01*
X117925000Y-121620000D01*
G75*
G02*
X117825000Y-121520000I0J100000D01*
G01*
G37*
G36*
G01*
X117825000Y-122020000D02*
X117825000Y-121820000D01*
G75*
G02*
X117925000Y-121720000I100000J0D01*
G01*
X119425000Y-121720000D01*
G75*
G02*
X119525000Y-121820000I0J-100000D01*
G01*
X119525000Y-122020000D01*
G75*
G02*
X119425000Y-122120000I-100000J0D01*
G01*
X117925000Y-122120000D01*
G75*
G02*
X117825000Y-122020000I0J100000D01*
G01*
G37*
G36*
G01*
X117825000Y-122520000D02*
X117825000Y-122320000D01*
G75*
G02*
X117925000Y-122220000I100000J0D01*
G01*
X119425000Y-122220000D01*
G75*
G02*
X119525000Y-122320000I0J-100000D01*
G01*
X119525000Y-122520000D01*
G75*
G02*
X119425000Y-122620000I-100000J0D01*
G01*
X117925000Y-122620000D01*
G75*
G02*
X117825000Y-122520000I0J100000D01*
G01*
G37*
G36*
G01*
X117825000Y-123020000D02*
X117825000Y-122820000D01*
G75*
G02*
X117925000Y-122720000I100000J0D01*
G01*
X119425000Y-122720000D01*
G75*
G02*
X119525000Y-122820000I0J-100000D01*
G01*
X119525000Y-123020000D01*
G75*
G02*
X119425000Y-123120000I-100000J0D01*
G01*
X117925000Y-123120000D01*
G75*
G02*
X117825000Y-123020000I0J100000D01*
G01*
G37*
G36*
G01*
X117825000Y-123520000D02*
X117825000Y-123320000D01*
G75*
G02*
X117925000Y-123220000I100000J0D01*
G01*
X119425000Y-123220000D01*
G75*
G02*
X119525000Y-123320000I0J-100000D01*
G01*
X119525000Y-123520000D01*
G75*
G02*
X119425000Y-123620000I-100000J0D01*
G01*
X117925000Y-123620000D01*
G75*
G02*
X117825000Y-123520000I0J100000D01*
G01*
G37*
M02*
