G04 #@! TF.GenerationSoftware,KiCad,Pcbnew,(5.1.6)-1*
G04 #@! TF.CreationDate,2020-10-17T23:58:27+09:00*
G04 #@! TF.ProjectId,guardianCam_Wifi,67756172-6469-4616-9e43-616d5f576966,rev?*
G04 #@! TF.SameCoordinates,Original*
G04 #@! TF.FileFunction,Legend,Top*
G04 #@! TF.FilePolarity,Positive*
%FSLAX46Y46*%
G04 Gerber Fmt 4.6, Leading zero omitted, Abs format (unit mm)*
G04 Created by KiCad (PCBNEW (5.1.6)-1) date 2020-10-17 23:58:27*
%MOMM*%
%LPD*%
G01*
G04 APERTURE LIST*
%ADD10C,0.120000*%
%ADD11C,0.150000*%
%ADD12C,0.152400*%
%ADD13C,0.100000*%
%ADD14C,0.127000*%
%ADD15C,0.200000*%
%ADD16C,0.010000*%
%ADD17C,0.015000*%
G04 APERTURE END LIST*
D10*
X118346252Y-140420000D02*
X117823748Y-140420000D01*
X118346252Y-139000000D02*
X117823748Y-139000000D01*
D11*
X134065000Y-144525000D02*
X134065000Y-139250000D01*
X139465000Y-143250000D02*
X139465000Y-139250000D01*
D10*
X132101252Y-144850000D02*
X131578748Y-144850000D01*
X132101252Y-143430000D02*
X131578748Y-143430000D01*
D12*
X136418600Y-145671400D02*
X133421400Y-145671400D01*
X133421400Y-148668600D02*
X134615200Y-148668600D01*
X134615200Y-148668600D02*
X135224800Y-148668600D01*
X135224800Y-148668600D02*
X136418600Y-148668600D01*
X131618000Y-148363800D02*
X131618000Y-147982800D01*
X131618000Y-147982800D02*
X131872000Y-147982800D01*
X131872000Y-147982800D02*
X131872000Y-148363800D01*
D13*
X134615200Y-148668600D02*
G75*
G02*
X135224800Y-148668600I304800J0D01*
G01*
D10*
X113511252Y-151860000D02*
X112988748Y-151860000D01*
X113511252Y-150440000D02*
X112988748Y-150440000D01*
X115280000Y-145811252D02*
X115280000Y-145288748D01*
X116700000Y-145811252D02*
X116700000Y-145288748D01*
D14*
X123160000Y-154810000D02*
X126160000Y-154810000D01*
X123160000Y-151810000D02*
X126160000Y-151810000D01*
D15*
X122265000Y-152360000D02*
G75*
G03*
X122265000Y-152360000I-100000J0D01*
G01*
D12*
X127521000Y-148294000D02*
G75*
G03*
X127521000Y-148294000I-127000J0D01*
G01*
X126454200Y-145508379D02*
X126454200Y-142951621D01*
X120373451Y-147354200D02*
X126286549Y-147354200D01*
X120205800Y-142951621D02*
X120205800Y-145508379D01*
X126286549Y-141105800D02*
X120373451Y-141105800D01*
X117096600Y-117700701D02*
G75*
G03*
X117096600Y-117700701I-381000J0D01*
G01*
D14*
X149790000Y-152910000D02*
X149790000Y-150710000D01*
X140850000Y-152910000D02*
X140850000Y-150710000D01*
X140850000Y-156380000D02*
X149790000Y-156380000D01*
D12*
X108801000Y-146596000D02*
G75*
G03*
X108801000Y-146596000I-127000J0D01*
G01*
X105888379Y-147535800D02*
X103331621Y-147535800D01*
X107734200Y-153616549D02*
X107734200Y-147703451D01*
X103331621Y-153784200D02*
X105888379Y-153784200D01*
X101485800Y-147703451D02*
X101485800Y-153616549D01*
D10*
X148240000Y-136890000D02*
G75*
G03*
X148240000Y-136890000I-950000J0D01*
G01*
X145700000Y-136890000D02*
G75*
G03*
X145700000Y-136890000I-950000J0D01*
G01*
X132570000Y-139500000D02*
G75*
G03*
X132570000Y-139500000I-950000J0D01*
G01*
X150780000Y-139420000D02*
G75*
G03*
X150780000Y-139420000I-950000J0D01*
G01*
X148240000Y-139430000D02*
G75*
G03*
X148240000Y-139430000I-950000J0D01*
G01*
X145700000Y-139430000D02*
G75*
G03*
X145700000Y-139430000I-950000J0D01*
G01*
X150780000Y-136890000D02*
G75*
G03*
X150780000Y-136890000I-950000J0D01*
G01*
X124950000Y-139500000D02*
G75*
G03*
X124950000Y-139500000I-950000J0D01*
G01*
X127490000Y-139500000D02*
G75*
G03*
X127490000Y-139500000I-950000J0D01*
G01*
X130030000Y-139500000D02*
G75*
G03*
X130030000Y-139500000I-950000J0D01*
G01*
X123313748Y-113120000D02*
X123836252Y-113120000D01*
X123313748Y-114540000D02*
X123836252Y-114540000D01*
D12*
X137690400Y-124320400D02*
X137690400Y-124835659D01*
X137690400Y-130619600D02*
X138205659Y-130619600D01*
X143989600Y-130619600D02*
X143989600Y-130104341D01*
X143989600Y-124320400D02*
X143474341Y-124320400D01*
X138205659Y-124320400D02*
X137690400Y-124320400D01*
X137690400Y-130104341D02*
X137690400Y-130619600D01*
X143474341Y-130619600D02*
X143989600Y-130619600D01*
X143989600Y-124835659D02*
X143989600Y-124320400D01*
X139630500Y-123634600D02*
X139249500Y-123634600D01*
X139249500Y-123634600D02*
X139249500Y-123888600D01*
X139249500Y-123888600D02*
X139630500Y-123888600D01*
X139630500Y-123888600D02*
X139630500Y-123634600D01*
X137258600Y-127879499D02*
X137004600Y-127879499D01*
X137004600Y-127879499D02*
X137004600Y-128260499D01*
X137004600Y-128260499D02*
X137258600Y-128260499D01*
X137258600Y-128260499D02*
X137258600Y-127879499D01*
X140830500Y-131305400D02*
X140449500Y-131305400D01*
X140449500Y-131305400D02*
X140449500Y-131051400D01*
X140449500Y-131051400D02*
X140830500Y-131051400D01*
X140830500Y-131051400D02*
X140830500Y-131305400D01*
X144421400Y-128279501D02*
X144675400Y-128279501D01*
X144675400Y-128279501D02*
X144675400Y-128660501D01*
X144675400Y-128660501D02*
X144421400Y-128660501D01*
X144421400Y-128660501D02*
X144421400Y-128279501D01*
D14*
X148890000Y-128320000D02*
X148890000Y-127720000D01*
X146390000Y-127720000D02*
X146390000Y-128320000D01*
D15*
X146770000Y-125670000D02*
G75*
G03*
X146770000Y-125670000I-100000J0D01*
G01*
D10*
X103680000Y-136550000D02*
X101880000Y-136550000D01*
X101880000Y-139770000D02*
X104330000Y-139770000D01*
X108140000Y-138390000D02*
X106340000Y-138390000D01*
X106340000Y-141610000D02*
X108790000Y-141610000D01*
X111580000Y-142763748D02*
X111580000Y-143286252D01*
X110160000Y-142763748D02*
X110160000Y-143286252D01*
X135363748Y-135650000D02*
X135886252Y-135650000D01*
X135363748Y-137070000D02*
X135886252Y-137070000D01*
X117473748Y-107180000D02*
X117996252Y-107180000D01*
X117473748Y-108600000D02*
X117996252Y-108600000D01*
X147900000Y-122056252D02*
X147900000Y-121533748D01*
X149320000Y-122056252D02*
X149320000Y-121533748D01*
X124600000Y-121186252D02*
X124600000Y-120663748D01*
X126020000Y-121186252D02*
X126020000Y-120663748D01*
X128650000Y-108703748D02*
X128650000Y-109226252D01*
X127230000Y-108703748D02*
X127230000Y-109226252D01*
X126590000Y-108753748D02*
X126590000Y-109276252D01*
X125170000Y-108753748D02*
X125170000Y-109276252D01*
X134890000Y-110166252D02*
X134890000Y-109643748D01*
X136310000Y-110166252D02*
X136310000Y-109643748D01*
X138366252Y-113640000D02*
X137843748Y-113640000D01*
X138366252Y-112220000D02*
X137843748Y-112220000D01*
X143340000Y-118633748D02*
X143340000Y-119156252D01*
X141920000Y-118633748D02*
X141920000Y-119156252D01*
D14*
X104475000Y-144210000D02*
X104475000Y-143550000D01*
X105725000Y-144210000D02*
X105725000Y-143550000D01*
D10*
X109675000Y-145780000D02*
X109675000Y-149665000D01*
X109675000Y-149665000D02*
X111945000Y-149665000D01*
X111945000Y-149665000D02*
X111945000Y-145780000D01*
X140547500Y-135400000D02*
X137862500Y-135400000D01*
X137862500Y-135400000D02*
X137862500Y-137320000D01*
X137862500Y-137320000D02*
X140547500Y-137320000D01*
X149405000Y-146000000D02*
X149405000Y-142115000D01*
X149405000Y-142115000D02*
X147135000Y-142115000D01*
X147135000Y-142115000D02*
X147135000Y-146000000D01*
X138680000Y-148760000D02*
X135960000Y-148760000D01*
X135960000Y-148760000D02*
X135960000Y-153740000D01*
X138680000Y-148760000D02*
X138680000Y-153740000D01*
X136523748Y-132120000D02*
X137046252Y-132120000D01*
X136523748Y-133540000D02*
X137046252Y-133540000D01*
X135040000Y-128408748D02*
X135040000Y-128931252D01*
X133620000Y-128408748D02*
X133620000Y-128931252D01*
X137160000Y-119413748D02*
X137160000Y-119936252D01*
X135740000Y-119413748D02*
X135740000Y-119936252D01*
X137333748Y-116140000D02*
X137856252Y-116140000D01*
X137333748Y-117560000D02*
X137856252Y-117560000D01*
X150090000Y-128546252D02*
X150090000Y-128023748D01*
X151510000Y-128546252D02*
X151510000Y-128023748D01*
X151370000Y-123623748D02*
X151370000Y-124146252D01*
X149950000Y-123623748D02*
X149950000Y-124146252D01*
X143363748Y-121020000D02*
X143886252Y-121020000D01*
X143363748Y-122440000D02*
X143886252Y-122440000D01*
X143403748Y-115370000D02*
X143926252Y-115370000D01*
X143403748Y-116790000D02*
X143926252Y-116790000D01*
X147363748Y-123980000D02*
X147886252Y-123980000D01*
X147363748Y-125400000D02*
X147886252Y-125400000D01*
X126473748Y-111120000D02*
X126996252Y-111120000D01*
X126473748Y-112540000D02*
X126996252Y-112540000D01*
X132590000Y-121076252D02*
X132590000Y-120553748D01*
X134010000Y-121076252D02*
X134010000Y-120553748D01*
X123263748Y-115270000D02*
X123786252Y-115270000D01*
X123263748Y-116690000D02*
X123786252Y-116690000D01*
X122173748Y-117230000D02*
X122696252Y-117230000D01*
X122173748Y-118650000D02*
X122696252Y-118650000D01*
X122238748Y-121290000D02*
X122761252Y-121290000D01*
X122238748Y-122710000D02*
X122761252Y-122710000D01*
X122238748Y-119290000D02*
X122761252Y-119290000D01*
X122238748Y-120710000D02*
X122761252Y-120710000D01*
X131390000Y-114518748D02*
X131390000Y-115041252D01*
X129970000Y-114518748D02*
X129970000Y-115041252D01*
X122418748Y-124390000D02*
X122941252Y-124390000D01*
X122418748Y-125810000D02*
X122941252Y-125810000D01*
X129310000Y-114543748D02*
X129310000Y-115066252D01*
X127890000Y-114543748D02*
X127890000Y-115066252D01*
X121670000Y-153348748D02*
X121670000Y-153871252D01*
X120250000Y-153348748D02*
X120250000Y-153871252D01*
X127400000Y-114493748D02*
X127400000Y-115016252D01*
X125980000Y-114493748D02*
X125980000Y-115016252D01*
X132201252Y-150570000D02*
X131678748Y-150570000D01*
X132201252Y-149150000D02*
X131678748Y-149150000D01*
X135310000Y-115133748D02*
X135310000Y-115656252D01*
X133890000Y-115133748D02*
X133890000Y-115656252D01*
X101180000Y-134706252D02*
X101180000Y-134183748D01*
X102600000Y-134706252D02*
X102600000Y-134183748D01*
X107823748Y-136470000D02*
X108346252Y-136470000D01*
X107823748Y-137890000D02*
X108346252Y-137890000D01*
X133340000Y-115153748D02*
X133340000Y-115676252D01*
X131920000Y-115153748D02*
X131920000Y-115676252D01*
X140668748Y-145820000D02*
X141191252Y-145820000D01*
X140668748Y-147240000D02*
X141191252Y-147240000D01*
X110888748Y-139310000D02*
X111411252Y-139310000D01*
X110888748Y-140730000D02*
X111411252Y-140730000D01*
X103046252Y-141680000D02*
X102523748Y-141680000D01*
X103046252Y-140260000D02*
X102523748Y-140260000D01*
X126200000Y-149911252D02*
X126200000Y-149388748D01*
X127620000Y-149911252D02*
X127620000Y-149388748D01*
X131750000Y-121608748D02*
X131750000Y-122131252D01*
X130330000Y-121608748D02*
X130330000Y-122131252D01*
X130568748Y-109110000D02*
X131091252Y-109110000D01*
X130568748Y-110530000D02*
X131091252Y-110530000D01*
D14*
X146560000Y-109590000D02*
X148260000Y-109590000D01*
X148260000Y-109590000D02*
X148260000Y-108110000D01*
X148260000Y-108110000D02*
X146560000Y-108110000D01*
X146560000Y-108110000D02*
X146560000Y-109590000D01*
D16*
G36*
X147293000Y-109495000D02*
G01*
X147293000Y-109114000D01*
X147420000Y-109114000D01*
X147420000Y-109495000D01*
X147293000Y-109495000D01*
G37*
X147293000Y-109495000D02*
X147293000Y-109114000D01*
X147420000Y-109114000D01*
X147420000Y-109495000D01*
X147293000Y-109495000D01*
D14*
X104108400Y-127868000D02*
X119208400Y-127868000D01*
X119208400Y-132288000D02*
X119208400Y-133468000D01*
X119208400Y-133468000D02*
X117878400Y-133468000D01*
D15*
X117508400Y-135218000D02*
G75*
G03*
X117508400Y-135218000I-100000J0D01*
G01*
D14*
X104108400Y-132288000D02*
X104108400Y-133468000D01*
X105438400Y-133468000D02*
X104108400Y-133468000D01*
X104108400Y-127868000D02*
X104108400Y-129448000D01*
X119208400Y-127868000D02*
X119208400Y-129448000D01*
D11*
X117442142Y-141812380D02*
X117108809Y-141336190D01*
X116870714Y-141812380D02*
X116870714Y-140812380D01*
X117251666Y-140812380D01*
X117346904Y-140860000D01*
X117394523Y-140907619D01*
X117442142Y-141002857D01*
X117442142Y-141145714D01*
X117394523Y-141240952D01*
X117346904Y-141288571D01*
X117251666Y-141336190D01*
X116870714Y-141336190D01*
X118394523Y-141812380D02*
X117823095Y-141812380D01*
X118108809Y-141812380D02*
X118108809Y-140812380D01*
X118013571Y-140955238D01*
X117918333Y-141050476D01*
X117823095Y-141098095D01*
X118727857Y-140812380D02*
X119394523Y-140812380D01*
X118965952Y-141812380D01*
X132782380Y-140611904D02*
X133591904Y-140611904D01*
X133687142Y-140564285D01*
X133734761Y-140516666D01*
X133782380Y-140421428D01*
X133782380Y-140230952D01*
X133734761Y-140135714D01*
X133687142Y-140088095D01*
X133591904Y-140040476D01*
X132782380Y-140040476D01*
X133210952Y-139421428D02*
X133163333Y-139516666D01*
X133115714Y-139564285D01*
X133020476Y-139611904D01*
X132972857Y-139611904D01*
X132877619Y-139564285D01*
X132830000Y-139516666D01*
X132782380Y-139421428D01*
X132782380Y-139230952D01*
X132830000Y-139135714D01*
X132877619Y-139088095D01*
X132972857Y-139040476D01*
X133020476Y-139040476D01*
X133115714Y-139088095D01*
X133163333Y-139135714D01*
X133210952Y-139230952D01*
X133210952Y-139421428D01*
X133258571Y-139516666D01*
X133306190Y-139564285D01*
X133401428Y-139611904D01*
X133591904Y-139611904D01*
X133687142Y-139564285D01*
X133734761Y-139516666D01*
X133782380Y-139421428D01*
X133782380Y-139230952D01*
X133734761Y-139135714D01*
X133687142Y-139088095D01*
X133591904Y-139040476D01*
X133401428Y-139040476D01*
X133306190Y-139088095D01*
X133258571Y-139135714D01*
X133210952Y-139230952D01*
X140235287Y-140689680D02*
X140336302Y-140117261D01*
X139831226Y-140285619D02*
X140538333Y-139578513D01*
X140807707Y-139847887D01*
X140841379Y-139948902D01*
X140841379Y-140016245D01*
X140807707Y-140117261D01*
X140706692Y-140218276D01*
X140605676Y-140251948D01*
X140538333Y-140251948D01*
X140437318Y-140218276D01*
X140167944Y-139948902D01*
X140908722Y-141363116D02*
X140504661Y-140959055D01*
X140706692Y-141161085D02*
X141413799Y-140453978D01*
X141245440Y-140487650D01*
X141110753Y-140487650D01*
X141009738Y-140453978D01*
X142221921Y-141262100D02*
X142087234Y-141127413D01*
X141986218Y-141093742D01*
X141918875Y-141093742D01*
X141750516Y-141127413D01*
X141582157Y-141228429D01*
X141312783Y-141497803D01*
X141279112Y-141598818D01*
X141279112Y-141666161D01*
X141312783Y-141767177D01*
X141447470Y-141901864D01*
X141548486Y-141935535D01*
X141615829Y-141935535D01*
X141716844Y-141901864D01*
X141885203Y-141733505D01*
X141918875Y-141632490D01*
X141918875Y-141565146D01*
X141885203Y-141464131D01*
X141750516Y-141329444D01*
X141649501Y-141295772D01*
X141582157Y-141295772D01*
X141481142Y-141329444D01*
X142915312Y-143844450D02*
X142342893Y-143743435D01*
X142511251Y-144248511D02*
X141804145Y-143541404D01*
X142073519Y-143272030D01*
X142174534Y-143238358D01*
X142241877Y-143238358D01*
X142342893Y-143272030D01*
X142443908Y-143373045D01*
X142477580Y-143474061D01*
X142477580Y-143541404D01*
X142443908Y-143642419D01*
X142174534Y-143911793D01*
X143588748Y-143171015D02*
X143184687Y-143575076D01*
X143386717Y-143373045D02*
X142679610Y-142665938D01*
X142713282Y-142834297D01*
X142713282Y-142968984D01*
X142679610Y-143070000D01*
X143521404Y-141824145D02*
X143184687Y-142160862D01*
X143487732Y-142531251D01*
X143487732Y-142463908D01*
X143521404Y-142362893D01*
X143689763Y-142194534D01*
X143790778Y-142160862D01*
X143858122Y-142160862D01*
X143959137Y-142194534D01*
X144127496Y-142362893D01*
X144161167Y-142463908D01*
X144161167Y-142531251D01*
X144127496Y-142632267D01*
X143959137Y-142800625D01*
X143858122Y-142834297D01*
X143790778Y-142834297D01*
X142447969Y-137707106D02*
X142447969Y-137774450D01*
X142380625Y-137909137D01*
X142313282Y-137976480D01*
X142178595Y-138043824D01*
X142043908Y-138043824D01*
X141942893Y-138010152D01*
X141774534Y-137909137D01*
X141673519Y-137808122D01*
X141572503Y-137639763D01*
X141538832Y-137538748D01*
X141538832Y-137404061D01*
X141606175Y-137269374D01*
X141673519Y-137202030D01*
X141808206Y-137134687D01*
X141875549Y-137134687D01*
X142650000Y-136696954D02*
X143121404Y-137168358D01*
X142212267Y-136595938D02*
X142548984Y-137269374D01*
X142986717Y-136831641D01*
X143087732Y-135787816D02*
X142953045Y-135922503D01*
X142919374Y-136023519D01*
X142919374Y-136090862D01*
X142953045Y-136259221D01*
X143054061Y-136427580D01*
X143323435Y-136696954D01*
X143424450Y-136730625D01*
X143491793Y-136730625D01*
X143592809Y-136696954D01*
X143727496Y-136562267D01*
X143761167Y-136461251D01*
X143761167Y-136393908D01*
X143727496Y-136292893D01*
X143559137Y-136124534D01*
X143458122Y-136090862D01*
X143390778Y-136090862D01*
X143289763Y-136124534D01*
X143155076Y-136259221D01*
X143121404Y-136360236D01*
X143121404Y-136427580D01*
X143155076Y-136528595D01*
X141263155Y-142753601D02*
X141195811Y-142753601D01*
X141061124Y-142686257D01*
X140993781Y-142618914D01*
X140926437Y-142484227D01*
X140926437Y-142349540D01*
X140960109Y-142248525D01*
X141061124Y-142080166D01*
X141162139Y-141979151D01*
X141330498Y-141878135D01*
X141431513Y-141844464D01*
X141566200Y-141844464D01*
X141700887Y-141911807D01*
X141768231Y-141979151D01*
X141835574Y-142113838D01*
X141835574Y-142181181D01*
X142273307Y-142955632D02*
X141801903Y-143427036D01*
X142374323Y-142517899D02*
X141700887Y-142854616D01*
X142138620Y-143292349D01*
X143216116Y-143427036D02*
X142879399Y-143090319D01*
X142509010Y-143393364D01*
X142576353Y-143393364D01*
X142677368Y-143427036D01*
X142845727Y-143595395D01*
X142879399Y-143696410D01*
X142879399Y-143763754D01*
X142845727Y-143864769D01*
X142677368Y-144033128D01*
X142576353Y-144066799D01*
X142509010Y-144066799D01*
X142407994Y-144033128D01*
X142239636Y-143864769D01*
X142205964Y-143763754D01*
X142205964Y-143696410D01*
D17*
X130348102Y-147770598D02*
X130160626Y-147901831D01*
X130348102Y-147995570D02*
X129954401Y-147995570D01*
X129954401Y-147845588D01*
X129973149Y-147808093D01*
X129991897Y-147789345D01*
X130029392Y-147770598D01*
X130085635Y-147770598D01*
X130123130Y-147789345D01*
X130141878Y-147808093D01*
X130160626Y-147845588D01*
X130160626Y-147995570D01*
X129954401Y-147658112D02*
X129954401Y-147433140D01*
X130348102Y-147545626D02*
X129954401Y-147545626D01*
X130348102Y-147095682D02*
X130348102Y-147320654D01*
X130348102Y-147208168D02*
X129954401Y-147208168D01*
X130010644Y-147245663D01*
X130048140Y-147283158D01*
X130066887Y-147320654D01*
D11*
X129917142Y-146292380D02*
X129583809Y-145816190D01*
X129345714Y-146292380D02*
X129345714Y-145292380D01*
X129726666Y-145292380D01*
X129821904Y-145340000D01*
X129869523Y-145387619D01*
X129917142Y-145482857D01*
X129917142Y-145625714D01*
X129869523Y-145720952D01*
X129821904Y-145768571D01*
X129726666Y-145816190D01*
X129345714Y-145816190D01*
X130869523Y-146292380D02*
X130298095Y-146292380D01*
X130583809Y-146292380D02*
X130583809Y-145292380D01*
X130488571Y-145435238D01*
X130393333Y-145530476D01*
X130298095Y-145578095D01*
X131250476Y-145387619D02*
X131298095Y-145340000D01*
X131393333Y-145292380D01*
X131631428Y-145292380D01*
X131726666Y-145340000D01*
X131774285Y-145387619D01*
X131821904Y-145482857D01*
X131821904Y-145578095D01*
X131774285Y-145720952D01*
X131202857Y-146292380D01*
X131821904Y-146292380D01*
D17*
X133034476Y-149295630D02*
X133034476Y-150623950D01*
X133112612Y-150780223D01*
X133190749Y-150858360D01*
X133347022Y-150936496D01*
X133659568Y-150936496D01*
X133815841Y-150858360D01*
X133893977Y-150780223D01*
X133972114Y-150623950D01*
X133972114Y-149295630D01*
X135534843Y-149295630D02*
X134753478Y-149295630D01*
X134675342Y-150076995D01*
X134753478Y-149998858D01*
X134909751Y-149920722D01*
X135300434Y-149920722D01*
X135456707Y-149998858D01*
X135534843Y-150076995D01*
X135612980Y-150233268D01*
X135612980Y-150623950D01*
X135534843Y-150780223D01*
X135456707Y-150858360D01*
X135300434Y-150936496D01*
X134909751Y-150936496D01*
X134753478Y-150858360D01*
X134675342Y-150780223D01*
X137793830Y-147791570D02*
X137793830Y-148029966D01*
X137555434Y-147934608D02*
X137793830Y-148029966D01*
X138032225Y-147934608D01*
X137650792Y-148220682D02*
X137793830Y-148029966D01*
X137936867Y-148220682D01*
X137793830Y-147791570D02*
X137793830Y-148029966D01*
X137555434Y-147934608D02*
X137793830Y-148029966D01*
X138032225Y-147934608D01*
X137650792Y-148220682D02*
X137793830Y-148029966D01*
X137936867Y-148220682D01*
D11*
X113083333Y-153157142D02*
X113035714Y-153204761D01*
X112892857Y-153252380D01*
X112797619Y-153252380D01*
X112654761Y-153204761D01*
X112559523Y-153109523D01*
X112511904Y-153014285D01*
X112464285Y-152823809D01*
X112464285Y-152680952D01*
X112511904Y-152490476D01*
X112559523Y-152395238D01*
X112654761Y-152300000D01*
X112797619Y-152252380D01*
X112892857Y-152252380D01*
X113035714Y-152300000D01*
X113083333Y-152347619D01*
X113940476Y-152585714D02*
X113940476Y-153252380D01*
X113702380Y-152204761D02*
X113464285Y-152919047D01*
X114083333Y-152919047D01*
X115168095Y-155112380D02*
X115168095Y-155921904D01*
X115215714Y-156017142D01*
X115263333Y-156064761D01*
X115358571Y-156112380D01*
X115549047Y-156112380D01*
X115644285Y-156064761D01*
X115691904Y-156017142D01*
X115739523Y-155921904D01*
X115739523Y-155112380D01*
X116168095Y-155207619D02*
X116215714Y-155160000D01*
X116310952Y-155112380D01*
X116549047Y-155112380D01*
X116644285Y-155160000D01*
X116691904Y-155207619D01*
X116739523Y-155302857D01*
X116739523Y-155398095D01*
X116691904Y-155540952D01*
X116120476Y-156112380D01*
X116739523Y-156112380D01*
X114902380Y-144401666D02*
X114426190Y-144735000D01*
X114902380Y-144973095D02*
X113902380Y-144973095D01*
X113902380Y-144592142D01*
X113950000Y-144496904D01*
X113997619Y-144449285D01*
X114092857Y-144401666D01*
X114235714Y-144401666D01*
X114330952Y-144449285D01*
X114378571Y-144496904D01*
X114426190Y-144592142D01*
X114426190Y-144973095D01*
X113902380Y-143544523D02*
X113902380Y-143735000D01*
X113950000Y-143830238D01*
X113997619Y-143877857D01*
X114140476Y-143973095D01*
X114330952Y-144020714D01*
X114711904Y-144020714D01*
X114807142Y-143973095D01*
X114854761Y-143925476D01*
X114902380Y-143830238D01*
X114902380Y-143639761D01*
X114854761Y-143544523D01*
X114807142Y-143496904D01*
X114711904Y-143449285D01*
X114473809Y-143449285D01*
X114378571Y-143496904D01*
X114330952Y-143544523D01*
X114283333Y-143639761D01*
X114283333Y-143830238D01*
X114330952Y-143925476D01*
X114378571Y-143973095D01*
X114473809Y-144020714D01*
D17*
X123491904Y-154862380D02*
X123491904Y-155671904D01*
X123539523Y-155767142D01*
X123587142Y-155814761D01*
X123682380Y-155862380D01*
X123872857Y-155862380D01*
X123968095Y-155814761D01*
X124015714Y-155767142D01*
X124063333Y-155671904D01*
X124063333Y-154862380D01*
X125063333Y-155862380D02*
X124491904Y-155862380D01*
X124777619Y-155862380D02*
X124777619Y-154862380D01*
X124682380Y-155005238D01*
X124587142Y-155100476D01*
X124491904Y-155148095D01*
X126015714Y-155862380D02*
X125444285Y-155862380D01*
X125730000Y-155862380D02*
X125730000Y-154862380D01*
X125634761Y-155005238D01*
X125539523Y-155100476D01*
X125444285Y-155148095D01*
D11*
X122448095Y-147752380D02*
X122448095Y-148561904D01*
X122495714Y-148657142D01*
X122543333Y-148704761D01*
X122638571Y-148752380D01*
X122829047Y-148752380D01*
X122924285Y-148704761D01*
X122971904Y-148657142D01*
X123019523Y-148561904D01*
X123019523Y-147752380D01*
X123543333Y-148752380D02*
X123733809Y-148752380D01*
X123829047Y-148704761D01*
X123876666Y-148657142D01*
X123971904Y-148514285D01*
X124019523Y-148323809D01*
X124019523Y-147942857D01*
X123971904Y-147847619D01*
X123924285Y-147800000D01*
X123829047Y-147752380D01*
X123638571Y-147752380D01*
X123543333Y-147800000D01*
X123495714Y-147847619D01*
X123448095Y-147942857D01*
X123448095Y-148180952D01*
X123495714Y-148276190D01*
X123543333Y-148323809D01*
X123638571Y-148371428D01*
X123829047Y-148371428D01*
X123924285Y-148323809D01*
X123971904Y-148276190D01*
X124019523Y-148180952D01*
X123330000Y-143682380D02*
X123330000Y-143920476D01*
X123091904Y-143825238D02*
X123330000Y-143920476D01*
X123568095Y-143825238D01*
X123187142Y-144110952D02*
X123330000Y-143920476D01*
X123472857Y-144110952D01*
D17*
X143086342Y-146337575D02*
X143086342Y-147054431D01*
X143038551Y-147197802D01*
X142942971Y-147293383D01*
X142799600Y-147341173D01*
X142704019Y-147341173D01*
X143468665Y-146337575D02*
X144089940Y-146337575D01*
X143755407Y-146719898D01*
X143898778Y-146719898D01*
X143994359Y-146767689D01*
X144042149Y-146815479D01*
X144089940Y-146911060D01*
X144089940Y-147150012D01*
X144042149Y-147245592D01*
X143994359Y-147293383D01*
X143898778Y-147341173D01*
X143612036Y-147341173D01*
X143516455Y-147293383D01*
X143468665Y-147245592D01*
D11*
X108102380Y-151988095D02*
X108911904Y-151988095D01*
X109007142Y-151940476D01*
X109054761Y-151892857D01*
X109102380Y-151797619D01*
X109102380Y-151607142D01*
X109054761Y-151511904D01*
X109007142Y-151464285D01*
X108911904Y-151416666D01*
X108102380Y-151416666D01*
X109102380Y-150416666D02*
X109102380Y-150988095D01*
X109102380Y-150702380D02*
X108102380Y-150702380D01*
X108245238Y-150797619D01*
X108340476Y-150892857D01*
X108388095Y-150988095D01*
X108102380Y-149797619D02*
X108102380Y-149702380D01*
X108150000Y-149607142D01*
X108197619Y-149559523D01*
X108292857Y-149511904D01*
X108483333Y-149464285D01*
X108721428Y-149464285D01*
X108911904Y-149511904D01*
X109007142Y-149559523D01*
X109054761Y-149607142D01*
X109102380Y-149702380D01*
X109102380Y-149797619D01*
X109054761Y-149892857D01*
X109007142Y-149940476D01*
X108911904Y-149988095D01*
X108721428Y-150035714D01*
X108483333Y-150035714D01*
X108292857Y-149988095D01*
X108197619Y-149940476D01*
X108150000Y-149892857D01*
X108102380Y-149797619D01*
X104062380Y-150660000D02*
X104300476Y-150660000D01*
X104205238Y-150898095D02*
X104300476Y-150660000D01*
X104205238Y-150421904D01*
X104490952Y-150802857D02*
X104300476Y-150660000D01*
X104490952Y-150517142D01*
X145551904Y-134694380D02*
X146123333Y-134694380D01*
X145837619Y-135694380D02*
X145837619Y-134694380D01*
X146456666Y-135694380D02*
X146456666Y-134694380D01*
X146837619Y-134694380D01*
X146932857Y-134742000D01*
X146980476Y-134789619D01*
X147028095Y-134884857D01*
X147028095Y-135027714D01*
X146980476Y-135122952D01*
X146932857Y-135170571D01*
X146837619Y-135218190D01*
X146456666Y-135218190D01*
X147980476Y-135694380D02*
X147409047Y-135694380D01*
X147694761Y-135694380D02*
X147694761Y-134694380D01*
X147599523Y-134837238D01*
X147504285Y-134932476D01*
X147409047Y-134980095D01*
X148932857Y-135694380D02*
X148361428Y-135694380D01*
X148647142Y-135694380D02*
X148647142Y-134694380D01*
X148551904Y-134837238D01*
X148456666Y-134932476D01*
X148361428Y-134980095D01*
X143011904Y-134694380D02*
X143583333Y-134694380D01*
X143297619Y-135694380D02*
X143297619Y-134694380D01*
X143916666Y-135694380D02*
X143916666Y-134694380D01*
X144297619Y-134694380D01*
X144392857Y-134742000D01*
X144440476Y-134789619D01*
X144488095Y-134884857D01*
X144488095Y-135027714D01*
X144440476Y-135122952D01*
X144392857Y-135170571D01*
X144297619Y-135218190D01*
X143916666Y-135218190D01*
X145440476Y-135694380D02*
X144869047Y-135694380D01*
X145154761Y-135694380D02*
X145154761Y-134694380D01*
X145059523Y-134837238D01*
X144964285Y-134932476D01*
X144869047Y-134980095D01*
X146059523Y-134694380D02*
X146154761Y-134694380D01*
X146250000Y-134742000D01*
X146297619Y-134789619D01*
X146345238Y-134884857D01*
X146392857Y-135075333D01*
X146392857Y-135313428D01*
X146345238Y-135503904D01*
X146297619Y-135599142D01*
X146250000Y-135646761D01*
X146154761Y-135694380D01*
X146059523Y-135694380D01*
X145964285Y-135646761D01*
X145916666Y-135599142D01*
X145869047Y-135503904D01*
X145821428Y-135313428D01*
X145821428Y-135075333D01*
X145869047Y-134884857D01*
X145916666Y-134789619D01*
X145964285Y-134742000D01*
X146059523Y-134694380D01*
X130428095Y-137162380D02*
X130999523Y-137162380D01*
X130713809Y-138162380D02*
X130713809Y-137162380D01*
X131332857Y-138162380D02*
X131332857Y-137162380D01*
X131713809Y-137162380D01*
X131809047Y-137210000D01*
X131856666Y-137257619D01*
X131904285Y-137352857D01*
X131904285Y-137495714D01*
X131856666Y-137590952D01*
X131809047Y-137638571D01*
X131713809Y-137686190D01*
X131332857Y-137686190D01*
X132380476Y-138162380D02*
X132570952Y-138162380D01*
X132666190Y-138114761D01*
X132713809Y-138067142D01*
X132809047Y-137924285D01*
X132856666Y-137733809D01*
X132856666Y-137352857D01*
X132809047Y-137257619D01*
X132761428Y-137210000D01*
X132666190Y-137162380D01*
X132475714Y-137162380D01*
X132380476Y-137210000D01*
X132332857Y-137257619D01*
X132285238Y-137352857D01*
X132285238Y-137590952D01*
X132332857Y-137686190D01*
X132380476Y-137733809D01*
X132475714Y-137781428D01*
X132666190Y-137781428D01*
X132761428Y-137733809D01*
X132809047Y-137686190D01*
X132856666Y-137590952D01*
X148568095Y-137224380D02*
X149139523Y-137224380D01*
X148853809Y-138224380D02*
X148853809Y-137224380D01*
X149472857Y-138224380D02*
X149472857Y-137224380D01*
X149853809Y-137224380D01*
X149949047Y-137272000D01*
X149996666Y-137319619D01*
X150044285Y-137414857D01*
X150044285Y-137557714D01*
X149996666Y-137652952D01*
X149949047Y-137700571D01*
X149853809Y-137748190D01*
X149472857Y-137748190D01*
X150377619Y-137224380D02*
X151044285Y-137224380D01*
X150615714Y-138224380D01*
X146028095Y-137234380D02*
X146599523Y-137234380D01*
X146313809Y-138234380D02*
X146313809Y-137234380D01*
X146932857Y-138234380D02*
X146932857Y-137234380D01*
X147313809Y-137234380D01*
X147409047Y-137282000D01*
X147456666Y-137329619D01*
X147504285Y-137424857D01*
X147504285Y-137567714D01*
X147456666Y-137662952D01*
X147409047Y-137710571D01*
X147313809Y-137758190D01*
X146932857Y-137758190D01*
X148361428Y-137234380D02*
X148170952Y-137234380D01*
X148075714Y-137282000D01*
X148028095Y-137329619D01*
X147932857Y-137472476D01*
X147885238Y-137662952D01*
X147885238Y-138043904D01*
X147932857Y-138139142D01*
X147980476Y-138186761D01*
X148075714Y-138234380D01*
X148266190Y-138234380D01*
X148361428Y-138186761D01*
X148409047Y-138139142D01*
X148456666Y-138043904D01*
X148456666Y-137805809D01*
X148409047Y-137710571D01*
X148361428Y-137662952D01*
X148266190Y-137615333D01*
X148075714Y-137615333D01*
X147980476Y-137662952D01*
X147932857Y-137710571D01*
X147885238Y-137805809D01*
X143488095Y-137234380D02*
X144059523Y-137234380D01*
X143773809Y-138234380D02*
X143773809Y-137234380D01*
X144392857Y-138234380D02*
X144392857Y-137234380D01*
X144773809Y-137234380D01*
X144869047Y-137282000D01*
X144916666Y-137329619D01*
X144964285Y-137424857D01*
X144964285Y-137567714D01*
X144916666Y-137662952D01*
X144869047Y-137710571D01*
X144773809Y-137758190D01*
X144392857Y-137758190D01*
X145869047Y-137234380D02*
X145392857Y-137234380D01*
X145345238Y-137710571D01*
X145392857Y-137662952D01*
X145488095Y-137615333D01*
X145726190Y-137615333D01*
X145821428Y-137662952D01*
X145869047Y-137710571D01*
X145916666Y-137805809D01*
X145916666Y-138043904D01*
X145869047Y-138139142D01*
X145821428Y-138186761D01*
X145726190Y-138234380D01*
X145488095Y-138234380D01*
X145392857Y-138186761D01*
X145345238Y-138139142D01*
X148568095Y-134694380D02*
X149139523Y-134694380D01*
X148853809Y-135694380D02*
X148853809Y-134694380D01*
X149472857Y-135694380D02*
X149472857Y-134694380D01*
X149853809Y-134694380D01*
X149949047Y-134742000D01*
X149996666Y-134789619D01*
X150044285Y-134884857D01*
X150044285Y-135027714D01*
X149996666Y-135122952D01*
X149949047Y-135170571D01*
X149853809Y-135218190D01*
X149472857Y-135218190D01*
X150901428Y-135027714D02*
X150901428Y-135694380D01*
X150663333Y-134646761D02*
X150425238Y-135361047D01*
X151044285Y-135361047D01*
X120288095Y-139282380D02*
X120859523Y-139282380D01*
X120573809Y-140282380D02*
X120573809Y-139282380D01*
X121192857Y-140282380D02*
X121192857Y-139282380D01*
X121573809Y-139282380D01*
X121669047Y-139330000D01*
X121716666Y-139377619D01*
X121764285Y-139472857D01*
X121764285Y-139615714D01*
X121716666Y-139710952D01*
X121669047Y-139758571D01*
X121573809Y-139806190D01*
X121192857Y-139806190D01*
X122097619Y-139282380D02*
X122716666Y-139282380D01*
X122383333Y-139663333D01*
X122526190Y-139663333D01*
X122621428Y-139710952D01*
X122669047Y-139758571D01*
X122716666Y-139853809D01*
X122716666Y-140091904D01*
X122669047Y-140187142D01*
X122621428Y-140234761D01*
X122526190Y-140282380D01*
X122240476Y-140282380D01*
X122145238Y-140234761D01*
X122097619Y-140187142D01*
X124253333Y-137894761D02*
X124348571Y-137942380D01*
X124539047Y-137942380D01*
X124634285Y-137894761D01*
X124681904Y-137799523D01*
X124681904Y-137751904D01*
X124634285Y-137656666D01*
X124539047Y-137609047D01*
X124396190Y-137609047D01*
X124300952Y-137561428D01*
X124253333Y-137466190D01*
X124253333Y-137418571D01*
X124300952Y-137323333D01*
X124396190Y-137275714D01*
X124539047Y-137275714D01*
X124634285Y-137323333D01*
X125015238Y-137275714D02*
X125205714Y-137942380D01*
X125396190Y-137466190D01*
X125586666Y-137942380D01*
X125777142Y-137275714D01*
X126586666Y-137942380D02*
X126586666Y-136942380D01*
X126586666Y-137894761D02*
X126491428Y-137942380D01*
X126300952Y-137942380D01*
X126205714Y-137894761D01*
X126158095Y-137847142D01*
X126110476Y-137751904D01*
X126110476Y-137466190D01*
X126158095Y-137370952D01*
X126205714Y-137323333D01*
X126300952Y-137275714D01*
X126491428Y-137275714D01*
X126586666Y-137323333D01*
X127586666Y-137942380D02*
X127015238Y-137942380D01*
X127300952Y-137942380D02*
X127300952Y-136942380D01*
X127205714Y-137085238D01*
X127110476Y-137180476D01*
X127015238Y-137228095D01*
X127027142Y-137894761D02*
X127122380Y-137942380D01*
X127312857Y-137942380D01*
X127408095Y-137894761D01*
X127455714Y-137799523D01*
X127455714Y-137751904D01*
X127408095Y-137656666D01*
X127312857Y-137609047D01*
X127170000Y-137609047D01*
X127074761Y-137561428D01*
X127027142Y-137466190D01*
X127027142Y-137418571D01*
X127074761Y-137323333D01*
X127170000Y-137275714D01*
X127312857Y-137275714D01*
X127408095Y-137323333D01*
X127789047Y-137275714D02*
X127979523Y-137942380D01*
X128170000Y-137466190D01*
X128360476Y-137942380D01*
X128550952Y-137275714D01*
X129360476Y-137894761D02*
X129265238Y-137942380D01*
X129074761Y-137942380D01*
X128979523Y-137894761D01*
X128931904Y-137847142D01*
X128884285Y-137751904D01*
X128884285Y-137466190D01*
X128931904Y-137370952D01*
X128979523Y-137323333D01*
X129074761Y-137275714D01*
X129265238Y-137275714D01*
X129360476Y-137323333D01*
X130312857Y-137942380D02*
X129741428Y-137942380D01*
X130027142Y-137942380D02*
X130027142Y-136942380D01*
X129931904Y-137085238D01*
X129836666Y-137180476D01*
X129741428Y-137228095D01*
X119642142Y-113797142D02*
X119594523Y-113844761D01*
X119451666Y-113892380D01*
X119356428Y-113892380D01*
X119213571Y-113844761D01*
X119118333Y-113749523D01*
X119070714Y-113654285D01*
X119023095Y-113463809D01*
X119023095Y-113320952D01*
X119070714Y-113130476D01*
X119118333Y-113035238D01*
X119213571Y-112940000D01*
X119356428Y-112892380D01*
X119451666Y-112892380D01*
X119594523Y-112940000D01*
X119642142Y-112987619D01*
X120023095Y-112987619D02*
X120070714Y-112940000D01*
X120165952Y-112892380D01*
X120404047Y-112892380D01*
X120499285Y-112940000D01*
X120546904Y-112987619D01*
X120594523Y-113082857D01*
X120594523Y-113178095D01*
X120546904Y-113320952D01*
X119975476Y-113892380D01*
X120594523Y-113892380D01*
X121546904Y-113892380D02*
X120975476Y-113892380D01*
X121261190Y-113892380D02*
X121261190Y-112892380D01*
X121165952Y-113035238D01*
X121070714Y-113130476D01*
X120975476Y-113178095D01*
X140292380Y-128231904D02*
X141101904Y-128231904D01*
X141197142Y-128184285D01*
X141244761Y-128136666D01*
X141292380Y-128041428D01*
X141292380Y-127850952D01*
X141244761Y-127755714D01*
X141197142Y-127708095D01*
X141101904Y-127660476D01*
X140292380Y-127660476D01*
X140292380Y-126755714D02*
X140292380Y-126946190D01*
X140340000Y-127041428D01*
X140387619Y-127089047D01*
X140530476Y-127184285D01*
X140720952Y-127231904D01*
X141101904Y-127231904D01*
X141197142Y-127184285D01*
X141244761Y-127136666D01*
X141292380Y-127041428D01*
X141292380Y-126850952D01*
X141244761Y-126755714D01*
X141197142Y-126708095D01*
X141101904Y-126660476D01*
X140863809Y-126660476D01*
X140768571Y-126708095D01*
X140720952Y-126755714D01*
X140673333Y-126850952D01*
X140673333Y-127041428D01*
X140720952Y-127136666D01*
X140768571Y-127184285D01*
X140863809Y-127231904D01*
X135900476Y-132878571D02*
X136233809Y-132878571D01*
X136376666Y-133402380D02*
X135900476Y-133402380D01*
X135900476Y-132402380D01*
X136376666Y-132402380D01*
X136757619Y-133354761D02*
X136900476Y-133402380D01*
X137138571Y-133402380D01*
X137233809Y-133354761D01*
X137281428Y-133307142D01*
X137329047Y-133211904D01*
X137329047Y-133116666D01*
X137281428Y-133021428D01*
X137233809Y-132973809D01*
X137138571Y-132926190D01*
X136948095Y-132878571D01*
X136852857Y-132830952D01*
X136805238Y-132783333D01*
X136757619Y-132688095D01*
X136757619Y-132592857D01*
X136805238Y-132497619D01*
X136852857Y-132450000D01*
X136948095Y-132402380D01*
X137186190Y-132402380D01*
X137329047Y-132450000D01*
X137757619Y-133402380D02*
X137757619Y-132402380D01*
X138138571Y-132402380D01*
X138233809Y-132450000D01*
X138281428Y-132497619D01*
X138329047Y-132592857D01*
X138329047Y-132735714D01*
X138281428Y-132830952D01*
X138233809Y-132878571D01*
X138138571Y-132926190D01*
X137757619Y-132926190D01*
X138662380Y-132402380D02*
X139281428Y-132402380D01*
X138948095Y-132783333D01*
X139090952Y-132783333D01*
X139186190Y-132830952D01*
X139233809Y-132878571D01*
X139281428Y-132973809D01*
X139281428Y-133211904D01*
X139233809Y-133307142D01*
X139186190Y-133354761D01*
X139090952Y-133402380D01*
X138805238Y-133402380D01*
X138710000Y-133354761D01*
X138662380Y-133307142D01*
X139662380Y-132497619D02*
X139710000Y-132450000D01*
X139805238Y-132402380D01*
X140043333Y-132402380D01*
X140138571Y-132450000D01*
X140186190Y-132497619D01*
X140233809Y-132592857D01*
X140233809Y-132688095D01*
X140186190Y-132830952D01*
X139614761Y-133402380D01*
X140233809Y-133402380D01*
X140662380Y-133021428D02*
X141424285Y-133021428D01*
X141900476Y-133402380D02*
X141900476Y-132402380D01*
X142138571Y-132402380D01*
X142281428Y-132450000D01*
X142376666Y-132545238D01*
X142424285Y-132640476D01*
X142471904Y-132830952D01*
X142471904Y-132973809D01*
X142424285Y-133164285D01*
X142376666Y-133259523D01*
X142281428Y-133354761D01*
X142138571Y-133402380D01*
X141900476Y-133402380D01*
X143090952Y-132402380D02*
X143186190Y-132402380D01*
X143281428Y-132450000D01*
X143329047Y-132497619D01*
X143376666Y-132592857D01*
X143424285Y-132783333D01*
X143424285Y-133021428D01*
X143376666Y-133211904D01*
X143329047Y-133307142D01*
X143281428Y-133354761D01*
X143186190Y-133402380D01*
X143090952Y-133402380D01*
X142995714Y-133354761D01*
X142948095Y-133307142D01*
X142900476Y-133211904D01*
X142852857Y-133021428D01*
X142852857Y-132783333D01*
X142900476Y-132592857D01*
X142948095Y-132497619D01*
X142995714Y-132450000D01*
X143090952Y-132402380D01*
X143757619Y-132402380D02*
X143995714Y-133402380D01*
X144186190Y-132688095D01*
X144376666Y-133402380D01*
X144614761Y-132402380D01*
X144995714Y-133402380D02*
X144995714Y-132402380D01*
X145233809Y-132402380D01*
X145376666Y-132450000D01*
X145471904Y-132545238D01*
X145519523Y-132640476D01*
X145567142Y-132830952D01*
X145567142Y-132973809D01*
X145519523Y-133164285D01*
X145471904Y-133259523D01*
X145376666Y-133354761D01*
X145233809Y-133402380D01*
X144995714Y-133402380D01*
X142692380Y-123507600D02*
X142930476Y-123507600D01*
X142835238Y-123745695D02*
X142930476Y-123507600D01*
X142835238Y-123269504D01*
X143120952Y-123650457D02*
X142930476Y-123507600D01*
X143120952Y-123364742D01*
X142692380Y-123507600D02*
X142930476Y-123507600D01*
X142835238Y-123745695D02*
X142930476Y-123507600D01*
X142835238Y-123269504D01*
X143120952Y-123650457D02*
X142930476Y-123507600D01*
X143120952Y-123364742D01*
D17*
X149737441Y-127721985D02*
X149966456Y-127721985D01*
X149485524Y-127882295D02*
X149737441Y-127721985D01*
X149485524Y-127561674D01*
X149966456Y-127149447D02*
X149966456Y-127424265D01*
X149966456Y-127286856D02*
X149485524Y-127286856D01*
X149554229Y-127332659D01*
X149600032Y-127378462D01*
X149622933Y-127424265D01*
D11*
X104692380Y-139031904D02*
X105501904Y-139031904D01*
X105597142Y-138984285D01*
X105644761Y-138936666D01*
X105692380Y-138841428D01*
X105692380Y-138650952D01*
X105644761Y-138555714D01*
X105597142Y-138508095D01*
X105501904Y-138460476D01*
X104692380Y-138460476D01*
X105025714Y-137555714D02*
X105692380Y-137555714D01*
X104644761Y-137793809D02*
X105359047Y-138031904D01*
X105359047Y-137412857D01*
X106398095Y-136982380D02*
X106398095Y-137791904D01*
X106445714Y-137887142D01*
X106493333Y-137934761D01*
X106588571Y-137982380D01*
X106779047Y-137982380D01*
X106874285Y-137934761D01*
X106921904Y-137887142D01*
X106969523Y-137791904D01*
X106969523Y-136982380D01*
X107350476Y-136982380D02*
X107969523Y-136982380D01*
X107636190Y-137363333D01*
X107779047Y-137363333D01*
X107874285Y-137410952D01*
X107921904Y-137458571D01*
X107969523Y-137553809D01*
X107969523Y-137791904D01*
X107921904Y-137887142D01*
X107874285Y-137934761D01*
X107779047Y-137982380D01*
X107493333Y-137982380D01*
X107398095Y-137934761D01*
X107350476Y-137887142D01*
X109452380Y-143932857D02*
X108976190Y-144266190D01*
X109452380Y-144504285D02*
X108452380Y-144504285D01*
X108452380Y-144123333D01*
X108500000Y-144028095D01*
X108547619Y-143980476D01*
X108642857Y-143932857D01*
X108785714Y-143932857D01*
X108880952Y-143980476D01*
X108928571Y-144028095D01*
X108976190Y-144123333D01*
X108976190Y-144504285D01*
X109452380Y-142980476D02*
X109452380Y-143551904D01*
X109452380Y-143266190D02*
X108452380Y-143266190D01*
X108595238Y-143361428D01*
X108690476Y-143456666D01*
X108738095Y-143551904D01*
X108785714Y-142123333D02*
X109452380Y-142123333D01*
X108404761Y-142361428D02*
X109119047Y-142599523D01*
X109119047Y-141980476D01*
X134982142Y-135162380D02*
X134648809Y-134686190D01*
X134410714Y-135162380D02*
X134410714Y-134162380D01*
X134791666Y-134162380D01*
X134886904Y-134210000D01*
X134934523Y-134257619D01*
X134982142Y-134352857D01*
X134982142Y-134495714D01*
X134934523Y-134590952D01*
X134886904Y-134638571D01*
X134791666Y-134686190D01*
X134410714Y-134686190D01*
X135934523Y-135162380D02*
X135363095Y-135162380D01*
X135648809Y-135162380D02*
X135648809Y-134162380D01*
X135553571Y-134305238D01*
X135458333Y-134400476D01*
X135363095Y-134448095D01*
X136267857Y-134162380D02*
X136886904Y-134162380D01*
X136553571Y-134543333D01*
X136696428Y-134543333D01*
X136791666Y-134590952D01*
X136839285Y-134638571D01*
X136886904Y-134733809D01*
X136886904Y-134971904D01*
X136839285Y-135067142D01*
X136791666Y-135114761D01*
X136696428Y-135162380D01*
X136410714Y-135162380D01*
X136315476Y-135114761D01*
X136267857Y-135067142D01*
X117092142Y-106692380D02*
X116758809Y-106216190D01*
X116520714Y-106692380D02*
X116520714Y-105692380D01*
X116901666Y-105692380D01*
X116996904Y-105740000D01*
X117044523Y-105787619D01*
X117092142Y-105882857D01*
X117092142Y-106025714D01*
X117044523Y-106120952D01*
X116996904Y-106168571D01*
X116901666Y-106216190D01*
X116520714Y-106216190D01*
X118044523Y-106692380D02*
X117473095Y-106692380D01*
X117758809Y-106692380D02*
X117758809Y-105692380D01*
X117663571Y-105835238D01*
X117568333Y-105930476D01*
X117473095Y-105978095D01*
X118996904Y-106692380D02*
X118425476Y-106692380D01*
X118711190Y-106692380D02*
X118711190Y-105692380D01*
X118615952Y-105835238D01*
X118520714Y-105930476D01*
X118425476Y-105978095D01*
X147412380Y-122437857D02*
X146936190Y-122771190D01*
X147412380Y-123009285D02*
X146412380Y-123009285D01*
X146412380Y-122628333D01*
X146460000Y-122533095D01*
X146507619Y-122485476D01*
X146602857Y-122437857D01*
X146745714Y-122437857D01*
X146840952Y-122485476D01*
X146888571Y-122533095D01*
X146936190Y-122628333D01*
X146936190Y-123009285D01*
X147412380Y-121485476D02*
X147412380Y-122056904D01*
X147412380Y-121771190D02*
X146412380Y-121771190D01*
X146555238Y-121866428D01*
X146650476Y-121961666D01*
X146698095Y-122056904D01*
X146412380Y-120866428D02*
X146412380Y-120771190D01*
X146460000Y-120675952D01*
X146507619Y-120628333D01*
X146602857Y-120580714D01*
X146793333Y-120533095D01*
X147031428Y-120533095D01*
X147221904Y-120580714D01*
X147317142Y-120628333D01*
X147364761Y-120675952D01*
X147412380Y-120771190D01*
X147412380Y-120866428D01*
X147364761Y-120961666D01*
X147317142Y-121009285D01*
X147221904Y-121056904D01*
X147031428Y-121104523D01*
X146793333Y-121104523D01*
X146602857Y-121056904D01*
X146507619Y-121009285D01*
X146460000Y-120961666D01*
X146412380Y-120866428D01*
X127352380Y-121866666D02*
X126876190Y-122200000D01*
X127352380Y-122438095D02*
X126352380Y-122438095D01*
X126352380Y-122057142D01*
X126400000Y-121961904D01*
X126447619Y-121914285D01*
X126542857Y-121866666D01*
X126685714Y-121866666D01*
X126780952Y-121914285D01*
X126828571Y-121961904D01*
X126876190Y-122057142D01*
X126876190Y-122438095D01*
X127352380Y-121390476D02*
X127352380Y-121200000D01*
X127304761Y-121104761D01*
X127257142Y-121057142D01*
X127114285Y-120961904D01*
X126923809Y-120914285D01*
X126542857Y-120914285D01*
X126447619Y-120961904D01*
X126400000Y-121009523D01*
X126352380Y-121104761D01*
X126352380Y-121295238D01*
X126400000Y-121390476D01*
X126447619Y-121438095D01*
X126542857Y-121485714D01*
X126780952Y-121485714D01*
X126876190Y-121438095D01*
X126923809Y-121390476D01*
X126971428Y-121295238D01*
X126971428Y-121104761D01*
X126923809Y-121009523D01*
X126876190Y-120961904D01*
X126780952Y-120914285D01*
X130042380Y-109131666D02*
X129566190Y-109465000D01*
X130042380Y-109703095D02*
X129042380Y-109703095D01*
X129042380Y-109322142D01*
X129090000Y-109226904D01*
X129137619Y-109179285D01*
X129232857Y-109131666D01*
X129375714Y-109131666D01*
X129470952Y-109179285D01*
X129518571Y-109226904D01*
X129566190Y-109322142D01*
X129566190Y-109703095D01*
X129470952Y-108560238D02*
X129423333Y-108655476D01*
X129375714Y-108703095D01*
X129280476Y-108750714D01*
X129232857Y-108750714D01*
X129137619Y-108703095D01*
X129090000Y-108655476D01*
X129042380Y-108560238D01*
X129042380Y-108369761D01*
X129090000Y-108274523D01*
X129137619Y-108226904D01*
X129232857Y-108179285D01*
X129280476Y-108179285D01*
X129375714Y-108226904D01*
X129423333Y-108274523D01*
X129470952Y-108369761D01*
X129470952Y-108560238D01*
X129518571Y-108655476D01*
X129566190Y-108703095D01*
X129661428Y-108750714D01*
X129851904Y-108750714D01*
X129947142Y-108703095D01*
X129994761Y-108655476D01*
X130042380Y-108560238D01*
X130042380Y-108369761D01*
X129994761Y-108274523D01*
X129947142Y-108226904D01*
X129851904Y-108179285D01*
X129661428Y-108179285D01*
X129566190Y-108226904D01*
X129518571Y-108274523D01*
X129470952Y-108369761D01*
X127982380Y-109181666D02*
X127506190Y-109515000D01*
X127982380Y-109753095D02*
X126982380Y-109753095D01*
X126982380Y-109372142D01*
X127030000Y-109276904D01*
X127077619Y-109229285D01*
X127172857Y-109181666D01*
X127315714Y-109181666D01*
X127410952Y-109229285D01*
X127458571Y-109276904D01*
X127506190Y-109372142D01*
X127506190Y-109753095D01*
X126982380Y-108848333D02*
X126982380Y-108181666D01*
X127982380Y-108610238D01*
X134402380Y-110071666D02*
X133926190Y-110405000D01*
X134402380Y-110643095D02*
X133402380Y-110643095D01*
X133402380Y-110262142D01*
X133450000Y-110166904D01*
X133497619Y-110119285D01*
X133592857Y-110071666D01*
X133735714Y-110071666D01*
X133830952Y-110119285D01*
X133878571Y-110166904D01*
X133926190Y-110262142D01*
X133926190Y-110643095D01*
X133402380Y-109166904D02*
X133402380Y-109643095D01*
X133878571Y-109690714D01*
X133830952Y-109643095D01*
X133783333Y-109547857D01*
X133783333Y-109309761D01*
X133830952Y-109214523D01*
X133878571Y-109166904D01*
X133973809Y-109119285D01*
X134211904Y-109119285D01*
X134307142Y-109166904D01*
X134354761Y-109214523D01*
X134402380Y-109309761D01*
X134402380Y-109547857D01*
X134354761Y-109643095D01*
X134307142Y-109690714D01*
X140833333Y-113432380D02*
X140500000Y-112956190D01*
X140261904Y-113432380D02*
X140261904Y-112432380D01*
X140642857Y-112432380D01*
X140738095Y-112480000D01*
X140785714Y-112527619D01*
X140833333Y-112622857D01*
X140833333Y-112765714D01*
X140785714Y-112860952D01*
X140738095Y-112908571D01*
X140642857Y-112956190D01*
X140261904Y-112956190D01*
X141690476Y-112765714D02*
X141690476Y-113432380D01*
X141452380Y-112384761D02*
X141214285Y-113099047D01*
X141833333Y-113099047D01*
X141232380Y-119106666D02*
X141232380Y-119582857D01*
X140232380Y-119582857D01*
X141232380Y-118249523D02*
X141232380Y-118820952D01*
X141232380Y-118535238D02*
X140232380Y-118535238D01*
X140375238Y-118630476D01*
X140470476Y-118725714D01*
X140518095Y-118820952D01*
D17*
X103947060Y-144287623D02*
X103947060Y-144394672D01*
X104115281Y-144394672D02*
X103794133Y-144394672D01*
X103794133Y-144241745D01*
X103947060Y-144012353D02*
X103962353Y-143966475D01*
X103977646Y-143951182D01*
X104008231Y-143935889D01*
X104054110Y-143935889D01*
X104084695Y-143951182D01*
X104099988Y-143966475D01*
X104115281Y-143997060D01*
X104115281Y-144119402D01*
X103794133Y-144119402D01*
X103794133Y-144012353D01*
X103809426Y-143981768D01*
X103824718Y-143966475D01*
X103855304Y-143951182D01*
X103885889Y-143951182D01*
X103916475Y-143966475D01*
X103931768Y-143981768D01*
X103947060Y-144012353D01*
X103947060Y-144119402D01*
X104115281Y-143630034D02*
X104115281Y-143813547D01*
X104115281Y-143721791D02*
X103794133Y-143721791D01*
X103840011Y-143752376D01*
X103870597Y-143782962D01*
X103885889Y-143813547D01*
D11*
X109432380Y-148698095D02*
X108432380Y-148698095D01*
X108432380Y-148460000D01*
X108480000Y-148317142D01*
X108575238Y-148221904D01*
X108670476Y-148174285D01*
X108860952Y-148126666D01*
X109003809Y-148126666D01*
X109194285Y-148174285D01*
X109289523Y-148221904D01*
X109384761Y-148317142D01*
X109432380Y-148460000D01*
X109432380Y-148698095D01*
X108432380Y-147269523D02*
X108432380Y-147460000D01*
X108480000Y-147555238D01*
X108527619Y-147602857D01*
X108670476Y-147698095D01*
X108860952Y-147745714D01*
X109241904Y-147745714D01*
X109337142Y-147698095D01*
X109384761Y-147650476D01*
X109432380Y-147555238D01*
X109432380Y-147364761D01*
X109384761Y-147269523D01*
X109337142Y-147221904D01*
X109241904Y-147174285D01*
X109003809Y-147174285D01*
X108908571Y-147221904D01*
X108860952Y-147269523D01*
X108813333Y-147364761D01*
X108813333Y-147555238D01*
X108860952Y-147650476D01*
X108908571Y-147698095D01*
X109003809Y-147745714D01*
X139481904Y-138642380D02*
X139481904Y-137642380D01*
X139720000Y-137642380D01*
X139862857Y-137690000D01*
X139958095Y-137785238D01*
X140005714Y-137880476D01*
X140053333Y-138070952D01*
X140053333Y-138213809D01*
X140005714Y-138404285D01*
X139958095Y-138499523D01*
X139862857Y-138594761D01*
X139720000Y-138642380D01*
X139481904Y-138642380D01*
X140910476Y-137975714D02*
X140910476Y-138642380D01*
X140672380Y-137594761D02*
X140434285Y-138309047D01*
X141053333Y-138309047D01*
X147661904Y-141832380D02*
X147661904Y-140832380D01*
X147900000Y-140832380D01*
X148042857Y-140880000D01*
X148138095Y-140975238D01*
X148185714Y-141070476D01*
X148233333Y-141260952D01*
X148233333Y-141403809D01*
X148185714Y-141594285D01*
X148138095Y-141689523D01*
X148042857Y-141784761D01*
X147900000Y-141832380D01*
X147661904Y-141832380D01*
X148614285Y-140927619D02*
X148661904Y-140880000D01*
X148757142Y-140832380D01*
X148995238Y-140832380D01*
X149090476Y-140880000D01*
X149138095Y-140927619D01*
X149185714Y-141022857D01*
X149185714Y-141118095D01*
X149138095Y-141260952D01*
X148566666Y-141832380D01*
X149185714Y-141832380D01*
X136651904Y-148442380D02*
X136651904Y-147442380D01*
X136890000Y-147442380D01*
X137032857Y-147490000D01*
X137128095Y-147585238D01*
X137175714Y-147680476D01*
X137223333Y-147870952D01*
X137223333Y-148013809D01*
X137175714Y-148204285D01*
X137128095Y-148299523D01*
X137032857Y-148394761D01*
X136890000Y-148442380D01*
X136651904Y-148442380D01*
X138175714Y-148442380D02*
X137604285Y-148442380D01*
X137890000Y-148442380D02*
X137890000Y-147442380D01*
X137794761Y-147585238D01*
X137699523Y-147680476D01*
X137604285Y-147728095D01*
X136142142Y-131537142D02*
X136094523Y-131584761D01*
X135951666Y-131632380D01*
X135856428Y-131632380D01*
X135713571Y-131584761D01*
X135618333Y-131489523D01*
X135570714Y-131394285D01*
X135523095Y-131203809D01*
X135523095Y-131060952D01*
X135570714Y-130870476D01*
X135618333Y-130775238D01*
X135713571Y-130680000D01*
X135856428Y-130632380D01*
X135951666Y-130632380D01*
X136094523Y-130680000D01*
X136142142Y-130727619D01*
X136475476Y-130632380D02*
X137094523Y-130632380D01*
X136761190Y-131013333D01*
X136904047Y-131013333D01*
X136999285Y-131060952D01*
X137046904Y-131108571D01*
X137094523Y-131203809D01*
X137094523Y-131441904D01*
X137046904Y-131537142D01*
X136999285Y-131584761D01*
X136904047Y-131632380D01*
X136618333Y-131632380D01*
X136523095Y-131584761D01*
X136475476Y-131537142D01*
X137570714Y-131632380D02*
X137761190Y-131632380D01*
X137856428Y-131584761D01*
X137904047Y-131537142D01*
X137999285Y-131394285D01*
X138046904Y-131203809D01*
X138046904Y-130822857D01*
X137999285Y-130727619D01*
X137951666Y-130680000D01*
X137856428Y-130632380D01*
X137665952Y-130632380D01*
X137570714Y-130680000D01*
X137523095Y-130727619D01*
X137475476Y-130822857D01*
X137475476Y-131060952D01*
X137523095Y-131156190D01*
X137570714Y-131203809D01*
X137665952Y-131251428D01*
X137856428Y-131251428D01*
X137951666Y-131203809D01*
X137999285Y-131156190D01*
X138046904Y-131060952D01*
X132877142Y-128712857D02*
X132924761Y-128760476D01*
X132972380Y-128903333D01*
X132972380Y-128998571D01*
X132924761Y-129141428D01*
X132829523Y-129236666D01*
X132734285Y-129284285D01*
X132543809Y-129331904D01*
X132400952Y-129331904D01*
X132210476Y-129284285D01*
X132115238Y-129236666D01*
X132020000Y-129141428D01*
X131972380Y-128998571D01*
X131972380Y-128903333D01*
X132020000Y-128760476D01*
X132067619Y-128712857D01*
X131972380Y-128379523D02*
X131972380Y-127760476D01*
X132353333Y-128093809D01*
X132353333Y-127950952D01*
X132400952Y-127855714D01*
X132448571Y-127808095D01*
X132543809Y-127760476D01*
X132781904Y-127760476D01*
X132877142Y-127808095D01*
X132924761Y-127855714D01*
X132972380Y-127950952D01*
X132972380Y-128236666D01*
X132924761Y-128331904D01*
X132877142Y-128379523D01*
X131972380Y-127427142D02*
X131972380Y-126760476D01*
X132972380Y-127189047D01*
X138457142Y-120317857D02*
X138504761Y-120365476D01*
X138552380Y-120508333D01*
X138552380Y-120603571D01*
X138504761Y-120746428D01*
X138409523Y-120841666D01*
X138314285Y-120889285D01*
X138123809Y-120936904D01*
X137980952Y-120936904D01*
X137790476Y-120889285D01*
X137695238Y-120841666D01*
X137600000Y-120746428D01*
X137552380Y-120603571D01*
X137552380Y-120508333D01*
X137600000Y-120365476D01*
X137647619Y-120317857D01*
X137552380Y-119984523D02*
X137552380Y-119365476D01*
X137933333Y-119698809D01*
X137933333Y-119555952D01*
X137980952Y-119460714D01*
X138028571Y-119413095D01*
X138123809Y-119365476D01*
X138361904Y-119365476D01*
X138457142Y-119413095D01*
X138504761Y-119460714D01*
X138552380Y-119555952D01*
X138552380Y-119841666D01*
X138504761Y-119936904D01*
X138457142Y-119984523D01*
X137552380Y-119032142D02*
X137552380Y-118413095D01*
X137933333Y-118746428D01*
X137933333Y-118603571D01*
X137980952Y-118508333D01*
X138028571Y-118460714D01*
X138123809Y-118413095D01*
X138361904Y-118413095D01*
X138457142Y-118460714D01*
X138504761Y-118508333D01*
X138552380Y-118603571D01*
X138552380Y-118889285D01*
X138504761Y-118984523D01*
X138457142Y-119032142D01*
X136952142Y-115557142D02*
X136904523Y-115604761D01*
X136761666Y-115652380D01*
X136666428Y-115652380D01*
X136523571Y-115604761D01*
X136428333Y-115509523D01*
X136380714Y-115414285D01*
X136333095Y-115223809D01*
X136333095Y-115080952D01*
X136380714Y-114890476D01*
X136428333Y-114795238D01*
X136523571Y-114700000D01*
X136666428Y-114652380D01*
X136761666Y-114652380D01*
X136904523Y-114700000D01*
X136952142Y-114747619D01*
X137285476Y-114652380D02*
X137904523Y-114652380D01*
X137571190Y-115033333D01*
X137714047Y-115033333D01*
X137809285Y-115080952D01*
X137856904Y-115128571D01*
X137904523Y-115223809D01*
X137904523Y-115461904D01*
X137856904Y-115557142D01*
X137809285Y-115604761D01*
X137714047Y-115652380D01*
X137428333Y-115652380D01*
X137333095Y-115604761D01*
X137285476Y-115557142D01*
X138285476Y-114747619D02*
X138333095Y-114700000D01*
X138428333Y-114652380D01*
X138666428Y-114652380D01*
X138761666Y-114700000D01*
X138809285Y-114747619D01*
X138856904Y-114842857D01*
X138856904Y-114938095D01*
X138809285Y-115080952D01*
X138237857Y-115652380D01*
X138856904Y-115652380D01*
X151147142Y-131992857D02*
X151194761Y-132040476D01*
X151242380Y-132183333D01*
X151242380Y-132278571D01*
X151194761Y-132421428D01*
X151099523Y-132516666D01*
X151004285Y-132564285D01*
X150813809Y-132611904D01*
X150670952Y-132611904D01*
X150480476Y-132564285D01*
X150385238Y-132516666D01*
X150290000Y-132421428D01*
X150242380Y-132278571D01*
X150242380Y-132183333D01*
X150290000Y-132040476D01*
X150337619Y-131992857D01*
X150242380Y-131659523D02*
X150242380Y-131040476D01*
X150623333Y-131373809D01*
X150623333Y-131230952D01*
X150670952Y-131135714D01*
X150718571Y-131088095D01*
X150813809Y-131040476D01*
X151051904Y-131040476D01*
X151147142Y-131088095D01*
X151194761Y-131135714D01*
X151242380Y-131230952D01*
X151242380Y-131516666D01*
X151194761Y-131611904D01*
X151147142Y-131659523D01*
X150242380Y-130421428D02*
X150242380Y-130326190D01*
X150290000Y-130230952D01*
X150337619Y-130183333D01*
X150432857Y-130135714D01*
X150623333Y-130088095D01*
X150861428Y-130088095D01*
X151051904Y-130135714D01*
X151147142Y-130183333D01*
X151194761Y-130230952D01*
X151242380Y-130326190D01*
X151242380Y-130421428D01*
X151194761Y-130516666D01*
X151147142Y-130564285D01*
X151051904Y-130611904D01*
X150861428Y-130659523D01*
X150623333Y-130659523D01*
X150432857Y-130611904D01*
X150337619Y-130564285D01*
X150290000Y-130516666D01*
X150242380Y-130421428D01*
X151067142Y-121317857D02*
X151114761Y-121365476D01*
X151162380Y-121508333D01*
X151162380Y-121603571D01*
X151114761Y-121746428D01*
X151019523Y-121841666D01*
X150924285Y-121889285D01*
X150733809Y-121936904D01*
X150590952Y-121936904D01*
X150400476Y-121889285D01*
X150305238Y-121841666D01*
X150210000Y-121746428D01*
X150162380Y-121603571D01*
X150162380Y-121508333D01*
X150210000Y-121365476D01*
X150257619Y-121317857D01*
X150257619Y-120936904D02*
X150210000Y-120889285D01*
X150162380Y-120794047D01*
X150162380Y-120555952D01*
X150210000Y-120460714D01*
X150257619Y-120413095D01*
X150352857Y-120365476D01*
X150448095Y-120365476D01*
X150590952Y-120413095D01*
X151162380Y-120984523D01*
X151162380Y-120365476D01*
X151162380Y-119889285D02*
X151162380Y-119698809D01*
X151114761Y-119603571D01*
X151067142Y-119555952D01*
X150924285Y-119460714D01*
X150733809Y-119413095D01*
X150352857Y-119413095D01*
X150257619Y-119460714D01*
X150210000Y-119508333D01*
X150162380Y-119603571D01*
X150162380Y-119794047D01*
X150210000Y-119889285D01*
X150257619Y-119936904D01*
X150352857Y-119984523D01*
X150590952Y-119984523D01*
X150686190Y-119936904D01*
X150733809Y-119889285D01*
X150781428Y-119794047D01*
X150781428Y-119603571D01*
X150733809Y-119508333D01*
X150686190Y-119460714D01*
X150590952Y-119413095D01*
X144267142Y-120527142D02*
X144219523Y-120574761D01*
X144076666Y-120622380D01*
X143981428Y-120622380D01*
X143838571Y-120574761D01*
X143743333Y-120479523D01*
X143695714Y-120384285D01*
X143648095Y-120193809D01*
X143648095Y-120050952D01*
X143695714Y-119860476D01*
X143743333Y-119765238D01*
X143838571Y-119670000D01*
X143981428Y-119622380D01*
X144076666Y-119622380D01*
X144219523Y-119670000D01*
X144267142Y-119717619D01*
X144648095Y-119717619D02*
X144695714Y-119670000D01*
X144790952Y-119622380D01*
X145029047Y-119622380D01*
X145124285Y-119670000D01*
X145171904Y-119717619D01*
X145219523Y-119812857D01*
X145219523Y-119908095D01*
X145171904Y-120050952D01*
X144600476Y-120622380D01*
X145219523Y-120622380D01*
X145790952Y-120050952D02*
X145695714Y-120003333D01*
X145648095Y-119955714D01*
X145600476Y-119860476D01*
X145600476Y-119812857D01*
X145648095Y-119717619D01*
X145695714Y-119670000D01*
X145790952Y-119622380D01*
X145981428Y-119622380D01*
X146076666Y-119670000D01*
X146124285Y-119717619D01*
X146171904Y-119812857D01*
X146171904Y-119860476D01*
X146124285Y-119955714D01*
X146076666Y-120003333D01*
X145981428Y-120050952D01*
X145790952Y-120050952D01*
X145695714Y-120098571D01*
X145648095Y-120146190D01*
X145600476Y-120241428D01*
X145600476Y-120431904D01*
X145648095Y-120527142D01*
X145695714Y-120574761D01*
X145790952Y-120622380D01*
X145981428Y-120622380D01*
X146076666Y-120574761D01*
X146124285Y-120527142D01*
X146171904Y-120431904D01*
X146171904Y-120241428D01*
X146124285Y-120146190D01*
X146076666Y-120098571D01*
X145981428Y-120050952D01*
X146527142Y-116397142D02*
X146479523Y-116444761D01*
X146336666Y-116492380D01*
X146241428Y-116492380D01*
X146098571Y-116444761D01*
X146003333Y-116349523D01*
X145955714Y-116254285D01*
X145908095Y-116063809D01*
X145908095Y-115920952D01*
X145955714Y-115730476D01*
X146003333Y-115635238D01*
X146098571Y-115540000D01*
X146241428Y-115492380D01*
X146336666Y-115492380D01*
X146479523Y-115540000D01*
X146527142Y-115587619D01*
X146908095Y-115587619D02*
X146955714Y-115540000D01*
X147050952Y-115492380D01*
X147289047Y-115492380D01*
X147384285Y-115540000D01*
X147431904Y-115587619D01*
X147479523Y-115682857D01*
X147479523Y-115778095D01*
X147431904Y-115920952D01*
X146860476Y-116492380D01*
X147479523Y-116492380D01*
X147812857Y-115492380D02*
X148479523Y-115492380D01*
X148050952Y-116492380D01*
X146982142Y-123397142D02*
X146934523Y-123444761D01*
X146791666Y-123492380D01*
X146696428Y-123492380D01*
X146553571Y-123444761D01*
X146458333Y-123349523D01*
X146410714Y-123254285D01*
X146363095Y-123063809D01*
X146363095Y-122920952D01*
X146410714Y-122730476D01*
X146458333Y-122635238D01*
X146553571Y-122540000D01*
X146696428Y-122492380D01*
X146791666Y-122492380D01*
X146934523Y-122540000D01*
X146982142Y-122587619D01*
X147363095Y-122587619D02*
X147410714Y-122540000D01*
X147505952Y-122492380D01*
X147744047Y-122492380D01*
X147839285Y-122540000D01*
X147886904Y-122587619D01*
X147934523Y-122682857D01*
X147934523Y-122778095D01*
X147886904Y-122920952D01*
X147315476Y-123492380D01*
X147934523Y-123492380D01*
X148791666Y-122492380D02*
X148601190Y-122492380D01*
X148505952Y-122540000D01*
X148458333Y-122587619D01*
X148363095Y-122730476D01*
X148315476Y-122920952D01*
X148315476Y-123301904D01*
X148363095Y-123397142D01*
X148410714Y-123444761D01*
X148505952Y-123492380D01*
X148696428Y-123492380D01*
X148791666Y-123444761D01*
X148839285Y-123397142D01*
X148886904Y-123301904D01*
X148886904Y-123063809D01*
X148839285Y-122968571D01*
X148791666Y-122920952D01*
X148696428Y-122873333D01*
X148505952Y-122873333D01*
X148410714Y-122920952D01*
X148363095Y-122968571D01*
X148315476Y-123063809D01*
X125947142Y-110627142D02*
X125899523Y-110674761D01*
X125756666Y-110722380D01*
X125661428Y-110722380D01*
X125518571Y-110674761D01*
X125423333Y-110579523D01*
X125375714Y-110484285D01*
X125328095Y-110293809D01*
X125328095Y-110150952D01*
X125375714Y-109960476D01*
X125423333Y-109865238D01*
X125518571Y-109770000D01*
X125661428Y-109722380D01*
X125756666Y-109722380D01*
X125899523Y-109770000D01*
X125947142Y-109817619D01*
X126328095Y-109817619D02*
X126375714Y-109770000D01*
X126470952Y-109722380D01*
X126709047Y-109722380D01*
X126804285Y-109770000D01*
X126851904Y-109817619D01*
X126899523Y-109912857D01*
X126899523Y-110008095D01*
X126851904Y-110150952D01*
X126280476Y-110722380D01*
X126899523Y-110722380D01*
X127804285Y-109722380D02*
X127328095Y-109722380D01*
X127280476Y-110198571D01*
X127328095Y-110150952D01*
X127423333Y-110103333D01*
X127661428Y-110103333D01*
X127756666Y-110150952D01*
X127804285Y-110198571D01*
X127851904Y-110293809D01*
X127851904Y-110531904D01*
X127804285Y-110627142D01*
X127756666Y-110674761D01*
X127661428Y-110722380D01*
X127423333Y-110722380D01*
X127328095Y-110674761D01*
X127280476Y-110627142D01*
X135217142Y-121132857D02*
X135264761Y-121180476D01*
X135312380Y-121323333D01*
X135312380Y-121418571D01*
X135264761Y-121561428D01*
X135169523Y-121656666D01*
X135074285Y-121704285D01*
X134883809Y-121751904D01*
X134740952Y-121751904D01*
X134550476Y-121704285D01*
X134455238Y-121656666D01*
X134360000Y-121561428D01*
X134312380Y-121418571D01*
X134312380Y-121323333D01*
X134360000Y-121180476D01*
X134407619Y-121132857D01*
X134407619Y-120751904D02*
X134360000Y-120704285D01*
X134312380Y-120609047D01*
X134312380Y-120370952D01*
X134360000Y-120275714D01*
X134407619Y-120228095D01*
X134502857Y-120180476D01*
X134598095Y-120180476D01*
X134740952Y-120228095D01*
X135312380Y-120799523D01*
X135312380Y-120180476D01*
X134645714Y-119323333D02*
X135312380Y-119323333D01*
X134264761Y-119561428D02*
X134979047Y-119799523D01*
X134979047Y-119180476D01*
X119547142Y-116387142D02*
X119499523Y-116434761D01*
X119356666Y-116482380D01*
X119261428Y-116482380D01*
X119118571Y-116434761D01*
X119023333Y-116339523D01*
X118975714Y-116244285D01*
X118928095Y-116053809D01*
X118928095Y-115910952D01*
X118975714Y-115720476D01*
X119023333Y-115625238D01*
X119118571Y-115530000D01*
X119261428Y-115482380D01*
X119356666Y-115482380D01*
X119499523Y-115530000D01*
X119547142Y-115577619D01*
X119928095Y-115577619D02*
X119975714Y-115530000D01*
X120070952Y-115482380D01*
X120309047Y-115482380D01*
X120404285Y-115530000D01*
X120451904Y-115577619D01*
X120499523Y-115672857D01*
X120499523Y-115768095D01*
X120451904Y-115910952D01*
X119880476Y-116482380D01*
X120499523Y-116482380D01*
X120832857Y-115482380D02*
X121451904Y-115482380D01*
X121118571Y-115863333D01*
X121261428Y-115863333D01*
X121356666Y-115910952D01*
X121404285Y-115958571D01*
X121451904Y-116053809D01*
X121451904Y-116291904D01*
X121404285Y-116387142D01*
X121356666Y-116434761D01*
X121261428Y-116482380D01*
X120975714Y-116482380D01*
X120880476Y-116434761D01*
X120832857Y-116387142D01*
X117867142Y-118057142D02*
X117819523Y-118104761D01*
X117676666Y-118152380D01*
X117581428Y-118152380D01*
X117438571Y-118104761D01*
X117343333Y-118009523D01*
X117295714Y-117914285D01*
X117248095Y-117723809D01*
X117248095Y-117580952D01*
X117295714Y-117390476D01*
X117343333Y-117295238D01*
X117438571Y-117200000D01*
X117581428Y-117152380D01*
X117676666Y-117152380D01*
X117819523Y-117200000D01*
X117867142Y-117247619D01*
X118248095Y-117247619D02*
X118295714Y-117200000D01*
X118390952Y-117152380D01*
X118629047Y-117152380D01*
X118724285Y-117200000D01*
X118771904Y-117247619D01*
X118819523Y-117342857D01*
X118819523Y-117438095D01*
X118771904Y-117580952D01*
X118200476Y-118152380D01*
X118819523Y-118152380D01*
X119200476Y-117247619D02*
X119248095Y-117200000D01*
X119343333Y-117152380D01*
X119581428Y-117152380D01*
X119676666Y-117200000D01*
X119724285Y-117247619D01*
X119771904Y-117342857D01*
X119771904Y-117438095D01*
X119724285Y-117580952D01*
X119152857Y-118152380D01*
X119771904Y-118152380D01*
X117917142Y-122437142D02*
X117869523Y-122484761D01*
X117726666Y-122532380D01*
X117631428Y-122532380D01*
X117488571Y-122484761D01*
X117393333Y-122389523D01*
X117345714Y-122294285D01*
X117298095Y-122103809D01*
X117298095Y-121960952D01*
X117345714Y-121770476D01*
X117393333Y-121675238D01*
X117488571Y-121580000D01*
X117631428Y-121532380D01*
X117726666Y-121532380D01*
X117869523Y-121580000D01*
X117917142Y-121627619D01*
X118298095Y-121627619D02*
X118345714Y-121580000D01*
X118440952Y-121532380D01*
X118679047Y-121532380D01*
X118774285Y-121580000D01*
X118821904Y-121627619D01*
X118869523Y-121722857D01*
X118869523Y-121818095D01*
X118821904Y-121960952D01*
X118250476Y-122532380D01*
X118869523Y-122532380D01*
X119488571Y-121532380D02*
X119583809Y-121532380D01*
X119679047Y-121580000D01*
X119726666Y-121627619D01*
X119774285Y-121722857D01*
X119821904Y-121913333D01*
X119821904Y-122151428D01*
X119774285Y-122341904D01*
X119726666Y-122437142D01*
X119679047Y-122484761D01*
X119583809Y-122532380D01*
X119488571Y-122532380D01*
X119393333Y-122484761D01*
X119345714Y-122437142D01*
X119298095Y-122341904D01*
X119250476Y-122151428D01*
X119250476Y-121913333D01*
X119298095Y-121722857D01*
X119345714Y-121627619D01*
X119393333Y-121580000D01*
X119488571Y-121532380D01*
X117977142Y-120357142D02*
X117929523Y-120404761D01*
X117786666Y-120452380D01*
X117691428Y-120452380D01*
X117548571Y-120404761D01*
X117453333Y-120309523D01*
X117405714Y-120214285D01*
X117358095Y-120023809D01*
X117358095Y-119880952D01*
X117405714Y-119690476D01*
X117453333Y-119595238D01*
X117548571Y-119500000D01*
X117691428Y-119452380D01*
X117786666Y-119452380D01*
X117929523Y-119500000D01*
X117977142Y-119547619D01*
X118929523Y-120452380D02*
X118358095Y-120452380D01*
X118643809Y-120452380D02*
X118643809Y-119452380D01*
X118548571Y-119595238D01*
X118453333Y-119690476D01*
X118358095Y-119738095D01*
X119405714Y-120452380D02*
X119596190Y-120452380D01*
X119691428Y-120404761D01*
X119739047Y-120357142D01*
X119834285Y-120214285D01*
X119881904Y-120023809D01*
X119881904Y-119642857D01*
X119834285Y-119547619D01*
X119786666Y-119500000D01*
X119691428Y-119452380D01*
X119500952Y-119452380D01*
X119405714Y-119500000D01*
X119358095Y-119547619D01*
X119310476Y-119642857D01*
X119310476Y-119880952D01*
X119358095Y-119976190D01*
X119405714Y-120023809D01*
X119500952Y-120071428D01*
X119691428Y-120071428D01*
X119786666Y-120023809D01*
X119834285Y-119976190D01*
X119881904Y-119880952D01*
X131127142Y-118767857D02*
X131174761Y-118815476D01*
X131222380Y-118958333D01*
X131222380Y-119053571D01*
X131174761Y-119196428D01*
X131079523Y-119291666D01*
X130984285Y-119339285D01*
X130793809Y-119386904D01*
X130650952Y-119386904D01*
X130460476Y-119339285D01*
X130365238Y-119291666D01*
X130270000Y-119196428D01*
X130222380Y-119053571D01*
X130222380Y-118958333D01*
X130270000Y-118815476D01*
X130317619Y-118767857D01*
X131222380Y-117815476D02*
X131222380Y-118386904D01*
X131222380Y-118101190D02*
X130222380Y-118101190D01*
X130365238Y-118196428D01*
X130460476Y-118291666D01*
X130508095Y-118386904D01*
X130650952Y-117244047D02*
X130603333Y-117339285D01*
X130555714Y-117386904D01*
X130460476Y-117434523D01*
X130412857Y-117434523D01*
X130317619Y-117386904D01*
X130270000Y-117339285D01*
X130222380Y-117244047D01*
X130222380Y-117053571D01*
X130270000Y-116958333D01*
X130317619Y-116910714D01*
X130412857Y-116863095D01*
X130460476Y-116863095D01*
X130555714Y-116910714D01*
X130603333Y-116958333D01*
X130650952Y-117053571D01*
X130650952Y-117244047D01*
X130698571Y-117339285D01*
X130746190Y-117386904D01*
X130841428Y-117434523D01*
X131031904Y-117434523D01*
X131127142Y-117386904D01*
X131174761Y-117339285D01*
X131222380Y-117244047D01*
X131222380Y-117053571D01*
X131174761Y-116958333D01*
X131127142Y-116910714D01*
X131031904Y-116863095D01*
X130841428Y-116863095D01*
X130746190Y-116910714D01*
X130698571Y-116958333D01*
X130650952Y-117053571D01*
X122037142Y-123807142D02*
X121989523Y-123854761D01*
X121846666Y-123902380D01*
X121751428Y-123902380D01*
X121608571Y-123854761D01*
X121513333Y-123759523D01*
X121465714Y-123664285D01*
X121418095Y-123473809D01*
X121418095Y-123330952D01*
X121465714Y-123140476D01*
X121513333Y-123045238D01*
X121608571Y-122950000D01*
X121751428Y-122902380D01*
X121846666Y-122902380D01*
X121989523Y-122950000D01*
X122037142Y-122997619D01*
X122989523Y-123902380D02*
X122418095Y-123902380D01*
X122703809Y-123902380D02*
X122703809Y-122902380D01*
X122608571Y-123045238D01*
X122513333Y-123140476D01*
X122418095Y-123188095D01*
X123322857Y-122902380D02*
X123989523Y-122902380D01*
X123560952Y-123902380D01*
X128977142Y-118642857D02*
X129024761Y-118690476D01*
X129072380Y-118833333D01*
X129072380Y-118928571D01*
X129024761Y-119071428D01*
X128929523Y-119166666D01*
X128834285Y-119214285D01*
X128643809Y-119261904D01*
X128500952Y-119261904D01*
X128310476Y-119214285D01*
X128215238Y-119166666D01*
X128120000Y-119071428D01*
X128072380Y-118928571D01*
X128072380Y-118833333D01*
X128120000Y-118690476D01*
X128167619Y-118642857D01*
X129072380Y-117690476D02*
X129072380Y-118261904D01*
X129072380Y-117976190D02*
X128072380Y-117976190D01*
X128215238Y-118071428D01*
X128310476Y-118166666D01*
X128358095Y-118261904D01*
X128072380Y-116833333D02*
X128072380Y-117023809D01*
X128120000Y-117119047D01*
X128167619Y-117166666D01*
X128310476Y-117261904D01*
X128500952Y-117309523D01*
X128881904Y-117309523D01*
X128977142Y-117261904D01*
X129024761Y-117214285D01*
X129072380Y-117119047D01*
X129072380Y-116928571D01*
X129024761Y-116833333D01*
X128977142Y-116785714D01*
X128881904Y-116738095D01*
X128643809Y-116738095D01*
X128548571Y-116785714D01*
X128500952Y-116833333D01*
X128453333Y-116928571D01*
X128453333Y-117119047D01*
X128500952Y-117214285D01*
X128548571Y-117261904D01*
X128643809Y-117309523D01*
X117707142Y-153617142D02*
X117659523Y-153664761D01*
X117516666Y-153712380D01*
X117421428Y-153712380D01*
X117278571Y-153664761D01*
X117183333Y-153569523D01*
X117135714Y-153474285D01*
X117088095Y-153283809D01*
X117088095Y-153140952D01*
X117135714Y-152950476D01*
X117183333Y-152855238D01*
X117278571Y-152760000D01*
X117421428Y-152712380D01*
X117516666Y-152712380D01*
X117659523Y-152760000D01*
X117707142Y-152807619D01*
X118659523Y-153712380D02*
X118088095Y-153712380D01*
X118373809Y-153712380D02*
X118373809Y-152712380D01*
X118278571Y-152855238D01*
X118183333Y-152950476D01*
X118088095Y-152998095D01*
X119564285Y-152712380D02*
X119088095Y-152712380D01*
X119040476Y-153188571D01*
X119088095Y-153140952D01*
X119183333Y-153093333D01*
X119421428Y-153093333D01*
X119516666Y-153140952D01*
X119564285Y-153188571D01*
X119611904Y-153283809D01*
X119611904Y-153521904D01*
X119564285Y-153617142D01*
X119516666Y-153664761D01*
X119421428Y-153712380D01*
X119183333Y-153712380D01*
X119088095Y-153664761D01*
X119040476Y-153617142D01*
X127177142Y-118732857D02*
X127224761Y-118780476D01*
X127272380Y-118923333D01*
X127272380Y-119018571D01*
X127224761Y-119161428D01*
X127129523Y-119256666D01*
X127034285Y-119304285D01*
X126843809Y-119351904D01*
X126700952Y-119351904D01*
X126510476Y-119304285D01*
X126415238Y-119256666D01*
X126320000Y-119161428D01*
X126272380Y-119018571D01*
X126272380Y-118923333D01*
X126320000Y-118780476D01*
X126367619Y-118732857D01*
X127272380Y-117780476D02*
X127272380Y-118351904D01*
X127272380Y-118066190D02*
X126272380Y-118066190D01*
X126415238Y-118161428D01*
X126510476Y-118256666D01*
X126558095Y-118351904D01*
X126605714Y-116923333D02*
X127272380Y-116923333D01*
X126224761Y-117161428D02*
X126939047Y-117399523D01*
X126939047Y-116780476D01*
X127887142Y-150557142D02*
X127839523Y-150604761D01*
X127696666Y-150652380D01*
X127601428Y-150652380D01*
X127458571Y-150604761D01*
X127363333Y-150509523D01*
X127315714Y-150414285D01*
X127268095Y-150223809D01*
X127268095Y-150080952D01*
X127315714Y-149890476D01*
X127363333Y-149795238D01*
X127458571Y-149700000D01*
X127601428Y-149652380D01*
X127696666Y-149652380D01*
X127839523Y-149700000D01*
X127887142Y-149747619D01*
X128839523Y-150652380D02*
X128268095Y-150652380D01*
X128553809Y-150652380D02*
X128553809Y-149652380D01*
X128458571Y-149795238D01*
X128363333Y-149890476D01*
X128268095Y-149938095D01*
X129172857Y-149652380D02*
X129791904Y-149652380D01*
X129458571Y-150033333D01*
X129601428Y-150033333D01*
X129696666Y-150080952D01*
X129744285Y-150128571D01*
X129791904Y-150223809D01*
X129791904Y-150461904D01*
X129744285Y-150557142D01*
X129696666Y-150604761D01*
X129601428Y-150652380D01*
X129315714Y-150652380D01*
X129220476Y-150604761D01*
X129172857Y-150557142D01*
X134027142Y-113152142D02*
X133979523Y-113199761D01*
X133836666Y-113247380D01*
X133741428Y-113247380D01*
X133598571Y-113199761D01*
X133503333Y-113104523D01*
X133455714Y-113009285D01*
X133408095Y-112818809D01*
X133408095Y-112675952D01*
X133455714Y-112485476D01*
X133503333Y-112390238D01*
X133598571Y-112295000D01*
X133741428Y-112247380D01*
X133836666Y-112247380D01*
X133979523Y-112295000D01*
X134027142Y-112342619D01*
X134979523Y-113247380D02*
X134408095Y-113247380D01*
X134693809Y-113247380D02*
X134693809Y-112247380D01*
X134598571Y-112390238D01*
X134503333Y-112485476D01*
X134408095Y-112533095D01*
X135360476Y-112342619D02*
X135408095Y-112295000D01*
X135503333Y-112247380D01*
X135741428Y-112247380D01*
X135836666Y-112295000D01*
X135884285Y-112342619D01*
X135931904Y-112437857D01*
X135931904Y-112533095D01*
X135884285Y-112675952D01*
X135312857Y-113247380D01*
X135931904Y-113247380D01*
X104197142Y-135317857D02*
X104244761Y-135365476D01*
X104292380Y-135508333D01*
X104292380Y-135603571D01*
X104244761Y-135746428D01*
X104149523Y-135841666D01*
X104054285Y-135889285D01*
X103863809Y-135936904D01*
X103720952Y-135936904D01*
X103530476Y-135889285D01*
X103435238Y-135841666D01*
X103340000Y-135746428D01*
X103292380Y-135603571D01*
X103292380Y-135508333D01*
X103340000Y-135365476D01*
X103387619Y-135317857D01*
X104292380Y-134365476D02*
X104292380Y-134936904D01*
X104292380Y-134651190D02*
X103292380Y-134651190D01*
X103435238Y-134746428D01*
X103530476Y-134841666D01*
X103578095Y-134936904D01*
X104292380Y-133413095D02*
X104292380Y-133984523D01*
X104292380Y-133698809D02*
X103292380Y-133698809D01*
X103435238Y-133794047D01*
X103530476Y-133889285D01*
X103578095Y-133984523D01*
X105437142Y-135997142D02*
X105389523Y-136044761D01*
X105246666Y-136092380D01*
X105151428Y-136092380D01*
X105008571Y-136044761D01*
X104913333Y-135949523D01*
X104865714Y-135854285D01*
X104818095Y-135663809D01*
X104818095Y-135520952D01*
X104865714Y-135330476D01*
X104913333Y-135235238D01*
X105008571Y-135140000D01*
X105151428Y-135092380D01*
X105246666Y-135092380D01*
X105389523Y-135140000D01*
X105437142Y-135187619D01*
X106389523Y-136092380D02*
X105818095Y-136092380D01*
X106103809Y-136092380D02*
X106103809Y-135092380D01*
X106008571Y-135235238D01*
X105913333Y-135330476D01*
X105818095Y-135378095D01*
X107008571Y-135092380D02*
X107103809Y-135092380D01*
X107199047Y-135140000D01*
X107246666Y-135187619D01*
X107294285Y-135282857D01*
X107341904Y-135473333D01*
X107341904Y-135711428D01*
X107294285Y-135901904D01*
X107246666Y-135997142D01*
X107199047Y-136044761D01*
X107103809Y-136092380D01*
X107008571Y-136092380D01*
X106913333Y-136044761D01*
X106865714Y-135997142D01*
X106818095Y-135901904D01*
X106770476Y-135711428D01*
X106770476Y-135473333D01*
X106818095Y-135282857D01*
X106865714Y-135187619D01*
X106913333Y-135140000D01*
X107008571Y-135092380D01*
X131823333Y-113127142D02*
X131775714Y-113174761D01*
X131632857Y-113222380D01*
X131537619Y-113222380D01*
X131394761Y-113174761D01*
X131299523Y-113079523D01*
X131251904Y-112984285D01*
X131204285Y-112793809D01*
X131204285Y-112650952D01*
X131251904Y-112460476D01*
X131299523Y-112365238D01*
X131394761Y-112270000D01*
X131537619Y-112222380D01*
X131632857Y-112222380D01*
X131775714Y-112270000D01*
X131823333Y-112317619D01*
X132299523Y-113222380D02*
X132490000Y-113222380D01*
X132585238Y-113174761D01*
X132632857Y-113127142D01*
X132728095Y-112984285D01*
X132775714Y-112793809D01*
X132775714Y-112412857D01*
X132728095Y-112317619D01*
X132680476Y-112270000D01*
X132585238Y-112222380D01*
X132394761Y-112222380D01*
X132299523Y-112270000D01*
X132251904Y-112317619D01*
X132204285Y-112412857D01*
X132204285Y-112650952D01*
X132251904Y-112746190D01*
X132299523Y-112793809D01*
X132394761Y-112841428D01*
X132585238Y-112841428D01*
X132680476Y-112793809D01*
X132728095Y-112746190D01*
X132775714Y-112650952D01*
X140728333Y-145307142D02*
X140680714Y-145354761D01*
X140537857Y-145402380D01*
X140442619Y-145402380D01*
X140299761Y-145354761D01*
X140204523Y-145259523D01*
X140156904Y-145164285D01*
X140109285Y-144973809D01*
X140109285Y-144830952D01*
X140156904Y-144640476D01*
X140204523Y-144545238D01*
X140299761Y-144450000D01*
X140442619Y-144402380D01*
X140537857Y-144402380D01*
X140680714Y-144450000D01*
X140728333Y-144497619D01*
X141299761Y-144830952D02*
X141204523Y-144783333D01*
X141156904Y-144735714D01*
X141109285Y-144640476D01*
X141109285Y-144592857D01*
X141156904Y-144497619D01*
X141204523Y-144450000D01*
X141299761Y-144402380D01*
X141490238Y-144402380D01*
X141585476Y-144450000D01*
X141633095Y-144497619D01*
X141680714Y-144592857D01*
X141680714Y-144640476D01*
X141633095Y-144735714D01*
X141585476Y-144783333D01*
X141490238Y-144830952D01*
X141299761Y-144830952D01*
X141204523Y-144878571D01*
X141156904Y-144926190D01*
X141109285Y-145021428D01*
X141109285Y-145211904D01*
X141156904Y-145307142D01*
X141204523Y-145354761D01*
X141299761Y-145402380D01*
X141490238Y-145402380D01*
X141585476Y-145354761D01*
X141633095Y-145307142D01*
X141680714Y-145211904D01*
X141680714Y-145021428D01*
X141633095Y-144926190D01*
X141585476Y-144878571D01*
X141490238Y-144830952D01*
X110983333Y-138727142D02*
X110935714Y-138774761D01*
X110792857Y-138822380D01*
X110697619Y-138822380D01*
X110554761Y-138774761D01*
X110459523Y-138679523D01*
X110411904Y-138584285D01*
X110364285Y-138393809D01*
X110364285Y-138250952D01*
X110411904Y-138060476D01*
X110459523Y-137965238D01*
X110554761Y-137870000D01*
X110697619Y-137822380D01*
X110792857Y-137822380D01*
X110935714Y-137870000D01*
X110983333Y-137917619D01*
X111316666Y-137822380D02*
X111983333Y-137822380D01*
X111554761Y-138822380D01*
X102618333Y-142977142D02*
X102570714Y-143024761D01*
X102427857Y-143072380D01*
X102332619Y-143072380D01*
X102189761Y-143024761D01*
X102094523Y-142929523D01*
X102046904Y-142834285D01*
X101999285Y-142643809D01*
X101999285Y-142500952D01*
X102046904Y-142310476D01*
X102094523Y-142215238D01*
X102189761Y-142120000D01*
X102332619Y-142072380D01*
X102427857Y-142072380D01*
X102570714Y-142120000D01*
X102618333Y-142167619D01*
X103475476Y-142072380D02*
X103285000Y-142072380D01*
X103189761Y-142120000D01*
X103142142Y-142167619D01*
X103046904Y-142310476D01*
X102999285Y-142500952D01*
X102999285Y-142881904D01*
X103046904Y-142977142D01*
X103094523Y-143024761D01*
X103189761Y-143072380D01*
X103380238Y-143072380D01*
X103475476Y-143024761D01*
X103523095Y-142977142D01*
X103570714Y-142881904D01*
X103570714Y-142643809D01*
X103523095Y-142548571D01*
X103475476Y-142500952D01*
X103380238Y-142453333D01*
X103189761Y-142453333D01*
X103094523Y-142500952D01*
X103046904Y-142548571D01*
X102999285Y-142643809D01*
X125923333Y-147747142D02*
X125875714Y-147794761D01*
X125732857Y-147842380D01*
X125637619Y-147842380D01*
X125494761Y-147794761D01*
X125399523Y-147699523D01*
X125351904Y-147604285D01*
X125304285Y-147413809D01*
X125304285Y-147270952D01*
X125351904Y-147080476D01*
X125399523Y-146985238D01*
X125494761Y-146890000D01*
X125637619Y-146842380D01*
X125732857Y-146842380D01*
X125875714Y-146890000D01*
X125923333Y-146937619D01*
X126256666Y-146842380D02*
X126875714Y-146842380D01*
X126542380Y-147223333D01*
X126685238Y-147223333D01*
X126780476Y-147270952D01*
X126828095Y-147318571D01*
X126875714Y-147413809D01*
X126875714Y-147651904D01*
X126828095Y-147747142D01*
X126780476Y-147794761D01*
X126685238Y-147842380D01*
X126399523Y-147842380D01*
X126304285Y-147794761D01*
X126256666Y-147747142D01*
X131997142Y-119386666D02*
X132044761Y-119434285D01*
X132092380Y-119577142D01*
X132092380Y-119672380D01*
X132044761Y-119815238D01*
X131949523Y-119910476D01*
X131854285Y-119958095D01*
X131663809Y-120005714D01*
X131520952Y-120005714D01*
X131330476Y-119958095D01*
X131235238Y-119910476D01*
X131140000Y-119815238D01*
X131092380Y-119672380D01*
X131092380Y-119577142D01*
X131140000Y-119434285D01*
X131187619Y-119386666D01*
X131187619Y-119005714D02*
X131140000Y-118958095D01*
X131092380Y-118862857D01*
X131092380Y-118624761D01*
X131140000Y-118529523D01*
X131187619Y-118481904D01*
X131282857Y-118434285D01*
X131378095Y-118434285D01*
X131520952Y-118481904D01*
X132092380Y-119053333D01*
X132092380Y-118434285D01*
X130663333Y-108527142D02*
X130615714Y-108574761D01*
X130472857Y-108622380D01*
X130377619Y-108622380D01*
X130234761Y-108574761D01*
X130139523Y-108479523D01*
X130091904Y-108384285D01*
X130044285Y-108193809D01*
X130044285Y-108050952D01*
X130091904Y-107860476D01*
X130139523Y-107765238D01*
X130234761Y-107670000D01*
X130377619Y-107622380D01*
X130472857Y-107622380D01*
X130615714Y-107670000D01*
X130663333Y-107717619D01*
X131615714Y-108622380D02*
X131044285Y-108622380D01*
X131330000Y-108622380D02*
X131330000Y-107622380D01*
X131234761Y-107765238D01*
X131139523Y-107860476D01*
X131044285Y-107908095D01*
D17*
X145701666Y-110224047D02*
X145701666Y-109747857D01*
X145987380Y-110319285D02*
X144987380Y-109985952D01*
X145987380Y-109652619D01*
X145987380Y-109319285D02*
X144987380Y-109319285D01*
X145987380Y-108747857D01*
X144987380Y-108747857D01*
X144987380Y-108414523D02*
X144987380Y-107843095D01*
X145987380Y-108128809D02*
X144987380Y-108128809D01*
X145987380Y-106985952D02*
X145987380Y-107557380D01*
X145987380Y-107271666D02*
X144987380Y-107271666D01*
X145130238Y-107366904D01*
X145225476Y-107462142D01*
X145273095Y-107557380D01*
X116765880Y-135700696D02*
X116765880Y-136416174D01*
X116718181Y-136559270D01*
X116622784Y-136654667D01*
X116479689Y-136702365D01*
X116384292Y-136702365D01*
X117195167Y-135796094D02*
X117242865Y-135748395D01*
X117338262Y-135700696D01*
X117576755Y-135700696D01*
X117672152Y-135748395D01*
X117719850Y-135796094D01*
X117767549Y-135891491D01*
X117767549Y-135986888D01*
X117719850Y-136129983D01*
X117147468Y-136702365D01*
X117767549Y-136702365D01*
M02*
