G04 #@! TF.GenerationSoftware,KiCad,Pcbnew,(5.1.6)-1*
G04 #@! TF.CreationDate,2020-10-17T23:58:27+09:00*
G04 #@! TF.ProjectId,guardianCam_Wifi,67756172-6469-4616-9e43-616d5f576966,rev?*
G04 #@! TF.SameCoordinates,Original*
G04 #@! TF.FileFunction,Paste,Bot*
G04 #@! TF.FilePolarity,Positive*
%FSLAX46Y46*%
G04 Gerber Fmt 4.6, Leading zero omitted, Abs format (unit mm)*
G04 Created by KiCad (PCBNEW (5.1.6)-1) date 2020-10-17 23:58:27*
%MOMM*%
%LPD*%
G01*
G04 APERTURE LIST*
%ADD10C,0.001000*%
%ADD11R,0.762000X1.803400*%
%ADD12R,1.498600X1.498600*%
%ADD13R,0.838200X1.549400*%
%ADD14R,1.549400X1.041400*%
%ADD15R,1.041400X1.549400*%
%ADD16R,0.600000X0.522000*%
G04 APERTURE END LIST*
D10*
G36*
X137850000Y-108175000D02*
G01*
X137950000Y-108275000D01*
X137915000Y-108330000D01*
X137875000Y-108440000D01*
X137870000Y-108440000D01*
X137875000Y-108450000D01*
X137860000Y-108555000D01*
X137856397Y-108565000D01*
X137860000Y-108565000D01*
X137875000Y-108685000D01*
X137918463Y-108784609D01*
X137953828Y-108852666D01*
X137855000Y-108950000D01*
X137745000Y-109065000D01*
X137680000Y-108970000D01*
X137630000Y-108870000D01*
X137600000Y-108780000D01*
X137580000Y-108700000D01*
X137570000Y-108560000D01*
X137583797Y-108399809D01*
X137630000Y-108250000D01*
X137675000Y-108160000D01*
X137739691Y-108060234D01*
X137850000Y-108175000D01*
G37*
X137850000Y-108175000D02*
X137950000Y-108275000D01*
X137915000Y-108330000D01*
X137875000Y-108440000D01*
X137870000Y-108440000D01*
X137875000Y-108450000D01*
X137860000Y-108555000D01*
X137856397Y-108565000D01*
X137860000Y-108565000D01*
X137875000Y-108685000D01*
X137918463Y-108784609D01*
X137953828Y-108852666D01*
X137855000Y-108950000D01*
X137745000Y-109065000D01*
X137680000Y-108970000D01*
X137630000Y-108870000D01*
X137600000Y-108780000D01*
X137580000Y-108700000D01*
X137570000Y-108560000D01*
X137583797Y-108399809D01*
X137630000Y-108250000D01*
X137675000Y-108160000D01*
X137739691Y-108060234D01*
X137850000Y-108175000D01*
G36*
X138760000Y-108030000D02*
G01*
X138660000Y-108135000D01*
X138610000Y-108100000D01*
X138500000Y-108060000D01*
X138380000Y-108046397D01*
X138260000Y-108060000D01*
X138155391Y-108098463D01*
X138092334Y-108133828D01*
X137995000Y-108035000D01*
X137880000Y-107920000D01*
X137975000Y-107855000D01*
X138070000Y-107810000D01*
X138160000Y-107780000D01*
X138240000Y-107760000D01*
X138380000Y-107750000D01*
X138540191Y-107763797D01*
X138690000Y-107810000D01*
X138805000Y-107870000D01*
X138874766Y-107914691D01*
X138760000Y-108030000D01*
G37*
X138760000Y-108030000D02*
X138660000Y-108135000D01*
X138610000Y-108100000D01*
X138500000Y-108060000D01*
X138380000Y-108046397D01*
X138260000Y-108060000D01*
X138155391Y-108098463D01*
X138092334Y-108133828D01*
X137995000Y-108035000D01*
X137880000Y-107920000D01*
X137975000Y-107855000D01*
X138070000Y-107810000D01*
X138160000Y-107780000D01*
X138240000Y-107760000D01*
X138380000Y-107750000D01*
X138540191Y-107763797D01*
X138690000Y-107810000D01*
X138805000Y-107870000D01*
X138874766Y-107914691D01*
X138760000Y-108030000D01*
G36*
X138910000Y-108945000D02*
G01*
X138805000Y-108840000D01*
X138840000Y-108790000D01*
X138880000Y-108680000D01*
X138893603Y-108560000D01*
X138880000Y-108440000D01*
X138841537Y-108335391D01*
X138801172Y-108277334D01*
X138900000Y-108180000D01*
X139020000Y-108060000D01*
X139085000Y-108155000D01*
X139130000Y-108250000D01*
X139160000Y-108330000D01*
X139180000Y-108420000D01*
X139190000Y-108500000D01*
X139190000Y-108625000D01*
X139176203Y-108720191D01*
X139160000Y-108795000D01*
X139130000Y-108870000D01*
X139085000Y-108965000D01*
X139020309Y-109059766D01*
X138910000Y-108945000D01*
G37*
X138910000Y-108945000D02*
X138805000Y-108840000D01*
X138840000Y-108790000D01*
X138880000Y-108680000D01*
X138893603Y-108560000D01*
X138880000Y-108440000D01*
X138841537Y-108335391D01*
X138801172Y-108277334D01*
X138900000Y-108180000D01*
X139020000Y-108060000D01*
X139085000Y-108155000D01*
X139130000Y-108250000D01*
X139160000Y-108330000D01*
X139180000Y-108420000D01*
X139190000Y-108500000D01*
X139190000Y-108625000D01*
X139176203Y-108720191D01*
X139160000Y-108795000D01*
X139130000Y-108870000D01*
X139085000Y-108965000D01*
X139020309Y-109059766D01*
X138910000Y-108945000D01*
G36*
X138005000Y-109090000D02*
G01*
X138100000Y-108995000D01*
X138150000Y-109020000D01*
X138205000Y-109045000D01*
X138260000Y-109060000D01*
X138320000Y-109070000D01*
X138380000Y-109073603D01*
X138500000Y-109060000D01*
X138604609Y-109021537D01*
X138662666Y-108986172D01*
X138765000Y-109085000D01*
X138880000Y-109200000D01*
X138790000Y-109260000D01*
X138690000Y-109310000D01*
X138610000Y-109340000D01*
X138520000Y-109360000D01*
X138380000Y-109370000D01*
X138219809Y-109356203D01*
X138070000Y-109310000D01*
X137965000Y-109260000D01*
X137890234Y-109205309D01*
X138005000Y-109090000D01*
G37*
X138005000Y-109090000D02*
X138100000Y-108995000D01*
X138150000Y-109020000D01*
X138205000Y-109045000D01*
X138260000Y-109060000D01*
X138320000Y-109070000D01*
X138380000Y-109073603D01*
X138500000Y-109060000D01*
X138604609Y-109021537D01*
X138662666Y-108986172D01*
X138765000Y-109085000D01*
X138880000Y-109200000D01*
X138790000Y-109260000D01*
X138690000Y-109310000D01*
X138610000Y-109340000D01*
X138520000Y-109360000D01*
X138380000Y-109370000D01*
X138219809Y-109356203D01*
X138070000Y-109310000D01*
X137965000Y-109260000D01*
X137890234Y-109205309D01*
X138005000Y-109090000D01*
G36*
G01*
X132685000Y-143269999D02*
X132685000Y-144170001D01*
G75*
G02*
X132435001Y-144420000I-249999J0D01*
G01*
X131784999Y-144420000D01*
G75*
G02*
X131535000Y-144170001I0J249999D01*
G01*
X131535000Y-143269999D01*
G75*
G02*
X131784999Y-143020000I249999J0D01*
G01*
X132435001Y-143020000D01*
G75*
G02*
X132685000Y-143269999I0J-249999D01*
G01*
G37*
G36*
G01*
X134735000Y-143269999D02*
X134735000Y-144170001D01*
G75*
G02*
X134485001Y-144420000I-249999J0D01*
G01*
X133834999Y-144420000D01*
G75*
G02*
X133585000Y-144170001I0J249999D01*
G01*
X133585000Y-143269999D01*
G75*
G02*
X133834999Y-143020000I249999J0D01*
G01*
X134485001Y-143020000D01*
G75*
G02*
X134735000Y-143269999I0J-249999D01*
G01*
G37*
G36*
G01*
X139835000Y-142010001D02*
X139835000Y-141109999D01*
G75*
G02*
X140084999Y-140860000I249999J0D01*
G01*
X140735001Y-140860000D01*
G75*
G02*
X140985000Y-141109999I0J-249999D01*
G01*
X140985000Y-142010001D01*
G75*
G02*
X140735001Y-142260000I-249999J0D01*
G01*
X140084999Y-142260000D01*
G75*
G02*
X139835000Y-142010001I0J249999D01*
G01*
G37*
G36*
G01*
X137785000Y-142010001D02*
X137785000Y-141109999D01*
G75*
G02*
X138034999Y-140860000I249999J0D01*
G01*
X138685001Y-140860000D01*
G75*
G02*
X138935000Y-141109999I0J-249999D01*
G01*
X138935000Y-142010001D01*
G75*
G02*
X138685001Y-142260000I-249999J0D01*
G01*
X138034999Y-142260000D01*
G75*
G02*
X137785000Y-142010001I0J249999D01*
G01*
G37*
G36*
G01*
X132670000Y-141309999D02*
X132670000Y-142210001D01*
G75*
G02*
X132420001Y-142460000I-249999J0D01*
G01*
X131769999Y-142460000D01*
G75*
G02*
X131520000Y-142210001I0J249999D01*
G01*
X131520000Y-141309999D01*
G75*
G02*
X131769999Y-141060000I249999J0D01*
G01*
X132420001Y-141060000D01*
G75*
G02*
X132670000Y-141309999I0J-249999D01*
G01*
G37*
G36*
G01*
X134720000Y-141309999D02*
X134720000Y-142210001D01*
G75*
G02*
X134470001Y-142460000I-249999J0D01*
G01*
X133819999Y-142460000D01*
G75*
G02*
X133570000Y-142210001I0J249999D01*
G01*
X133570000Y-141309999D01*
G75*
G02*
X133819999Y-141060000I249999J0D01*
G01*
X134470001Y-141060000D01*
G75*
G02*
X134720000Y-141309999I0J-249999D01*
G01*
G37*
D11*
X112889288Y-117700701D03*
X111789288Y-117700701D03*
X110689287Y-117700701D03*
X109589287Y-117700701D03*
X108489289Y-117700701D03*
X107389289Y-117700701D03*
X106289289Y-117700701D03*
X105189288Y-117700701D03*
D12*
X114365000Y-117548301D03*
X103115000Y-117548301D03*
D13*
X114695208Y-110723702D03*
X102784792Y-110073701D03*
D14*
X114339684Y-108969700D03*
D15*
X103185706Y-107648702D03*
G36*
G01*
X130275000Y-134230000D02*
X130575000Y-134230000D01*
G75*
G02*
X130725000Y-134380000I0J-150000D01*
G01*
X130725000Y-135680000D01*
G75*
G02*
X130575000Y-135830000I-150000J0D01*
G01*
X130275000Y-135830000D01*
G75*
G02*
X130125000Y-135680000I0J150000D01*
G01*
X130125000Y-134380000D01*
G75*
G02*
X130275000Y-134230000I150000J0D01*
G01*
G37*
G36*
G01*
X131545000Y-134230000D02*
X131845000Y-134230000D01*
G75*
G02*
X131995000Y-134380000I0J-150000D01*
G01*
X131995000Y-135680000D01*
G75*
G02*
X131845000Y-135830000I-150000J0D01*
G01*
X131545000Y-135830000D01*
G75*
G02*
X131395000Y-135680000I0J150000D01*
G01*
X131395000Y-134380000D01*
G75*
G02*
X131545000Y-134230000I150000J0D01*
G01*
G37*
G36*
G01*
X132815000Y-134230000D02*
X133115000Y-134230000D01*
G75*
G02*
X133265000Y-134380000I0J-150000D01*
G01*
X133265000Y-135680000D01*
G75*
G02*
X133115000Y-135830000I-150000J0D01*
G01*
X132815000Y-135830000D01*
G75*
G02*
X132665000Y-135680000I0J150000D01*
G01*
X132665000Y-134380000D01*
G75*
G02*
X132815000Y-134230000I150000J0D01*
G01*
G37*
G36*
G01*
X134085000Y-134230000D02*
X134385000Y-134230000D01*
G75*
G02*
X134535000Y-134380000I0J-150000D01*
G01*
X134535000Y-135680000D01*
G75*
G02*
X134385000Y-135830000I-150000J0D01*
G01*
X134085000Y-135830000D01*
G75*
G02*
X133935000Y-135680000I0J150000D01*
G01*
X133935000Y-134380000D01*
G75*
G02*
X134085000Y-134230000I150000J0D01*
G01*
G37*
G36*
G01*
X134085000Y-127030000D02*
X134385000Y-127030000D01*
G75*
G02*
X134535000Y-127180000I0J-150000D01*
G01*
X134535000Y-128480000D01*
G75*
G02*
X134385000Y-128630000I-150000J0D01*
G01*
X134085000Y-128630000D01*
G75*
G02*
X133935000Y-128480000I0J150000D01*
G01*
X133935000Y-127180000D01*
G75*
G02*
X134085000Y-127030000I150000J0D01*
G01*
G37*
G36*
G01*
X132815000Y-127030000D02*
X133115000Y-127030000D01*
G75*
G02*
X133265000Y-127180000I0J-150000D01*
G01*
X133265000Y-128480000D01*
G75*
G02*
X133115000Y-128630000I-150000J0D01*
G01*
X132815000Y-128630000D01*
G75*
G02*
X132665000Y-128480000I0J150000D01*
G01*
X132665000Y-127180000D01*
G75*
G02*
X132815000Y-127030000I150000J0D01*
G01*
G37*
G36*
G01*
X131545000Y-127030000D02*
X131845000Y-127030000D01*
G75*
G02*
X131995000Y-127180000I0J-150000D01*
G01*
X131995000Y-128480000D01*
G75*
G02*
X131845000Y-128630000I-150000J0D01*
G01*
X131545000Y-128630000D01*
G75*
G02*
X131395000Y-128480000I0J150000D01*
G01*
X131395000Y-127180000D01*
G75*
G02*
X131545000Y-127030000I150000J0D01*
G01*
G37*
G36*
G01*
X130275000Y-127030000D02*
X130575000Y-127030000D01*
G75*
G02*
X130725000Y-127180000I0J-150000D01*
G01*
X130725000Y-128480000D01*
G75*
G02*
X130575000Y-128630000I-150000J0D01*
G01*
X130275000Y-128630000D01*
G75*
G02*
X130125000Y-128480000I0J150000D01*
G01*
X130125000Y-127180000D01*
G75*
G02*
X130275000Y-127030000I150000J0D01*
G01*
G37*
G36*
G01*
X148650001Y-144015000D02*
X147749999Y-144015000D01*
G75*
G02*
X147500000Y-143765001I0J249999D01*
G01*
X147500000Y-143114999D01*
G75*
G02*
X147749999Y-142865000I249999J0D01*
G01*
X148650001Y-142865000D01*
G75*
G02*
X148900000Y-143114999I0J-249999D01*
G01*
X148900000Y-143765001D01*
G75*
G02*
X148650001Y-144015000I-249999J0D01*
G01*
G37*
G36*
G01*
X148650001Y-146065000D02*
X147749999Y-146065000D01*
G75*
G02*
X147500000Y-145815001I0J249999D01*
G01*
X147500000Y-145164999D01*
G75*
G02*
X147749999Y-144915000I249999J0D01*
G01*
X148650001Y-144915000D01*
G75*
G02*
X148900000Y-145164999I0J-249999D01*
G01*
X148900000Y-145815001D01*
G75*
G02*
X148650001Y-146065000I-249999J0D01*
G01*
G37*
G36*
G01*
X138735000Y-113070001D02*
X138735000Y-112169999D01*
G75*
G02*
X138984999Y-111920000I249999J0D01*
G01*
X139635001Y-111920000D01*
G75*
G02*
X139885000Y-112169999I0J-249999D01*
G01*
X139885000Y-113070001D01*
G75*
G02*
X139635001Y-113320000I-249999J0D01*
G01*
X138984999Y-113320000D01*
G75*
G02*
X138735000Y-113070001I0J249999D01*
G01*
G37*
G36*
G01*
X136685000Y-113070001D02*
X136685000Y-112169999D01*
G75*
G02*
X136934999Y-111920000I249999J0D01*
G01*
X137585001Y-111920000D01*
G75*
G02*
X137835000Y-112169999I0J-249999D01*
G01*
X137835000Y-113070001D01*
G75*
G02*
X137585001Y-113320000I-249999J0D01*
G01*
X136934999Y-113320000D01*
G75*
G02*
X136685000Y-113070001I0J249999D01*
G01*
G37*
G36*
G01*
X135105000Y-109270001D02*
X135105000Y-108369999D01*
G75*
G02*
X135354999Y-108120000I249999J0D01*
G01*
X136005001Y-108120000D01*
G75*
G02*
X136255000Y-108369999I0J-249999D01*
G01*
X136255000Y-109270001D01*
G75*
G02*
X136005001Y-109520000I-249999J0D01*
G01*
X135354999Y-109520000D01*
G75*
G02*
X135105000Y-109270001I0J249999D01*
G01*
G37*
G36*
G01*
X133055000Y-109270001D02*
X133055000Y-108369999D01*
G75*
G02*
X133304999Y-108120000I249999J0D01*
G01*
X133955001Y-108120000D01*
G75*
G02*
X134205000Y-108369999I0J-249999D01*
G01*
X134205000Y-109270001D01*
G75*
G02*
X133955001Y-109520000I-249999J0D01*
G01*
X133304999Y-109520000D01*
G75*
G02*
X133055000Y-109270001I0J249999D01*
G01*
G37*
D16*
X139280000Y-109812000D03*
X139280000Y-110634000D03*
X138380000Y-110634000D03*
X137480000Y-110634000D03*
X137480000Y-109812000D03*
G36*
G01*
X137655000Y-119839999D02*
X137655000Y-120740001D01*
G75*
G02*
X137405001Y-120990000I-249999J0D01*
G01*
X136754999Y-120990000D01*
G75*
G02*
X136505000Y-120740001I0J249999D01*
G01*
X136505000Y-119839999D01*
G75*
G02*
X136754999Y-119590000I249999J0D01*
G01*
X137405001Y-119590000D01*
G75*
G02*
X137655000Y-119839999I0J-249999D01*
G01*
G37*
G36*
G01*
X139705000Y-119839999D02*
X139705000Y-120740001D01*
G75*
G02*
X139455001Y-120990000I-249999J0D01*
G01*
X138804999Y-120990000D01*
G75*
G02*
X138555000Y-120740001I0J249999D01*
G01*
X138555000Y-119839999D01*
G75*
G02*
X138804999Y-119590000I249999J0D01*
G01*
X139455001Y-119590000D01*
G75*
G02*
X139705000Y-119839999I0J-249999D01*
G01*
G37*
G36*
G01*
X137675000Y-117879999D02*
X137675000Y-118780001D01*
G75*
G02*
X137425001Y-119030000I-249999J0D01*
G01*
X136774999Y-119030000D01*
G75*
G02*
X136525000Y-118780001I0J249999D01*
G01*
X136525000Y-117879999D01*
G75*
G02*
X136774999Y-117630000I249999J0D01*
G01*
X137425001Y-117630000D01*
G75*
G02*
X137675000Y-117879999I0J-249999D01*
G01*
G37*
G36*
G01*
X139725000Y-117879999D02*
X139725000Y-118780001D01*
G75*
G02*
X139475001Y-119030000I-249999J0D01*
G01*
X138824999Y-119030000D01*
G75*
G02*
X138575000Y-118780001I0J249999D01*
G01*
X138575000Y-117879999D01*
G75*
G02*
X138824999Y-117630000I249999J0D01*
G01*
X139475001Y-117630000D01*
G75*
G02*
X139725000Y-117879999I0J-249999D01*
G01*
G37*
G36*
G01*
X139650001Y-114980000D02*
X138749999Y-114980000D01*
G75*
G02*
X138500000Y-114730001I0J249999D01*
G01*
X138500000Y-114079999D01*
G75*
G02*
X138749999Y-113830000I249999J0D01*
G01*
X139650001Y-113830000D01*
G75*
G02*
X139900000Y-114079999I0J-249999D01*
G01*
X139900000Y-114730001D01*
G75*
G02*
X139650001Y-114980000I-249999J0D01*
G01*
G37*
G36*
G01*
X139650001Y-117030000D02*
X138749999Y-117030000D01*
G75*
G02*
X138500000Y-116780001I0J249999D01*
G01*
X138500000Y-116129999D01*
G75*
G02*
X138749999Y-115880000I249999J0D01*
G01*
X139650001Y-115880000D01*
G75*
G02*
X139900000Y-116129999I0J-249999D01*
G01*
X139900000Y-116780001D01*
G75*
G02*
X139650001Y-117030000I-249999J0D01*
G01*
G37*
G36*
G01*
X137550001Y-114975000D02*
X136649999Y-114975000D01*
G75*
G02*
X136400000Y-114725001I0J249999D01*
G01*
X136400000Y-114074999D01*
G75*
G02*
X136649999Y-113825000I249999J0D01*
G01*
X137550001Y-113825000D01*
G75*
G02*
X137800000Y-114074999I0J-249999D01*
G01*
X137800000Y-114725001D01*
G75*
G02*
X137550001Y-114975000I-249999J0D01*
G01*
G37*
G36*
G01*
X137550001Y-117025000D02*
X136649999Y-117025000D01*
G75*
G02*
X136400000Y-116775001I0J249999D01*
G01*
X136400000Y-116124999D01*
G75*
G02*
X136649999Y-115875000I249999J0D01*
G01*
X137550001Y-115875000D01*
G75*
G02*
X137800000Y-116124999I0J-249999D01*
G01*
X137800000Y-116775001D01*
G75*
G02*
X137550001Y-117025000I-249999J0D01*
G01*
G37*
G36*
G01*
X146740000Y-131890001D02*
X146740000Y-130989999D01*
G75*
G02*
X146989999Y-130740000I249999J0D01*
G01*
X147640001Y-130740000D01*
G75*
G02*
X147890000Y-130989999I0J-249999D01*
G01*
X147890000Y-131890001D01*
G75*
G02*
X147640001Y-132140000I-249999J0D01*
G01*
X146989999Y-132140000D01*
G75*
G02*
X146740000Y-131890001I0J249999D01*
G01*
G37*
G36*
G01*
X144690000Y-131890001D02*
X144690000Y-130989999D01*
G75*
G02*
X144939999Y-130740000I249999J0D01*
G01*
X145590001Y-130740000D01*
G75*
G02*
X145840000Y-130989999I0J-249999D01*
G01*
X145840000Y-131890001D01*
G75*
G02*
X145590001Y-132140000I-249999J0D01*
G01*
X144939999Y-132140000D01*
G75*
G02*
X144690000Y-131890001I0J249999D01*
G01*
G37*
G36*
G01*
X149970001Y-133245000D02*
X149069999Y-133245000D01*
G75*
G02*
X148820000Y-132995001I0J249999D01*
G01*
X148820000Y-132344999D01*
G75*
G02*
X149069999Y-132095000I249999J0D01*
G01*
X149970001Y-132095000D01*
G75*
G02*
X150220000Y-132344999I0J-249999D01*
G01*
X150220000Y-132995001D01*
G75*
G02*
X149970001Y-133245000I-249999J0D01*
G01*
G37*
G36*
G01*
X149970001Y-135295000D02*
X149069999Y-135295000D01*
G75*
G02*
X148820000Y-135045001I0J249999D01*
G01*
X148820000Y-134394999D01*
G75*
G02*
X149069999Y-134145000I249999J0D01*
G01*
X149970001Y-134145000D01*
G75*
G02*
X150220000Y-134394999I0J-249999D01*
G01*
X150220000Y-135045001D01*
G75*
G02*
X149970001Y-135295000I-249999J0D01*
G01*
G37*
G36*
G01*
X149259999Y-118020000D02*
X150160001Y-118020000D01*
G75*
G02*
X150410000Y-118269999I0J-249999D01*
G01*
X150410000Y-118920001D01*
G75*
G02*
X150160001Y-119170000I-249999J0D01*
G01*
X149259999Y-119170000D01*
G75*
G02*
X149010000Y-118920001I0J249999D01*
G01*
X149010000Y-118269999D01*
G75*
G02*
X149259999Y-118020000I249999J0D01*
G01*
G37*
G36*
G01*
X149259999Y-115970000D02*
X150160001Y-115970000D01*
G75*
G02*
X150410000Y-116219999I0J-249999D01*
G01*
X150410000Y-116870001D01*
G75*
G02*
X150160001Y-117120000I-249999J0D01*
G01*
X149259999Y-117120000D01*
G75*
G02*
X149010000Y-116870001I0J249999D01*
G01*
X149010000Y-116219999D01*
G75*
G02*
X149259999Y-115970000I249999J0D01*
G01*
G37*
G36*
G01*
X146885000Y-134960001D02*
X146885000Y-134059999D01*
G75*
G02*
X147134999Y-133810000I249999J0D01*
G01*
X147785001Y-133810000D01*
G75*
G02*
X148035000Y-134059999I0J-249999D01*
G01*
X148035000Y-134960001D01*
G75*
G02*
X147785001Y-135210000I-249999J0D01*
G01*
X147134999Y-135210000D01*
G75*
G02*
X146885000Y-134960001I0J249999D01*
G01*
G37*
G36*
G01*
X144835000Y-134960001D02*
X144835000Y-134059999D01*
G75*
G02*
X145084999Y-133810000I249999J0D01*
G01*
X145735001Y-133810000D01*
G75*
G02*
X145985000Y-134059999I0J-249999D01*
G01*
X145985000Y-134960001D01*
G75*
G02*
X145735001Y-135210000I-249999J0D01*
G01*
X145084999Y-135210000D01*
G75*
G02*
X144835000Y-134960001I0J249999D01*
G01*
G37*
G36*
G01*
X148159999Y-122245000D02*
X149060001Y-122245000D01*
G75*
G02*
X149310000Y-122494999I0J-249999D01*
G01*
X149310000Y-123145001D01*
G75*
G02*
X149060001Y-123395000I-249999J0D01*
G01*
X148159999Y-123395000D01*
G75*
G02*
X147910000Y-123145001I0J249999D01*
G01*
X147910000Y-122494999D01*
G75*
G02*
X148159999Y-122245000I249999J0D01*
G01*
G37*
G36*
G01*
X148159999Y-120195000D02*
X149060001Y-120195000D01*
G75*
G02*
X149310000Y-120444999I0J-249999D01*
G01*
X149310000Y-121095001D01*
G75*
G02*
X149060001Y-121345000I-249999J0D01*
G01*
X148159999Y-121345000D01*
G75*
G02*
X147910000Y-121095001I0J249999D01*
G01*
X147910000Y-120444999D01*
G75*
G02*
X148159999Y-120195000I249999J0D01*
G01*
G37*
G36*
G01*
X120200000Y-125820000D02*
X120200000Y-124370000D01*
G75*
G02*
X120275000Y-124295000I75000J0D01*
G01*
X120425000Y-124295000D01*
G75*
G02*
X120500000Y-124370000I0J-75000D01*
G01*
X120500000Y-125820000D01*
G75*
G02*
X120425000Y-125895000I-75000J0D01*
G01*
X120275000Y-125895000D01*
G75*
G02*
X120200000Y-125820000I0J75000D01*
G01*
G37*
G36*
G01*
X120700000Y-125820000D02*
X120700000Y-124370000D01*
G75*
G02*
X120775000Y-124295000I75000J0D01*
G01*
X120925000Y-124295000D01*
G75*
G02*
X121000000Y-124370000I0J-75000D01*
G01*
X121000000Y-125820000D01*
G75*
G02*
X120925000Y-125895000I-75000J0D01*
G01*
X120775000Y-125895000D01*
G75*
G02*
X120700000Y-125820000I0J75000D01*
G01*
G37*
G36*
G01*
X121200000Y-125820000D02*
X121200000Y-124370000D01*
G75*
G02*
X121275000Y-124295000I75000J0D01*
G01*
X121425000Y-124295000D01*
G75*
G02*
X121500000Y-124370000I0J-75000D01*
G01*
X121500000Y-125820000D01*
G75*
G02*
X121425000Y-125895000I-75000J0D01*
G01*
X121275000Y-125895000D01*
G75*
G02*
X121200000Y-125820000I0J75000D01*
G01*
G37*
G36*
G01*
X121700000Y-125820000D02*
X121700000Y-124370000D01*
G75*
G02*
X121775000Y-124295000I75000J0D01*
G01*
X121925000Y-124295000D01*
G75*
G02*
X122000000Y-124370000I0J-75000D01*
G01*
X122000000Y-125820000D01*
G75*
G02*
X121925000Y-125895000I-75000J0D01*
G01*
X121775000Y-125895000D01*
G75*
G02*
X121700000Y-125820000I0J75000D01*
G01*
G37*
G36*
G01*
X122200000Y-125820000D02*
X122200000Y-124370000D01*
G75*
G02*
X122275000Y-124295000I75000J0D01*
G01*
X122425000Y-124295000D01*
G75*
G02*
X122500000Y-124370000I0J-75000D01*
G01*
X122500000Y-125820000D01*
G75*
G02*
X122425000Y-125895000I-75000J0D01*
G01*
X122275000Y-125895000D01*
G75*
G02*
X122200000Y-125820000I0J75000D01*
G01*
G37*
G36*
G01*
X122700000Y-125820000D02*
X122700000Y-124370000D01*
G75*
G02*
X122775000Y-124295000I75000J0D01*
G01*
X122925000Y-124295000D01*
G75*
G02*
X123000000Y-124370000I0J-75000D01*
G01*
X123000000Y-125820000D01*
G75*
G02*
X122925000Y-125895000I-75000J0D01*
G01*
X122775000Y-125895000D01*
G75*
G02*
X122700000Y-125820000I0J75000D01*
G01*
G37*
G36*
G01*
X123200000Y-125820000D02*
X123200000Y-124370000D01*
G75*
G02*
X123275000Y-124295000I75000J0D01*
G01*
X123425000Y-124295000D01*
G75*
G02*
X123500000Y-124370000I0J-75000D01*
G01*
X123500000Y-125820000D01*
G75*
G02*
X123425000Y-125895000I-75000J0D01*
G01*
X123275000Y-125895000D01*
G75*
G02*
X123200000Y-125820000I0J75000D01*
G01*
G37*
G36*
G01*
X123700000Y-125820000D02*
X123700000Y-124370000D01*
G75*
G02*
X123775000Y-124295000I75000J0D01*
G01*
X123925000Y-124295000D01*
G75*
G02*
X124000000Y-124370000I0J-75000D01*
G01*
X124000000Y-125820000D01*
G75*
G02*
X123925000Y-125895000I-75000J0D01*
G01*
X123775000Y-125895000D01*
G75*
G02*
X123700000Y-125820000I0J75000D01*
G01*
G37*
G36*
G01*
X124200000Y-125820000D02*
X124200000Y-124370000D01*
G75*
G02*
X124275000Y-124295000I75000J0D01*
G01*
X124425000Y-124295000D01*
G75*
G02*
X124500000Y-124370000I0J-75000D01*
G01*
X124500000Y-125820000D01*
G75*
G02*
X124425000Y-125895000I-75000J0D01*
G01*
X124275000Y-125895000D01*
G75*
G02*
X124200000Y-125820000I0J75000D01*
G01*
G37*
G36*
G01*
X124700000Y-125820000D02*
X124700000Y-124370000D01*
G75*
G02*
X124775000Y-124295000I75000J0D01*
G01*
X124925000Y-124295000D01*
G75*
G02*
X125000000Y-124370000I0J-75000D01*
G01*
X125000000Y-125820000D01*
G75*
G02*
X124925000Y-125895000I-75000J0D01*
G01*
X124775000Y-125895000D01*
G75*
G02*
X124700000Y-125820000I0J75000D01*
G01*
G37*
G36*
G01*
X125200000Y-125820000D02*
X125200000Y-124370000D01*
G75*
G02*
X125275000Y-124295000I75000J0D01*
G01*
X125425000Y-124295000D01*
G75*
G02*
X125500000Y-124370000I0J-75000D01*
G01*
X125500000Y-125820000D01*
G75*
G02*
X125425000Y-125895000I-75000J0D01*
G01*
X125275000Y-125895000D01*
G75*
G02*
X125200000Y-125820000I0J75000D01*
G01*
G37*
G36*
G01*
X125700000Y-125820000D02*
X125700000Y-124370000D01*
G75*
G02*
X125775000Y-124295000I75000J0D01*
G01*
X125925000Y-124295000D01*
G75*
G02*
X126000000Y-124370000I0J-75000D01*
G01*
X126000000Y-125820000D01*
G75*
G02*
X125925000Y-125895000I-75000J0D01*
G01*
X125775000Y-125895000D01*
G75*
G02*
X125700000Y-125820000I0J75000D01*
G01*
G37*
G36*
G01*
X126200000Y-125820000D02*
X126200000Y-124370000D01*
G75*
G02*
X126275000Y-124295000I75000J0D01*
G01*
X126425000Y-124295000D01*
G75*
G02*
X126500000Y-124370000I0J-75000D01*
G01*
X126500000Y-125820000D01*
G75*
G02*
X126425000Y-125895000I-75000J0D01*
G01*
X126275000Y-125895000D01*
G75*
G02*
X126200000Y-125820000I0J75000D01*
G01*
G37*
G36*
G01*
X126700000Y-125820000D02*
X126700000Y-124370000D01*
G75*
G02*
X126775000Y-124295000I75000J0D01*
G01*
X126925000Y-124295000D01*
G75*
G02*
X127000000Y-124370000I0J-75000D01*
G01*
X127000000Y-125820000D01*
G75*
G02*
X126925000Y-125895000I-75000J0D01*
G01*
X126775000Y-125895000D01*
G75*
G02*
X126700000Y-125820000I0J75000D01*
G01*
G37*
G36*
G01*
X127200000Y-125820000D02*
X127200000Y-124370000D01*
G75*
G02*
X127275000Y-124295000I75000J0D01*
G01*
X127425000Y-124295000D01*
G75*
G02*
X127500000Y-124370000I0J-75000D01*
G01*
X127500000Y-125820000D01*
G75*
G02*
X127425000Y-125895000I-75000J0D01*
G01*
X127275000Y-125895000D01*
G75*
G02*
X127200000Y-125820000I0J75000D01*
G01*
G37*
G36*
G01*
X127700000Y-125820000D02*
X127700000Y-124370000D01*
G75*
G02*
X127775000Y-124295000I75000J0D01*
G01*
X127925000Y-124295000D01*
G75*
G02*
X128000000Y-124370000I0J-75000D01*
G01*
X128000000Y-125820000D01*
G75*
G02*
X127925000Y-125895000I-75000J0D01*
G01*
X127775000Y-125895000D01*
G75*
G02*
X127700000Y-125820000I0J75000D01*
G01*
G37*
G36*
G01*
X128200000Y-125820000D02*
X128200000Y-124370000D01*
G75*
G02*
X128275000Y-124295000I75000J0D01*
G01*
X128425000Y-124295000D01*
G75*
G02*
X128500000Y-124370000I0J-75000D01*
G01*
X128500000Y-125820000D01*
G75*
G02*
X128425000Y-125895000I-75000J0D01*
G01*
X128275000Y-125895000D01*
G75*
G02*
X128200000Y-125820000I0J75000D01*
G01*
G37*
G36*
G01*
X128700000Y-125820000D02*
X128700000Y-124370000D01*
G75*
G02*
X128775000Y-124295000I75000J0D01*
G01*
X128925000Y-124295000D01*
G75*
G02*
X129000000Y-124370000I0J-75000D01*
G01*
X129000000Y-125820000D01*
G75*
G02*
X128925000Y-125895000I-75000J0D01*
G01*
X128775000Y-125895000D01*
G75*
G02*
X128700000Y-125820000I0J75000D01*
G01*
G37*
G36*
G01*
X129200000Y-125820000D02*
X129200000Y-124370000D01*
G75*
G02*
X129275000Y-124295000I75000J0D01*
G01*
X129425000Y-124295000D01*
G75*
G02*
X129500000Y-124370000I0J-75000D01*
G01*
X129500000Y-125820000D01*
G75*
G02*
X129425000Y-125895000I-75000J0D01*
G01*
X129275000Y-125895000D01*
G75*
G02*
X129200000Y-125820000I0J75000D01*
G01*
G37*
G36*
G01*
X129700000Y-125820000D02*
X129700000Y-124370000D01*
G75*
G02*
X129775000Y-124295000I75000J0D01*
G01*
X129925000Y-124295000D01*
G75*
G02*
X130000000Y-124370000I0J-75000D01*
G01*
X130000000Y-125820000D01*
G75*
G02*
X129925000Y-125895000I-75000J0D01*
G01*
X129775000Y-125895000D01*
G75*
G02*
X129700000Y-125820000I0J75000D01*
G01*
G37*
G36*
G01*
X130200000Y-125820000D02*
X130200000Y-124370000D01*
G75*
G02*
X130275000Y-124295000I75000J0D01*
G01*
X130425000Y-124295000D01*
G75*
G02*
X130500000Y-124370000I0J-75000D01*
G01*
X130500000Y-125820000D01*
G75*
G02*
X130425000Y-125895000I-75000J0D01*
G01*
X130275000Y-125895000D01*
G75*
G02*
X130200000Y-125820000I0J75000D01*
G01*
G37*
G36*
G01*
X130700000Y-125820000D02*
X130700000Y-124370000D01*
G75*
G02*
X130775000Y-124295000I75000J0D01*
G01*
X130925000Y-124295000D01*
G75*
G02*
X131000000Y-124370000I0J-75000D01*
G01*
X131000000Y-125820000D01*
G75*
G02*
X130925000Y-125895000I-75000J0D01*
G01*
X130775000Y-125895000D01*
G75*
G02*
X130700000Y-125820000I0J75000D01*
G01*
G37*
G36*
G01*
X131200000Y-125820000D02*
X131200000Y-124370000D01*
G75*
G02*
X131275000Y-124295000I75000J0D01*
G01*
X131425000Y-124295000D01*
G75*
G02*
X131500000Y-124370000I0J-75000D01*
G01*
X131500000Y-125820000D01*
G75*
G02*
X131425000Y-125895000I-75000J0D01*
G01*
X131275000Y-125895000D01*
G75*
G02*
X131200000Y-125820000I0J75000D01*
G01*
G37*
G36*
G01*
X131700000Y-125820000D02*
X131700000Y-124370000D01*
G75*
G02*
X131775000Y-124295000I75000J0D01*
G01*
X131925000Y-124295000D01*
G75*
G02*
X132000000Y-124370000I0J-75000D01*
G01*
X132000000Y-125820000D01*
G75*
G02*
X131925000Y-125895000I-75000J0D01*
G01*
X131775000Y-125895000D01*
G75*
G02*
X131700000Y-125820000I0J75000D01*
G01*
G37*
G36*
G01*
X132200000Y-125820000D02*
X132200000Y-124370000D01*
G75*
G02*
X132275000Y-124295000I75000J0D01*
G01*
X132425000Y-124295000D01*
G75*
G02*
X132500000Y-124370000I0J-75000D01*
G01*
X132500000Y-125820000D01*
G75*
G02*
X132425000Y-125895000I-75000J0D01*
G01*
X132275000Y-125895000D01*
G75*
G02*
X132200000Y-125820000I0J75000D01*
G01*
G37*
G36*
G01*
X133225000Y-123495000D02*
X133225000Y-123345000D01*
G75*
G02*
X133300000Y-123270000I75000J0D01*
G01*
X134750000Y-123270000D01*
G75*
G02*
X134825000Y-123345000I0J-75000D01*
G01*
X134825000Y-123495000D01*
G75*
G02*
X134750000Y-123570000I-75000J0D01*
G01*
X133300000Y-123570000D01*
G75*
G02*
X133225000Y-123495000I0J75000D01*
G01*
G37*
G36*
G01*
X133225000Y-122995000D02*
X133225000Y-122845000D01*
G75*
G02*
X133300000Y-122770000I75000J0D01*
G01*
X134750000Y-122770000D01*
G75*
G02*
X134825000Y-122845000I0J-75000D01*
G01*
X134825000Y-122995000D01*
G75*
G02*
X134750000Y-123070000I-75000J0D01*
G01*
X133300000Y-123070000D01*
G75*
G02*
X133225000Y-122995000I0J75000D01*
G01*
G37*
G36*
G01*
X133225000Y-122495000D02*
X133225000Y-122345000D01*
G75*
G02*
X133300000Y-122270000I75000J0D01*
G01*
X134750000Y-122270000D01*
G75*
G02*
X134825000Y-122345000I0J-75000D01*
G01*
X134825000Y-122495000D01*
G75*
G02*
X134750000Y-122570000I-75000J0D01*
G01*
X133300000Y-122570000D01*
G75*
G02*
X133225000Y-122495000I0J75000D01*
G01*
G37*
G36*
G01*
X133225000Y-121995000D02*
X133225000Y-121845000D01*
G75*
G02*
X133300000Y-121770000I75000J0D01*
G01*
X134750000Y-121770000D01*
G75*
G02*
X134825000Y-121845000I0J-75000D01*
G01*
X134825000Y-121995000D01*
G75*
G02*
X134750000Y-122070000I-75000J0D01*
G01*
X133300000Y-122070000D01*
G75*
G02*
X133225000Y-121995000I0J75000D01*
G01*
G37*
G36*
G01*
X133225000Y-121495000D02*
X133225000Y-121345000D01*
G75*
G02*
X133300000Y-121270000I75000J0D01*
G01*
X134750000Y-121270000D01*
G75*
G02*
X134825000Y-121345000I0J-75000D01*
G01*
X134825000Y-121495000D01*
G75*
G02*
X134750000Y-121570000I-75000J0D01*
G01*
X133300000Y-121570000D01*
G75*
G02*
X133225000Y-121495000I0J75000D01*
G01*
G37*
G36*
G01*
X133225000Y-120995000D02*
X133225000Y-120845000D01*
G75*
G02*
X133300000Y-120770000I75000J0D01*
G01*
X134750000Y-120770000D01*
G75*
G02*
X134825000Y-120845000I0J-75000D01*
G01*
X134825000Y-120995000D01*
G75*
G02*
X134750000Y-121070000I-75000J0D01*
G01*
X133300000Y-121070000D01*
G75*
G02*
X133225000Y-120995000I0J75000D01*
G01*
G37*
G36*
G01*
X133225000Y-120495000D02*
X133225000Y-120345000D01*
G75*
G02*
X133300000Y-120270000I75000J0D01*
G01*
X134750000Y-120270000D01*
G75*
G02*
X134825000Y-120345000I0J-75000D01*
G01*
X134825000Y-120495000D01*
G75*
G02*
X134750000Y-120570000I-75000J0D01*
G01*
X133300000Y-120570000D01*
G75*
G02*
X133225000Y-120495000I0J75000D01*
G01*
G37*
G36*
G01*
X133225000Y-119995000D02*
X133225000Y-119845000D01*
G75*
G02*
X133300000Y-119770000I75000J0D01*
G01*
X134750000Y-119770000D01*
G75*
G02*
X134825000Y-119845000I0J-75000D01*
G01*
X134825000Y-119995000D01*
G75*
G02*
X134750000Y-120070000I-75000J0D01*
G01*
X133300000Y-120070000D01*
G75*
G02*
X133225000Y-119995000I0J75000D01*
G01*
G37*
G36*
G01*
X133225000Y-119495000D02*
X133225000Y-119345000D01*
G75*
G02*
X133300000Y-119270000I75000J0D01*
G01*
X134750000Y-119270000D01*
G75*
G02*
X134825000Y-119345000I0J-75000D01*
G01*
X134825000Y-119495000D01*
G75*
G02*
X134750000Y-119570000I-75000J0D01*
G01*
X133300000Y-119570000D01*
G75*
G02*
X133225000Y-119495000I0J75000D01*
G01*
G37*
G36*
G01*
X133225000Y-118995000D02*
X133225000Y-118845000D01*
G75*
G02*
X133300000Y-118770000I75000J0D01*
G01*
X134750000Y-118770000D01*
G75*
G02*
X134825000Y-118845000I0J-75000D01*
G01*
X134825000Y-118995000D01*
G75*
G02*
X134750000Y-119070000I-75000J0D01*
G01*
X133300000Y-119070000D01*
G75*
G02*
X133225000Y-118995000I0J75000D01*
G01*
G37*
G36*
G01*
X133225000Y-118495000D02*
X133225000Y-118345000D01*
G75*
G02*
X133300000Y-118270000I75000J0D01*
G01*
X134750000Y-118270000D01*
G75*
G02*
X134825000Y-118345000I0J-75000D01*
G01*
X134825000Y-118495000D01*
G75*
G02*
X134750000Y-118570000I-75000J0D01*
G01*
X133300000Y-118570000D01*
G75*
G02*
X133225000Y-118495000I0J75000D01*
G01*
G37*
G36*
G01*
X133225000Y-117995000D02*
X133225000Y-117845000D01*
G75*
G02*
X133300000Y-117770000I75000J0D01*
G01*
X134750000Y-117770000D01*
G75*
G02*
X134825000Y-117845000I0J-75000D01*
G01*
X134825000Y-117995000D01*
G75*
G02*
X134750000Y-118070000I-75000J0D01*
G01*
X133300000Y-118070000D01*
G75*
G02*
X133225000Y-117995000I0J75000D01*
G01*
G37*
G36*
G01*
X133225000Y-117495000D02*
X133225000Y-117345000D01*
G75*
G02*
X133300000Y-117270000I75000J0D01*
G01*
X134750000Y-117270000D01*
G75*
G02*
X134825000Y-117345000I0J-75000D01*
G01*
X134825000Y-117495000D01*
G75*
G02*
X134750000Y-117570000I-75000J0D01*
G01*
X133300000Y-117570000D01*
G75*
G02*
X133225000Y-117495000I0J75000D01*
G01*
G37*
G36*
G01*
X133225000Y-116995000D02*
X133225000Y-116845000D01*
G75*
G02*
X133300000Y-116770000I75000J0D01*
G01*
X134750000Y-116770000D01*
G75*
G02*
X134825000Y-116845000I0J-75000D01*
G01*
X134825000Y-116995000D01*
G75*
G02*
X134750000Y-117070000I-75000J0D01*
G01*
X133300000Y-117070000D01*
G75*
G02*
X133225000Y-116995000I0J75000D01*
G01*
G37*
G36*
G01*
X133225000Y-116495000D02*
X133225000Y-116345000D01*
G75*
G02*
X133300000Y-116270000I75000J0D01*
G01*
X134750000Y-116270000D01*
G75*
G02*
X134825000Y-116345000I0J-75000D01*
G01*
X134825000Y-116495000D01*
G75*
G02*
X134750000Y-116570000I-75000J0D01*
G01*
X133300000Y-116570000D01*
G75*
G02*
X133225000Y-116495000I0J75000D01*
G01*
G37*
G36*
G01*
X133225000Y-115995000D02*
X133225000Y-115845000D01*
G75*
G02*
X133300000Y-115770000I75000J0D01*
G01*
X134750000Y-115770000D01*
G75*
G02*
X134825000Y-115845000I0J-75000D01*
G01*
X134825000Y-115995000D01*
G75*
G02*
X134750000Y-116070000I-75000J0D01*
G01*
X133300000Y-116070000D01*
G75*
G02*
X133225000Y-115995000I0J75000D01*
G01*
G37*
G36*
G01*
X133225000Y-115495000D02*
X133225000Y-115345000D01*
G75*
G02*
X133300000Y-115270000I75000J0D01*
G01*
X134750000Y-115270000D01*
G75*
G02*
X134825000Y-115345000I0J-75000D01*
G01*
X134825000Y-115495000D01*
G75*
G02*
X134750000Y-115570000I-75000J0D01*
G01*
X133300000Y-115570000D01*
G75*
G02*
X133225000Y-115495000I0J75000D01*
G01*
G37*
G36*
G01*
X133225000Y-114995000D02*
X133225000Y-114845000D01*
G75*
G02*
X133300000Y-114770000I75000J0D01*
G01*
X134750000Y-114770000D01*
G75*
G02*
X134825000Y-114845000I0J-75000D01*
G01*
X134825000Y-114995000D01*
G75*
G02*
X134750000Y-115070000I-75000J0D01*
G01*
X133300000Y-115070000D01*
G75*
G02*
X133225000Y-114995000I0J75000D01*
G01*
G37*
G36*
G01*
X133225000Y-114495000D02*
X133225000Y-114345000D01*
G75*
G02*
X133300000Y-114270000I75000J0D01*
G01*
X134750000Y-114270000D01*
G75*
G02*
X134825000Y-114345000I0J-75000D01*
G01*
X134825000Y-114495000D01*
G75*
G02*
X134750000Y-114570000I-75000J0D01*
G01*
X133300000Y-114570000D01*
G75*
G02*
X133225000Y-114495000I0J75000D01*
G01*
G37*
G36*
G01*
X133225000Y-113995000D02*
X133225000Y-113845000D01*
G75*
G02*
X133300000Y-113770000I75000J0D01*
G01*
X134750000Y-113770000D01*
G75*
G02*
X134825000Y-113845000I0J-75000D01*
G01*
X134825000Y-113995000D01*
G75*
G02*
X134750000Y-114070000I-75000J0D01*
G01*
X133300000Y-114070000D01*
G75*
G02*
X133225000Y-113995000I0J75000D01*
G01*
G37*
G36*
G01*
X133225000Y-113495000D02*
X133225000Y-113345000D01*
G75*
G02*
X133300000Y-113270000I75000J0D01*
G01*
X134750000Y-113270000D01*
G75*
G02*
X134825000Y-113345000I0J-75000D01*
G01*
X134825000Y-113495000D01*
G75*
G02*
X134750000Y-113570000I-75000J0D01*
G01*
X133300000Y-113570000D01*
G75*
G02*
X133225000Y-113495000I0J75000D01*
G01*
G37*
G36*
G01*
X133225000Y-112995000D02*
X133225000Y-112845000D01*
G75*
G02*
X133300000Y-112770000I75000J0D01*
G01*
X134750000Y-112770000D01*
G75*
G02*
X134825000Y-112845000I0J-75000D01*
G01*
X134825000Y-112995000D01*
G75*
G02*
X134750000Y-113070000I-75000J0D01*
G01*
X133300000Y-113070000D01*
G75*
G02*
X133225000Y-112995000I0J75000D01*
G01*
G37*
G36*
G01*
X133225000Y-112495000D02*
X133225000Y-112345000D01*
G75*
G02*
X133300000Y-112270000I75000J0D01*
G01*
X134750000Y-112270000D01*
G75*
G02*
X134825000Y-112345000I0J-75000D01*
G01*
X134825000Y-112495000D01*
G75*
G02*
X134750000Y-112570000I-75000J0D01*
G01*
X133300000Y-112570000D01*
G75*
G02*
X133225000Y-112495000I0J75000D01*
G01*
G37*
G36*
G01*
X133225000Y-111995000D02*
X133225000Y-111845000D01*
G75*
G02*
X133300000Y-111770000I75000J0D01*
G01*
X134750000Y-111770000D01*
G75*
G02*
X134825000Y-111845000I0J-75000D01*
G01*
X134825000Y-111995000D01*
G75*
G02*
X134750000Y-112070000I-75000J0D01*
G01*
X133300000Y-112070000D01*
G75*
G02*
X133225000Y-111995000I0J75000D01*
G01*
G37*
G36*
G01*
X133225000Y-111495000D02*
X133225000Y-111345000D01*
G75*
G02*
X133300000Y-111270000I75000J0D01*
G01*
X134750000Y-111270000D01*
G75*
G02*
X134825000Y-111345000I0J-75000D01*
G01*
X134825000Y-111495000D01*
G75*
G02*
X134750000Y-111570000I-75000J0D01*
G01*
X133300000Y-111570000D01*
G75*
G02*
X133225000Y-111495000I0J75000D01*
G01*
G37*
G36*
G01*
X132200000Y-110470000D02*
X132200000Y-109020000D01*
G75*
G02*
X132275000Y-108945000I75000J0D01*
G01*
X132425000Y-108945000D01*
G75*
G02*
X132500000Y-109020000I0J-75000D01*
G01*
X132500000Y-110470000D01*
G75*
G02*
X132425000Y-110545000I-75000J0D01*
G01*
X132275000Y-110545000D01*
G75*
G02*
X132200000Y-110470000I0J75000D01*
G01*
G37*
G36*
G01*
X131700000Y-110470000D02*
X131700000Y-109020000D01*
G75*
G02*
X131775000Y-108945000I75000J0D01*
G01*
X131925000Y-108945000D01*
G75*
G02*
X132000000Y-109020000I0J-75000D01*
G01*
X132000000Y-110470000D01*
G75*
G02*
X131925000Y-110545000I-75000J0D01*
G01*
X131775000Y-110545000D01*
G75*
G02*
X131700000Y-110470000I0J75000D01*
G01*
G37*
G36*
G01*
X131200000Y-110470000D02*
X131200000Y-109020000D01*
G75*
G02*
X131275000Y-108945000I75000J0D01*
G01*
X131425000Y-108945000D01*
G75*
G02*
X131500000Y-109020000I0J-75000D01*
G01*
X131500000Y-110470000D01*
G75*
G02*
X131425000Y-110545000I-75000J0D01*
G01*
X131275000Y-110545000D01*
G75*
G02*
X131200000Y-110470000I0J75000D01*
G01*
G37*
G36*
G01*
X130700000Y-110470000D02*
X130700000Y-109020000D01*
G75*
G02*
X130775000Y-108945000I75000J0D01*
G01*
X130925000Y-108945000D01*
G75*
G02*
X131000000Y-109020000I0J-75000D01*
G01*
X131000000Y-110470000D01*
G75*
G02*
X130925000Y-110545000I-75000J0D01*
G01*
X130775000Y-110545000D01*
G75*
G02*
X130700000Y-110470000I0J75000D01*
G01*
G37*
G36*
G01*
X130200000Y-110470000D02*
X130200000Y-109020000D01*
G75*
G02*
X130275000Y-108945000I75000J0D01*
G01*
X130425000Y-108945000D01*
G75*
G02*
X130500000Y-109020000I0J-75000D01*
G01*
X130500000Y-110470000D01*
G75*
G02*
X130425000Y-110545000I-75000J0D01*
G01*
X130275000Y-110545000D01*
G75*
G02*
X130200000Y-110470000I0J75000D01*
G01*
G37*
G36*
G01*
X129700000Y-110470000D02*
X129700000Y-109020000D01*
G75*
G02*
X129775000Y-108945000I75000J0D01*
G01*
X129925000Y-108945000D01*
G75*
G02*
X130000000Y-109020000I0J-75000D01*
G01*
X130000000Y-110470000D01*
G75*
G02*
X129925000Y-110545000I-75000J0D01*
G01*
X129775000Y-110545000D01*
G75*
G02*
X129700000Y-110470000I0J75000D01*
G01*
G37*
G36*
G01*
X129200000Y-110470000D02*
X129200000Y-109020000D01*
G75*
G02*
X129275000Y-108945000I75000J0D01*
G01*
X129425000Y-108945000D01*
G75*
G02*
X129500000Y-109020000I0J-75000D01*
G01*
X129500000Y-110470000D01*
G75*
G02*
X129425000Y-110545000I-75000J0D01*
G01*
X129275000Y-110545000D01*
G75*
G02*
X129200000Y-110470000I0J75000D01*
G01*
G37*
G36*
G01*
X128700000Y-110470000D02*
X128700000Y-109020000D01*
G75*
G02*
X128775000Y-108945000I75000J0D01*
G01*
X128925000Y-108945000D01*
G75*
G02*
X129000000Y-109020000I0J-75000D01*
G01*
X129000000Y-110470000D01*
G75*
G02*
X128925000Y-110545000I-75000J0D01*
G01*
X128775000Y-110545000D01*
G75*
G02*
X128700000Y-110470000I0J75000D01*
G01*
G37*
G36*
G01*
X128200000Y-110470000D02*
X128200000Y-109020000D01*
G75*
G02*
X128275000Y-108945000I75000J0D01*
G01*
X128425000Y-108945000D01*
G75*
G02*
X128500000Y-109020000I0J-75000D01*
G01*
X128500000Y-110470000D01*
G75*
G02*
X128425000Y-110545000I-75000J0D01*
G01*
X128275000Y-110545000D01*
G75*
G02*
X128200000Y-110470000I0J75000D01*
G01*
G37*
G36*
G01*
X127700000Y-110470000D02*
X127700000Y-109020000D01*
G75*
G02*
X127775000Y-108945000I75000J0D01*
G01*
X127925000Y-108945000D01*
G75*
G02*
X128000000Y-109020000I0J-75000D01*
G01*
X128000000Y-110470000D01*
G75*
G02*
X127925000Y-110545000I-75000J0D01*
G01*
X127775000Y-110545000D01*
G75*
G02*
X127700000Y-110470000I0J75000D01*
G01*
G37*
G36*
G01*
X127200000Y-110470000D02*
X127200000Y-109020000D01*
G75*
G02*
X127275000Y-108945000I75000J0D01*
G01*
X127425000Y-108945000D01*
G75*
G02*
X127500000Y-109020000I0J-75000D01*
G01*
X127500000Y-110470000D01*
G75*
G02*
X127425000Y-110545000I-75000J0D01*
G01*
X127275000Y-110545000D01*
G75*
G02*
X127200000Y-110470000I0J75000D01*
G01*
G37*
G36*
G01*
X126700000Y-110470000D02*
X126700000Y-109020000D01*
G75*
G02*
X126775000Y-108945000I75000J0D01*
G01*
X126925000Y-108945000D01*
G75*
G02*
X127000000Y-109020000I0J-75000D01*
G01*
X127000000Y-110470000D01*
G75*
G02*
X126925000Y-110545000I-75000J0D01*
G01*
X126775000Y-110545000D01*
G75*
G02*
X126700000Y-110470000I0J75000D01*
G01*
G37*
G36*
G01*
X126200000Y-110470000D02*
X126200000Y-109020000D01*
G75*
G02*
X126275000Y-108945000I75000J0D01*
G01*
X126425000Y-108945000D01*
G75*
G02*
X126500000Y-109020000I0J-75000D01*
G01*
X126500000Y-110470000D01*
G75*
G02*
X126425000Y-110545000I-75000J0D01*
G01*
X126275000Y-110545000D01*
G75*
G02*
X126200000Y-110470000I0J75000D01*
G01*
G37*
G36*
G01*
X125700000Y-110470000D02*
X125700000Y-109020000D01*
G75*
G02*
X125775000Y-108945000I75000J0D01*
G01*
X125925000Y-108945000D01*
G75*
G02*
X126000000Y-109020000I0J-75000D01*
G01*
X126000000Y-110470000D01*
G75*
G02*
X125925000Y-110545000I-75000J0D01*
G01*
X125775000Y-110545000D01*
G75*
G02*
X125700000Y-110470000I0J75000D01*
G01*
G37*
G36*
G01*
X125200000Y-110470000D02*
X125200000Y-109020000D01*
G75*
G02*
X125275000Y-108945000I75000J0D01*
G01*
X125425000Y-108945000D01*
G75*
G02*
X125500000Y-109020000I0J-75000D01*
G01*
X125500000Y-110470000D01*
G75*
G02*
X125425000Y-110545000I-75000J0D01*
G01*
X125275000Y-110545000D01*
G75*
G02*
X125200000Y-110470000I0J75000D01*
G01*
G37*
G36*
G01*
X124700000Y-110470000D02*
X124700000Y-109020000D01*
G75*
G02*
X124775000Y-108945000I75000J0D01*
G01*
X124925000Y-108945000D01*
G75*
G02*
X125000000Y-109020000I0J-75000D01*
G01*
X125000000Y-110470000D01*
G75*
G02*
X124925000Y-110545000I-75000J0D01*
G01*
X124775000Y-110545000D01*
G75*
G02*
X124700000Y-110470000I0J75000D01*
G01*
G37*
G36*
G01*
X124200000Y-110470000D02*
X124200000Y-109020000D01*
G75*
G02*
X124275000Y-108945000I75000J0D01*
G01*
X124425000Y-108945000D01*
G75*
G02*
X124500000Y-109020000I0J-75000D01*
G01*
X124500000Y-110470000D01*
G75*
G02*
X124425000Y-110545000I-75000J0D01*
G01*
X124275000Y-110545000D01*
G75*
G02*
X124200000Y-110470000I0J75000D01*
G01*
G37*
G36*
G01*
X123700000Y-110470000D02*
X123700000Y-109020000D01*
G75*
G02*
X123775000Y-108945000I75000J0D01*
G01*
X123925000Y-108945000D01*
G75*
G02*
X124000000Y-109020000I0J-75000D01*
G01*
X124000000Y-110470000D01*
G75*
G02*
X123925000Y-110545000I-75000J0D01*
G01*
X123775000Y-110545000D01*
G75*
G02*
X123700000Y-110470000I0J75000D01*
G01*
G37*
G36*
G01*
X123200000Y-110470000D02*
X123200000Y-109020000D01*
G75*
G02*
X123275000Y-108945000I75000J0D01*
G01*
X123425000Y-108945000D01*
G75*
G02*
X123500000Y-109020000I0J-75000D01*
G01*
X123500000Y-110470000D01*
G75*
G02*
X123425000Y-110545000I-75000J0D01*
G01*
X123275000Y-110545000D01*
G75*
G02*
X123200000Y-110470000I0J75000D01*
G01*
G37*
G36*
G01*
X122700000Y-110470000D02*
X122700000Y-109020000D01*
G75*
G02*
X122775000Y-108945000I75000J0D01*
G01*
X122925000Y-108945000D01*
G75*
G02*
X123000000Y-109020000I0J-75000D01*
G01*
X123000000Y-110470000D01*
G75*
G02*
X122925000Y-110545000I-75000J0D01*
G01*
X122775000Y-110545000D01*
G75*
G02*
X122700000Y-110470000I0J75000D01*
G01*
G37*
G36*
G01*
X122200000Y-110470000D02*
X122200000Y-109020000D01*
G75*
G02*
X122275000Y-108945000I75000J0D01*
G01*
X122425000Y-108945000D01*
G75*
G02*
X122500000Y-109020000I0J-75000D01*
G01*
X122500000Y-110470000D01*
G75*
G02*
X122425000Y-110545000I-75000J0D01*
G01*
X122275000Y-110545000D01*
G75*
G02*
X122200000Y-110470000I0J75000D01*
G01*
G37*
G36*
G01*
X121700000Y-110470000D02*
X121700000Y-109020000D01*
G75*
G02*
X121775000Y-108945000I75000J0D01*
G01*
X121925000Y-108945000D01*
G75*
G02*
X122000000Y-109020000I0J-75000D01*
G01*
X122000000Y-110470000D01*
G75*
G02*
X121925000Y-110545000I-75000J0D01*
G01*
X121775000Y-110545000D01*
G75*
G02*
X121700000Y-110470000I0J75000D01*
G01*
G37*
G36*
G01*
X121200000Y-110470000D02*
X121200000Y-109020000D01*
G75*
G02*
X121275000Y-108945000I75000J0D01*
G01*
X121425000Y-108945000D01*
G75*
G02*
X121500000Y-109020000I0J-75000D01*
G01*
X121500000Y-110470000D01*
G75*
G02*
X121425000Y-110545000I-75000J0D01*
G01*
X121275000Y-110545000D01*
G75*
G02*
X121200000Y-110470000I0J75000D01*
G01*
G37*
G36*
G01*
X120700000Y-110470000D02*
X120700000Y-109020000D01*
G75*
G02*
X120775000Y-108945000I75000J0D01*
G01*
X120925000Y-108945000D01*
G75*
G02*
X121000000Y-109020000I0J-75000D01*
G01*
X121000000Y-110470000D01*
G75*
G02*
X120925000Y-110545000I-75000J0D01*
G01*
X120775000Y-110545000D01*
G75*
G02*
X120700000Y-110470000I0J75000D01*
G01*
G37*
G36*
G01*
X120200000Y-110470000D02*
X120200000Y-109020000D01*
G75*
G02*
X120275000Y-108945000I75000J0D01*
G01*
X120425000Y-108945000D01*
G75*
G02*
X120500000Y-109020000I0J-75000D01*
G01*
X120500000Y-110470000D01*
G75*
G02*
X120425000Y-110545000I-75000J0D01*
G01*
X120275000Y-110545000D01*
G75*
G02*
X120200000Y-110470000I0J75000D01*
G01*
G37*
G36*
G01*
X117875000Y-111495000D02*
X117875000Y-111345000D01*
G75*
G02*
X117950000Y-111270000I75000J0D01*
G01*
X119400000Y-111270000D01*
G75*
G02*
X119475000Y-111345000I0J-75000D01*
G01*
X119475000Y-111495000D01*
G75*
G02*
X119400000Y-111570000I-75000J0D01*
G01*
X117950000Y-111570000D01*
G75*
G02*
X117875000Y-111495000I0J75000D01*
G01*
G37*
G36*
G01*
X117875000Y-111995000D02*
X117875000Y-111845000D01*
G75*
G02*
X117950000Y-111770000I75000J0D01*
G01*
X119400000Y-111770000D01*
G75*
G02*
X119475000Y-111845000I0J-75000D01*
G01*
X119475000Y-111995000D01*
G75*
G02*
X119400000Y-112070000I-75000J0D01*
G01*
X117950000Y-112070000D01*
G75*
G02*
X117875000Y-111995000I0J75000D01*
G01*
G37*
G36*
G01*
X117875000Y-112495000D02*
X117875000Y-112345000D01*
G75*
G02*
X117950000Y-112270000I75000J0D01*
G01*
X119400000Y-112270000D01*
G75*
G02*
X119475000Y-112345000I0J-75000D01*
G01*
X119475000Y-112495000D01*
G75*
G02*
X119400000Y-112570000I-75000J0D01*
G01*
X117950000Y-112570000D01*
G75*
G02*
X117875000Y-112495000I0J75000D01*
G01*
G37*
G36*
G01*
X117875000Y-112995000D02*
X117875000Y-112845000D01*
G75*
G02*
X117950000Y-112770000I75000J0D01*
G01*
X119400000Y-112770000D01*
G75*
G02*
X119475000Y-112845000I0J-75000D01*
G01*
X119475000Y-112995000D01*
G75*
G02*
X119400000Y-113070000I-75000J0D01*
G01*
X117950000Y-113070000D01*
G75*
G02*
X117875000Y-112995000I0J75000D01*
G01*
G37*
G36*
G01*
X117875000Y-113495000D02*
X117875000Y-113345000D01*
G75*
G02*
X117950000Y-113270000I75000J0D01*
G01*
X119400000Y-113270000D01*
G75*
G02*
X119475000Y-113345000I0J-75000D01*
G01*
X119475000Y-113495000D01*
G75*
G02*
X119400000Y-113570000I-75000J0D01*
G01*
X117950000Y-113570000D01*
G75*
G02*
X117875000Y-113495000I0J75000D01*
G01*
G37*
G36*
G01*
X117875000Y-113995000D02*
X117875000Y-113845000D01*
G75*
G02*
X117950000Y-113770000I75000J0D01*
G01*
X119400000Y-113770000D01*
G75*
G02*
X119475000Y-113845000I0J-75000D01*
G01*
X119475000Y-113995000D01*
G75*
G02*
X119400000Y-114070000I-75000J0D01*
G01*
X117950000Y-114070000D01*
G75*
G02*
X117875000Y-113995000I0J75000D01*
G01*
G37*
G36*
G01*
X117875000Y-114495000D02*
X117875000Y-114345000D01*
G75*
G02*
X117950000Y-114270000I75000J0D01*
G01*
X119400000Y-114270000D01*
G75*
G02*
X119475000Y-114345000I0J-75000D01*
G01*
X119475000Y-114495000D01*
G75*
G02*
X119400000Y-114570000I-75000J0D01*
G01*
X117950000Y-114570000D01*
G75*
G02*
X117875000Y-114495000I0J75000D01*
G01*
G37*
G36*
G01*
X117875000Y-114995000D02*
X117875000Y-114845000D01*
G75*
G02*
X117950000Y-114770000I75000J0D01*
G01*
X119400000Y-114770000D01*
G75*
G02*
X119475000Y-114845000I0J-75000D01*
G01*
X119475000Y-114995000D01*
G75*
G02*
X119400000Y-115070000I-75000J0D01*
G01*
X117950000Y-115070000D01*
G75*
G02*
X117875000Y-114995000I0J75000D01*
G01*
G37*
G36*
G01*
X117875000Y-115495000D02*
X117875000Y-115345000D01*
G75*
G02*
X117950000Y-115270000I75000J0D01*
G01*
X119400000Y-115270000D01*
G75*
G02*
X119475000Y-115345000I0J-75000D01*
G01*
X119475000Y-115495000D01*
G75*
G02*
X119400000Y-115570000I-75000J0D01*
G01*
X117950000Y-115570000D01*
G75*
G02*
X117875000Y-115495000I0J75000D01*
G01*
G37*
G36*
G01*
X117875000Y-115995000D02*
X117875000Y-115845000D01*
G75*
G02*
X117950000Y-115770000I75000J0D01*
G01*
X119400000Y-115770000D01*
G75*
G02*
X119475000Y-115845000I0J-75000D01*
G01*
X119475000Y-115995000D01*
G75*
G02*
X119400000Y-116070000I-75000J0D01*
G01*
X117950000Y-116070000D01*
G75*
G02*
X117875000Y-115995000I0J75000D01*
G01*
G37*
G36*
G01*
X117875000Y-116495000D02*
X117875000Y-116345000D01*
G75*
G02*
X117950000Y-116270000I75000J0D01*
G01*
X119400000Y-116270000D01*
G75*
G02*
X119475000Y-116345000I0J-75000D01*
G01*
X119475000Y-116495000D01*
G75*
G02*
X119400000Y-116570000I-75000J0D01*
G01*
X117950000Y-116570000D01*
G75*
G02*
X117875000Y-116495000I0J75000D01*
G01*
G37*
G36*
G01*
X117875000Y-116995000D02*
X117875000Y-116845000D01*
G75*
G02*
X117950000Y-116770000I75000J0D01*
G01*
X119400000Y-116770000D01*
G75*
G02*
X119475000Y-116845000I0J-75000D01*
G01*
X119475000Y-116995000D01*
G75*
G02*
X119400000Y-117070000I-75000J0D01*
G01*
X117950000Y-117070000D01*
G75*
G02*
X117875000Y-116995000I0J75000D01*
G01*
G37*
G36*
G01*
X117875000Y-117495000D02*
X117875000Y-117345000D01*
G75*
G02*
X117950000Y-117270000I75000J0D01*
G01*
X119400000Y-117270000D01*
G75*
G02*
X119475000Y-117345000I0J-75000D01*
G01*
X119475000Y-117495000D01*
G75*
G02*
X119400000Y-117570000I-75000J0D01*
G01*
X117950000Y-117570000D01*
G75*
G02*
X117875000Y-117495000I0J75000D01*
G01*
G37*
G36*
G01*
X117875000Y-117995000D02*
X117875000Y-117845000D01*
G75*
G02*
X117950000Y-117770000I75000J0D01*
G01*
X119400000Y-117770000D01*
G75*
G02*
X119475000Y-117845000I0J-75000D01*
G01*
X119475000Y-117995000D01*
G75*
G02*
X119400000Y-118070000I-75000J0D01*
G01*
X117950000Y-118070000D01*
G75*
G02*
X117875000Y-117995000I0J75000D01*
G01*
G37*
G36*
G01*
X117875000Y-118495000D02*
X117875000Y-118345000D01*
G75*
G02*
X117950000Y-118270000I75000J0D01*
G01*
X119400000Y-118270000D01*
G75*
G02*
X119475000Y-118345000I0J-75000D01*
G01*
X119475000Y-118495000D01*
G75*
G02*
X119400000Y-118570000I-75000J0D01*
G01*
X117950000Y-118570000D01*
G75*
G02*
X117875000Y-118495000I0J75000D01*
G01*
G37*
G36*
G01*
X117875000Y-118995000D02*
X117875000Y-118845000D01*
G75*
G02*
X117950000Y-118770000I75000J0D01*
G01*
X119400000Y-118770000D01*
G75*
G02*
X119475000Y-118845000I0J-75000D01*
G01*
X119475000Y-118995000D01*
G75*
G02*
X119400000Y-119070000I-75000J0D01*
G01*
X117950000Y-119070000D01*
G75*
G02*
X117875000Y-118995000I0J75000D01*
G01*
G37*
G36*
G01*
X117875000Y-119495000D02*
X117875000Y-119345000D01*
G75*
G02*
X117950000Y-119270000I75000J0D01*
G01*
X119400000Y-119270000D01*
G75*
G02*
X119475000Y-119345000I0J-75000D01*
G01*
X119475000Y-119495000D01*
G75*
G02*
X119400000Y-119570000I-75000J0D01*
G01*
X117950000Y-119570000D01*
G75*
G02*
X117875000Y-119495000I0J75000D01*
G01*
G37*
G36*
G01*
X117875000Y-119995000D02*
X117875000Y-119845000D01*
G75*
G02*
X117950000Y-119770000I75000J0D01*
G01*
X119400000Y-119770000D01*
G75*
G02*
X119475000Y-119845000I0J-75000D01*
G01*
X119475000Y-119995000D01*
G75*
G02*
X119400000Y-120070000I-75000J0D01*
G01*
X117950000Y-120070000D01*
G75*
G02*
X117875000Y-119995000I0J75000D01*
G01*
G37*
G36*
G01*
X117875000Y-120495000D02*
X117875000Y-120345000D01*
G75*
G02*
X117950000Y-120270000I75000J0D01*
G01*
X119400000Y-120270000D01*
G75*
G02*
X119475000Y-120345000I0J-75000D01*
G01*
X119475000Y-120495000D01*
G75*
G02*
X119400000Y-120570000I-75000J0D01*
G01*
X117950000Y-120570000D01*
G75*
G02*
X117875000Y-120495000I0J75000D01*
G01*
G37*
G36*
G01*
X117875000Y-120995000D02*
X117875000Y-120845000D01*
G75*
G02*
X117950000Y-120770000I75000J0D01*
G01*
X119400000Y-120770000D01*
G75*
G02*
X119475000Y-120845000I0J-75000D01*
G01*
X119475000Y-120995000D01*
G75*
G02*
X119400000Y-121070000I-75000J0D01*
G01*
X117950000Y-121070000D01*
G75*
G02*
X117875000Y-120995000I0J75000D01*
G01*
G37*
G36*
G01*
X117875000Y-121495000D02*
X117875000Y-121345000D01*
G75*
G02*
X117950000Y-121270000I75000J0D01*
G01*
X119400000Y-121270000D01*
G75*
G02*
X119475000Y-121345000I0J-75000D01*
G01*
X119475000Y-121495000D01*
G75*
G02*
X119400000Y-121570000I-75000J0D01*
G01*
X117950000Y-121570000D01*
G75*
G02*
X117875000Y-121495000I0J75000D01*
G01*
G37*
G36*
G01*
X117875000Y-121995000D02*
X117875000Y-121845000D01*
G75*
G02*
X117950000Y-121770000I75000J0D01*
G01*
X119400000Y-121770000D01*
G75*
G02*
X119475000Y-121845000I0J-75000D01*
G01*
X119475000Y-121995000D01*
G75*
G02*
X119400000Y-122070000I-75000J0D01*
G01*
X117950000Y-122070000D01*
G75*
G02*
X117875000Y-121995000I0J75000D01*
G01*
G37*
G36*
G01*
X117875000Y-122495000D02*
X117875000Y-122345000D01*
G75*
G02*
X117950000Y-122270000I75000J0D01*
G01*
X119400000Y-122270000D01*
G75*
G02*
X119475000Y-122345000I0J-75000D01*
G01*
X119475000Y-122495000D01*
G75*
G02*
X119400000Y-122570000I-75000J0D01*
G01*
X117950000Y-122570000D01*
G75*
G02*
X117875000Y-122495000I0J75000D01*
G01*
G37*
G36*
G01*
X117875000Y-122995000D02*
X117875000Y-122845000D01*
G75*
G02*
X117950000Y-122770000I75000J0D01*
G01*
X119400000Y-122770000D01*
G75*
G02*
X119475000Y-122845000I0J-75000D01*
G01*
X119475000Y-122995000D01*
G75*
G02*
X119400000Y-123070000I-75000J0D01*
G01*
X117950000Y-123070000D01*
G75*
G02*
X117875000Y-122995000I0J75000D01*
G01*
G37*
G36*
G01*
X117875000Y-123495000D02*
X117875000Y-123345000D01*
G75*
G02*
X117950000Y-123270000I75000J0D01*
G01*
X119400000Y-123270000D01*
G75*
G02*
X119475000Y-123345000I0J-75000D01*
G01*
X119475000Y-123495000D01*
G75*
G02*
X119400000Y-123570000I-75000J0D01*
G01*
X117950000Y-123570000D01*
G75*
G02*
X117875000Y-123495000I0J75000D01*
G01*
G37*
M02*
