G04 #@! TF.GenerationSoftware,KiCad,Pcbnew,(5.1.6)-1*
G04 #@! TF.CreationDate,2020-10-17T23:58:27+09:00*
G04 #@! TF.ProjectId,guardianCam_Wifi,67756172-6469-4616-9e43-616d5f576966,rev?*
G04 #@! TF.SameCoordinates,Original*
G04 #@! TF.FileFunction,Paste,Top*
G04 #@! TF.FilePolarity,Positive*
%FSLAX46Y46*%
G04 Gerber Fmt 4.6, Leading zero omitted, Abs format (unit mm)*
G04 Created by KiCad (PCBNEW (5.1.6)-1) date 2020-10-17 23:58:27*
%MOMM*%
%LPD*%
G01*
G04 APERTURE LIST*
%ADD10C,0.010000*%
%ADD11C,0.152400*%
%ADD12R,0.400000X1.200000*%
%ADD13R,0.970000X1.000000*%
%ADD14R,1.498600X0.304800*%
%ADD15R,1.000000X1.800000*%
%ADD16R,0.250000X0.200000*%
%ADD17R,0.860000X0.400000*%
%ADD18R,1.549400X1.295400*%
%ADD19R,0.300000X0.700000*%
%ADD20R,1.000000X0.700000*%
%ADD21R,1.295400X1.549400*%
%ADD22R,0.203200X0.762000*%
%ADD23R,0.762000X0.203200*%
%ADD24R,4.343400X4.343400*%
%ADD25R,1.100000X1.300000*%
%ADD26R,1.060000X0.650000*%
%ADD27R,1.200000X0.800000*%
%ADD28R,2.100000X1.400000*%
%ADD29R,1.600000X0.800000*%
%ADD30R,1.800000X2.200000*%
G04 APERTURE END LIST*
D10*
G36*
X124150000Y-152560000D02*
G01*
X125170000Y-152560000D01*
X125170000Y-154060000D01*
X124150000Y-154060000D01*
X124150000Y-152560000D01*
G37*
X124150000Y-152560000D02*
X125170000Y-152560000D01*
X125170000Y-154060000D01*
X124150000Y-154060000D01*
X124150000Y-152560000D01*
D11*
X142911700Y-125398300D02*
X141663900Y-125398300D01*
X141663900Y-125398300D02*
X141663900Y-126646100D01*
X141663900Y-126646100D02*
X142911700Y-126646100D01*
X142911700Y-126646100D02*
X142911700Y-125398300D01*
X141463900Y-125398300D02*
X140216100Y-125398300D01*
X140216100Y-125398300D02*
X140216100Y-126646100D01*
X140216100Y-126646100D02*
X141463900Y-126646100D01*
X141463900Y-126646100D02*
X141463900Y-125398300D01*
X140016100Y-125398300D02*
X138768300Y-125398300D01*
X138768300Y-125398300D02*
X138768300Y-126646100D01*
X138768300Y-126646100D02*
X140016100Y-126646100D01*
X140016100Y-126646100D02*
X140016100Y-125398300D01*
X142911700Y-126846100D02*
X141663900Y-126846100D01*
X141663900Y-126846100D02*
X141663900Y-128093900D01*
X141663900Y-128093900D02*
X142911700Y-128093900D01*
X142911700Y-128093900D02*
X142911700Y-126846100D01*
X141463900Y-126846100D02*
X140216100Y-126846100D01*
X140216100Y-126846100D02*
X140216100Y-128093900D01*
X140216100Y-128093900D02*
X141463900Y-128093900D01*
X141463900Y-128093900D02*
X141463900Y-126846100D01*
X140016100Y-126846100D02*
X138768300Y-126846100D01*
X138768300Y-126846100D02*
X138768300Y-128093900D01*
X138768300Y-128093900D02*
X140016100Y-128093900D01*
X140016100Y-128093900D02*
X140016100Y-126846100D01*
X142911700Y-128293900D02*
X141663900Y-128293900D01*
X141663900Y-128293900D02*
X141663900Y-129541700D01*
X141663900Y-129541700D02*
X142911700Y-129541700D01*
X142911700Y-129541700D02*
X142911700Y-128293900D01*
X141463900Y-128293900D02*
X140216100Y-128293900D01*
X140216100Y-128293900D02*
X140216100Y-129541700D01*
X140216100Y-129541700D02*
X141463900Y-129541700D01*
X141463900Y-129541700D02*
X141463900Y-128293900D01*
X140016100Y-128293900D02*
X138768300Y-128293900D01*
X138768300Y-128293900D02*
X138768300Y-129541700D01*
X138768300Y-129541700D02*
X140016100Y-129541700D01*
X140016100Y-129541700D02*
X140016100Y-128293900D01*
D10*
G36*
X106033400Y-134768000D02*
G01*
X105783400Y-134768000D01*
X105783400Y-133468000D01*
X106033400Y-133468000D01*
X106033400Y-134768000D01*
G37*
X106033400Y-134768000D02*
X105783400Y-134768000D01*
X105783400Y-133468000D01*
X106033400Y-133468000D01*
X106033400Y-134768000D01*
G36*
X106533400Y-134768000D02*
G01*
X106283400Y-134768000D01*
X106283400Y-133468000D01*
X106533400Y-133468000D01*
X106533400Y-134768000D01*
G37*
X106533400Y-134768000D02*
X106283400Y-134768000D01*
X106283400Y-133468000D01*
X106533400Y-133468000D01*
X106533400Y-134768000D01*
G36*
X107033400Y-134768000D02*
G01*
X106783400Y-134768000D01*
X106783400Y-133468000D01*
X107033400Y-133468000D01*
X107033400Y-134768000D01*
G37*
X107033400Y-134768000D02*
X106783400Y-134768000D01*
X106783400Y-133468000D01*
X107033400Y-133468000D01*
X107033400Y-134768000D01*
G36*
X107533400Y-134768000D02*
G01*
X107283400Y-134768000D01*
X107283400Y-133468000D01*
X107533400Y-133468000D01*
X107533400Y-134768000D01*
G37*
X107533400Y-134768000D02*
X107283400Y-134768000D01*
X107283400Y-133468000D01*
X107533400Y-133468000D01*
X107533400Y-134768000D01*
G36*
X108033400Y-134768000D02*
G01*
X107783400Y-134768000D01*
X107783400Y-133468000D01*
X108033400Y-133468000D01*
X108033400Y-134768000D01*
G37*
X108033400Y-134768000D02*
X107783400Y-134768000D01*
X107783400Y-133468000D01*
X108033400Y-133468000D01*
X108033400Y-134768000D01*
G36*
X108533400Y-134768000D02*
G01*
X108283400Y-134768000D01*
X108283400Y-133468000D01*
X108533400Y-133468000D01*
X108533400Y-134768000D01*
G37*
X108533400Y-134768000D02*
X108283400Y-134768000D01*
X108283400Y-133468000D01*
X108533400Y-133468000D01*
X108533400Y-134768000D01*
G36*
X109033400Y-134768000D02*
G01*
X108783400Y-134768000D01*
X108783400Y-133468000D01*
X109033400Y-133468000D01*
X109033400Y-134768000D01*
G37*
X109033400Y-134768000D02*
X108783400Y-134768000D01*
X108783400Y-133468000D01*
X109033400Y-133468000D01*
X109033400Y-134768000D01*
G36*
X109533400Y-134768000D02*
G01*
X109283400Y-134768000D01*
X109283400Y-133468000D01*
X109533400Y-133468000D01*
X109533400Y-134768000D01*
G37*
X109533400Y-134768000D02*
X109283400Y-134768000D01*
X109283400Y-133468000D01*
X109533400Y-133468000D01*
X109533400Y-134768000D01*
G36*
X110033400Y-134768000D02*
G01*
X109783400Y-134768000D01*
X109783400Y-133468000D01*
X110033400Y-133468000D01*
X110033400Y-134768000D01*
G37*
X110033400Y-134768000D02*
X109783400Y-134768000D01*
X109783400Y-133468000D01*
X110033400Y-133468000D01*
X110033400Y-134768000D01*
G36*
X110533400Y-134768000D02*
G01*
X110283400Y-134768000D01*
X110283400Y-133468000D01*
X110533400Y-133468000D01*
X110533400Y-134768000D01*
G37*
X110533400Y-134768000D02*
X110283400Y-134768000D01*
X110283400Y-133468000D01*
X110533400Y-133468000D01*
X110533400Y-134768000D01*
G36*
X111033400Y-134768000D02*
G01*
X110783400Y-134768000D01*
X110783400Y-133468000D01*
X111033400Y-133468000D01*
X111033400Y-134768000D01*
G37*
X111033400Y-134768000D02*
X110783400Y-134768000D01*
X110783400Y-133468000D01*
X111033400Y-133468000D01*
X111033400Y-134768000D01*
G36*
X111533400Y-134768000D02*
G01*
X111283400Y-134768000D01*
X111283400Y-133468000D01*
X111533400Y-133468000D01*
X111533400Y-134768000D01*
G37*
X111533400Y-134768000D02*
X111283400Y-134768000D01*
X111283400Y-133468000D01*
X111533400Y-133468000D01*
X111533400Y-134768000D01*
G36*
X112033400Y-134768000D02*
G01*
X111783400Y-134768000D01*
X111783400Y-133468000D01*
X112033400Y-133468000D01*
X112033400Y-134768000D01*
G37*
X112033400Y-134768000D02*
X111783400Y-134768000D01*
X111783400Y-133468000D01*
X112033400Y-133468000D01*
X112033400Y-134768000D01*
G36*
X112533400Y-134768000D02*
G01*
X112283400Y-134768000D01*
X112283400Y-133468000D01*
X112533400Y-133468000D01*
X112533400Y-134768000D01*
G37*
X112533400Y-134768000D02*
X112283400Y-134768000D01*
X112283400Y-133468000D01*
X112533400Y-133468000D01*
X112533400Y-134768000D01*
G36*
X113033400Y-134768000D02*
G01*
X112783400Y-134768000D01*
X112783400Y-133468000D01*
X113033400Y-133468000D01*
X113033400Y-134768000D01*
G37*
X113033400Y-134768000D02*
X112783400Y-134768000D01*
X112783400Y-133468000D01*
X113033400Y-133468000D01*
X113033400Y-134768000D01*
G36*
X113533400Y-134768000D02*
G01*
X113283400Y-134768000D01*
X113283400Y-133468000D01*
X113533400Y-133468000D01*
X113533400Y-134768000D01*
G37*
X113533400Y-134768000D02*
X113283400Y-134768000D01*
X113283400Y-133468000D01*
X113533400Y-133468000D01*
X113533400Y-134768000D01*
G36*
X114033400Y-134768000D02*
G01*
X113783400Y-134768000D01*
X113783400Y-133468000D01*
X114033400Y-133468000D01*
X114033400Y-134768000D01*
G37*
X114033400Y-134768000D02*
X113783400Y-134768000D01*
X113783400Y-133468000D01*
X114033400Y-133468000D01*
X114033400Y-134768000D01*
G36*
X114533400Y-134768000D02*
G01*
X114283400Y-134768000D01*
X114283400Y-133468000D01*
X114533400Y-133468000D01*
X114533400Y-134768000D01*
G37*
X114533400Y-134768000D02*
X114283400Y-134768000D01*
X114283400Y-133468000D01*
X114533400Y-133468000D01*
X114533400Y-134768000D01*
G36*
X115033400Y-134768000D02*
G01*
X114783400Y-134768000D01*
X114783400Y-133468000D01*
X115033400Y-133468000D01*
X115033400Y-134768000D01*
G37*
X115033400Y-134768000D02*
X114783400Y-134768000D01*
X114783400Y-133468000D01*
X115033400Y-133468000D01*
X115033400Y-134768000D01*
G36*
X115533400Y-134768000D02*
G01*
X115283400Y-134768000D01*
X115283400Y-133468000D01*
X115533400Y-133468000D01*
X115533400Y-134768000D01*
G37*
X115533400Y-134768000D02*
X115283400Y-134768000D01*
X115283400Y-133468000D01*
X115533400Y-133468000D01*
X115533400Y-134768000D01*
G36*
X116033400Y-134768000D02*
G01*
X115783400Y-134768000D01*
X115783400Y-133468000D01*
X116033400Y-133468000D01*
X116033400Y-134768000D01*
G37*
X116033400Y-134768000D02*
X115783400Y-134768000D01*
X115783400Y-133468000D01*
X116033400Y-133468000D01*
X116033400Y-134768000D01*
G36*
X116533400Y-134768000D02*
G01*
X116283400Y-134768000D01*
X116283400Y-133468000D01*
X116533400Y-133468000D01*
X116533400Y-134768000D01*
G37*
X116533400Y-134768000D02*
X116283400Y-134768000D01*
X116283400Y-133468000D01*
X116533400Y-133468000D01*
X116533400Y-134768000D01*
G36*
X117033400Y-134768000D02*
G01*
X116783400Y-134768000D01*
X116783400Y-133468000D01*
X117033400Y-133468000D01*
X117033400Y-134768000D01*
G37*
X117033400Y-134768000D02*
X116783400Y-134768000D01*
X116783400Y-133468000D01*
X117033400Y-133468000D01*
X117033400Y-134768000D01*
G36*
X117533400Y-134768000D02*
G01*
X117283400Y-134768000D01*
X117283400Y-133468000D01*
X117533400Y-133468000D01*
X117533400Y-134768000D01*
G37*
X117533400Y-134768000D02*
X117283400Y-134768000D01*
X117283400Y-133468000D01*
X117533400Y-133468000D01*
X117533400Y-134768000D01*
G36*
G01*
X117635000Y-139259999D02*
X117635000Y-140160001D01*
G75*
G02*
X117385001Y-140410000I-249999J0D01*
G01*
X116734999Y-140410000D01*
G75*
G02*
X116485000Y-140160001I0J249999D01*
G01*
X116485000Y-139259999D01*
G75*
G02*
X116734999Y-139010000I249999J0D01*
G01*
X117385001Y-139010000D01*
G75*
G02*
X117635000Y-139259999I0J-249999D01*
G01*
G37*
G36*
G01*
X119685000Y-139259999D02*
X119685000Y-140160001D01*
G75*
G02*
X119435001Y-140410000I-249999J0D01*
G01*
X118784999Y-140410000D01*
G75*
G02*
X118535000Y-140160001I0J249999D01*
G01*
X118535000Y-139259999D01*
G75*
G02*
X118784999Y-139010000I249999J0D01*
G01*
X119435001Y-139010000D01*
G75*
G02*
X119685000Y-139259999I0J-249999D01*
G01*
G37*
D12*
X134567500Y-138650000D03*
X135202500Y-138650000D03*
X135837500Y-138650000D03*
X136472500Y-138650000D03*
X137107500Y-138650000D03*
X137742500Y-138650000D03*
X138377500Y-138650000D03*
X139012500Y-138650000D03*
X139012500Y-143850000D03*
X138377500Y-143850000D03*
X137742500Y-143850000D03*
X137107500Y-143850000D03*
X136472500Y-143850000D03*
X135837500Y-143850000D03*
X135202500Y-143850000D03*
X134567500Y-143850000D03*
G36*
G01*
X141824678Y-139740727D02*
X141580726Y-139984678D01*
G75*
G02*
X141372130Y-139984678I-104298J104298D01*
G01*
X141163534Y-139776082D01*
G75*
G02*
X141163534Y-139567486I104298J104298D01*
G01*
X141407486Y-139323534D01*
G75*
G02*
X141616082Y-139323534I104298J-104298D01*
G01*
X141824678Y-139532130D01*
G75*
G02*
X141824678Y-139740726I-104298J-104298D01*
G01*
G37*
G36*
G01*
X142510572Y-140426621D02*
X142266620Y-140670572D01*
G75*
G02*
X142058024Y-140670572I-104298J104298D01*
G01*
X141849428Y-140461976D01*
G75*
G02*
X141849428Y-140253380I104298J104298D01*
G01*
X142093380Y-140009428D01*
G75*
G02*
X142301976Y-140009428I104298J-104298D01*
G01*
X142510572Y-140218024D01*
G75*
G02*
X142510572Y-140426620I-104298J-104298D01*
G01*
G37*
G36*
G01*
X141556621Y-142439428D02*
X141800572Y-142683380D01*
G75*
G02*
X141800572Y-142891976I-104298J-104298D01*
G01*
X141591976Y-143100572D01*
G75*
G02*
X141383380Y-143100572I-104298J104298D01*
G01*
X141139428Y-142856620D01*
G75*
G02*
X141139428Y-142648024I104298J104298D01*
G01*
X141348024Y-142439428D01*
G75*
G02*
X141556620Y-142439428I104298J-104298D01*
G01*
G37*
G36*
G01*
X142242515Y-141753534D02*
X142486466Y-141997486D01*
G75*
G02*
X142486466Y-142206082I-104298J-104298D01*
G01*
X142277870Y-142414678D01*
G75*
G02*
X142069274Y-142414678I-104298J104298D01*
G01*
X141825322Y-142170726D01*
G75*
G02*
X141825322Y-141962130I104298J104298D01*
G01*
X142033918Y-141753534D01*
G75*
G02*
X142242514Y-141753534I104298J-104298D01*
G01*
G37*
G36*
G01*
X141359273Y-138634678D02*
X141115322Y-138390726D01*
G75*
G02*
X141115322Y-138182130I104298J104298D01*
G01*
X141323918Y-137973534D01*
G75*
G02*
X141532514Y-137973534I104298J-104298D01*
G01*
X141776466Y-138217486D01*
G75*
G02*
X141776466Y-138426082I-104298J-104298D01*
G01*
X141567870Y-138634678D01*
G75*
G02*
X141359274Y-138634678I-104298J104298D01*
G01*
G37*
G36*
G01*
X140673379Y-139320572D02*
X140429428Y-139076620D01*
G75*
G02*
X140429428Y-138868024I104298J104298D01*
G01*
X140638024Y-138659428D01*
G75*
G02*
X140846620Y-138659428I104298J-104298D01*
G01*
X141090572Y-138903380D01*
G75*
G02*
X141090572Y-139111976I-104298J-104298D01*
G01*
X140881976Y-139320572D01*
G75*
G02*
X140673380Y-139320572I-104298J104298D01*
G01*
G37*
G36*
G01*
X141155322Y-144039273D02*
X141399274Y-143795322D01*
G75*
G02*
X141607870Y-143795322I104298J-104298D01*
G01*
X141816466Y-144003918D01*
G75*
G02*
X141816466Y-144212514I-104298J-104298D01*
G01*
X141572514Y-144456466D01*
G75*
G02*
X141363918Y-144456466I-104298J104298D01*
G01*
X141155322Y-144247870D01*
G75*
G02*
X141155322Y-144039274I104298J104298D01*
G01*
G37*
G36*
G01*
X140469428Y-143353379D02*
X140713380Y-143109428D01*
G75*
G02*
X140921976Y-143109428I104298J-104298D01*
G01*
X141130572Y-143318024D01*
G75*
G02*
X141130572Y-143526620I-104298J-104298D01*
G01*
X140886620Y-143770572D01*
G75*
G02*
X140678024Y-143770572I-104298J104298D01*
G01*
X140469428Y-143561976D01*
G75*
G02*
X140469428Y-143353380I104298J104298D01*
G01*
G37*
D13*
X129100000Y-147060000D03*
X129100000Y-148530000D03*
G36*
G01*
X131390000Y-143689999D02*
X131390000Y-144590001D01*
G75*
G02*
X131140001Y-144840000I-249999J0D01*
G01*
X130489999Y-144840000D01*
G75*
G02*
X130240000Y-144590001I0J249999D01*
G01*
X130240000Y-143689999D01*
G75*
G02*
X130489999Y-143440000I249999J0D01*
G01*
X131140001Y-143440000D01*
G75*
G02*
X131390000Y-143689999I0J-249999D01*
G01*
G37*
G36*
G01*
X133440000Y-143689999D02*
X133440000Y-144590001D01*
G75*
G02*
X133190001Y-144840000I-249999J0D01*
G01*
X132539999Y-144840000D01*
G75*
G02*
X132290000Y-144590001I0J249999D01*
G01*
X132290000Y-143689999D01*
G75*
G02*
X132539999Y-143440000I249999J0D01*
G01*
X133190001Y-143440000D01*
G75*
G02*
X133440000Y-143689999I0J-249999D01*
G01*
G37*
D14*
X136977400Y-148160600D03*
X136977400Y-147678000D03*
X136977400Y-147170000D03*
X136977400Y-146662000D03*
X136977400Y-146179400D03*
X132862600Y-146179400D03*
X132862600Y-146662000D03*
X132862600Y-147170000D03*
X132862600Y-147678000D03*
X132862600Y-148160600D03*
G36*
G01*
X112800000Y-150699999D02*
X112800000Y-151600001D01*
G75*
G02*
X112550001Y-151850000I-249999J0D01*
G01*
X111899999Y-151850000D01*
G75*
G02*
X111650000Y-151600001I0J249999D01*
G01*
X111650000Y-150699999D01*
G75*
G02*
X111899999Y-150450000I249999J0D01*
G01*
X112550001Y-150450000D01*
G75*
G02*
X112800000Y-150699999I0J-249999D01*
G01*
G37*
G36*
G01*
X114850000Y-150699999D02*
X114850000Y-151600001D01*
G75*
G02*
X114600001Y-151850000I-249999J0D01*
G01*
X113949999Y-151850000D01*
G75*
G02*
X113700000Y-151600001I0J249999D01*
G01*
X113700000Y-150699999D01*
G75*
G02*
X113949999Y-150450000I249999J0D01*
G01*
X114600001Y-150450000D01*
G75*
G02*
X114850000Y-150699999I0J-249999D01*
G01*
G37*
D15*
X115530000Y-153910000D03*
D16*
X116380000Y-154660000D03*
X116380000Y-154160000D03*
X116380000Y-153660000D03*
X116380000Y-153160000D03*
X114680000Y-154660000D03*
X114680000Y-154160000D03*
X114680000Y-153660000D03*
X114680000Y-153160000D03*
G36*
G01*
X116440001Y-145100000D02*
X115539999Y-145100000D01*
G75*
G02*
X115290000Y-144850001I0J249999D01*
G01*
X115290000Y-144199999D01*
G75*
G02*
X115539999Y-143950000I249999J0D01*
G01*
X116440001Y-143950000D01*
G75*
G02*
X116690000Y-144199999I0J-249999D01*
G01*
X116690000Y-144850001D01*
G75*
G02*
X116440001Y-145100000I-249999J0D01*
G01*
G37*
G36*
G01*
X116440001Y-147150000D02*
X115539999Y-147150000D01*
G75*
G02*
X115290000Y-146900001I0J249999D01*
G01*
X115290000Y-146249999D01*
G75*
G02*
X115539999Y-146000000I249999J0D01*
G01*
X116440001Y-146000000D01*
G75*
G02*
X116690000Y-146249999I0J-249999D01*
G01*
X116690000Y-146900001D01*
G75*
G02*
X116440001Y-147150000I-249999J0D01*
G01*
G37*
D17*
X123225000Y-152360000D03*
X123225000Y-153310000D03*
X123225000Y-154260000D03*
X126095000Y-154260000D03*
X126095000Y-153310000D03*
X126095000Y-152360000D03*
D18*
X127304998Y-146480001D03*
X127304998Y-141979999D03*
X119355002Y-141979999D03*
X119355002Y-146480001D03*
D19*
X142320000Y-148840000D03*
X142820000Y-148840000D03*
X143320000Y-148840000D03*
X143820000Y-148840000D03*
X144320000Y-148840000D03*
X144820000Y-148840000D03*
X145820000Y-148840000D03*
X146320000Y-148840000D03*
X146820000Y-148840000D03*
X147320000Y-148840000D03*
X147820000Y-148840000D03*
X148320000Y-148840000D03*
D20*
X148420000Y-150140000D03*
D19*
X147570000Y-150140000D03*
X147070000Y-150140000D03*
X146570000Y-150140000D03*
X146070000Y-150140000D03*
X145570000Y-150140000D03*
X145070000Y-150140000D03*
X144570000Y-150140000D03*
X144070000Y-150140000D03*
X143570000Y-150140000D03*
X143070000Y-150140000D03*
D20*
X142220000Y-150140000D03*
D21*
X106860001Y-146685002D03*
X102359999Y-146685002D03*
X102359999Y-154634998D03*
X106860001Y-154634998D03*
G36*
G01*
X124025000Y-114280001D02*
X124025000Y-113379999D01*
G75*
G02*
X124274999Y-113130000I249999J0D01*
G01*
X124925001Y-113130000D01*
G75*
G02*
X125175000Y-113379999I0J-249999D01*
G01*
X125175000Y-114280001D01*
G75*
G02*
X124925001Y-114530000I-249999J0D01*
G01*
X124274999Y-114530000D01*
G75*
G02*
X124025000Y-114280001I0J249999D01*
G01*
G37*
G36*
G01*
X121975000Y-114280001D02*
X121975000Y-113379999D01*
G75*
G02*
X122224999Y-113130000I249999J0D01*
G01*
X122875001Y-113130000D01*
G75*
G02*
X123125000Y-113379999I0J-249999D01*
G01*
X123125000Y-114280001D01*
G75*
G02*
X122875001Y-114530000I-249999J0D01*
G01*
X122224999Y-114530000D01*
G75*
G02*
X121975000Y-114280001I0J249999D01*
G01*
G37*
D22*
X143040001Y-124523600D03*
X142639999Y-124523600D03*
X142240000Y-124523600D03*
X141840001Y-124523600D03*
X141439999Y-124523600D03*
X141040000Y-124523600D03*
X140640000Y-124523600D03*
X140240001Y-124523600D03*
X139839999Y-124523600D03*
X139440000Y-124523600D03*
X139040001Y-124523600D03*
X138639999Y-124523600D03*
D23*
X137893600Y-125269999D03*
X137893600Y-125670001D03*
X137893600Y-126070000D03*
X137893600Y-126469999D03*
X137893600Y-126870001D03*
X137893600Y-127270000D03*
X137893600Y-127670000D03*
X137893600Y-128069999D03*
X137893600Y-128470001D03*
X137893600Y-128870000D03*
X137893600Y-129269999D03*
X137893600Y-129670001D03*
D22*
X138639999Y-130416400D03*
X139040001Y-130416400D03*
X139440000Y-130416400D03*
X139839999Y-130416400D03*
X140240001Y-130416400D03*
X140640000Y-130416400D03*
X141040000Y-130416400D03*
X141439999Y-130416400D03*
X141840001Y-130416400D03*
X142240000Y-130416400D03*
X142639999Y-130416400D03*
X143040001Y-130416400D03*
D23*
X143786400Y-129670001D03*
X143786400Y-129269999D03*
X143786400Y-128870000D03*
X143786400Y-128470001D03*
X143786400Y-128069999D03*
X143786400Y-127670000D03*
X143786400Y-127270000D03*
X143786400Y-126870001D03*
X143786400Y-126469999D03*
X143786400Y-126070000D03*
X143786400Y-125670001D03*
X143786400Y-125269999D03*
D24*
X140840000Y-127470000D03*
D25*
X146740000Y-126870000D03*
X146740000Y-129170000D03*
X148540000Y-129170000D03*
X148540000Y-126870000D03*
D26*
X101680000Y-139110000D03*
X101680000Y-137210000D03*
X103880000Y-137210000D03*
X103880000Y-138160000D03*
X103880000Y-139110000D03*
X106140000Y-140950000D03*
X106140000Y-139050000D03*
X108340000Y-139050000D03*
X108340000Y-140000000D03*
X108340000Y-140950000D03*
G36*
G01*
X110419999Y-143475000D02*
X111320001Y-143475000D01*
G75*
G02*
X111570000Y-143724999I0J-249999D01*
G01*
X111570000Y-144375001D01*
G75*
G02*
X111320001Y-144625000I-249999J0D01*
G01*
X110419999Y-144625000D01*
G75*
G02*
X110170000Y-144375001I0J249999D01*
G01*
X110170000Y-143724999D01*
G75*
G02*
X110419999Y-143475000I249999J0D01*
G01*
G37*
G36*
G01*
X110419999Y-141425000D02*
X111320001Y-141425000D01*
G75*
G02*
X111570000Y-141674999I0J-249999D01*
G01*
X111570000Y-142325001D01*
G75*
G02*
X111320001Y-142575000I-249999J0D01*
G01*
X110419999Y-142575000D01*
G75*
G02*
X110170000Y-142325001I0J249999D01*
G01*
X110170000Y-141674999D01*
G75*
G02*
X110419999Y-141425000I249999J0D01*
G01*
G37*
G36*
G01*
X136075000Y-136810001D02*
X136075000Y-135909999D01*
G75*
G02*
X136324999Y-135660000I249999J0D01*
G01*
X136975001Y-135660000D01*
G75*
G02*
X137225000Y-135909999I0J-249999D01*
G01*
X137225000Y-136810001D01*
G75*
G02*
X136975001Y-137060000I-249999J0D01*
G01*
X136324999Y-137060000D01*
G75*
G02*
X136075000Y-136810001I0J249999D01*
G01*
G37*
G36*
G01*
X134025000Y-136810001D02*
X134025000Y-135909999D01*
G75*
G02*
X134274999Y-135660000I249999J0D01*
G01*
X134925001Y-135660000D01*
G75*
G02*
X135175000Y-135909999I0J-249999D01*
G01*
X135175000Y-136810001D01*
G75*
G02*
X134925001Y-137060000I-249999J0D01*
G01*
X134274999Y-137060000D01*
G75*
G02*
X134025000Y-136810001I0J249999D01*
G01*
G37*
G36*
G01*
X118185000Y-108340001D02*
X118185000Y-107439999D01*
G75*
G02*
X118434999Y-107190000I249999J0D01*
G01*
X119085001Y-107190000D01*
G75*
G02*
X119335000Y-107439999I0J-249999D01*
G01*
X119335000Y-108340001D01*
G75*
G02*
X119085001Y-108590000I-249999J0D01*
G01*
X118434999Y-108590000D01*
G75*
G02*
X118185000Y-108340001I0J249999D01*
G01*
G37*
G36*
G01*
X116135000Y-108340001D02*
X116135000Y-107439999D01*
G75*
G02*
X116384999Y-107190000I249999J0D01*
G01*
X117035001Y-107190000D01*
G75*
G02*
X117285000Y-107439999I0J-249999D01*
G01*
X117285000Y-108340001D01*
G75*
G02*
X117035001Y-108590000I-249999J0D01*
G01*
X116384999Y-108590000D01*
G75*
G02*
X116135000Y-108340001I0J249999D01*
G01*
G37*
G36*
G01*
X149060001Y-121345000D02*
X148159999Y-121345000D01*
G75*
G02*
X147910000Y-121095001I0J249999D01*
G01*
X147910000Y-120444999D01*
G75*
G02*
X148159999Y-120195000I249999J0D01*
G01*
X149060001Y-120195000D01*
G75*
G02*
X149310000Y-120444999I0J-249999D01*
G01*
X149310000Y-121095001D01*
G75*
G02*
X149060001Y-121345000I-249999J0D01*
G01*
G37*
G36*
G01*
X149060001Y-123395000D02*
X148159999Y-123395000D01*
G75*
G02*
X147910000Y-123145001I0J249999D01*
G01*
X147910000Y-122494999D01*
G75*
G02*
X148159999Y-122245000I249999J0D01*
G01*
X149060001Y-122245000D01*
G75*
G02*
X149310000Y-122494999I0J-249999D01*
G01*
X149310000Y-123145001D01*
G75*
G02*
X149060001Y-123395000I-249999J0D01*
G01*
G37*
G36*
G01*
X125760001Y-120475000D02*
X124859999Y-120475000D01*
G75*
G02*
X124610000Y-120225001I0J249999D01*
G01*
X124610000Y-119574999D01*
G75*
G02*
X124859999Y-119325000I249999J0D01*
G01*
X125760001Y-119325000D01*
G75*
G02*
X126010000Y-119574999I0J-249999D01*
G01*
X126010000Y-120225001D01*
G75*
G02*
X125760001Y-120475000I-249999J0D01*
G01*
G37*
G36*
G01*
X125760001Y-122525000D02*
X124859999Y-122525000D01*
G75*
G02*
X124610000Y-122275001I0J249999D01*
G01*
X124610000Y-121624999D01*
G75*
G02*
X124859999Y-121375000I249999J0D01*
G01*
X125760001Y-121375000D01*
G75*
G02*
X126010000Y-121624999I0J-249999D01*
G01*
X126010000Y-122275001D01*
G75*
G02*
X125760001Y-122525000I-249999J0D01*
G01*
G37*
G36*
G01*
X127489999Y-109415000D02*
X128390001Y-109415000D01*
G75*
G02*
X128640000Y-109664999I0J-249999D01*
G01*
X128640000Y-110315001D01*
G75*
G02*
X128390001Y-110565000I-249999J0D01*
G01*
X127489999Y-110565000D01*
G75*
G02*
X127240000Y-110315001I0J249999D01*
G01*
X127240000Y-109664999D01*
G75*
G02*
X127489999Y-109415000I249999J0D01*
G01*
G37*
G36*
G01*
X127489999Y-107365000D02*
X128390001Y-107365000D01*
G75*
G02*
X128640000Y-107614999I0J-249999D01*
G01*
X128640000Y-108265001D01*
G75*
G02*
X128390001Y-108515000I-249999J0D01*
G01*
X127489999Y-108515000D01*
G75*
G02*
X127240000Y-108265001I0J249999D01*
G01*
X127240000Y-107614999D01*
G75*
G02*
X127489999Y-107365000I249999J0D01*
G01*
G37*
G36*
G01*
X125429999Y-109465000D02*
X126330001Y-109465000D01*
G75*
G02*
X126580000Y-109714999I0J-249999D01*
G01*
X126580000Y-110365001D01*
G75*
G02*
X126330001Y-110615000I-249999J0D01*
G01*
X125429999Y-110615000D01*
G75*
G02*
X125180000Y-110365001I0J249999D01*
G01*
X125180000Y-109714999D01*
G75*
G02*
X125429999Y-109465000I249999J0D01*
G01*
G37*
G36*
G01*
X125429999Y-107415000D02*
X126330001Y-107415000D01*
G75*
G02*
X126580000Y-107664999I0J-249999D01*
G01*
X126580000Y-108315001D01*
G75*
G02*
X126330001Y-108565000I-249999J0D01*
G01*
X125429999Y-108565000D01*
G75*
G02*
X125180000Y-108315001I0J249999D01*
G01*
X125180000Y-107664999D01*
G75*
G02*
X125429999Y-107415000I249999J0D01*
G01*
G37*
G36*
G01*
X136050001Y-109455000D02*
X135149999Y-109455000D01*
G75*
G02*
X134900000Y-109205001I0J249999D01*
G01*
X134900000Y-108554999D01*
G75*
G02*
X135149999Y-108305000I249999J0D01*
G01*
X136050001Y-108305000D01*
G75*
G02*
X136300000Y-108554999I0J-249999D01*
G01*
X136300000Y-109205001D01*
G75*
G02*
X136050001Y-109455000I-249999J0D01*
G01*
G37*
G36*
G01*
X136050001Y-111505000D02*
X135149999Y-111505000D01*
G75*
G02*
X134900000Y-111255001I0J249999D01*
G01*
X134900000Y-110604999D01*
G75*
G02*
X135149999Y-110355000I249999J0D01*
G01*
X136050001Y-110355000D01*
G75*
G02*
X136300000Y-110604999I0J-249999D01*
G01*
X136300000Y-111255001D01*
G75*
G02*
X136050001Y-111505000I-249999J0D01*
G01*
G37*
G36*
G01*
X137655000Y-112479999D02*
X137655000Y-113380001D01*
G75*
G02*
X137405001Y-113630000I-249999J0D01*
G01*
X136754999Y-113630000D01*
G75*
G02*
X136505000Y-113380001I0J249999D01*
G01*
X136505000Y-112479999D01*
G75*
G02*
X136754999Y-112230000I249999J0D01*
G01*
X137405001Y-112230000D01*
G75*
G02*
X137655000Y-112479999I0J-249999D01*
G01*
G37*
G36*
G01*
X139705000Y-112479999D02*
X139705000Y-113380001D01*
G75*
G02*
X139455001Y-113630000I-249999J0D01*
G01*
X138804999Y-113630000D01*
G75*
G02*
X138555000Y-113380001I0J249999D01*
G01*
X138555000Y-112479999D01*
G75*
G02*
X138804999Y-112230000I249999J0D01*
G01*
X139455001Y-112230000D01*
G75*
G02*
X139705000Y-112479999I0J-249999D01*
G01*
G37*
G36*
G01*
X142179999Y-119345000D02*
X143080001Y-119345000D01*
G75*
G02*
X143330000Y-119594999I0J-249999D01*
G01*
X143330000Y-120245001D01*
G75*
G02*
X143080001Y-120495000I-249999J0D01*
G01*
X142179999Y-120495000D01*
G75*
G02*
X141930000Y-120245001I0J249999D01*
G01*
X141930000Y-119594999D01*
G75*
G02*
X142179999Y-119345000I249999J0D01*
G01*
G37*
G36*
G01*
X142179999Y-117295000D02*
X143080001Y-117295000D01*
G75*
G02*
X143330000Y-117544999I0J-249999D01*
G01*
X143330000Y-118195001D01*
G75*
G02*
X143080001Y-118445000I-249999J0D01*
G01*
X142179999Y-118445000D01*
G75*
G02*
X141930000Y-118195001I0J249999D01*
G01*
X141930000Y-117544999D01*
G75*
G02*
X142179999Y-117295000I249999J0D01*
G01*
G37*
D27*
X105100000Y-142980000D03*
X105100000Y-144780000D03*
G36*
G01*
X111435000Y-146605000D02*
X110185000Y-146605000D01*
G75*
G02*
X109935000Y-146355000I0J250000D01*
G01*
X109935000Y-145605000D01*
G75*
G02*
X110185000Y-145355000I250000J0D01*
G01*
X111435000Y-145355000D01*
G75*
G02*
X111685000Y-145605000I0J-250000D01*
G01*
X111685000Y-146355000D01*
G75*
G02*
X111435000Y-146605000I-250000J0D01*
G01*
G37*
G36*
G01*
X111435000Y-149405000D02*
X110185000Y-149405000D01*
G75*
G02*
X109935000Y-149155000I0J250000D01*
G01*
X109935000Y-148405000D01*
G75*
G02*
X110185000Y-148155000I250000J0D01*
G01*
X111435000Y-148155000D01*
G75*
G02*
X111685000Y-148405000I0J-250000D01*
G01*
X111685000Y-149155000D01*
G75*
G02*
X111435000Y-149405000I-250000J0D01*
G01*
G37*
G36*
G01*
X139997500Y-136816250D02*
X139997500Y-135903750D01*
G75*
G02*
X140241250Y-135660000I243750J0D01*
G01*
X140728750Y-135660000D01*
G75*
G02*
X140972500Y-135903750I0J-243750D01*
G01*
X140972500Y-136816250D01*
G75*
G02*
X140728750Y-137060000I-243750J0D01*
G01*
X140241250Y-137060000D01*
G75*
G02*
X139997500Y-136816250I0J243750D01*
G01*
G37*
G36*
G01*
X138122500Y-136816250D02*
X138122500Y-135903750D01*
G75*
G02*
X138366250Y-135660000I243750J0D01*
G01*
X138853750Y-135660000D01*
G75*
G02*
X139097500Y-135903750I0J-243750D01*
G01*
X139097500Y-136816250D01*
G75*
G02*
X138853750Y-137060000I-243750J0D01*
G01*
X138366250Y-137060000D01*
G75*
G02*
X138122500Y-136816250I0J243750D01*
G01*
G37*
G36*
G01*
X147645000Y-145175000D02*
X148895000Y-145175000D01*
G75*
G02*
X149145000Y-145425000I0J-250000D01*
G01*
X149145000Y-146175000D01*
G75*
G02*
X148895000Y-146425000I-250000J0D01*
G01*
X147645000Y-146425000D01*
G75*
G02*
X147395000Y-146175000I0J250000D01*
G01*
X147395000Y-145425000D01*
G75*
G02*
X147645000Y-145175000I250000J0D01*
G01*
G37*
G36*
G01*
X147645000Y-142375000D02*
X148895000Y-142375000D01*
G75*
G02*
X149145000Y-142625000I0J-250000D01*
G01*
X149145000Y-143375000D01*
G75*
G02*
X148895000Y-143625000I-250000J0D01*
G01*
X147645000Y-143625000D01*
G75*
G02*
X147395000Y-143375000I0J250000D01*
G01*
X147395000Y-142625000D01*
G75*
G02*
X147645000Y-142375000I250000J0D01*
G01*
G37*
D28*
X137320000Y-154040000D03*
X137320000Y-149640000D03*
G36*
G01*
X137235000Y-133280001D02*
X137235000Y-132379999D01*
G75*
G02*
X137484999Y-132130000I249999J0D01*
G01*
X138135001Y-132130000D01*
G75*
G02*
X138385000Y-132379999I0J-249999D01*
G01*
X138385000Y-133280001D01*
G75*
G02*
X138135001Y-133530000I-249999J0D01*
G01*
X137484999Y-133530000D01*
G75*
G02*
X137235000Y-133280001I0J249999D01*
G01*
G37*
G36*
G01*
X135185000Y-133280001D02*
X135185000Y-132379999D01*
G75*
G02*
X135434999Y-132130000I249999J0D01*
G01*
X136085001Y-132130000D01*
G75*
G02*
X136335000Y-132379999I0J-249999D01*
G01*
X136335000Y-133280001D01*
G75*
G02*
X136085001Y-133530000I-249999J0D01*
G01*
X135434999Y-133530000D01*
G75*
G02*
X135185000Y-133280001I0J249999D01*
G01*
G37*
G36*
G01*
X133879999Y-129120000D02*
X134780001Y-129120000D01*
G75*
G02*
X135030000Y-129369999I0J-249999D01*
G01*
X135030000Y-130020001D01*
G75*
G02*
X134780001Y-130270000I-249999J0D01*
G01*
X133879999Y-130270000D01*
G75*
G02*
X133630000Y-130020001I0J249999D01*
G01*
X133630000Y-129369999D01*
G75*
G02*
X133879999Y-129120000I249999J0D01*
G01*
G37*
G36*
G01*
X133879999Y-127070000D02*
X134780001Y-127070000D01*
G75*
G02*
X135030000Y-127319999I0J-249999D01*
G01*
X135030000Y-127970001D01*
G75*
G02*
X134780001Y-128220000I-249999J0D01*
G01*
X133879999Y-128220000D01*
G75*
G02*
X133630000Y-127970001I0J249999D01*
G01*
X133630000Y-127319999D01*
G75*
G02*
X133879999Y-127070000I249999J0D01*
G01*
G37*
G36*
G01*
X135999999Y-120125000D02*
X136900001Y-120125000D01*
G75*
G02*
X137150000Y-120374999I0J-249999D01*
G01*
X137150000Y-121025001D01*
G75*
G02*
X136900001Y-121275000I-249999J0D01*
G01*
X135999999Y-121275000D01*
G75*
G02*
X135750000Y-121025001I0J249999D01*
G01*
X135750000Y-120374999D01*
G75*
G02*
X135999999Y-120125000I249999J0D01*
G01*
G37*
G36*
G01*
X135999999Y-118075000D02*
X136900001Y-118075000D01*
G75*
G02*
X137150000Y-118324999I0J-249999D01*
G01*
X137150000Y-118975001D01*
G75*
G02*
X136900001Y-119225000I-249999J0D01*
G01*
X135999999Y-119225000D01*
G75*
G02*
X135750000Y-118975001I0J249999D01*
G01*
X135750000Y-118324999D01*
G75*
G02*
X135999999Y-118075000I249999J0D01*
G01*
G37*
G36*
G01*
X138045000Y-117300001D02*
X138045000Y-116399999D01*
G75*
G02*
X138294999Y-116150000I249999J0D01*
G01*
X138945001Y-116150000D01*
G75*
G02*
X139195000Y-116399999I0J-249999D01*
G01*
X139195000Y-117300001D01*
G75*
G02*
X138945001Y-117550000I-249999J0D01*
G01*
X138294999Y-117550000D01*
G75*
G02*
X138045000Y-117300001I0J249999D01*
G01*
G37*
G36*
G01*
X135995000Y-117300001D02*
X135995000Y-116399999D01*
G75*
G02*
X136244999Y-116150000I249999J0D01*
G01*
X136895001Y-116150000D01*
G75*
G02*
X137145000Y-116399999I0J-249999D01*
G01*
X137145000Y-117300001D01*
G75*
G02*
X136895001Y-117550000I-249999J0D01*
G01*
X136244999Y-117550000D01*
G75*
G02*
X135995000Y-117300001I0J249999D01*
G01*
G37*
G36*
G01*
X151250001Y-127835000D02*
X150349999Y-127835000D01*
G75*
G02*
X150100000Y-127585001I0J249999D01*
G01*
X150100000Y-126934999D01*
G75*
G02*
X150349999Y-126685000I249999J0D01*
G01*
X151250001Y-126685000D01*
G75*
G02*
X151500000Y-126934999I0J-249999D01*
G01*
X151500000Y-127585001D01*
G75*
G02*
X151250001Y-127835000I-249999J0D01*
G01*
G37*
G36*
G01*
X151250001Y-129885000D02*
X150349999Y-129885000D01*
G75*
G02*
X150100000Y-129635001I0J249999D01*
G01*
X150100000Y-128984999D01*
G75*
G02*
X150349999Y-128735000I249999J0D01*
G01*
X151250001Y-128735000D01*
G75*
G02*
X151500000Y-128984999I0J-249999D01*
G01*
X151500000Y-129635001D01*
G75*
G02*
X151250001Y-129885000I-249999J0D01*
G01*
G37*
G36*
G01*
X150209999Y-124335000D02*
X151110001Y-124335000D01*
G75*
G02*
X151360000Y-124584999I0J-249999D01*
G01*
X151360000Y-125235001D01*
G75*
G02*
X151110001Y-125485000I-249999J0D01*
G01*
X150209999Y-125485000D01*
G75*
G02*
X149960000Y-125235001I0J249999D01*
G01*
X149960000Y-124584999D01*
G75*
G02*
X150209999Y-124335000I249999J0D01*
G01*
G37*
G36*
G01*
X150209999Y-122285000D02*
X151110001Y-122285000D01*
G75*
G02*
X151360000Y-122534999I0J-249999D01*
G01*
X151360000Y-123185001D01*
G75*
G02*
X151110001Y-123435000I-249999J0D01*
G01*
X150209999Y-123435000D01*
G75*
G02*
X149960000Y-123185001I0J249999D01*
G01*
X149960000Y-122534999D01*
G75*
G02*
X150209999Y-122285000I249999J0D01*
G01*
G37*
G36*
G01*
X144075000Y-122180001D02*
X144075000Y-121279999D01*
G75*
G02*
X144324999Y-121030000I249999J0D01*
G01*
X144975001Y-121030000D01*
G75*
G02*
X145225000Y-121279999I0J-249999D01*
G01*
X145225000Y-122180001D01*
G75*
G02*
X144975001Y-122430000I-249999J0D01*
G01*
X144324999Y-122430000D01*
G75*
G02*
X144075000Y-122180001I0J249999D01*
G01*
G37*
G36*
G01*
X142025000Y-122180001D02*
X142025000Y-121279999D01*
G75*
G02*
X142274999Y-121030000I249999J0D01*
G01*
X142925001Y-121030000D01*
G75*
G02*
X143175000Y-121279999I0J-249999D01*
G01*
X143175000Y-122180001D01*
G75*
G02*
X142925001Y-122430000I-249999J0D01*
G01*
X142274999Y-122430000D01*
G75*
G02*
X142025000Y-122180001I0J249999D01*
G01*
G37*
G36*
G01*
X144115000Y-116530001D02*
X144115000Y-115629999D01*
G75*
G02*
X144364999Y-115380000I249999J0D01*
G01*
X145015001Y-115380000D01*
G75*
G02*
X145265000Y-115629999I0J-249999D01*
G01*
X145265000Y-116530001D01*
G75*
G02*
X145015001Y-116780000I-249999J0D01*
G01*
X144364999Y-116780000D01*
G75*
G02*
X144115000Y-116530001I0J249999D01*
G01*
G37*
G36*
G01*
X142065000Y-116530001D02*
X142065000Y-115629999D01*
G75*
G02*
X142314999Y-115380000I249999J0D01*
G01*
X142965001Y-115380000D01*
G75*
G02*
X143215000Y-115629999I0J-249999D01*
G01*
X143215000Y-116530001D01*
G75*
G02*
X142965001Y-116780000I-249999J0D01*
G01*
X142314999Y-116780000D01*
G75*
G02*
X142065000Y-116530001I0J249999D01*
G01*
G37*
G36*
G01*
X148075000Y-125140001D02*
X148075000Y-124239999D01*
G75*
G02*
X148324999Y-123990000I249999J0D01*
G01*
X148975001Y-123990000D01*
G75*
G02*
X149225000Y-124239999I0J-249999D01*
G01*
X149225000Y-125140001D01*
G75*
G02*
X148975001Y-125390000I-249999J0D01*
G01*
X148324999Y-125390000D01*
G75*
G02*
X148075000Y-125140001I0J249999D01*
G01*
G37*
G36*
G01*
X146025000Y-125140001D02*
X146025000Y-124239999D01*
G75*
G02*
X146274999Y-123990000I249999J0D01*
G01*
X146925001Y-123990000D01*
G75*
G02*
X147175000Y-124239999I0J-249999D01*
G01*
X147175000Y-125140001D01*
G75*
G02*
X146925001Y-125390000I-249999J0D01*
G01*
X146274999Y-125390000D01*
G75*
G02*
X146025000Y-125140001I0J249999D01*
G01*
G37*
G36*
G01*
X127185000Y-112280001D02*
X127185000Y-111379999D01*
G75*
G02*
X127434999Y-111130000I249999J0D01*
G01*
X128085001Y-111130000D01*
G75*
G02*
X128335000Y-111379999I0J-249999D01*
G01*
X128335000Y-112280001D01*
G75*
G02*
X128085001Y-112530000I-249999J0D01*
G01*
X127434999Y-112530000D01*
G75*
G02*
X127185000Y-112280001I0J249999D01*
G01*
G37*
G36*
G01*
X125135000Y-112280001D02*
X125135000Y-111379999D01*
G75*
G02*
X125384999Y-111130000I249999J0D01*
G01*
X126035001Y-111130000D01*
G75*
G02*
X126285000Y-111379999I0J-249999D01*
G01*
X126285000Y-112280001D01*
G75*
G02*
X126035001Y-112530000I-249999J0D01*
G01*
X125384999Y-112530000D01*
G75*
G02*
X125135000Y-112280001I0J249999D01*
G01*
G37*
G36*
G01*
X133750001Y-120365000D02*
X132849999Y-120365000D01*
G75*
G02*
X132600000Y-120115001I0J249999D01*
G01*
X132600000Y-119464999D01*
G75*
G02*
X132849999Y-119215000I249999J0D01*
G01*
X133750001Y-119215000D01*
G75*
G02*
X134000000Y-119464999I0J-249999D01*
G01*
X134000000Y-120115001D01*
G75*
G02*
X133750001Y-120365000I-249999J0D01*
G01*
G37*
G36*
G01*
X133750001Y-122415000D02*
X132849999Y-122415000D01*
G75*
G02*
X132600000Y-122165001I0J249999D01*
G01*
X132600000Y-121514999D01*
G75*
G02*
X132849999Y-121265000I249999J0D01*
G01*
X133750001Y-121265000D01*
G75*
G02*
X134000000Y-121514999I0J-249999D01*
G01*
X134000000Y-122165001D01*
G75*
G02*
X133750001Y-122415000I-249999J0D01*
G01*
G37*
G36*
G01*
X123975000Y-116430001D02*
X123975000Y-115529999D01*
G75*
G02*
X124224999Y-115280000I249999J0D01*
G01*
X124875001Y-115280000D01*
G75*
G02*
X125125000Y-115529999I0J-249999D01*
G01*
X125125000Y-116430001D01*
G75*
G02*
X124875001Y-116680000I-249999J0D01*
G01*
X124224999Y-116680000D01*
G75*
G02*
X123975000Y-116430001I0J249999D01*
G01*
G37*
G36*
G01*
X121925000Y-116430001D02*
X121925000Y-115529999D01*
G75*
G02*
X122174999Y-115280000I249999J0D01*
G01*
X122825001Y-115280000D01*
G75*
G02*
X123075000Y-115529999I0J-249999D01*
G01*
X123075000Y-116430001D01*
G75*
G02*
X122825001Y-116680000I-249999J0D01*
G01*
X122174999Y-116680000D01*
G75*
G02*
X121925000Y-116430001I0J249999D01*
G01*
G37*
G36*
G01*
X122885000Y-118390001D02*
X122885000Y-117489999D01*
G75*
G02*
X123134999Y-117240000I249999J0D01*
G01*
X123785001Y-117240000D01*
G75*
G02*
X124035000Y-117489999I0J-249999D01*
G01*
X124035000Y-118390001D01*
G75*
G02*
X123785001Y-118640000I-249999J0D01*
G01*
X123134999Y-118640000D01*
G75*
G02*
X122885000Y-118390001I0J249999D01*
G01*
G37*
G36*
G01*
X120835000Y-118390001D02*
X120835000Y-117489999D01*
G75*
G02*
X121084999Y-117240000I249999J0D01*
G01*
X121735001Y-117240000D01*
G75*
G02*
X121985000Y-117489999I0J-249999D01*
G01*
X121985000Y-118390001D01*
G75*
G02*
X121735001Y-118640000I-249999J0D01*
G01*
X121084999Y-118640000D01*
G75*
G02*
X120835000Y-118390001I0J249999D01*
G01*
G37*
G36*
G01*
X122950000Y-122450001D02*
X122950000Y-121549999D01*
G75*
G02*
X123199999Y-121300000I249999J0D01*
G01*
X123850001Y-121300000D01*
G75*
G02*
X124100000Y-121549999I0J-249999D01*
G01*
X124100000Y-122450001D01*
G75*
G02*
X123850001Y-122700000I-249999J0D01*
G01*
X123199999Y-122700000D01*
G75*
G02*
X122950000Y-122450001I0J249999D01*
G01*
G37*
G36*
G01*
X120900000Y-122450001D02*
X120900000Y-121549999D01*
G75*
G02*
X121149999Y-121300000I249999J0D01*
G01*
X121800001Y-121300000D01*
G75*
G02*
X122050000Y-121549999I0J-249999D01*
G01*
X122050000Y-122450001D01*
G75*
G02*
X121800001Y-122700000I-249999J0D01*
G01*
X121149999Y-122700000D01*
G75*
G02*
X120900000Y-122450001I0J249999D01*
G01*
G37*
G36*
G01*
X122950000Y-120450001D02*
X122950000Y-119549999D01*
G75*
G02*
X123199999Y-119300000I249999J0D01*
G01*
X123850001Y-119300000D01*
G75*
G02*
X124100000Y-119549999I0J-249999D01*
G01*
X124100000Y-120450001D01*
G75*
G02*
X123850001Y-120700000I-249999J0D01*
G01*
X123199999Y-120700000D01*
G75*
G02*
X122950000Y-120450001I0J249999D01*
G01*
G37*
G36*
G01*
X120900000Y-120450001D02*
X120900000Y-119549999D01*
G75*
G02*
X121149999Y-119300000I249999J0D01*
G01*
X121800001Y-119300000D01*
G75*
G02*
X122050000Y-119549999I0J-249999D01*
G01*
X122050000Y-120450001D01*
G75*
G02*
X121800001Y-120700000I-249999J0D01*
G01*
X121149999Y-120700000D01*
G75*
G02*
X120900000Y-120450001I0J249999D01*
G01*
G37*
G36*
G01*
X130229999Y-115230000D02*
X131130001Y-115230000D01*
G75*
G02*
X131380000Y-115479999I0J-249999D01*
G01*
X131380000Y-116130001D01*
G75*
G02*
X131130001Y-116380000I-249999J0D01*
G01*
X130229999Y-116380000D01*
G75*
G02*
X129980000Y-116130001I0J249999D01*
G01*
X129980000Y-115479999D01*
G75*
G02*
X130229999Y-115230000I249999J0D01*
G01*
G37*
G36*
G01*
X130229999Y-113180000D02*
X131130001Y-113180000D01*
G75*
G02*
X131380000Y-113429999I0J-249999D01*
G01*
X131380000Y-114080001D01*
G75*
G02*
X131130001Y-114330000I-249999J0D01*
G01*
X130229999Y-114330000D01*
G75*
G02*
X129980000Y-114080001I0J249999D01*
G01*
X129980000Y-113429999D01*
G75*
G02*
X130229999Y-113180000I249999J0D01*
G01*
G37*
G36*
G01*
X123130000Y-125550001D02*
X123130000Y-124649999D01*
G75*
G02*
X123379999Y-124400000I249999J0D01*
G01*
X124030001Y-124400000D01*
G75*
G02*
X124280000Y-124649999I0J-249999D01*
G01*
X124280000Y-125550001D01*
G75*
G02*
X124030001Y-125800000I-249999J0D01*
G01*
X123379999Y-125800000D01*
G75*
G02*
X123130000Y-125550001I0J249999D01*
G01*
G37*
G36*
G01*
X121080000Y-125550001D02*
X121080000Y-124649999D01*
G75*
G02*
X121329999Y-124400000I249999J0D01*
G01*
X121980001Y-124400000D01*
G75*
G02*
X122230000Y-124649999I0J-249999D01*
G01*
X122230000Y-125550001D01*
G75*
G02*
X121980001Y-125800000I-249999J0D01*
G01*
X121329999Y-125800000D01*
G75*
G02*
X121080000Y-125550001I0J249999D01*
G01*
G37*
G36*
G01*
X128149999Y-115255000D02*
X129050001Y-115255000D01*
G75*
G02*
X129300000Y-115504999I0J-249999D01*
G01*
X129300000Y-116155001D01*
G75*
G02*
X129050001Y-116405000I-249999J0D01*
G01*
X128149999Y-116405000D01*
G75*
G02*
X127900000Y-116155001I0J249999D01*
G01*
X127900000Y-115504999D01*
G75*
G02*
X128149999Y-115255000I249999J0D01*
G01*
G37*
G36*
G01*
X128149999Y-113205000D02*
X129050001Y-113205000D01*
G75*
G02*
X129300000Y-113454999I0J-249999D01*
G01*
X129300000Y-114105001D01*
G75*
G02*
X129050001Y-114355000I-249999J0D01*
G01*
X128149999Y-114355000D01*
G75*
G02*
X127900000Y-114105001I0J249999D01*
G01*
X127900000Y-113454999D01*
G75*
G02*
X128149999Y-113205000I249999J0D01*
G01*
G37*
G36*
G01*
X120509999Y-154060000D02*
X121410001Y-154060000D01*
G75*
G02*
X121660000Y-154309999I0J-249999D01*
G01*
X121660000Y-154960001D01*
G75*
G02*
X121410001Y-155210000I-249999J0D01*
G01*
X120509999Y-155210000D01*
G75*
G02*
X120260000Y-154960001I0J249999D01*
G01*
X120260000Y-154309999D01*
G75*
G02*
X120509999Y-154060000I249999J0D01*
G01*
G37*
G36*
G01*
X120509999Y-152010000D02*
X121410001Y-152010000D01*
G75*
G02*
X121660000Y-152259999I0J-249999D01*
G01*
X121660000Y-152910001D01*
G75*
G02*
X121410001Y-153160000I-249999J0D01*
G01*
X120509999Y-153160000D01*
G75*
G02*
X120260000Y-152910001I0J249999D01*
G01*
X120260000Y-152259999D01*
G75*
G02*
X120509999Y-152010000I249999J0D01*
G01*
G37*
G36*
G01*
X126239999Y-115205000D02*
X127140001Y-115205000D01*
G75*
G02*
X127390000Y-115454999I0J-249999D01*
G01*
X127390000Y-116105001D01*
G75*
G02*
X127140001Y-116355000I-249999J0D01*
G01*
X126239999Y-116355000D01*
G75*
G02*
X125990000Y-116105001I0J249999D01*
G01*
X125990000Y-115454999D01*
G75*
G02*
X126239999Y-115205000I249999J0D01*
G01*
G37*
G36*
G01*
X126239999Y-113155000D02*
X127140001Y-113155000D01*
G75*
G02*
X127390000Y-113404999I0J-249999D01*
G01*
X127390000Y-114055001D01*
G75*
G02*
X127140001Y-114305000I-249999J0D01*
G01*
X126239999Y-114305000D01*
G75*
G02*
X125990000Y-114055001I0J249999D01*
G01*
X125990000Y-113404999D01*
G75*
G02*
X126239999Y-113155000I249999J0D01*
G01*
G37*
G36*
G01*
X131490000Y-149409999D02*
X131490000Y-150310001D01*
G75*
G02*
X131240001Y-150560000I-249999J0D01*
G01*
X130589999Y-150560000D01*
G75*
G02*
X130340000Y-150310001I0J249999D01*
G01*
X130340000Y-149409999D01*
G75*
G02*
X130589999Y-149160000I249999J0D01*
G01*
X131240001Y-149160000D01*
G75*
G02*
X131490000Y-149409999I0J-249999D01*
G01*
G37*
G36*
G01*
X133540000Y-149409999D02*
X133540000Y-150310001D01*
G75*
G02*
X133290001Y-150560000I-249999J0D01*
G01*
X132639999Y-150560000D01*
G75*
G02*
X132390000Y-150310001I0J249999D01*
G01*
X132390000Y-149409999D01*
G75*
G02*
X132639999Y-149160000I249999J0D01*
G01*
X133290001Y-149160000D01*
G75*
G02*
X133540000Y-149409999I0J-249999D01*
G01*
G37*
G36*
G01*
X134149999Y-115845000D02*
X135050001Y-115845000D01*
G75*
G02*
X135300000Y-116094999I0J-249999D01*
G01*
X135300000Y-116745001D01*
G75*
G02*
X135050001Y-116995000I-249999J0D01*
G01*
X134149999Y-116995000D01*
G75*
G02*
X133900000Y-116745001I0J249999D01*
G01*
X133900000Y-116094999D01*
G75*
G02*
X134149999Y-115845000I249999J0D01*
G01*
G37*
G36*
G01*
X134149999Y-113795000D02*
X135050001Y-113795000D01*
G75*
G02*
X135300000Y-114044999I0J-249999D01*
G01*
X135300000Y-114695001D01*
G75*
G02*
X135050001Y-114945000I-249999J0D01*
G01*
X134149999Y-114945000D01*
G75*
G02*
X133900000Y-114695001I0J249999D01*
G01*
X133900000Y-114044999D01*
G75*
G02*
X134149999Y-113795000I249999J0D01*
G01*
G37*
G36*
G01*
X102340001Y-133995000D02*
X101439999Y-133995000D01*
G75*
G02*
X101190000Y-133745001I0J249999D01*
G01*
X101190000Y-133094999D01*
G75*
G02*
X101439999Y-132845000I249999J0D01*
G01*
X102340001Y-132845000D01*
G75*
G02*
X102590000Y-133094999I0J-249999D01*
G01*
X102590000Y-133745001D01*
G75*
G02*
X102340001Y-133995000I-249999J0D01*
G01*
G37*
G36*
G01*
X102340001Y-136045000D02*
X101439999Y-136045000D01*
G75*
G02*
X101190000Y-135795001I0J249999D01*
G01*
X101190000Y-135144999D01*
G75*
G02*
X101439999Y-134895000I249999J0D01*
G01*
X102340001Y-134895000D01*
G75*
G02*
X102590000Y-135144999I0J-249999D01*
G01*
X102590000Y-135795001D01*
G75*
G02*
X102340001Y-136045000I-249999J0D01*
G01*
G37*
G36*
G01*
X108535000Y-137630001D02*
X108535000Y-136729999D01*
G75*
G02*
X108784999Y-136480000I249999J0D01*
G01*
X109435001Y-136480000D01*
G75*
G02*
X109685000Y-136729999I0J-249999D01*
G01*
X109685000Y-137630001D01*
G75*
G02*
X109435001Y-137880000I-249999J0D01*
G01*
X108784999Y-137880000D01*
G75*
G02*
X108535000Y-137630001I0J249999D01*
G01*
G37*
G36*
G01*
X106485000Y-137630001D02*
X106485000Y-136729999D01*
G75*
G02*
X106734999Y-136480000I249999J0D01*
G01*
X107385001Y-136480000D01*
G75*
G02*
X107635000Y-136729999I0J-249999D01*
G01*
X107635000Y-137630001D01*
G75*
G02*
X107385001Y-137880000I-249999J0D01*
G01*
X106734999Y-137880000D01*
G75*
G02*
X106485000Y-137630001I0J249999D01*
G01*
G37*
G36*
G01*
X132179999Y-115865000D02*
X133080001Y-115865000D01*
G75*
G02*
X133330000Y-116114999I0J-249999D01*
G01*
X133330000Y-116765001D01*
G75*
G02*
X133080001Y-117015000I-249999J0D01*
G01*
X132179999Y-117015000D01*
G75*
G02*
X131930000Y-116765001I0J249999D01*
G01*
X131930000Y-116114999D01*
G75*
G02*
X132179999Y-115865000I249999J0D01*
G01*
G37*
G36*
G01*
X132179999Y-113815000D02*
X133080001Y-113815000D01*
G75*
G02*
X133330000Y-114064999I0J-249999D01*
G01*
X133330000Y-114715001D01*
G75*
G02*
X133080001Y-114965000I-249999J0D01*
G01*
X132179999Y-114965000D01*
G75*
G02*
X131930000Y-114715001I0J249999D01*
G01*
X131930000Y-114064999D01*
G75*
G02*
X132179999Y-113815000I249999J0D01*
G01*
G37*
G36*
G01*
X141380000Y-146980001D02*
X141380000Y-146079999D01*
G75*
G02*
X141629999Y-145830000I249999J0D01*
G01*
X142280001Y-145830000D01*
G75*
G02*
X142530000Y-146079999I0J-249999D01*
G01*
X142530000Y-146980001D01*
G75*
G02*
X142280001Y-147230000I-249999J0D01*
G01*
X141629999Y-147230000D01*
G75*
G02*
X141380000Y-146980001I0J249999D01*
G01*
G37*
G36*
G01*
X139330000Y-146980001D02*
X139330000Y-146079999D01*
G75*
G02*
X139579999Y-145830000I249999J0D01*
G01*
X140230001Y-145830000D01*
G75*
G02*
X140480000Y-146079999I0J-249999D01*
G01*
X140480000Y-146980001D01*
G75*
G02*
X140230001Y-147230000I-249999J0D01*
G01*
X139579999Y-147230000D01*
G75*
G02*
X139330000Y-146980001I0J249999D01*
G01*
G37*
G36*
G01*
X111600000Y-140470001D02*
X111600000Y-139569999D01*
G75*
G02*
X111849999Y-139320000I249999J0D01*
G01*
X112500001Y-139320000D01*
G75*
G02*
X112750000Y-139569999I0J-249999D01*
G01*
X112750000Y-140470001D01*
G75*
G02*
X112500001Y-140720000I-249999J0D01*
G01*
X111849999Y-140720000D01*
G75*
G02*
X111600000Y-140470001I0J249999D01*
G01*
G37*
G36*
G01*
X109550000Y-140470001D02*
X109550000Y-139569999D01*
G75*
G02*
X109799999Y-139320000I249999J0D01*
G01*
X110450001Y-139320000D01*
G75*
G02*
X110700000Y-139569999I0J-249999D01*
G01*
X110700000Y-140470001D01*
G75*
G02*
X110450001Y-140720000I-249999J0D01*
G01*
X109799999Y-140720000D01*
G75*
G02*
X109550000Y-140470001I0J249999D01*
G01*
G37*
G36*
G01*
X102335000Y-140519999D02*
X102335000Y-141420001D01*
G75*
G02*
X102085001Y-141670000I-249999J0D01*
G01*
X101434999Y-141670000D01*
G75*
G02*
X101185000Y-141420001I0J249999D01*
G01*
X101185000Y-140519999D01*
G75*
G02*
X101434999Y-140270000I249999J0D01*
G01*
X102085001Y-140270000D01*
G75*
G02*
X102335000Y-140519999I0J-249999D01*
G01*
G37*
G36*
G01*
X104385000Y-140519999D02*
X104385000Y-141420001D01*
G75*
G02*
X104135001Y-141670000I-249999J0D01*
G01*
X103484999Y-141670000D01*
G75*
G02*
X103235000Y-141420001I0J249999D01*
G01*
X103235000Y-140519999D01*
G75*
G02*
X103484999Y-140270000I249999J0D01*
G01*
X104135001Y-140270000D01*
G75*
G02*
X104385000Y-140519999I0J-249999D01*
G01*
G37*
G36*
G01*
X127360001Y-149200000D02*
X126459999Y-149200000D01*
G75*
G02*
X126210000Y-148950001I0J249999D01*
G01*
X126210000Y-148299999D01*
G75*
G02*
X126459999Y-148050000I249999J0D01*
G01*
X127360001Y-148050000D01*
G75*
G02*
X127610000Y-148299999I0J-249999D01*
G01*
X127610000Y-148950001D01*
G75*
G02*
X127360001Y-149200000I-249999J0D01*
G01*
G37*
G36*
G01*
X127360001Y-151250000D02*
X126459999Y-151250000D01*
G75*
G02*
X126210000Y-151000001I0J249999D01*
G01*
X126210000Y-150349999D01*
G75*
G02*
X126459999Y-150100000I249999J0D01*
G01*
X127360001Y-150100000D01*
G75*
G02*
X127610000Y-150349999I0J-249999D01*
G01*
X127610000Y-151000001D01*
G75*
G02*
X127360001Y-151250000I-249999J0D01*
G01*
G37*
G36*
G01*
X130589999Y-122320000D02*
X131490001Y-122320000D01*
G75*
G02*
X131740000Y-122569999I0J-249999D01*
G01*
X131740000Y-123220001D01*
G75*
G02*
X131490001Y-123470000I-249999J0D01*
G01*
X130589999Y-123470000D01*
G75*
G02*
X130340000Y-123220001I0J249999D01*
G01*
X130340000Y-122569999D01*
G75*
G02*
X130589999Y-122320000I249999J0D01*
G01*
G37*
G36*
G01*
X130589999Y-120270000D02*
X131490001Y-120270000D01*
G75*
G02*
X131740000Y-120519999I0J-249999D01*
G01*
X131740000Y-121170001D01*
G75*
G02*
X131490001Y-121420000I-249999J0D01*
G01*
X130589999Y-121420000D01*
G75*
G02*
X130340000Y-121170001I0J249999D01*
G01*
X130340000Y-120519999D01*
G75*
G02*
X130589999Y-120270000I249999J0D01*
G01*
G37*
G36*
G01*
X131280000Y-110270001D02*
X131280000Y-109369999D01*
G75*
G02*
X131529999Y-109120000I249999J0D01*
G01*
X132180001Y-109120000D01*
G75*
G02*
X132430000Y-109369999I0J-249999D01*
G01*
X132430000Y-110270001D01*
G75*
G02*
X132180001Y-110520000I-249999J0D01*
G01*
X131529999Y-110520000D01*
G75*
G02*
X131280000Y-110270001I0J249999D01*
G01*
G37*
G36*
G01*
X129230000Y-110270001D02*
X129230000Y-109369999D01*
G75*
G02*
X129479999Y-109120000I249999J0D01*
G01*
X130130001Y-109120000D01*
G75*
G02*
X130380000Y-109369999I0J-249999D01*
G01*
X130380000Y-110270001D01*
G75*
G02*
X130130001Y-110520000I-249999J0D01*
G01*
X129479999Y-110520000D01*
G75*
G02*
X129230000Y-110270001I0J249999D01*
G01*
G37*
D29*
X147420000Y-107560000D03*
X147420000Y-110160000D03*
D30*
X119308400Y-130868000D03*
X104008400Y-130868000D03*
M02*
