G04 #@! TF.GenerationSoftware,KiCad,Pcbnew,(5.1.6)-1*
G04 #@! TF.CreationDate,2020-10-17T23:58:27+09:00*
G04 #@! TF.ProjectId,guardianCam_Wifi,67756172-6469-4616-9e43-616d5f576966,rev?*
G04 #@! TF.SameCoordinates,Original*
G04 #@! TF.FileFunction,Soldermask,Top*
G04 #@! TF.FilePolarity,Negative*
%FSLAX46Y46*%
G04 Gerber Fmt 4.6, Leading zero omitted, Abs format (unit mm)*
G04 Created by KiCad (PCBNEW (5.1.6)-1) date 2020-10-17 23:58:27*
%MOMM*%
%LPD*%
G01*
G04 APERTURE LIST*
%ADD10R,0.500000X1.300000*%
%ADD11R,1.070000X1.100000*%
%ADD12R,1.598600X0.404800*%
%ADD13R,1.100000X1.900000*%
%ADD14R,0.350000X0.300000*%
%ADD15R,0.960000X0.500000*%
%ADD16R,1.730000X2.470000*%
%ADD17R,1.649400X1.395400*%
%ADD18R,0.400000X0.800000*%
%ADD19R,1.100000X0.800000*%
%ADD20O,1.200000X2.300000*%
%ADD21O,1.400000X2.700000*%
%ADD22R,1.395400X1.649400*%
%ADD23C,1.600000*%
%ADD24R,0.303200X0.862000*%
%ADD25R,0.862000X0.303200*%
%ADD26R,4.443400X4.443400*%
%ADD27R,1.200000X1.400000*%
%ADD28R,1.160000X0.750000*%
%ADD29C,0.600000*%
%ADD30R,1.300000X0.900000*%
%ADD31R,2.200000X1.500000*%
%ADD32O,1.850000X1.300000*%
%ADD33R,1.700000X0.900000*%
%ADD34R,1.900000X2.300000*%
%ADD35R,0.400000X1.400000*%
G04 APERTURE END LIST*
G36*
G01*
X117685000Y-139231738D02*
X117685000Y-140188262D01*
G75*
G02*
X117413262Y-140460000I-271738J0D01*
G01*
X116706738Y-140460000D01*
G75*
G02*
X116435000Y-140188262I0J271738D01*
G01*
X116435000Y-139231738D01*
G75*
G02*
X116706738Y-138960000I271738J0D01*
G01*
X117413262Y-138960000D01*
G75*
G02*
X117685000Y-139231738I0J-271738D01*
G01*
G37*
G36*
G01*
X119735000Y-139231738D02*
X119735000Y-140188262D01*
G75*
G02*
X119463262Y-140460000I-271738J0D01*
G01*
X118756738Y-140460000D01*
G75*
G02*
X118485000Y-140188262I0J271738D01*
G01*
X118485000Y-139231738D01*
G75*
G02*
X118756738Y-138960000I271738J0D01*
G01*
X119463262Y-138960000D01*
G75*
G02*
X119735000Y-139231738I0J-271738D01*
G01*
G37*
D10*
X134567500Y-138650000D03*
X135202500Y-138650000D03*
X135837500Y-138650000D03*
X136472500Y-138650000D03*
X137107500Y-138650000D03*
X137742500Y-138650000D03*
X138377500Y-138650000D03*
X139012500Y-138650000D03*
X139012500Y-143850000D03*
X138377500Y-143850000D03*
X137742500Y-143850000D03*
X137107500Y-143850000D03*
X136472500Y-143850000D03*
X135837500Y-143850000D03*
X135202500Y-143850000D03*
X134567500Y-143850000D03*
G36*
G01*
X141877711Y-139758404D02*
X141598404Y-140037712D01*
G75*
G02*
X141354452Y-140037712I-121976J121976D01*
G01*
X141110500Y-139793760D01*
G75*
G02*
X141110500Y-139549808I121976J121976D01*
G01*
X141389808Y-139270500D01*
G75*
G02*
X141633760Y-139270500I121976J-121976D01*
G01*
X141877712Y-139514452D01*
G75*
G02*
X141877712Y-139758404I-121976J-121976D01*
G01*
G37*
G36*
G01*
X142563605Y-140444298D02*
X142284298Y-140723606D01*
G75*
G02*
X142040346Y-140723606I-121976J121976D01*
G01*
X141796394Y-140479654D01*
G75*
G02*
X141796394Y-140235702I121976J121976D01*
G01*
X142075702Y-139956394D01*
G75*
G02*
X142319654Y-139956394I121976J-121976D01*
G01*
X142563606Y-140200346D01*
G75*
G02*
X142563606Y-140444298I-121976J-121976D01*
G01*
G37*
G36*
G01*
X141574298Y-142386395D02*
X141853606Y-142665702D01*
G75*
G02*
X141853606Y-142909654I-121976J-121976D01*
G01*
X141609654Y-143153606D01*
G75*
G02*
X141365702Y-143153606I-121976J121976D01*
G01*
X141086394Y-142874298D01*
G75*
G02*
X141086394Y-142630346I121976J121976D01*
G01*
X141330346Y-142386394D01*
G75*
G02*
X141574298Y-142386394I121976J-121976D01*
G01*
G37*
G36*
G01*
X142260192Y-141700501D02*
X142539500Y-141979808D01*
G75*
G02*
X142539500Y-142223760I-121976J-121976D01*
G01*
X142295548Y-142467712D01*
G75*
G02*
X142051596Y-142467712I-121976J121976D01*
G01*
X141772288Y-142188404D01*
G75*
G02*
X141772288Y-141944452I121976J121976D01*
G01*
X142016240Y-141700500D01*
G75*
G02*
X142260192Y-141700500I121976J-121976D01*
G01*
G37*
G36*
G01*
X141341596Y-138687711D02*
X141062288Y-138408404D01*
G75*
G02*
X141062288Y-138164452I121976J121976D01*
G01*
X141306240Y-137920500D01*
G75*
G02*
X141550192Y-137920500I121976J-121976D01*
G01*
X141829500Y-138199808D01*
G75*
G02*
X141829500Y-138443760I-121976J-121976D01*
G01*
X141585548Y-138687712D01*
G75*
G02*
X141341596Y-138687712I-121976J121976D01*
G01*
G37*
G36*
G01*
X140655702Y-139373605D02*
X140376394Y-139094298D01*
G75*
G02*
X140376394Y-138850346I121976J121976D01*
G01*
X140620346Y-138606394D01*
G75*
G02*
X140864298Y-138606394I121976J-121976D01*
G01*
X141143606Y-138885702D01*
G75*
G02*
X141143606Y-139129654I-121976J-121976D01*
G01*
X140899654Y-139373606D01*
G75*
G02*
X140655702Y-139373606I-121976J121976D01*
G01*
G37*
G36*
G01*
X141102289Y-144021596D02*
X141381596Y-143742288D01*
G75*
G02*
X141625548Y-143742288I121976J-121976D01*
G01*
X141869500Y-143986240D01*
G75*
G02*
X141869500Y-144230192I-121976J-121976D01*
G01*
X141590192Y-144509500D01*
G75*
G02*
X141346240Y-144509500I-121976J121976D01*
G01*
X141102288Y-144265548D01*
G75*
G02*
X141102288Y-144021596I121976J121976D01*
G01*
G37*
G36*
G01*
X140416395Y-143335702D02*
X140695702Y-143056394D01*
G75*
G02*
X140939654Y-143056394I121976J-121976D01*
G01*
X141183606Y-143300346D01*
G75*
G02*
X141183606Y-143544298I-121976J-121976D01*
G01*
X140904298Y-143823606D01*
G75*
G02*
X140660346Y-143823606I-121976J121976D01*
G01*
X140416394Y-143579654D01*
G75*
G02*
X140416394Y-143335702I121976J121976D01*
G01*
G37*
D11*
X129100000Y-147060000D03*
X129100000Y-148530000D03*
G36*
G01*
X131440000Y-143661738D02*
X131440000Y-144618262D01*
G75*
G02*
X131168262Y-144890000I-271738J0D01*
G01*
X130461738Y-144890000D01*
G75*
G02*
X130190000Y-144618262I0J271738D01*
G01*
X130190000Y-143661738D01*
G75*
G02*
X130461738Y-143390000I271738J0D01*
G01*
X131168262Y-143390000D01*
G75*
G02*
X131440000Y-143661738I0J-271738D01*
G01*
G37*
G36*
G01*
X133490000Y-143661738D02*
X133490000Y-144618262D01*
G75*
G02*
X133218262Y-144890000I-271738J0D01*
G01*
X132511738Y-144890000D01*
G75*
G02*
X132240000Y-144618262I0J271738D01*
G01*
X132240000Y-143661738D01*
G75*
G02*
X132511738Y-143390000I271738J0D01*
G01*
X133218262Y-143390000D01*
G75*
G02*
X133490000Y-143661738I0J-271738D01*
G01*
G37*
D12*
X136977400Y-148160600D03*
X136977400Y-147678000D03*
X136977400Y-147170000D03*
X136977400Y-146662000D03*
X136977400Y-146179400D03*
X132862600Y-146179400D03*
X132862600Y-146662000D03*
X132862600Y-147170000D03*
X132862600Y-147678000D03*
X132862600Y-148160600D03*
G36*
G01*
X112850000Y-150671738D02*
X112850000Y-151628262D01*
G75*
G02*
X112578262Y-151900000I-271738J0D01*
G01*
X111871738Y-151900000D01*
G75*
G02*
X111600000Y-151628262I0J271738D01*
G01*
X111600000Y-150671738D01*
G75*
G02*
X111871738Y-150400000I271738J0D01*
G01*
X112578262Y-150400000D01*
G75*
G02*
X112850000Y-150671738I0J-271738D01*
G01*
G37*
G36*
G01*
X114900000Y-150671738D02*
X114900000Y-151628262D01*
G75*
G02*
X114628262Y-151900000I-271738J0D01*
G01*
X113921738Y-151900000D01*
G75*
G02*
X113650000Y-151628262I0J271738D01*
G01*
X113650000Y-150671738D01*
G75*
G02*
X113921738Y-150400000I271738J0D01*
G01*
X114628262Y-150400000D01*
G75*
G02*
X114900000Y-150671738I0J-271738D01*
G01*
G37*
D13*
X115530000Y-153910000D03*
D14*
X116380000Y-154660000D03*
X116380000Y-154160000D03*
X116380000Y-153660000D03*
X116380000Y-153160000D03*
X114680000Y-154660000D03*
X114680000Y-154160000D03*
X114680000Y-153660000D03*
X114680000Y-153160000D03*
G36*
G01*
X116468262Y-145150000D02*
X115511738Y-145150000D01*
G75*
G02*
X115240000Y-144878262I0J271738D01*
G01*
X115240000Y-144171738D01*
G75*
G02*
X115511738Y-143900000I271738J0D01*
G01*
X116468262Y-143900000D01*
G75*
G02*
X116740000Y-144171738I0J-271738D01*
G01*
X116740000Y-144878262D01*
G75*
G02*
X116468262Y-145150000I-271738J0D01*
G01*
G37*
G36*
G01*
X116468262Y-147200000D02*
X115511738Y-147200000D01*
G75*
G02*
X115240000Y-146928262I0J271738D01*
G01*
X115240000Y-146221738D01*
G75*
G02*
X115511738Y-145950000I271738J0D01*
G01*
X116468262Y-145950000D01*
G75*
G02*
X116740000Y-146221738I0J-271738D01*
G01*
X116740000Y-146928262D01*
G75*
G02*
X116468262Y-147200000I-271738J0D01*
G01*
G37*
D15*
X123225000Y-152360000D03*
X123225000Y-153310000D03*
X123225000Y-154260000D03*
X126095000Y-154260000D03*
X126095000Y-153310000D03*
X126095000Y-152360000D03*
D16*
X124660000Y-153310000D03*
D17*
X127304998Y-146480001D03*
X127304998Y-141979999D03*
X119355002Y-141979999D03*
X119355002Y-146480001D03*
D18*
X142320000Y-148840000D03*
X142820000Y-148840000D03*
X143320000Y-148840000D03*
X143820000Y-148840000D03*
X144320000Y-148840000D03*
X144820000Y-148840000D03*
X145820000Y-148840000D03*
X146320000Y-148840000D03*
X146820000Y-148840000D03*
X147320000Y-148840000D03*
X147820000Y-148840000D03*
X148320000Y-148840000D03*
D19*
X148420000Y-150140000D03*
D18*
X147570000Y-150140000D03*
X147070000Y-150140000D03*
X146570000Y-150140000D03*
X146070000Y-150140000D03*
X145570000Y-150140000D03*
X145070000Y-150140000D03*
X144570000Y-150140000D03*
X144070000Y-150140000D03*
X143570000Y-150140000D03*
X143070000Y-150140000D03*
D19*
X142220000Y-150140000D03*
D20*
X141000000Y-149250000D03*
X149640000Y-149250000D03*
D21*
X141000000Y-154610000D03*
X149640000Y-154610000D03*
D22*
X106860001Y-146685002D03*
X102359999Y-146685002D03*
X102359999Y-154634998D03*
X106860001Y-154634998D03*
D23*
X147290000Y-136890000D03*
X144750000Y-136890000D03*
X131620000Y-139500000D03*
X149830000Y-139420000D03*
X147290000Y-139430000D03*
X144750000Y-139430000D03*
X149830000Y-136890000D03*
X124000000Y-139500000D03*
X126540000Y-139500000D03*
X129080000Y-139500000D03*
G36*
G01*
X123975000Y-114308262D02*
X123975000Y-113351738D01*
G75*
G02*
X124246738Y-113080000I271738J0D01*
G01*
X124953262Y-113080000D01*
G75*
G02*
X125225000Y-113351738I0J-271738D01*
G01*
X125225000Y-114308262D01*
G75*
G02*
X124953262Y-114580000I-271738J0D01*
G01*
X124246738Y-114580000D01*
G75*
G02*
X123975000Y-114308262I0J271738D01*
G01*
G37*
G36*
G01*
X121925000Y-114308262D02*
X121925000Y-113351738D01*
G75*
G02*
X122196738Y-113080000I271738J0D01*
G01*
X122903262Y-113080000D01*
G75*
G02*
X123175000Y-113351738I0J-271738D01*
G01*
X123175000Y-114308262D01*
G75*
G02*
X122903262Y-114580000I-271738J0D01*
G01*
X122196738Y-114580000D01*
G75*
G02*
X121925000Y-114308262I0J271738D01*
G01*
G37*
D24*
X143040001Y-124523600D03*
X142639999Y-124523600D03*
X142240000Y-124523600D03*
X141840001Y-124523600D03*
X141439999Y-124523600D03*
X141040000Y-124523600D03*
X140640000Y-124523600D03*
X140240001Y-124523600D03*
X139839999Y-124523600D03*
X139440000Y-124523600D03*
X139040001Y-124523600D03*
X138639999Y-124523600D03*
D25*
X137893600Y-125269999D03*
X137893600Y-125670001D03*
X137893600Y-126070000D03*
X137893600Y-126469999D03*
X137893600Y-126870001D03*
X137893600Y-127270000D03*
X137893600Y-127670000D03*
X137893600Y-128069999D03*
X137893600Y-128470001D03*
X137893600Y-128870000D03*
X137893600Y-129269999D03*
X137893600Y-129670001D03*
D24*
X138639999Y-130416400D03*
X139040001Y-130416400D03*
X139440000Y-130416400D03*
X139839999Y-130416400D03*
X140240001Y-130416400D03*
X140640000Y-130416400D03*
X141040000Y-130416400D03*
X141439999Y-130416400D03*
X141840001Y-130416400D03*
X142240000Y-130416400D03*
X142639999Y-130416400D03*
X143040001Y-130416400D03*
D25*
X143786400Y-129670001D03*
X143786400Y-129269999D03*
X143786400Y-128870000D03*
X143786400Y-128470001D03*
X143786400Y-128069999D03*
X143786400Y-127670000D03*
X143786400Y-127270000D03*
X143786400Y-126870001D03*
X143786400Y-126469999D03*
X143786400Y-126070000D03*
X143786400Y-125670001D03*
X143786400Y-125269999D03*
D26*
X140840000Y-127470000D03*
D27*
X146740000Y-126870000D03*
X146740000Y-129170000D03*
X148540000Y-129170000D03*
X148540000Y-126870000D03*
D28*
X101680000Y-139110000D03*
X101680000Y-137210000D03*
X103880000Y-137210000D03*
X103880000Y-138160000D03*
X103880000Y-139110000D03*
X106140000Y-140950000D03*
X106140000Y-139050000D03*
X108340000Y-139050000D03*
X108340000Y-140000000D03*
X108340000Y-140950000D03*
G36*
G01*
X110391738Y-143425000D02*
X111348262Y-143425000D01*
G75*
G02*
X111620000Y-143696738I0J-271738D01*
G01*
X111620000Y-144403262D01*
G75*
G02*
X111348262Y-144675000I-271738J0D01*
G01*
X110391738Y-144675000D01*
G75*
G02*
X110120000Y-144403262I0J271738D01*
G01*
X110120000Y-143696738D01*
G75*
G02*
X110391738Y-143425000I271738J0D01*
G01*
G37*
G36*
G01*
X110391738Y-141375000D02*
X111348262Y-141375000D01*
G75*
G02*
X111620000Y-141646738I0J-271738D01*
G01*
X111620000Y-142353262D01*
G75*
G02*
X111348262Y-142625000I-271738J0D01*
G01*
X110391738Y-142625000D01*
G75*
G02*
X110120000Y-142353262I0J271738D01*
G01*
X110120000Y-141646738D01*
G75*
G02*
X110391738Y-141375000I271738J0D01*
G01*
G37*
G36*
G01*
X136025000Y-136838262D02*
X136025000Y-135881738D01*
G75*
G02*
X136296738Y-135610000I271738J0D01*
G01*
X137003262Y-135610000D01*
G75*
G02*
X137275000Y-135881738I0J-271738D01*
G01*
X137275000Y-136838262D01*
G75*
G02*
X137003262Y-137110000I-271738J0D01*
G01*
X136296738Y-137110000D01*
G75*
G02*
X136025000Y-136838262I0J271738D01*
G01*
G37*
G36*
G01*
X133975000Y-136838262D02*
X133975000Y-135881738D01*
G75*
G02*
X134246738Y-135610000I271738J0D01*
G01*
X134953262Y-135610000D01*
G75*
G02*
X135225000Y-135881738I0J-271738D01*
G01*
X135225000Y-136838262D01*
G75*
G02*
X134953262Y-137110000I-271738J0D01*
G01*
X134246738Y-137110000D01*
G75*
G02*
X133975000Y-136838262I0J271738D01*
G01*
G37*
G36*
G01*
X118135000Y-108368262D02*
X118135000Y-107411738D01*
G75*
G02*
X118406738Y-107140000I271738J0D01*
G01*
X119113262Y-107140000D01*
G75*
G02*
X119385000Y-107411738I0J-271738D01*
G01*
X119385000Y-108368262D01*
G75*
G02*
X119113262Y-108640000I-271738J0D01*
G01*
X118406738Y-108640000D01*
G75*
G02*
X118135000Y-108368262I0J271738D01*
G01*
G37*
G36*
G01*
X116085000Y-108368262D02*
X116085000Y-107411738D01*
G75*
G02*
X116356738Y-107140000I271738J0D01*
G01*
X117063262Y-107140000D01*
G75*
G02*
X117335000Y-107411738I0J-271738D01*
G01*
X117335000Y-108368262D01*
G75*
G02*
X117063262Y-108640000I-271738J0D01*
G01*
X116356738Y-108640000D01*
G75*
G02*
X116085000Y-108368262I0J271738D01*
G01*
G37*
G36*
G01*
X149088262Y-121395000D02*
X148131738Y-121395000D01*
G75*
G02*
X147860000Y-121123262I0J271738D01*
G01*
X147860000Y-120416738D01*
G75*
G02*
X148131738Y-120145000I271738J0D01*
G01*
X149088262Y-120145000D01*
G75*
G02*
X149360000Y-120416738I0J-271738D01*
G01*
X149360000Y-121123262D01*
G75*
G02*
X149088262Y-121395000I-271738J0D01*
G01*
G37*
G36*
G01*
X149088262Y-123445000D02*
X148131738Y-123445000D01*
G75*
G02*
X147860000Y-123173262I0J271738D01*
G01*
X147860000Y-122466738D01*
G75*
G02*
X148131738Y-122195000I271738J0D01*
G01*
X149088262Y-122195000D01*
G75*
G02*
X149360000Y-122466738I0J-271738D01*
G01*
X149360000Y-123173262D01*
G75*
G02*
X149088262Y-123445000I-271738J0D01*
G01*
G37*
G36*
G01*
X125788262Y-120525000D02*
X124831738Y-120525000D01*
G75*
G02*
X124560000Y-120253262I0J271738D01*
G01*
X124560000Y-119546738D01*
G75*
G02*
X124831738Y-119275000I271738J0D01*
G01*
X125788262Y-119275000D01*
G75*
G02*
X126060000Y-119546738I0J-271738D01*
G01*
X126060000Y-120253262D01*
G75*
G02*
X125788262Y-120525000I-271738J0D01*
G01*
G37*
G36*
G01*
X125788262Y-122575000D02*
X124831738Y-122575000D01*
G75*
G02*
X124560000Y-122303262I0J271738D01*
G01*
X124560000Y-121596738D01*
G75*
G02*
X124831738Y-121325000I271738J0D01*
G01*
X125788262Y-121325000D01*
G75*
G02*
X126060000Y-121596738I0J-271738D01*
G01*
X126060000Y-122303262D01*
G75*
G02*
X125788262Y-122575000I-271738J0D01*
G01*
G37*
G36*
G01*
X127461738Y-109365000D02*
X128418262Y-109365000D01*
G75*
G02*
X128690000Y-109636738I0J-271738D01*
G01*
X128690000Y-110343262D01*
G75*
G02*
X128418262Y-110615000I-271738J0D01*
G01*
X127461738Y-110615000D01*
G75*
G02*
X127190000Y-110343262I0J271738D01*
G01*
X127190000Y-109636738D01*
G75*
G02*
X127461738Y-109365000I271738J0D01*
G01*
G37*
G36*
G01*
X127461738Y-107315000D02*
X128418262Y-107315000D01*
G75*
G02*
X128690000Y-107586738I0J-271738D01*
G01*
X128690000Y-108293262D01*
G75*
G02*
X128418262Y-108565000I-271738J0D01*
G01*
X127461738Y-108565000D01*
G75*
G02*
X127190000Y-108293262I0J271738D01*
G01*
X127190000Y-107586738D01*
G75*
G02*
X127461738Y-107315000I271738J0D01*
G01*
G37*
G36*
G01*
X125401738Y-109415000D02*
X126358262Y-109415000D01*
G75*
G02*
X126630000Y-109686738I0J-271738D01*
G01*
X126630000Y-110393262D01*
G75*
G02*
X126358262Y-110665000I-271738J0D01*
G01*
X125401738Y-110665000D01*
G75*
G02*
X125130000Y-110393262I0J271738D01*
G01*
X125130000Y-109686738D01*
G75*
G02*
X125401738Y-109415000I271738J0D01*
G01*
G37*
G36*
G01*
X125401738Y-107365000D02*
X126358262Y-107365000D01*
G75*
G02*
X126630000Y-107636738I0J-271738D01*
G01*
X126630000Y-108343262D01*
G75*
G02*
X126358262Y-108615000I-271738J0D01*
G01*
X125401738Y-108615000D01*
G75*
G02*
X125130000Y-108343262I0J271738D01*
G01*
X125130000Y-107636738D01*
G75*
G02*
X125401738Y-107365000I271738J0D01*
G01*
G37*
G36*
G01*
X136078262Y-109505000D02*
X135121738Y-109505000D01*
G75*
G02*
X134850000Y-109233262I0J271738D01*
G01*
X134850000Y-108526738D01*
G75*
G02*
X135121738Y-108255000I271738J0D01*
G01*
X136078262Y-108255000D01*
G75*
G02*
X136350000Y-108526738I0J-271738D01*
G01*
X136350000Y-109233262D01*
G75*
G02*
X136078262Y-109505000I-271738J0D01*
G01*
G37*
G36*
G01*
X136078262Y-111555000D02*
X135121738Y-111555000D01*
G75*
G02*
X134850000Y-111283262I0J271738D01*
G01*
X134850000Y-110576738D01*
G75*
G02*
X135121738Y-110305000I271738J0D01*
G01*
X136078262Y-110305000D01*
G75*
G02*
X136350000Y-110576738I0J-271738D01*
G01*
X136350000Y-111283262D01*
G75*
G02*
X136078262Y-111555000I-271738J0D01*
G01*
G37*
G36*
G01*
X137705000Y-112451738D02*
X137705000Y-113408262D01*
G75*
G02*
X137433262Y-113680000I-271738J0D01*
G01*
X136726738Y-113680000D01*
G75*
G02*
X136455000Y-113408262I0J271738D01*
G01*
X136455000Y-112451738D01*
G75*
G02*
X136726738Y-112180000I271738J0D01*
G01*
X137433262Y-112180000D01*
G75*
G02*
X137705000Y-112451738I0J-271738D01*
G01*
G37*
G36*
G01*
X139755000Y-112451738D02*
X139755000Y-113408262D01*
G75*
G02*
X139483262Y-113680000I-271738J0D01*
G01*
X138776738Y-113680000D01*
G75*
G02*
X138505000Y-113408262I0J271738D01*
G01*
X138505000Y-112451738D01*
G75*
G02*
X138776738Y-112180000I271738J0D01*
G01*
X139483262Y-112180000D01*
G75*
G02*
X139755000Y-112451738I0J-271738D01*
G01*
G37*
D29*
X138380000Y-108560000D03*
G36*
G01*
X142151738Y-119295000D02*
X143108262Y-119295000D01*
G75*
G02*
X143380000Y-119566738I0J-271738D01*
G01*
X143380000Y-120273262D01*
G75*
G02*
X143108262Y-120545000I-271738J0D01*
G01*
X142151738Y-120545000D01*
G75*
G02*
X141880000Y-120273262I0J271738D01*
G01*
X141880000Y-119566738D01*
G75*
G02*
X142151738Y-119295000I271738J0D01*
G01*
G37*
G36*
G01*
X142151738Y-117245000D02*
X143108262Y-117245000D01*
G75*
G02*
X143380000Y-117516738I0J-271738D01*
G01*
X143380000Y-118223262D01*
G75*
G02*
X143108262Y-118495000I-271738J0D01*
G01*
X142151738Y-118495000D01*
G75*
G02*
X141880000Y-118223262I0J271738D01*
G01*
X141880000Y-117516738D01*
G75*
G02*
X142151738Y-117245000I271738J0D01*
G01*
G37*
D30*
X105100000Y-142980000D03*
X105100000Y-144780000D03*
G36*
G01*
X111465000Y-146655000D02*
X110155000Y-146655000D01*
G75*
G02*
X109885000Y-146385000I0J270000D01*
G01*
X109885000Y-145575000D01*
G75*
G02*
X110155000Y-145305000I270000J0D01*
G01*
X111465000Y-145305000D01*
G75*
G02*
X111735000Y-145575000I0J-270000D01*
G01*
X111735000Y-146385000D01*
G75*
G02*
X111465000Y-146655000I-270000J0D01*
G01*
G37*
G36*
G01*
X111465000Y-149455000D02*
X110155000Y-149455000D01*
G75*
G02*
X109885000Y-149185000I0J270000D01*
G01*
X109885000Y-148375000D01*
G75*
G02*
X110155000Y-148105000I270000J0D01*
G01*
X111465000Y-148105000D01*
G75*
G02*
X111735000Y-148375000I0J-270000D01*
G01*
X111735000Y-149185000D01*
G75*
G02*
X111465000Y-149455000I-270000J0D01*
G01*
G37*
G36*
G01*
X139947500Y-136841250D02*
X139947500Y-135878750D01*
G75*
G02*
X140216250Y-135610000I268750J0D01*
G01*
X140753750Y-135610000D01*
G75*
G02*
X141022500Y-135878750I0J-268750D01*
G01*
X141022500Y-136841250D01*
G75*
G02*
X140753750Y-137110000I-268750J0D01*
G01*
X140216250Y-137110000D01*
G75*
G02*
X139947500Y-136841250I0J268750D01*
G01*
G37*
G36*
G01*
X138072500Y-136841250D02*
X138072500Y-135878750D01*
G75*
G02*
X138341250Y-135610000I268750J0D01*
G01*
X138878750Y-135610000D01*
G75*
G02*
X139147500Y-135878750I0J-268750D01*
G01*
X139147500Y-136841250D01*
G75*
G02*
X138878750Y-137110000I-268750J0D01*
G01*
X138341250Y-137110000D01*
G75*
G02*
X138072500Y-136841250I0J268750D01*
G01*
G37*
G36*
G01*
X147615000Y-145125000D02*
X148925000Y-145125000D01*
G75*
G02*
X149195000Y-145395000I0J-270000D01*
G01*
X149195000Y-146205000D01*
G75*
G02*
X148925000Y-146475000I-270000J0D01*
G01*
X147615000Y-146475000D01*
G75*
G02*
X147345000Y-146205000I0J270000D01*
G01*
X147345000Y-145395000D01*
G75*
G02*
X147615000Y-145125000I270000J0D01*
G01*
G37*
G36*
G01*
X147615000Y-142325000D02*
X148925000Y-142325000D01*
G75*
G02*
X149195000Y-142595000I0J-270000D01*
G01*
X149195000Y-143405000D01*
G75*
G02*
X148925000Y-143675000I-270000J0D01*
G01*
X147615000Y-143675000D01*
G75*
G02*
X147345000Y-143405000I0J270000D01*
G01*
X147345000Y-142595000D01*
G75*
G02*
X147615000Y-142325000I270000J0D01*
G01*
G37*
D31*
X137320000Y-154040000D03*
X137320000Y-149640000D03*
G36*
G01*
X137185000Y-133308262D02*
X137185000Y-132351738D01*
G75*
G02*
X137456738Y-132080000I271738J0D01*
G01*
X138163262Y-132080000D01*
G75*
G02*
X138435000Y-132351738I0J-271738D01*
G01*
X138435000Y-133308262D01*
G75*
G02*
X138163262Y-133580000I-271738J0D01*
G01*
X137456738Y-133580000D01*
G75*
G02*
X137185000Y-133308262I0J271738D01*
G01*
G37*
G36*
G01*
X135135000Y-133308262D02*
X135135000Y-132351738D01*
G75*
G02*
X135406738Y-132080000I271738J0D01*
G01*
X136113262Y-132080000D01*
G75*
G02*
X136385000Y-132351738I0J-271738D01*
G01*
X136385000Y-133308262D01*
G75*
G02*
X136113262Y-133580000I-271738J0D01*
G01*
X135406738Y-133580000D01*
G75*
G02*
X135135000Y-133308262I0J271738D01*
G01*
G37*
G36*
G01*
X133851738Y-129070000D02*
X134808262Y-129070000D01*
G75*
G02*
X135080000Y-129341738I0J-271738D01*
G01*
X135080000Y-130048262D01*
G75*
G02*
X134808262Y-130320000I-271738J0D01*
G01*
X133851738Y-130320000D01*
G75*
G02*
X133580000Y-130048262I0J271738D01*
G01*
X133580000Y-129341738D01*
G75*
G02*
X133851738Y-129070000I271738J0D01*
G01*
G37*
G36*
G01*
X133851738Y-127020000D02*
X134808262Y-127020000D01*
G75*
G02*
X135080000Y-127291738I0J-271738D01*
G01*
X135080000Y-127998262D01*
G75*
G02*
X134808262Y-128270000I-271738J0D01*
G01*
X133851738Y-128270000D01*
G75*
G02*
X133580000Y-127998262I0J271738D01*
G01*
X133580000Y-127291738D01*
G75*
G02*
X133851738Y-127020000I271738J0D01*
G01*
G37*
G36*
G01*
X135971738Y-120075000D02*
X136928262Y-120075000D01*
G75*
G02*
X137200000Y-120346738I0J-271738D01*
G01*
X137200000Y-121053262D01*
G75*
G02*
X136928262Y-121325000I-271738J0D01*
G01*
X135971738Y-121325000D01*
G75*
G02*
X135700000Y-121053262I0J271738D01*
G01*
X135700000Y-120346738D01*
G75*
G02*
X135971738Y-120075000I271738J0D01*
G01*
G37*
G36*
G01*
X135971738Y-118025000D02*
X136928262Y-118025000D01*
G75*
G02*
X137200000Y-118296738I0J-271738D01*
G01*
X137200000Y-119003262D01*
G75*
G02*
X136928262Y-119275000I-271738J0D01*
G01*
X135971738Y-119275000D01*
G75*
G02*
X135700000Y-119003262I0J271738D01*
G01*
X135700000Y-118296738D01*
G75*
G02*
X135971738Y-118025000I271738J0D01*
G01*
G37*
G36*
G01*
X137995000Y-117328262D02*
X137995000Y-116371738D01*
G75*
G02*
X138266738Y-116100000I271738J0D01*
G01*
X138973262Y-116100000D01*
G75*
G02*
X139245000Y-116371738I0J-271738D01*
G01*
X139245000Y-117328262D01*
G75*
G02*
X138973262Y-117600000I-271738J0D01*
G01*
X138266738Y-117600000D01*
G75*
G02*
X137995000Y-117328262I0J271738D01*
G01*
G37*
G36*
G01*
X135945000Y-117328262D02*
X135945000Y-116371738D01*
G75*
G02*
X136216738Y-116100000I271738J0D01*
G01*
X136923262Y-116100000D01*
G75*
G02*
X137195000Y-116371738I0J-271738D01*
G01*
X137195000Y-117328262D01*
G75*
G02*
X136923262Y-117600000I-271738J0D01*
G01*
X136216738Y-117600000D01*
G75*
G02*
X135945000Y-117328262I0J271738D01*
G01*
G37*
G36*
G01*
X151278262Y-127885000D02*
X150321738Y-127885000D01*
G75*
G02*
X150050000Y-127613262I0J271738D01*
G01*
X150050000Y-126906738D01*
G75*
G02*
X150321738Y-126635000I271738J0D01*
G01*
X151278262Y-126635000D01*
G75*
G02*
X151550000Y-126906738I0J-271738D01*
G01*
X151550000Y-127613262D01*
G75*
G02*
X151278262Y-127885000I-271738J0D01*
G01*
G37*
G36*
G01*
X151278262Y-129935000D02*
X150321738Y-129935000D01*
G75*
G02*
X150050000Y-129663262I0J271738D01*
G01*
X150050000Y-128956738D01*
G75*
G02*
X150321738Y-128685000I271738J0D01*
G01*
X151278262Y-128685000D01*
G75*
G02*
X151550000Y-128956738I0J-271738D01*
G01*
X151550000Y-129663262D01*
G75*
G02*
X151278262Y-129935000I-271738J0D01*
G01*
G37*
G36*
G01*
X150181738Y-124285000D02*
X151138262Y-124285000D01*
G75*
G02*
X151410000Y-124556738I0J-271738D01*
G01*
X151410000Y-125263262D01*
G75*
G02*
X151138262Y-125535000I-271738J0D01*
G01*
X150181738Y-125535000D01*
G75*
G02*
X149910000Y-125263262I0J271738D01*
G01*
X149910000Y-124556738D01*
G75*
G02*
X150181738Y-124285000I271738J0D01*
G01*
G37*
G36*
G01*
X150181738Y-122235000D02*
X151138262Y-122235000D01*
G75*
G02*
X151410000Y-122506738I0J-271738D01*
G01*
X151410000Y-123213262D01*
G75*
G02*
X151138262Y-123485000I-271738J0D01*
G01*
X150181738Y-123485000D01*
G75*
G02*
X149910000Y-123213262I0J271738D01*
G01*
X149910000Y-122506738D01*
G75*
G02*
X150181738Y-122235000I271738J0D01*
G01*
G37*
G36*
G01*
X144025000Y-122208262D02*
X144025000Y-121251738D01*
G75*
G02*
X144296738Y-120980000I271738J0D01*
G01*
X145003262Y-120980000D01*
G75*
G02*
X145275000Y-121251738I0J-271738D01*
G01*
X145275000Y-122208262D01*
G75*
G02*
X145003262Y-122480000I-271738J0D01*
G01*
X144296738Y-122480000D01*
G75*
G02*
X144025000Y-122208262I0J271738D01*
G01*
G37*
G36*
G01*
X141975000Y-122208262D02*
X141975000Y-121251738D01*
G75*
G02*
X142246738Y-120980000I271738J0D01*
G01*
X142953262Y-120980000D01*
G75*
G02*
X143225000Y-121251738I0J-271738D01*
G01*
X143225000Y-122208262D01*
G75*
G02*
X142953262Y-122480000I-271738J0D01*
G01*
X142246738Y-122480000D01*
G75*
G02*
X141975000Y-122208262I0J271738D01*
G01*
G37*
G36*
G01*
X144065000Y-116558262D02*
X144065000Y-115601738D01*
G75*
G02*
X144336738Y-115330000I271738J0D01*
G01*
X145043262Y-115330000D01*
G75*
G02*
X145315000Y-115601738I0J-271738D01*
G01*
X145315000Y-116558262D01*
G75*
G02*
X145043262Y-116830000I-271738J0D01*
G01*
X144336738Y-116830000D01*
G75*
G02*
X144065000Y-116558262I0J271738D01*
G01*
G37*
G36*
G01*
X142015000Y-116558262D02*
X142015000Y-115601738D01*
G75*
G02*
X142286738Y-115330000I271738J0D01*
G01*
X142993262Y-115330000D01*
G75*
G02*
X143265000Y-115601738I0J-271738D01*
G01*
X143265000Y-116558262D01*
G75*
G02*
X142993262Y-116830000I-271738J0D01*
G01*
X142286738Y-116830000D01*
G75*
G02*
X142015000Y-116558262I0J271738D01*
G01*
G37*
G36*
G01*
X148025000Y-125168262D02*
X148025000Y-124211738D01*
G75*
G02*
X148296738Y-123940000I271738J0D01*
G01*
X149003262Y-123940000D01*
G75*
G02*
X149275000Y-124211738I0J-271738D01*
G01*
X149275000Y-125168262D01*
G75*
G02*
X149003262Y-125440000I-271738J0D01*
G01*
X148296738Y-125440000D01*
G75*
G02*
X148025000Y-125168262I0J271738D01*
G01*
G37*
G36*
G01*
X145975000Y-125168262D02*
X145975000Y-124211738D01*
G75*
G02*
X146246738Y-123940000I271738J0D01*
G01*
X146953262Y-123940000D01*
G75*
G02*
X147225000Y-124211738I0J-271738D01*
G01*
X147225000Y-125168262D01*
G75*
G02*
X146953262Y-125440000I-271738J0D01*
G01*
X146246738Y-125440000D01*
G75*
G02*
X145975000Y-125168262I0J271738D01*
G01*
G37*
G36*
G01*
X127135000Y-112308262D02*
X127135000Y-111351738D01*
G75*
G02*
X127406738Y-111080000I271738J0D01*
G01*
X128113262Y-111080000D01*
G75*
G02*
X128385000Y-111351738I0J-271738D01*
G01*
X128385000Y-112308262D01*
G75*
G02*
X128113262Y-112580000I-271738J0D01*
G01*
X127406738Y-112580000D01*
G75*
G02*
X127135000Y-112308262I0J271738D01*
G01*
G37*
G36*
G01*
X125085000Y-112308262D02*
X125085000Y-111351738D01*
G75*
G02*
X125356738Y-111080000I271738J0D01*
G01*
X126063262Y-111080000D01*
G75*
G02*
X126335000Y-111351738I0J-271738D01*
G01*
X126335000Y-112308262D01*
G75*
G02*
X126063262Y-112580000I-271738J0D01*
G01*
X125356738Y-112580000D01*
G75*
G02*
X125085000Y-112308262I0J271738D01*
G01*
G37*
G36*
G01*
X133778262Y-120415000D02*
X132821738Y-120415000D01*
G75*
G02*
X132550000Y-120143262I0J271738D01*
G01*
X132550000Y-119436738D01*
G75*
G02*
X132821738Y-119165000I271738J0D01*
G01*
X133778262Y-119165000D01*
G75*
G02*
X134050000Y-119436738I0J-271738D01*
G01*
X134050000Y-120143262D01*
G75*
G02*
X133778262Y-120415000I-271738J0D01*
G01*
G37*
G36*
G01*
X133778262Y-122465000D02*
X132821738Y-122465000D01*
G75*
G02*
X132550000Y-122193262I0J271738D01*
G01*
X132550000Y-121486738D01*
G75*
G02*
X132821738Y-121215000I271738J0D01*
G01*
X133778262Y-121215000D01*
G75*
G02*
X134050000Y-121486738I0J-271738D01*
G01*
X134050000Y-122193262D01*
G75*
G02*
X133778262Y-122465000I-271738J0D01*
G01*
G37*
G36*
G01*
X123925000Y-116458262D02*
X123925000Y-115501738D01*
G75*
G02*
X124196738Y-115230000I271738J0D01*
G01*
X124903262Y-115230000D01*
G75*
G02*
X125175000Y-115501738I0J-271738D01*
G01*
X125175000Y-116458262D01*
G75*
G02*
X124903262Y-116730000I-271738J0D01*
G01*
X124196738Y-116730000D01*
G75*
G02*
X123925000Y-116458262I0J271738D01*
G01*
G37*
G36*
G01*
X121875000Y-116458262D02*
X121875000Y-115501738D01*
G75*
G02*
X122146738Y-115230000I271738J0D01*
G01*
X122853262Y-115230000D01*
G75*
G02*
X123125000Y-115501738I0J-271738D01*
G01*
X123125000Y-116458262D01*
G75*
G02*
X122853262Y-116730000I-271738J0D01*
G01*
X122146738Y-116730000D01*
G75*
G02*
X121875000Y-116458262I0J271738D01*
G01*
G37*
G36*
G01*
X122835000Y-118418262D02*
X122835000Y-117461738D01*
G75*
G02*
X123106738Y-117190000I271738J0D01*
G01*
X123813262Y-117190000D01*
G75*
G02*
X124085000Y-117461738I0J-271738D01*
G01*
X124085000Y-118418262D01*
G75*
G02*
X123813262Y-118690000I-271738J0D01*
G01*
X123106738Y-118690000D01*
G75*
G02*
X122835000Y-118418262I0J271738D01*
G01*
G37*
G36*
G01*
X120785000Y-118418262D02*
X120785000Y-117461738D01*
G75*
G02*
X121056738Y-117190000I271738J0D01*
G01*
X121763262Y-117190000D01*
G75*
G02*
X122035000Y-117461738I0J-271738D01*
G01*
X122035000Y-118418262D01*
G75*
G02*
X121763262Y-118690000I-271738J0D01*
G01*
X121056738Y-118690000D01*
G75*
G02*
X120785000Y-118418262I0J271738D01*
G01*
G37*
G36*
G01*
X122900000Y-122478262D02*
X122900000Y-121521738D01*
G75*
G02*
X123171738Y-121250000I271738J0D01*
G01*
X123878262Y-121250000D01*
G75*
G02*
X124150000Y-121521738I0J-271738D01*
G01*
X124150000Y-122478262D01*
G75*
G02*
X123878262Y-122750000I-271738J0D01*
G01*
X123171738Y-122750000D01*
G75*
G02*
X122900000Y-122478262I0J271738D01*
G01*
G37*
G36*
G01*
X120850000Y-122478262D02*
X120850000Y-121521738D01*
G75*
G02*
X121121738Y-121250000I271738J0D01*
G01*
X121828262Y-121250000D01*
G75*
G02*
X122100000Y-121521738I0J-271738D01*
G01*
X122100000Y-122478262D01*
G75*
G02*
X121828262Y-122750000I-271738J0D01*
G01*
X121121738Y-122750000D01*
G75*
G02*
X120850000Y-122478262I0J271738D01*
G01*
G37*
G36*
G01*
X122900000Y-120478262D02*
X122900000Y-119521738D01*
G75*
G02*
X123171738Y-119250000I271738J0D01*
G01*
X123878262Y-119250000D01*
G75*
G02*
X124150000Y-119521738I0J-271738D01*
G01*
X124150000Y-120478262D01*
G75*
G02*
X123878262Y-120750000I-271738J0D01*
G01*
X123171738Y-120750000D01*
G75*
G02*
X122900000Y-120478262I0J271738D01*
G01*
G37*
G36*
G01*
X120850000Y-120478262D02*
X120850000Y-119521738D01*
G75*
G02*
X121121738Y-119250000I271738J0D01*
G01*
X121828262Y-119250000D01*
G75*
G02*
X122100000Y-119521738I0J-271738D01*
G01*
X122100000Y-120478262D01*
G75*
G02*
X121828262Y-120750000I-271738J0D01*
G01*
X121121738Y-120750000D01*
G75*
G02*
X120850000Y-120478262I0J271738D01*
G01*
G37*
G36*
G01*
X130201738Y-115180000D02*
X131158262Y-115180000D01*
G75*
G02*
X131430000Y-115451738I0J-271738D01*
G01*
X131430000Y-116158262D01*
G75*
G02*
X131158262Y-116430000I-271738J0D01*
G01*
X130201738Y-116430000D01*
G75*
G02*
X129930000Y-116158262I0J271738D01*
G01*
X129930000Y-115451738D01*
G75*
G02*
X130201738Y-115180000I271738J0D01*
G01*
G37*
G36*
G01*
X130201738Y-113130000D02*
X131158262Y-113130000D01*
G75*
G02*
X131430000Y-113401738I0J-271738D01*
G01*
X131430000Y-114108262D01*
G75*
G02*
X131158262Y-114380000I-271738J0D01*
G01*
X130201738Y-114380000D01*
G75*
G02*
X129930000Y-114108262I0J271738D01*
G01*
X129930000Y-113401738D01*
G75*
G02*
X130201738Y-113130000I271738J0D01*
G01*
G37*
G36*
G01*
X123080000Y-125578262D02*
X123080000Y-124621738D01*
G75*
G02*
X123351738Y-124350000I271738J0D01*
G01*
X124058262Y-124350000D01*
G75*
G02*
X124330000Y-124621738I0J-271738D01*
G01*
X124330000Y-125578262D01*
G75*
G02*
X124058262Y-125850000I-271738J0D01*
G01*
X123351738Y-125850000D01*
G75*
G02*
X123080000Y-125578262I0J271738D01*
G01*
G37*
G36*
G01*
X121030000Y-125578262D02*
X121030000Y-124621738D01*
G75*
G02*
X121301738Y-124350000I271738J0D01*
G01*
X122008262Y-124350000D01*
G75*
G02*
X122280000Y-124621738I0J-271738D01*
G01*
X122280000Y-125578262D01*
G75*
G02*
X122008262Y-125850000I-271738J0D01*
G01*
X121301738Y-125850000D01*
G75*
G02*
X121030000Y-125578262I0J271738D01*
G01*
G37*
G36*
G01*
X128121738Y-115205000D02*
X129078262Y-115205000D01*
G75*
G02*
X129350000Y-115476738I0J-271738D01*
G01*
X129350000Y-116183262D01*
G75*
G02*
X129078262Y-116455000I-271738J0D01*
G01*
X128121738Y-116455000D01*
G75*
G02*
X127850000Y-116183262I0J271738D01*
G01*
X127850000Y-115476738D01*
G75*
G02*
X128121738Y-115205000I271738J0D01*
G01*
G37*
G36*
G01*
X128121738Y-113155000D02*
X129078262Y-113155000D01*
G75*
G02*
X129350000Y-113426738I0J-271738D01*
G01*
X129350000Y-114133262D01*
G75*
G02*
X129078262Y-114405000I-271738J0D01*
G01*
X128121738Y-114405000D01*
G75*
G02*
X127850000Y-114133262I0J271738D01*
G01*
X127850000Y-113426738D01*
G75*
G02*
X128121738Y-113155000I271738J0D01*
G01*
G37*
G36*
G01*
X120481738Y-154010000D02*
X121438262Y-154010000D01*
G75*
G02*
X121710000Y-154281738I0J-271738D01*
G01*
X121710000Y-154988262D01*
G75*
G02*
X121438262Y-155260000I-271738J0D01*
G01*
X120481738Y-155260000D01*
G75*
G02*
X120210000Y-154988262I0J271738D01*
G01*
X120210000Y-154281738D01*
G75*
G02*
X120481738Y-154010000I271738J0D01*
G01*
G37*
G36*
G01*
X120481738Y-151960000D02*
X121438262Y-151960000D01*
G75*
G02*
X121710000Y-152231738I0J-271738D01*
G01*
X121710000Y-152938262D01*
G75*
G02*
X121438262Y-153210000I-271738J0D01*
G01*
X120481738Y-153210000D01*
G75*
G02*
X120210000Y-152938262I0J271738D01*
G01*
X120210000Y-152231738D01*
G75*
G02*
X120481738Y-151960000I271738J0D01*
G01*
G37*
G36*
G01*
X126211738Y-115155000D02*
X127168262Y-115155000D01*
G75*
G02*
X127440000Y-115426738I0J-271738D01*
G01*
X127440000Y-116133262D01*
G75*
G02*
X127168262Y-116405000I-271738J0D01*
G01*
X126211738Y-116405000D01*
G75*
G02*
X125940000Y-116133262I0J271738D01*
G01*
X125940000Y-115426738D01*
G75*
G02*
X126211738Y-115155000I271738J0D01*
G01*
G37*
G36*
G01*
X126211738Y-113105000D02*
X127168262Y-113105000D01*
G75*
G02*
X127440000Y-113376738I0J-271738D01*
G01*
X127440000Y-114083262D01*
G75*
G02*
X127168262Y-114355000I-271738J0D01*
G01*
X126211738Y-114355000D01*
G75*
G02*
X125940000Y-114083262I0J271738D01*
G01*
X125940000Y-113376738D01*
G75*
G02*
X126211738Y-113105000I271738J0D01*
G01*
G37*
G36*
G01*
X131540000Y-149381738D02*
X131540000Y-150338262D01*
G75*
G02*
X131268262Y-150610000I-271738J0D01*
G01*
X130561738Y-150610000D01*
G75*
G02*
X130290000Y-150338262I0J271738D01*
G01*
X130290000Y-149381738D01*
G75*
G02*
X130561738Y-149110000I271738J0D01*
G01*
X131268262Y-149110000D01*
G75*
G02*
X131540000Y-149381738I0J-271738D01*
G01*
G37*
G36*
G01*
X133590000Y-149381738D02*
X133590000Y-150338262D01*
G75*
G02*
X133318262Y-150610000I-271738J0D01*
G01*
X132611738Y-150610000D01*
G75*
G02*
X132340000Y-150338262I0J271738D01*
G01*
X132340000Y-149381738D01*
G75*
G02*
X132611738Y-149110000I271738J0D01*
G01*
X133318262Y-149110000D01*
G75*
G02*
X133590000Y-149381738I0J-271738D01*
G01*
G37*
G36*
G01*
X134121738Y-115795000D02*
X135078262Y-115795000D01*
G75*
G02*
X135350000Y-116066738I0J-271738D01*
G01*
X135350000Y-116773262D01*
G75*
G02*
X135078262Y-117045000I-271738J0D01*
G01*
X134121738Y-117045000D01*
G75*
G02*
X133850000Y-116773262I0J271738D01*
G01*
X133850000Y-116066738D01*
G75*
G02*
X134121738Y-115795000I271738J0D01*
G01*
G37*
G36*
G01*
X134121738Y-113745000D02*
X135078262Y-113745000D01*
G75*
G02*
X135350000Y-114016738I0J-271738D01*
G01*
X135350000Y-114723262D01*
G75*
G02*
X135078262Y-114995000I-271738J0D01*
G01*
X134121738Y-114995000D01*
G75*
G02*
X133850000Y-114723262I0J271738D01*
G01*
X133850000Y-114016738D01*
G75*
G02*
X134121738Y-113745000I271738J0D01*
G01*
G37*
G36*
G01*
X102368262Y-134045000D02*
X101411738Y-134045000D01*
G75*
G02*
X101140000Y-133773262I0J271738D01*
G01*
X101140000Y-133066738D01*
G75*
G02*
X101411738Y-132795000I271738J0D01*
G01*
X102368262Y-132795000D01*
G75*
G02*
X102640000Y-133066738I0J-271738D01*
G01*
X102640000Y-133773262D01*
G75*
G02*
X102368262Y-134045000I-271738J0D01*
G01*
G37*
G36*
G01*
X102368262Y-136095000D02*
X101411738Y-136095000D01*
G75*
G02*
X101140000Y-135823262I0J271738D01*
G01*
X101140000Y-135116738D01*
G75*
G02*
X101411738Y-134845000I271738J0D01*
G01*
X102368262Y-134845000D01*
G75*
G02*
X102640000Y-135116738I0J-271738D01*
G01*
X102640000Y-135823262D01*
G75*
G02*
X102368262Y-136095000I-271738J0D01*
G01*
G37*
G36*
G01*
X108485000Y-137658262D02*
X108485000Y-136701738D01*
G75*
G02*
X108756738Y-136430000I271738J0D01*
G01*
X109463262Y-136430000D01*
G75*
G02*
X109735000Y-136701738I0J-271738D01*
G01*
X109735000Y-137658262D01*
G75*
G02*
X109463262Y-137930000I-271738J0D01*
G01*
X108756738Y-137930000D01*
G75*
G02*
X108485000Y-137658262I0J271738D01*
G01*
G37*
G36*
G01*
X106435000Y-137658262D02*
X106435000Y-136701738D01*
G75*
G02*
X106706738Y-136430000I271738J0D01*
G01*
X107413262Y-136430000D01*
G75*
G02*
X107685000Y-136701738I0J-271738D01*
G01*
X107685000Y-137658262D01*
G75*
G02*
X107413262Y-137930000I-271738J0D01*
G01*
X106706738Y-137930000D01*
G75*
G02*
X106435000Y-137658262I0J271738D01*
G01*
G37*
G36*
G01*
X132151738Y-115815000D02*
X133108262Y-115815000D01*
G75*
G02*
X133380000Y-116086738I0J-271738D01*
G01*
X133380000Y-116793262D01*
G75*
G02*
X133108262Y-117065000I-271738J0D01*
G01*
X132151738Y-117065000D01*
G75*
G02*
X131880000Y-116793262I0J271738D01*
G01*
X131880000Y-116086738D01*
G75*
G02*
X132151738Y-115815000I271738J0D01*
G01*
G37*
G36*
G01*
X132151738Y-113765000D02*
X133108262Y-113765000D01*
G75*
G02*
X133380000Y-114036738I0J-271738D01*
G01*
X133380000Y-114743262D01*
G75*
G02*
X133108262Y-115015000I-271738J0D01*
G01*
X132151738Y-115015000D01*
G75*
G02*
X131880000Y-114743262I0J271738D01*
G01*
X131880000Y-114036738D01*
G75*
G02*
X132151738Y-113765000I271738J0D01*
G01*
G37*
G36*
G01*
X141330000Y-147008262D02*
X141330000Y-146051738D01*
G75*
G02*
X141601738Y-145780000I271738J0D01*
G01*
X142308262Y-145780000D01*
G75*
G02*
X142580000Y-146051738I0J-271738D01*
G01*
X142580000Y-147008262D01*
G75*
G02*
X142308262Y-147280000I-271738J0D01*
G01*
X141601738Y-147280000D01*
G75*
G02*
X141330000Y-147008262I0J271738D01*
G01*
G37*
G36*
G01*
X139280000Y-147008262D02*
X139280000Y-146051738D01*
G75*
G02*
X139551738Y-145780000I271738J0D01*
G01*
X140258262Y-145780000D01*
G75*
G02*
X140530000Y-146051738I0J-271738D01*
G01*
X140530000Y-147008262D01*
G75*
G02*
X140258262Y-147280000I-271738J0D01*
G01*
X139551738Y-147280000D01*
G75*
G02*
X139280000Y-147008262I0J271738D01*
G01*
G37*
G36*
G01*
X111550000Y-140498262D02*
X111550000Y-139541738D01*
G75*
G02*
X111821738Y-139270000I271738J0D01*
G01*
X112528262Y-139270000D01*
G75*
G02*
X112800000Y-139541738I0J-271738D01*
G01*
X112800000Y-140498262D01*
G75*
G02*
X112528262Y-140770000I-271738J0D01*
G01*
X111821738Y-140770000D01*
G75*
G02*
X111550000Y-140498262I0J271738D01*
G01*
G37*
G36*
G01*
X109500000Y-140498262D02*
X109500000Y-139541738D01*
G75*
G02*
X109771738Y-139270000I271738J0D01*
G01*
X110478262Y-139270000D01*
G75*
G02*
X110750000Y-139541738I0J-271738D01*
G01*
X110750000Y-140498262D01*
G75*
G02*
X110478262Y-140770000I-271738J0D01*
G01*
X109771738Y-140770000D01*
G75*
G02*
X109500000Y-140498262I0J271738D01*
G01*
G37*
G36*
G01*
X102385000Y-140491738D02*
X102385000Y-141448262D01*
G75*
G02*
X102113262Y-141720000I-271738J0D01*
G01*
X101406738Y-141720000D01*
G75*
G02*
X101135000Y-141448262I0J271738D01*
G01*
X101135000Y-140491738D01*
G75*
G02*
X101406738Y-140220000I271738J0D01*
G01*
X102113262Y-140220000D01*
G75*
G02*
X102385000Y-140491738I0J-271738D01*
G01*
G37*
G36*
G01*
X104435000Y-140491738D02*
X104435000Y-141448262D01*
G75*
G02*
X104163262Y-141720000I-271738J0D01*
G01*
X103456738Y-141720000D01*
G75*
G02*
X103185000Y-141448262I0J271738D01*
G01*
X103185000Y-140491738D01*
G75*
G02*
X103456738Y-140220000I271738J0D01*
G01*
X104163262Y-140220000D01*
G75*
G02*
X104435000Y-140491738I0J-271738D01*
G01*
G37*
G36*
G01*
X127388262Y-149250000D02*
X126431738Y-149250000D01*
G75*
G02*
X126160000Y-148978262I0J271738D01*
G01*
X126160000Y-148271738D01*
G75*
G02*
X126431738Y-148000000I271738J0D01*
G01*
X127388262Y-148000000D01*
G75*
G02*
X127660000Y-148271738I0J-271738D01*
G01*
X127660000Y-148978262D01*
G75*
G02*
X127388262Y-149250000I-271738J0D01*
G01*
G37*
G36*
G01*
X127388262Y-151300000D02*
X126431738Y-151300000D01*
G75*
G02*
X126160000Y-151028262I0J271738D01*
G01*
X126160000Y-150321738D01*
G75*
G02*
X126431738Y-150050000I271738J0D01*
G01*
X127388262Y-150050000D01*
G75*
G02*
X127660000Y-150321738I0J-271738D01*
G01*
X127660000Y-151028262D01*
G75*
G02*
X127388262Y-151300000I-271738J0D01*
G01*
G37*
G36*
G01*
X130561738Y-122270000D02*
X131518262Y-122270000D01*
G75*
G02*
X131790000Y-122541738I0J-271738D01*
G01*
X131790000Y-123248262D01*
G75*
G02*
X131518262Y-123520000I-271738J0D01*
G01*
X130561738Y-123520000D01*
G75*
G02*
X130290000Y-123248262I0J271738D01*
G01*
X130290000Y-122541738D01*
G75*
G02*
X130561738Y-122270000I271738J0D01*
G01*
G37*
G36*
G01*
X130561738Y-120220000D02*
X131518262Y-120220000D01*
G75*
G02*
X131790000Y-120491738I0J-271738D01*
G01*
X131790000Y-121198262D01*
G75*
G02*
X131518262Y-121470000I-271738J0D01*
G01*
X130561738Y-121470000D01*
G75*
G02*
X130290000Y-121198262I0J271738D01*
G01*
X130290000Y-120491738D01*
G75*
G02*
X130561738Y-120220000I271738J0D01*
G01*
G37*
G36*
G01*
X131230000Y-110298262D02*
X131230000Y-109341738D01*
G75*
G02*
X131501738Y-109070000I271738J0D01*
G01*
X132208262Y-109070000D01*
G75*
G02*
X132480000Y-109341738I0J-271738D01*
G01*
X132480000Y-110298262D01*
G75*
G02*
X132208262Y-110570000I-271738J0D01*
G01*
X131501738Y-110570000D01*
G75*
G02*
X131230000Y-110298262I0J271738D01*
G01*
G37*
G36*
G01*
X129180000Y-110298262D02*
X129180000Y-109341738D01*
G75*
G02*
X129451738Y-109070000I271738J0D01*
G01*
X130158262Y-109070000D01*
G75*
G02*
X130430000Y-109341738I0J-271738D01*
G01*
X130430000Y-110298262D01*
G75*
G02*
X130158262Y-110570000I-271738J0D01*
G01*
X129451738Y-110570000D01*
G75*
G02*
X129180000Y-110298262I0J271738D01*
G01*
G37*
D32*
X132770000Y-152240000D03*
G36*
G01*
X133424168Y-154890000D02*
X132115832Y-154890000D01*
G75*
G02*
X131845000Y-154619168I0J270832D01*
G01*
X131845000Y-153860832D01*
G75*
G02*
X132115832Y-153590000I270832J0D01*
G01*
X133424168Y-153590000D01*
G75*
G02*
X133695000Y-153860832I0J-270832D01*
G01*
X133695000Y-154619168D01*
G75*
G02*
X133424168Y-154890000I-270832J0D01*
G01*
G37*
D33*
X147420000Y-107560000D03*
X147420000Y-110160000D03*
D34*
X119308400Y-130868000D03*
X104008400Y-130868000D03*
D35*
X105908400Y-134118000D03*
X106408400Y-134118000D03*
X106908400Y-134118000D03*
X107408400Y-134118000D03*
X107908400Y-134118000D03*
X108408400Y-134118000D03*
X108908400Y-134118000D03*
X109408400Y-134118000D03*
X109908400Y-134118000D03*
X110408400Y-134118000D03*
X110908400Y-134118000D03*
X111408400Y-134118000D03*
X111908400Y-134118000D03*
X112408400Y-134118000D03*
X112908400Y-134118000D03*
X113408400Y-134118000D03*
X113908400Y-134118000D03*
X114408400Y-134118000D03*
X114908400Y-134118000D03*
X115408400Y-134118000D03*
X115908400Y-134118000D03*
X116408400Y-134118000D03*
X116908400Y-134118000D03*
X117408400Y-134118000D03*
M02*
