G04 #@! TF.GenerationSoftware,KiCad,Pcbnew,(5.1.6)-1*
G04 #@! TF.CreationDate,2020-10-17T23:58:27+09:00*
G04 #@! TF.ProjectId,guardianCam_Wifi,67756172-6469-4616-9e43-616d5f576966,rev?*
G04 #@! TF.SameCoordinates,Original*
G04 #@! TF.FileFunction,Copper,L3,Inr*
G04 #@! TF.FilePolarity,Positive*
%FSLAX46Y46*%
G04 Gerber Fmt 4.6, Leading zero omitted, Abs format (unit mm)*
G04 Created by KiCad (PCBNEW (5.1.6)-1) date 2020-10-17 23:58:27*
%MOMM*%
%LPD*%
G01*
G04 APERTURE LIST*
G04 #@! TA.AperFunction,ViaPad*
%ADD10O,1.100000X2.200000*%
G04 #@! TD*
G04 #@! TA.AperFunction,ViaPad*
%ADD11O,1.300000X2.600000*%
G04 #@! TD*
G04 #@! TA.AperFunction,ViaPad*
%ADD12C,1.500000*%
G04 #@! TD*
G04 #@! TA.AperFunction,ViaPad*
%ADD13O,1.750000X1.200000*%
G04 #@! TD*
G04 #@! TA.AperFunction,ViaPad*
%ADD14C,0.600000*%
G04 #@! TD*
G04 #@! TA.AperFunction,ViaPad*
%ADD15C,1.200000*%
G04 #@! TD*
G04 #@! TA.AperFunction,ViaPad*
%ADD16C,1.000000*%
G04 #@! TD*
G04 #@! TA.AperFunction,ViaPad*
%ADD17C,0.800000*%
G04 #@! TD*
G04 #@! TA.AperFunction,Conductor*
%ADD18C,3.000000*%
G04 #@! TD*
G04 #@! TA.AperFunction,Conductor*
%ADD19C,1.000000*%
G04 #@! TD*
G04 APERTURE END LIST*
D10*
X141000000Y-149250000D03*
X149640000Y-149250000D03*
D11*
X141000000Y-154610000D03*
X149640000Y-154610000D03*
D12*
X147290000Y-136890000D03*
X144750000Y-136890000D03*
X131620000Y-139500000D03*
X149830000Y-139420000D03*
X147290000Y-139430000D03*
X144750000Y-139430000D03*
X149830000Y-136890000D03*
X124000000Y-139500000D03*
X126540000Y-139500000D03*
X129080000Y-139500000D03*
D13*
X132770000Y-152240000D03*
G04 #@! TA.AperFunction,ViaPad*
G36*
G01*
X133395001Y-154840000D02*
X132144999Y-154840000D01*
G75*
G02*
X131895000Y-154590001I0J249999D01*
G01*
X131895000Y-153889999D01*
G75*
G02*
X132144999Y-153640000I249999J0D01*
G01*
X133395001Y-153640000D01*
G75*
G02*
X133645000Y-153889999I0J-249999D01*
G01*
X133645000Y-154590001D01*
G75*
G02*
X133395001Y-154840000I-249999J0D01*
G01*
G37*
G04 #@! TD.AperFunction*
D14*
X145370000Y-125830000D03*
X149970000Y-144480000D03*
X141830000Y-128550000D03*
X139820000Y-128510000D03*
X141840000Y-126290000D03*
X139830000Y-126350000D03*
D15*
X102080000Y-130870000D03*
X121180000Y-130880000D03*
D14*
X140220000Y-108570000D03*
X133110000Y-136330000D03*
X118390000Y-154770000D03*
X142870000Y-137830000D03*
X102780000Y-143290000D03*
X110320000Y-137420000D03*
X106460000Y-135950000D03*
X139950000Y-139500000D03*
X133500000Y-138450000D03*
X149870000Y-126180000D03*
X149880000Y-128180000D03*
X112270000Y-131220000D03*
X111270000Y-131270000D03*
X116230000Y-111310000D03*
X116110000Y-116220000D03*
X147490000Y-118420000D03*
X149720000Y-119770000D03*
X146600000Y-120200000D03*
X114520000Y-141840000D03*
X129450000Y-112570000D03*
X136140000Y-115370000D03*
X125630000Y-114910000D03*
X105430000Y-132420000D03*
X106710000Y-142290000D03*
X118470000Y-151440000D03*
X119310000Y-151420000D03*
X118480000Y-152230000D03*
X119330000Y-152230000D03*
X122480000Y-123100000D03*
X129700000Y-111700000D03*
X120190000Y-118840000D03*
X140030000Y-111240000D03*
X144150000Y-131330000D03*
X130700000Y-112210000D03*
X123400000Y-112570000D03*
X121500000Y-123250000D03*
X131730000Y-112130000D03*
X120260000Y-116380000D03*
X123590000Y-114970000D03*
X122490000Y-120980000D03*
X124690000Y-118750000D03*
D16*
X104400001Y-125749999D03*
D17*
X116320000Y-142590000D03*
X113580000Y-142590000D03*
D14*
X124720000Y-123190000D03*
X135300000Y-124410000D03*
X107530000Y-142590000D03*
X110590000Y-132410000D03*
X140730000Y-121810000D03*
X146300000Y-130400000D03*
X146290000Y-133140000D03*
X143850000Y-133710000D03*
X121270000Y-114380000D03*
X129710000Y-141740000D03*
X147400000Y-119350000D03*
X150960000Y-118710000D03*
X124630000Y-111460000D03*
X131020000Y-107600000D03*
X122840000Y-111760000D03*
X118250000Y-134650000D03*
X107920000Y-135950000D03*
X130180000Y-108070000D03*
X108750000Y-135760000D03*
X120150000Y-138470000D03*
X120220000Y-112050000D03*
X111100000Y-136330000D03*
X110580000Y-138280000D03*
X119550000Y-137820000D03*
X121270000Y-135590000D03*
X120150000Y-127650000D03*
X124380000Y-131663119D03*
X119870000Y-126960000D03*
X117460000Y-126940000D03*
X129110000Y-118690000D03*
X130010000Y-117650000D03*
X121850000Y-111780000D03*
X141190000Y-135040000D03*
X140860000Y-133770000D03*
X134620000Y-133150000D03*
X131695000Y-130045000D03*
X139050000Y-134500000D03*
X139400000Y-133240000D03*
X131710001Y-132619999D03*
X130320000Y-130060000D03*
X132965000Y-129905000D03*
X139430390Y-132510631D03*
X134310000Y-132070000D03*
X138860000Y-131970000D03*
X132630233Y-131909767D03*
X131770000Y-133590000D03*
X137081516Y-124431516D03*
X126545233Y-120744767D03*
X124510000Y-108330000D03*
X136020000Y-125820000D03*
X126229717Y-122840283D03*
X136470000Y-129290000D03*
X136040000Y-126670000D03*
X122980000Y-107810000D03*
X136490000Y-125150000D03*
X132310000Y-123580000D03*
X130810000Y-119540000D03*
X125420000Y-127700000D03*
X126740000Y-121530000D03*
X138420000Y-111510000D03*
X135610000Y-112930000D03*
X132390000Y-107280000D03*
X132235248Y-122853835D03*
X148600000Y-119470000D03*
X149650000Y-121810000D03*
X134780000Y-131000000D03*
X128100000Y-121550000D03*
X113480000Y-119370000D03*
X128100000Y-122280003D03*
X111790000Y-120040000D03*
X124880000Y-127138243D03*
X110690000Y-122510000D03*
X128240000Y-123370283D03*
X108490000Y-119320000D03*
X125580000Y-117610000D03*
X109170000Y-114930000D03*
X125600000Y-118410000D03*
X107670000Y-115050000D03*
X138840000Y-147980000D03*
X134410000Y-140440000D03*
X138750000Y-146690000D03*
D17*
X116570000Y-151380000D03*
X114710000Y-148830000D03*
D14*
X135520000Y-140520000D03*
X136500000Y-141630000D03*
X144067610Y-151457610D03*
X146580000Y-151430000D03*
D17*
X139870000Y-152240000D03*
D14*
X139570000Y-145100000D03*
X146260000Y-143150000D03*
X138360000Y-140290000D03*
D18*
X120226402Y-141250000D02*
X127350000Y-134126402D01*
X127350000Y-134126402D02*
X127350000Y-126790000D01*
X127350000Y-126790000D02*
X127350000Y-126690000D01*
X127350000Y-126790000D02*
X131993598Y-126790000D01*
X131993598Y-126790000D02*
X135181799Y-123601799D01*
X135181799Y-123601799D02*
X137530000Y-121253598D01*
X120226402Y-141250000D02*
X120170000Y-141250000D01*
X120170000Y-141250000D02*
X118830000Y-142590000D01*
X118830000Y-142590000D02*
X118830000Y-151840000D01*
X129299999Y-113690001D02*
X129299999Y-113610001D01*
X127323032Y-126790000D02*
X124299716Y-123766684D01*
X129299999Y-113610001D02*
X130700000Y-112210000D01*
X124299716Y-123766684D02*
X124299716Y-123719716D01*
X127350000Y-126790000D02*
X127323032Y-126790000D01*
X124299716Y-123719716D02*
X123760000Y-123180000D01*
X129299999Y-113610001D02*
X126029999Y-113610001D01*
X123649999Y-115990001D02*
X123649999Y-123069999D01*
X126029999Y-113610001D02*
X123649999Y-115990001D01*
X104400001Y-139460001D02*
X104400001Y-125749999D01*
X107530000Y-142590000D02*
X104400001Y-139460001D01*
X118830000Y-142590000D02*
X116320000Y-142590000D01*
X116320000Y-142590000D02*
X113580000Y-142590000D01*
X113580000Y-142590000D02*
X107530000Y-142590000D01*
X123760000Y-123180000D02*
X123649999Y-123069999D01*
X137530000Y-121253598D02*
X137530000Y-114230000D01*
D19*
X135100000Y-138373598D02*
X131733598Y-141740000D01*
X135100000Y-136600000D02*
X135100000Y-138373598D01*
X138573597Y-135399999D02*
X136300001Y-135399999D01*
X146290000Y-133140000D02*
X144420000Y-133140000D01*
X141290000Y-136270000D02*
X139443598Y-136270000D01*
X126240000Y-141740000D02*
X124000000Y-139500000D01*
X136300001Y-135399999D02*
X135100000Y-136600000D01*
X139443598Y-136270000D02*
X138573597Y-135399999D01*
X144420000Y-133140000D02*
X144390000Y-133140000D01*
X146290000Y-133140000D02*
X149670000Y-133140000D01*
X149670000Y-133140000D02*
X150960000Y-131850000D01*
X150960000Y-117860000D02*
X150090000Y-116990000D01*
X144420000Y-133140000D02*
X143850000Y-133710000D01*
X143850000Y-133710000D02*
X141290000Y-136270000D01*
X131733598Y-141740000D02*
X129710000Y-141740000D01*
X129710000Y-141740000D02*
X126240000Y-141740000D01*
X150960000Y-131850000D02*
X150960000Y-118710000D01*
X150960000Y-118710000D02*
X150960000Y-117860000D01*
D18*
X126029999Y-113419999D02*
X125710000Y-113100000D01*
X126029999Y-113610001D02*
X126029999Y-113419999D01*
X125710000Y-113100000D02*
X125710000Y-110480000D01*
D19*
X146580000Y-151430000D02*
X140680000Y-151430000D01*
X140680000Y-151430000D02*
X139870000Y-152240000D01*
M02*
